<svg xmlns="http://www.w3.org/2000/svg" width="1084" height="1282.88" viewBox="0 0 1084 1282.88"><g id="Layer_2" data-name="Layer 2"><g id="Layer_1-2" data-name="Layer 1"><ellipse id="head" cx="542" cy="641.44" rx="540" ry="639.44" fill="#6aff7f" stroke="#231f20" stroke-miterlimit="10" stroke-width="4"/><path id="eyeback" d="M164.53,715.65c-39.2-66.59-29-134.17-23.74-169.28,6.18-41,20.84-138.41,90.38-164.68,37.33-14.1,73.17-1.17,82,2.3C391,414.77,423.4,525.25,414.66,609c-9,86.18-66.94,195.06-139.44,194.95C216.45,803.83,174.24,732.14,164.53,715.65Z" opacity="0.42"/><ellipse id="eyes" cx="274.53" cy="587.46" rx="129.87" ry="207.14" fill="#fff"/><path id="eyeback-2" data-name="eyeback" d="M714.26,715.65c-39.21-66.59-29-134.17-23.75-169.28,6.18-41,20.85-138.41,90.39-164.68,37.33-14.1,73.17-1.17,82,2.3,77.84,30.78,110.27,141.26,101.53,225C955.4,695.14,897.44,804,825,803.91,766.17,803.83,724,732.14,714.26,715.65Z" opacity="0.42"/><ellipse id="eyes-2" data-name="eyes" cx="825.53" cy="587.46" rx="129.87" ry="207.14" fill="#fff"/><path id="shade1" d="M9.55,663.06c-1.38-.06-1.07-31.07-1-35.75.48-46.86,5.14-88,9.19-112.34,16.12-96.9,68.57-205,70.47-204.26C89.85,311.39,44.1,391,23.85,515,11.58,590.09,11.68,663.15,9.55,663.06Z" fill="#fff" opacity="0.3"/><path id="shade2" d="M182.15,178c-.09-.12,95.28-116.1,242-153.19,179.13-45.28,349.11,48.61,349.28,48,.11-.42-80.74-39.28-198.12-42.25-45.59-1.16-149.24,1.77-261.46,56.55C229.91,128.05,182.21,178,182.15,178Z" fill="#fff" opacity="0.4"/><path id="eyetop" d="M306.06,392.76c.33-.44,31.39,13.58,52.77,44.21,16.48,23.62,22.14,49.84,29.62,84.47,3.86,17.89,6.73,37,6.12,37.1s-3.49-14.84-7.56-30.62c-10.07-39-19.92-77.28-48.1-108.18C322.22,401.42,305.82,393.08,306.06,392.76Z" opacity="0.14"/><path id="eyetop-2" data-name="eyetop" d="M859.44,392.76c.32-.44,31.38,13.58,52.76,44.21,16.49,23.62,22.15,49.84,29.62,84.47,3.86,17.89,6.73,37,6.13,37.1s-3.5-14.84-7.57-30.62c-10.07-39-19.92-77.28-48.09-108.18C875.59,401.42,859.19,393.08,859.44,392.76Z" opacity="0.14"/></g></g></svg>