<svg xmlns="http://www.w3.org/2000/svg" width="1200.61" height="1838.22" viewBox="0 0 1200.61 1838.22"><g id="Layer_2" data-name="Layer 2"><g id="Layer_1-2" data-name="Layer 1"><path d="M723.24,1334.13c156.92,11.95,432.2,12.36,456-142.33a513.46,513.46,0,0,0,5.37-65.66c3.6-154.57-46.38-360.34-107.79-410.73C1041.74,686.66,976.52,678,905,684.87c-142.24,13.61-309.76,88.16-316.21,187C582.47,966.9,566.32,1322.19,723.24,1334.13Z" fill="#fff"/><g opacity="0.35"><path d="M723.24,1334.13c156.92,11.95,432.2,12.36,456-142.33a513.46,513.46,0,0,0,5.37-65.66c-44.89,32.21-104-.81-109.49-42.85C1041.41,823.78,949.85,720.74,905,684.87c-142.24,13.61-309.76,88.16-316.21,187C582.47,966.9,566.32,1322.19,723.24,1334.13Z" fill="#371a45"/></g><path d="M840.28,1354.86c-39.8,0-79.79-1.84-118.24-4.77-156.48-11.92-160.7-305.43-149.28-479.32,3.93-59.87,57.9-115.29,152-156.08,118.44-51.35,290.6-70.4,362.22-11.65h0c80.85,66.33,131,341.7,108.08,491.19C1175.53,1321.21,1010.06,1354.86,840.28,1354.86ZM949.16,698.44c-64.62,0-142.39,15.56-211.7,45.61-81.32,35.26-129.71,82.21-132.77,128.81-6.68,101.82-17.8,434.84,119.77,445.32,154.74,11.78,417.52,10.7,438.94-128.8,22.89-149.11-31.35-408-96.75-461.6h0C1042.6,708.05,999.94,698.44,949.16,698.44Z" fill="#371a45"/><path d="M1049.91,975.55l71-24.73a28.22,28.22,0,0,1,36.92,20.72c12.17,57.16,29.59,175.29-28.34,196.77-70.19,26-91.13-54.54-98.44-164.3A28.19,28.19,0,0,1,1049.91,975.55Z" fill="#fff"/><g opacity="0.35"><path d="M1031.16,1003.84c7,109.77,27.81,190.42,98.06,164.52,28.86-10.59,39.1-45.23,40.59-84.37-6.24,11-14.86,19.26-26.61,23.57-62.89,23.15-86.14-39.06-95.32-131.19A27.93,27.93,0,0,0,1031.16,1003.84Z" fill="#371a45"/></g><path d="M1104.61,1189.26a60.06,60.06,0,0,1-33.39-9.79c-32.78-21.33-49.55-73.55-56.05-174.59a44.3,44.3,0,0,1,29.7-44.56l71-24.58a44.22,44.22,0,0,1,57.76,32.63c17.89,85,25.66,191.24-38.91,215Q1118.79,1189.25,1104.61,1189.26Zm25.78-224a12.28,12.28,0,0,0-4,.7l-71,24.58a12.2,12.2,0,0,0-8.23,12.26c2,31.7,8.24,128.15,41.57,149.83,9,5.84,20.43,6.08,35,.71,38.47-14.16,34.86-101.44,18.66-178.4a12,12,0,0,0-5.91-8.06A12.33,12.33,0,0,0,1130.39,965.28Zm-80.29,10.16h0Z" fill="#371a45"/><path d="M1097.27,746.21a135.44,135.44,0,0,1-24.89,9.89c-8.53,2.63-17.35,4.47-26.18,6.34s-17.73,3.51-26.72,5-18.09,2.75-27.47,3.48a2.26,2.26,0,0,1-2.43-2.06,2.3,2.3,0,0,1,.81-1.91,229.05,229.05,0,0,1,22.75-16.22c7.82-4.87,15.78-9.48,23.86-13.72a244.29,244.29,0,0,1,24.66-11.7,125,125,0,0,1,26.16-7.57,15.21,15.21,0,0,1,9.6,28.4Z" fill="#371a45"/><path d="M810.68,1267.75l-57.86-17.57c-65.3-19.84-136.21-16.54-198.14,11.78-21.46,9.81-42.19,22.73-59.34,39.74-62.68,62.16-64.44,187-21.88,237.57,16.78,20,34.82,42.1,34.82,42.1-11.92,17.08-94,155.67-28,210.77,57.88,48.25,164.7,40.33,221-35.55,37.19-50.16,44.74-108,42.63-152.24-2.47-51.71-28.74-121.51,14-139.71,63.8-27.12,121.74-12.09,214-82.61,108-82.53,124.85-260.29,76.89-410.57-34.5-108.08-244.46-312.73-244.46-312.73l66.24,607.76Z" fill="#fff"/><path d="M484.78,1001.54,273.54,1193.86l-2.2-3.52-90.52-145.76c106.88-45.52,173.32-180.8,173.32-180.8l8.48,9Z" fill="#fff"/><g opacity="0.35"><path d="M484.78,1001.54,273.54,1193.86l-2.2-3.52c61-93.6,84.44-257.36,91.28-317.6Z" fill="#371a45"/></g><path d="M270.07,1218.65,157.41,1037.17l17.16-7.31C274.8,987.16,339.16,858,339.8,856.73L350,836.09,507.61,1002.4Zm-66.2-167.31L277,1169.09l185-168.37L357.7,890.78C335.78,928.69,281.75,1010.57,203.87,1051.34Z" fill="#371a45"/><path d="M245.78,1024.25S119.18,910.36,38.54,879.83L16,932.72,185.08,1099.2Z" fill="#fff"/><path d="M185.08,1115.2a16,16,0,0,1-11.23-4.6L4.77,944.12a16,16,0,0,1-3.49-17.67l22.55-52.89a16,16,0,0,1,20.38-8.69c82.5,31.23,207,142.75,212.27,147.48a16,16,0,0,1,1.73,22l-60.7,75a16,16,0,0,1-11.53,5.91ZM35,929l148.75,146.46,39.92-49.29C193.43,1000,109.43,929.88,47,900.79Z" fill="#371a45"/><path d="M369.77,714.22c63.6,253.58-11.67,485.56-11.67,485.56C111.85,1288.23,246.21,1531,246.21,1531s-169.79,98.23-89.74,196.39c69.7,85.48,303.81-12.73,315.13-137.43,0,0-40.27-126.59,22.16-170" fill="#fff"/><path d="M1074.22,1138.7c-1.36,98.64-33.2,190.48-102.28,243.32-92.24,70.52-150.16,55.48-214,82.6-21.88,9.32-25.72,32.08-23.88,59-2.6,30.16,8.28,70.56,9.84,103.72,0,.64,0,1.28.08,1.92-1.64,39.72-12.16,86.12-42.72,127.28-54.32,73.24-155.76,83.16-214.76,40.32-2.12-1.52-4.2-3.12-6.2-4.8-15.36-12.76-22.72-30.08-24.8-49.28,4.56-49.48,32-103.76,46-127.92,3-5.2,5.4-9,6.8-11.08,0,0-3.08-3.88-7.88-9.84-3.64-4.56-8.28-10.32-13.36-16.6-4.36-5.4-9-11.12-13.6-16.68a99.17,99.17,0,0,1-12.16-19.16,312.13,312.13,0,0,0,10.32,48.4c-11.32,124.72-245.44,222.92-315.16,137.44-12.68-15.52-19.08-31-20.88-46.16C125.86,1600.62,246.22,1531,246.22,1531s-67-121-19.72-223.24c19.68-42.6,59.2-82,131.6-108,0,0,17.8-54.84,28.76-140.36,2.8-21.92,5.16-45.84,6.68-71.36a965.64,965.64,0,0,0-3.4-157.92L804.38,658.7l.6.6.76.76,1,1c.36.4.76.8,1.24,1.24,2.12,2.16,5.12,5.2,8.92,9.12,17.68,18.2,52.16,54.44,89.48,97.48,58.8,67.8,124.52,152.44,142.52,210.2,5.16,16.52,9.56,33.4,13.16,50.44A547.94,547.94,0,0,1,1074.22,1138.7Z" fill="#fff"/><path d="M464.16,1442.14a12,12,0,0,1-11.44-8.39c-43.26-136.8-223.33-113-225.14-112.8a12,12,0,1,1-3.35-23.76c2-.27,202.06-26.62,251.37,129.33a12,12,0,0,1-11.44,15.62Z" fill="#371a45"/><path d="M390.14,830.16l-20.36-116A838.91,838.91,0,0,1,390.14,830.16Z" fill="#fff"/><path d="M238.43,1775.6c-40.61,0-73.89-13-94.36-38.09-21-25.7-28.84-53.78-23.4-83.44,11.12-60.79,76.6-110.16,104.78-128.89-15.78-34.08-51-126-18.74-211.55,21.35-56.66,67.87-99,138.34-126.07,11.72-41,64.69-248.21,9.2-469.45a16,16,0,0,1,31-7.78c64,255.1-8.84,484.74-12,494.39l-2.42,7.47-7.39,2.65c-65.46,23.51-108.12,60.49-126.79,109.91-34.53,91.36,22.91,197.47,23.5,198.53l7.55,13.72-13.55,7.86c-.9.52-90.84,53.37-102.09,115-3.7,20.28,1.78,39.06,16.74,57.41,22.72,27.87,73.25,34,131.88,16.11,71.37-21.83,146.63-77.34,154.6-141.91-6.35-21.76-36.67-138.81,29.29-184.61a16,16,0,0,1,18.25,26.28c-43.13,29.95-26.2,119.86-16,152l1,3.07-.29,3.21C479.94,1675,390.24,1739.49,310.11,1764,284.65,1771.78,260.46,1775.6,238.43,1775.6Zm119.68-575.82h0Z" fill="#371a45"/><path d="M822.82,1215.9,775,1256.54,265.7,1024.26s34.6-20.32,128.48-48c62.68-18.48,151.8-40.24,274.72-61.44l26.84,52.48Z" fill="#fff"/><path d="M777.58,1275.33,231.06,1026l26.56-15.57c4-2.37,102.28-58.53,408.57-111.34l11.61-2,165,322.78ZM304.11,1024.17l468.25,213.6,30.44-25.87L660,932.67C459,968,351.43,1004.78,304.11,1024.17Z" fill="#371a45"/><polygon points="433.37 1343.16 785.1 1253.98 639.43 967.8 287.7 1044.58 433.37 1343.16" fill="#73befd"/><polygon points="433.37 1343.16 785.1 1253.98 639.43 967.8 287.7 1044.58 433.37 1343.16" fill="#73befd"/><g opacity="0.35"><path d="M769.1,1294l-269.92,68.44c-3.2,62.32-8.76,168.56-12.12,215-4.36-5.4-9-11.12-13.6-16.68a99.17,99.17,0,0,1-12.16-19.16,312.13,312.13,0,0,0,10.32,48.4c-11.32,124.72-245.44,222.92-315.16,137.44-12.68-15.52-19.08-31-20.88-46.16,56,80.6,216,4.64,244-20.88,30.48-27.76,34.56-42.6,15.48-147.44-10.32-56.64,3.88-99.4,25-130.44l-2.68.68h-53.2l-114.48-41-23.2-34.36c19.68-42.6,59.2-82,131.6-108,0,0,17.8-54.84,28.76-140.36l236.56-51.64Z" fill="#371a45"/></g><polygon points="785.1 1253.98 433.38 1343.14 423.7 1323.34 287.7 1044.58 639.42 967.78 672.9 1033.54 785.1 1253.98" fill="#1f9fff"/><g opacity="0.7"><path d="M338.82,1093.31,442.26,1340.9l-8.88,2.24-9.68-19.8-136-278.76,351.72-76.8,6,11.68-288.77,77.61A26.81,26.81,0,0,0,338.82,1093.31Z" fill="#fff"/></g><g opacity="0.35"><path d="M785.1,1254l-351.72,89.16-9.68-19.8c6-80.4,172.28-121.64,172.28-121.64-28.6-101.48,48.84-153.12,76.92-168.16Z" fill="#371a45"/></g><path d="M433.37,1358.16a15,15,0,0,1-13.48-8.42L274.22,1051.15a15,15,0,0,1,10.28-21.23l351.73-76.78A15,15,0,0,1,652.8,961l145.67,286.18a15,15,0,0,1-9.68,21.34L437.06,1357.7A14.63,14.63,0,0,1,433.37,1358.16Zm-123.82-303,132,270.46,321.71-81.57L631.32,984.92Z" fill="#371a45"/><polygon points="287.7 1044.58 220.63 1045.1 380.17 1343.16 433.37 1343.16 287.7 1044.58" fill="#1f9fff"/><g opacity="0.7"><polygon points="301.78 1073.42 236.06 1073.94 220.62 1045.1 287.7 1044.58 301.78 1073.42" fill="#fff"/></g><path d="M433.37,1358.16h-53.2a15,15,0,0,1-13.22-7.92L207.4,1052.17a15,15,0,0,1,13.11-22.07l67.07-.52a15.25,15.25,0,0,1,13.6,8.42l145.67,298.59a15,15,0,0,1-13.48,21.57Zm-44.21-30h20.2l-131-268.51-32.79.25Z" fill="#371a45"/><polygon points="380.18 1343.14 265.7 1302.1 219.38 1233.54 190.98 1191.54 117.98 1083.62 15.98 932.7 220.62 1045.1 379.14 1341.18 380.18 1343.14" fill="#1f9fff"/><g opacity="0.7"><polygon points="380.18 1343.14 359.06 1335.58 203.38 1064.98 41.94 971.1 15.98 932.7 220.62 1045.1 379.14 1341.18 380.18 1343.14" fill="#fff"/></g><path d="M380.17,1358.16a15.06,15.06,0,0,1-5.06-.88l-114.46-41.06a15.08,15.08,0,0,1-7.36-5.72L3.57,941.12a15,15,0,0,1,19.65-21.54L227.85,1032a15,15,0,0,1,6,6.07L393.4,1336.08a15,15,0,0,1-13.23,22.08ZM275.4,1289.64l73.16,26.24-139-259.78L63.2,975.76Z" fill="#371a45"/><path d="M220.63,1045.1s1.18-37.17,31.43-41.49c25-3.58,42.62,39.44,42.62,39.44Z" fill="#371a45"/><path d="M1074.22,1135.82c0,1,0,1.92,0,2.88-1.36,98.64-33.2,190.48-102.28,243.32-92.24,70.52-150.16,55.48-214,82.6-21.88,9.32-25.72,32.08-23.88,59,1.72,25.8,8.6,55.4,9.84,80.68.36,7.92.44,16.28.08,25-1.64,39.72-12.16,86.12-42.72,127.28-56.28,75.88-163.08,83.8-221,35.52-15.36-12.76-22.72-30.08-24.8-49.28-.08-.64-.12-1.32-.16-2-4.76-52.32,28.28-118.24,45-146.88,3.52-6,6.32-10.4,7.88-12.64,0,0-18-22.12-34.84-42.08-42.56-50.6-40.8-175.4,21.88-237.6,17.16-17,37.88-29.92,59.36-39.72a272,272,0,0,1,104.68-24.24,288.88,288.88,0,0,1,93.44,12.44l57.88,17.6,59.92-1.28L841,994.82c14.28-14.08,25.56-36.56,23.72-71.52l-7.6-36.76L820.86,711.38l-2.64-12.64s47.84,36.56,101.48,92c52.52,54.2,110.6,126.48,135,200.24a.89.89,0,0,0,.12.4c3.84,13.68,7.08,27.56,9.76,41.52A520,520,0,0,1,1074.22,1135.82Z" fill="#fff"/><g opacity="0.35"><path d="M1074.22,1135.82c0,1,0,1.92,0,2.88-1.36,98.64-33.2,190.48-102.28,243.32-92.24,70.52-150.16,55.48-214,82.6-21.88,9.32-25.72,32.08-23.88,59,1.72,25.8,8.6,55.4,9.84,80.68.36,7.92.44,16.28.08,25-1.64,39.72-12.16,86.12-42.72,127.28-56.28,75.88-163.08,83.8-221,35.52-15.36-12.76-22.72-30.08-24.8-49.28-.08-.64-.12-1.32-.16-2,61,51,165.2,68.68,223-38.88,66-123.08-8.88-173.44-10.4-232.4s107.48-44.2,264.44-116.2C1025.34,1310.78,1060.78,1210.5,1074.22,1135.82Z" fill="#371a45"/></g><path d="M809.13,1272.86c-13.55-1.73-26.89-4.1-40.16-6.73-6.65-1.28-13.28-2.64-19.85-4.13-6.36-1.22-12.67-2.49-19-3.5a331.07,331.07,0,0,0-76.19-3.81A281.43,281.43,0,0,0,580,1270.23c-23.68,8.49-46.47,20.12-65.14,35.78A105.42,105.42,0,0,0,502,1318.66c-1.93,2.26-4.13,4.27-5.88,6.72l-5.25,7.35-2.64,3.67-2.25,4-4.53,7.93c-2.7,5.5-5.25,11.13-7.57,16.84a217.51,217.51,0,0,0-13.39,73.42c-.41,25,4.16,50.21,13.61,71.82,2.85,5,5.23,10.42,8.74,14.6l2.4,3.38c.78,1.13,2.07,2.56,3.08,3.82l6.47,7.81,25.86,31.26,7.59,9.18-6.87,10.09c-2.2,3.21-4.72,7.35-7,11.27s-4.61,8.07-6.82,12.19q-6.65,12.33-12.44,25.11c-7.66,17-14.28,34.43-18.72,52s-6.9,35.45-4.73,51.66a63.87,63.87,0,0,0,6.8,22.12,50.18,50.18,0,0,0,14.65,16.79c26.51,20.71,63.51,28,98.06,23,34.9-4.72,67.4-22.79,90.23-49.17,2.72-3.44,5.7-6.59,8.27-10.24s5.2-7.29,7.46-11.16a191.94,191.94,0,0,0,12.58-23.72A215.11,215.11,0,0,0,725,1658.59a256.4,256.4,0,0,0,2.92-54.56c-1-17.78-4.6-36.72-7.29-56.41a285.71,285.71,0,0,1-2.83-30.72c-.16-10.7.15-22.05,4.19-34.28a56.16,56.16,0,0,1,9.66-17.77,51.54,51.54,0,0,1,16.32-13.11c1.44-.69,3.19-1.6,4.4-2.07l3.66-1.42,7.31-2.84c4.9-1.72,9.85-3.28,14.78-4.81,19.79-5.71,39.3-9.11,57.82-13.17s36.26-8.84,53.27-15.66a277.12,277.12,0,0,0,48.79-25.5c7.88-4.82,15.3-10.51,22.87-15.93,3.69-2.76,7-5.65,10.55-8.46,3.27-3.08,6.69-6,9.86-9.18,25.52-25.4,44.44-57.54,56.58-92.33s18.44-72,20-109.43a497.8,497.8,0,0,0-8.49-112.22,527.1,527.1,0,0,0-13.42-54.85l-2.05-6.75c-.71-2.19-1.48-4.15-2.21-6.24-1.33-4.12-3.31-8.24-5-12.37s-4-8.21-5.95-12.32L1014,934c-18.65-32.36-41.54-63.23-65.5-93.08-48.37-59.76-104.78-112.27-147.83-178.36a5.47,5.47,0,0,1,7.45-7.64c17.12,10.45,32.43,22.73,47.26,35.57s28.64,26.65,42.18,40.76c27.07,28.25,51.44,59,76,89.61s48.11,62.33,68.23,97.28l7.29,13.35c2.23,4.63,4.6,9.13,6.7,13.89s4.24,9.47,5.94,14.58c.87,2.49,1.85,5.06,2.63,7.49l2.18,7.17a559.57,559.57,0,0,1,14.23,58.19,530.41,530.41,0,0,1,9,119.47c-1.68,40.07-8.27,80.31-21.81,118.77s-34.64,75-64.24,104.41c-3.67,3.69-7.63,7.1-11.44,10.65-4,3.24-8.08,6.7-12.16,9.75-8.19,5.89-16.2,12-24.87,17.34A310.49,310.49,0,0,1,901,1441.5c-19,7.64-38.92,13.06-58.29,17.19s-38.17,7.56-55.69,12.63c-4.33,1.36-8.64,2.71-12.89,4.2L767.9,1478l-3.13,1.21c-1,.41-1.42.7-2.18,1-5.11,2.7-8.09,6.29-10.3,12.63s-2.74,14.63-2.54,23.25a254.93,254.93,0,0,0,2.55,27.22c2.51,18.76,6.3,38,7.53,59a287.31,287.31,0,0,1-3.3,61.48c-6.61,40.74-23.22,80.54-50.92,112.68-27.87,32.26-67.63,54.17-109.82,59.9a176.82,176.82,0,0,1-63.64-2.28c-20.93-4.69-41.33-13.58-58.75-27.19l-3.32-2.47-3.3-3a56.4,56.4,0,0,1-6.27-6.47,60.61,60.61,0,0,1-5.53-7.15,64.75,64.75,0,0,1-4.69-7.69,96.1,96.1,0,0,1-10.35-33.15c-2.87-22.44.54-43.61,5.43-63.64,5.08-20.06,12.34-39,20.61-57.4q6.24-13.77,13.39-27.05,3.57-6.64,7.4-13.21c2.63-4.43,5.12-8.61,8.39-13.41l.72,19.27-25.62-31-6.41-7.74c-1.09-1.36-2.08-2.42-3.26-4l-3.51-4.81c-5-6.31-8.24-13.23-11.94-20-2.71-7-6-13.88-7.8-21-1-3.55-2.16-7.09-3-10.66l-2.16-10.74a92.56,92.56,0,0,1-1.66-10.77l-1.27-10.79c-.28-7.19-.89-14.41-.72-21.59a249.4,249.4,0,0,1,15.5-84.64c2.75-6.73,5.64-13.46,8.83-20l5.36-9.67,2.69-4.82,3.17-4.59,6.41-9.13c2.15-3,4.86-5.71,7.28-8.57s4.91-5.75,7.59-8.3,5.37-5.08,8.14-7.51c22.32-19.38,47.94-33.3,74.76-43.2a270.87,270.87,0,0,1,41.31-11.65,298.53,298.53,0,0,1,42.53-4.93c28.47-.83,57.11,2,84.19,10.24,6.82,1.81,13.43,4.35,20,6.75,6.3,2.42,12.55,5,18.79,7.61,12.49,5.2,24.9,10.65,37.12,16.75a5.41,5.41,0,0,1-3.1,10.21Z" fill="#371a45"/><g opacity="0.35"><path d="M1066,1069.5a155.27,155.27,0,0,1-8.12,41.08c-37.24,107.76-167.8,171.48-268.8,171.48-60.76,0-99.84-10.24-129.72-44.36a161.59,161.59,0,0,1-15.08-20.48c-35.12-55.92-17.4-130.2,57-165,6-2.84,19.16-4.36,19.16-4.36l-20.72-40.48-6.92-13.56s9.84,2.24,23.8,5.24c31.36,6.8,83.44,17.48,91,15.32A79.31,79.31,0,0,0,841,994.82c14.28-14.08,25.56-36.56,23.72-71.52l20.08-38.12-51.29-171-15.31-15.48s47.84,36.56,101.48,92c52.52,54.2,110.6,126.48,135,200.24a.89.89,0,0,0,.12.4,235.58,235.58,0,0,1,9.76,41.52A181.3,181.3,0,0,1,1066,1069.5Z" fill="#371a45"/></g><path d="M1062,1029.5a155.27,155.27,0,0,1-8.12,41.08c-37.24,107.76-167.8,171.48-268.8,171.48-71.56,0-113-14.2-144.8-64.84-35.12-55.92-17.4-130.2,57-165,6-2.84,19.16-4.36,19.16-4.36L695.7,967.34l-6.92-13.56s9.84,2.24,23.8,5.24c31.36,6.8,83.44,17.48,91,15.32,22.76-6.56,60.48-29.28,57.2-91l-7.6-36.76L816.86,671.38l-2.64-12.64s47.84,36.56,101.48,92C986.9,824.26,1068.34,931,1062,1029.5Z" fill="#fff"/><g opacity="0.35"><path d="M1062,1029.5a155.27,155.27,0,0,1-8.12,41.08c-37.24,107.76-167.8,171.48-268.8,171.48-71.56,0-113-14.2-144.8-64.84a112.14,112.14,0,0,1-16.56-46c30.24,37.24,69.92,48.28,133,48.28,101,0,231.56-63.72,268.8-171.48a155.27,155.27,0,0,0,8.12-41.08c1.68-26-2.76-52.56-11.52-78.92C1048.22,934.06,1065,982.7,1062,1029.5Z" fill="#371a45"/></g><path d="M817.48,654.49c12.43,5.21,23.65,11.85,34.55,19a328.86,328.86,0,0,1,31.21,23.32,606.57,606.57,0,0,1,56.11,53.94q26.22,28.89,50,60c15.83,20.78,30.94,42.28,44.17,65.16s24.8,47,33,72.79,13,53.26,11.25,81.25c-.08,7-1.38,13.94-2.51,20.89-.79,7-3.28,13.69-5,20.51-.51,1.68-.9,3.43-1.51,5l-2,4.81-3.92,9.6c-2.36,6.54-6,12.42-9.17,18.52-13.36,24.08-31,45.33-51,63.54a306.76,306.76,0,0,1-66.18,45.77,359.41,359.41,0,0,1-74.69,28.86A308.38,308.38,0,0,1,782,1258a361.66,361.66,0,0,1-40-2.21,195,195,0,0,1-40.72-8.74A132.07,132.07,0,0,1,663,1226.73a153.83,153.83,0,0,1-49.45-69.07,119,119,0,0,1-6.39-43.27c.56-14.64,3.37-29.38,9.22-42.85a135.75,135.75,0,0,1,23.25-36.76c2.41-2.68,5-5.13,7.58-7.68,1.3-1.25,2.54-2.56,3.88-3.75l4.15-3.38c2.81-2.2,5.51-4.57,8.42-6.6l8.88-5.82a81.72,81.72,0,0,1,9.16-5.25l4.66-2.45,2.33-1.22,1.17-.61.58-.3,1-.43a65.11,65.11,0,0,1,12.37-3.61c3.69-.74,7-1.27,10.78-1.75l-12.37,23.17-27.63-54L659,930.68l33.33,7.5c18.81,4.23,37.81,8.34,56.7,12.11,9.45,1.91,18.9,3.69,28.25,5.3,4.69.81,9.3,1.44,13.85,2,2.12.16,4.5.44,6.38.52l2.59.07h.33l-.16,0a2.36,2.36,0,0,0-.46,0,1.8,1.8,0,0,0-.82.3,68.17,68.17,0,0,0,20.11-10.94,75.24,75.24,0,0,0,15.62-16.28A118.61,118.61,0,0,0,846,909.87c3.5-8,5.77-16.77,9.39-26.29l.19-.51a5.6,5.6,0,0,1,10.46-.05,69.42,69.42,0,0,1,4.53,15.45c.36,2.67.86,5.38,1.08,8.11s.11,5.51.08,8.29a77.36,77.36,0,0,1-8.91,33,80.16,80.16,0,0,1-23,27,92.34,92.34,0,0,1-31.75,15.2,41.85,41.85,0,0,1-4.44.66l-2.28.16-1.07,0-.58,0-4.7-.33c-3-.28-5.41-.69-8.14-1-5.09-.76-10.11-1.58-15-2.45-9.83-1.69-19.52-3.53-29.15-5.46-19.29-3.86-38.35-8-57.54-12.3L703,946.5l27.63,54,10.39,20.31-22.76,2.87c-2.51.31-5.56.79-8.12,1.32a38.72,38.72,0,0,0-6,1.62l-7.28,3.82a60,60,0,0,0-7.46,4.26l-7.14,4.67c-2.33,1.61-4.41,3.51-6.64,5.23l-3.3,2.64c-1,.93-2,2-3,2.93-1.94,2-4,3.87-5.89,5.92a104.47,104.47,0,0,0-17.53,27.69c-4.39,10-6.34,20.82-6.78,31.6a87,87,0,0,0,4.74,32.08,113.84,113.84,0,0,0,15.55,29.56c13.41,18.87,30.71,32.63,52.18,39.73,91.28,25.59,197.94-3.61,269.62-67.56,17.74-16.16,33.07-34.75,44.49-55.34,2.71-5.21,5.9-10.22,7.82-15.77l3.33-8.13,1.67-4.07c.53-1.35.8-2.74,1.21-4.12,1.37-5.55,3.53-10.89,4.09-16.64.9-5.67,2-11.29,2.05-17.11,1.41-23.06-2.51-46.7-9.8-69.58s-17.88-45.13-30.23-66.44c-24.77-42.72-56.54-81.93-91.54-117.81q-26.07-27.13-52.69-54c-8.86-9-17.55-18.13-26-27.63S818.73,673.43,811,663l-.08-.11a5.51,5.51,0,0,1,6.56-8.36Z" fill="#371a45"/><path d="M147.69,791.64c444.68,418.67,1048-178,665.64-624.93C368.3-272.65-254.76,344.68,147.69,791.64Z" fill="#fff"/><path d="M147.69,791.64c444.68,418.67,1048-178,665.64-624.93C368.3-272.65-254.76,344.68,147.69,791.64Z" fill="#fff"/><g opacity="0.35"><path d="M915.7,750.74q-4.44,9.18-9.36,18.12A466.24,466.24,0,0,1,712.58,959c-5.56,2.88-11.16,5.68-16.84,8.32L668.9,914.86c-122.92,21.2-212,43-274.72,61.44a963.13,963.13,0,0,0-4-146.16L804.38,658.7l.6.6.76.76,1,1c.36.4.76.8,1.24,1.24,2.12,2.16,5.12,5.2,8.92,9.12l-2.64-12.64S862.06,695.3,915.7,750.74Z" fill="#371a45"/></g><path d="M147.69,791.64c444.68,418.67,1048-178,665.64-624.93C368.3-272.65-254.76,344.68,147.69,791.64Z" fill="#fff"/><path d="M477.92,945.15c-120.36,0-236.93-50-338-145.2l-.66-.67C43.24,692.69-2.11,569,8.05,441.59,17.12,327.91,69.83,219.73,156.47,137,242.93,54.4,352.82,7.43,465.87,4.71c127.38-3.09,250.4,50.15,355.47,153.88l.66.7C913.31,266,955.64,388.68,944.42,514,934.39,626,882,732.46,796.85,813.64c-84.93,81-193.11,127.6-304.6,131.27C487.47,945.07,482.68,945.15,477.92,945.15ZM155.85,783.66c222.4,209.1,474.24,157.46,625.26,13.47C928.65,656.44,999,401.63,805,174.49c-221.37-218.25-483.14-163.91-632.76-21C21.12,297.79-48.4,556.49,155.85,783.66Z" fill="#371a45"/><g opacity="0.35"><path d="M147.69,791.63c377.78,368.3,948.67-47.83,742.07-510.93,15.62,164.63-36.6,186.34-96.29,289.51C615.13,903.74,163.08,825.31,22.56,523.79A456.65,456.65,0,0,0,147.69,791.63Z" fill="#371a45"/></g><path d="M477.91,949.74c-121.54,0-239.2-50.43-341.19-146.45l-.92-.94C39,694.81-6.79,569.93,3.47,441.22c9.16-114.8,62.37-224,149.82-307.56C240.59,50.29,351.56,2.86,465.76.12c128.8-3,252.83,50.57,358.81,155.2l.92,1C917.62,264,960.33,387.83,949,514.39,938.86,627.56,886,735,800,817,714.27,898.72,605,945.79,492.4,949.5,487.57,949.66,482.73,949.74,477.91,949.74ZM159.14,780.45c220.17,206.87,469.38,155.82,618.8,13.35,146-139.21,215.61-391.34,23.67-616.18C582.46-38.28,323.43,15.42,175.39,156.8,25.89,299.6-42.89,555.59,159.14,780.45Z" fill="#293856"/><path d="M477.91,949.74c-121.54,0-239.2-50.43-341.19-146.45l-.92-.94C39,694.81-6.79,569.93,3.47,441.22c9.16-114.8,62.37-224,149.82-307.56C240.59,50.29,351.56,2.86,465.76.12c128.8-3,252.83,50.57,358.81,155.2l.92,1C917.62,264,960.33,387.83,949,514.39,938.86,627.56,886,735,800,817,714.27,898.72,605,945.79,492.4,949.5,487.57,949.66,482.73,949.74,477.91,949.74ZM159.14,780.45c220.17,206.87,469.38,155.82,618.8,13.35,146-139.21,215.61-391.34,23.67-616.18C582.46-38.28,323.43,15.42,175.39,156.8,25.89,299.6-42.89,555.59,159.14,780.45Z" fill="#371a45"/><path d="M238.91,864.9c510.47,164.19,774.33-447.78,363.83-675.62C127.45-38-213.58,560.26,238.91,864.9Z" fill="#371a46"/><g opacity="0.35"><path d="M697.25,259.08c136,268.77-115.52,643.6-528.34,510.82-36.57-24.62-67.92-51.17-94.47-79,34.33,62.79,88.07,122.59,164.47,174C703.56,1014.35,963.86,520.73,697.25,259.08Z" fill="#111a28"/></g><path d="M450.93,941.72q-6.39,0-12.79-.22c-106.39-3.66-209.87-52.41-299.25-141l-.06-.06C-8,652.74-52.68,368,114.82,179.61l1.53-1.46C212.85,101,343.46,67.83,474.7,87c130.78,19.13,245.82,87.86,315.61,188.56,65.07,99.23,88.17,209.36,67,318.75-19.21,99.16-73.59,189.56-153.11,254.55C630.59,909,541.12,941.72,450.93,941.72ZM156.53,782.8C353,977.5,565.82,929.66,688.36,829.52c140.83-115.09,214-337.52,81.22-540C703.9,194.79,595,129.89,471.08,111.76S223.81,124.69,132.79,197C-24.53,374.91,17.93,643.33,156.53,782.8Z" fill="#371a45"/><path d="M405.78,908.47c-55.29,0-113-9.43-171.77-28.34l-2.16-.7L230,878.17C120.45,804.44,48.48,708.24,21.81,600A385.64,385.64,0,0,1,61.55,315.18C110,230.52,187.41,168.31,279.66,140c102.5-31.43,216.61-19.39,330,34.82l.86.45C707.18,228.94,774,307,803.61,400.93c26.85,85.08,21.32,178.82-15.57,264A400.51,400.51,0,0,1,584,871.51C529.05,896.14,469,908.47,405.78,908.47ZM246,850.36c259.12,82.34,444.15-40,512.72-198.21C820.89,508.6,794.48,314.27,595.4,203.5,360.3,91.32,171.85,186.7,89.33,331.06,4.54,479.4,20.25,697.25,246,850.36Z" fill="#371a45"/><path d="M1002.15,452.54c18.5,214.56-195,251.16-233.29,48.1C741.22,276.48,969.42,237.33,1002.15,452.54Z" fill="#fff"/><g opacity="0.35"><path d="M904.7,634.3c-63.91,11.44-127.94-54.74-137.28-144.41,61.17,81.84,121.53-91.28,118.09-136C1057.19,356.56,1022.54,615.8,904.7,634.3Z" fill="#371a45"/></g><path d="M889.69,650.81c-56.29,0-117.05-43.85-136.55-147.2l-.15-1c-15.28-123.89,44.93-198.1,112.3-207.37C926.17,286.85,1000,331.74,1018,450.14l.13,1c10.71,124.3-51.46,190.1-113.75,198.64A108.31,108.31,0,0,1,889.69,650.81Zm-105-152.63C802.09,589.55,855.08,624.26,900,618.1c47.7-6.53,95-60.53,86.26-163.66-14.87-96.58-70.8-133.82-116.61-127.51C817.9,334.05,772.16,395.16,784.68,498.18Z" fill="#371a45"/><path d="M1013,462.18c14.81,173.89-144.66,204-175.66,39.77C813.86,318.37,987.2,285.83,1013,462.18Z" fill="#fff"/><path d="M929.42,626.2c-43.83,0-91.71-36.19-107.78-121.28l-.15-.93c-13.33-104.2,33.88-166.16,87.41-173.5,47.7-6.58,105.57,31.15,120,129.37l.12,1c8.81,103.58-39.88,158-88.85,164.65A77.91,77.91,0,0,1,929.42,626.2ZM853.18,499.45c13.56,71.09,51.23,98.6,82.62,94.32,35.48-4.85,67.89-51,61.33-129.76-11.32-76.31-51.41-106.27-83.88-101.82C875.4,367.38,842.66,416.19,853.18,499.45Z" fill="#371a45"/><g opacity="0.7"><path d="M707,419.87c-3.77,90.58-106.79,87.89-116.73,9C583.38,328.74,704.85,330,707,419.87Z" fill="#fff"/></g><g opacity="0.7"><path d="M687.17,565.4c-3.45,34.56-48.52,34.25-48.26-3.64C642.35,527.2,687.43,527.51,687.17,565.4Z" fill="#fff"/></g><g opacity="0.7"><path d="M102.78,604.75C-34.85,286.85,298.42,159.26,420,204,203.29,273.35,139.16,433.43,102.78,604.75Z" fill="#fff"/></g><g opacity="0.35"><path d="M838.23,542c-8.82-22.91-11.4-48.32-8.58-72.82,57.66,106,159.37,28,165.87-59.73C1061.76,570.84,910.64,690.9,838.23,542Z" fill="#371a45"/></g><path d="M744.63,377.28a27.15,27.15,0,0,1-5.85-.64c-21.65-4.75-30.5-34.13-32.69-43a16,16,0,0,1,31.06-7.71h0c1.69,6.72,5.16,14.53,7.86,18.13a27.92,27.92,0,0,0,2.61-2.88,16,16,0,1,1,25,20C762.47,373.83,752.48,377.28,744.63,377.28Z" fill="#371a45"/><g opacity="0.35"><path d="M380.18,1343.14l-114.48-41-46.32-68.56-28.4-42-73-107.92c-.56-5.72-1-11.6-1.36-17.72,0,0,66.32,14.84,109,77.84,19.84,29.32,23.56,62.12,15.16,78.92,31.92,36.36,53.9,84.48,138.36,118.52Z" fill="#371a45"/></g><path d="M83.88,1025.88s66.33,14.86,109,77.87c27.75,41,24,88.87-.33,90.12S91,1160.33,83.88,1025.88Z" fill="#fff"/><g opacity="0.35"><path d="M192.54,1193.86c-23.16,1.2-94.64-30.44-107.28-150.28,25.08,72.36,75.92,93.16,94.8,92.2,10.12-.52,16.72-9.16,18.88-22.08C219.9,1152.1,214.9,1192.7,192.54,1193.86Z" fill="#371a45"/></g><path d="M191.12,1209.91c-37.2,0-115.87-44.58-123.22-183.18l-1.11-21.07,20.59,4.61c3,.66,73.05,17,118.75,84.51,21.58,31.86,28.26,70.93,16.27,95-6,12.1-16.61,19.41-29,20Q192.27,1209.91,191.12,1209.91ZM102,1049.21c13.73,105.79,75.85,128.69,89.17,128.69h.52c.76,0,1.59-1.49,2-2.36,4.86-9.75,3.73-36.45-14.11-62.8C155.71,1077.39,123.23,1058.47,102,1049.21Z" fill="#371a45"/><path d="M1016.47,1147.83a12,12,0,0,1-10.81-17.19c25.58-53.35-10.93-97.58-35-119.2C924.6,970,862.86,953.88,840.5,967.67a12,12,0,1,1-12.61-20.42c38.06-23.49,112.87,5,158.85,46.34,49.4,44.43,64.18,98.16,40.56,147.42A12,12,0,0,1,1016.47,1147.83Z" fill="#371a45"/><path d="M734.25,1513.81a13.21,13.21,0,0,1-2-.16,12,12,0,0,1-9.88-13.81C741.5,1384.48,687.65,1332,653.85,1311c-46.69-29-109.12-31.37-145.22-5.46a12,12,0,1,1-14-19.5c44.24-31.75,116.53-29.84,171.88,4.58,66.18,41.14,95.17,118.83,79.55,213.16A12,12,0,0,1,734.25,1513.81Z" fill="#371a45"/><path d="M505.23,1559c4,2.44,8.88,5.58,13.43,8.25s9.34,5.41,14.1,7.9a173,173,0,0,0,29.54,12.4,100.19,100.19,0,0,0,31.76,4.17l8.25-.46,8.2-1.53c1.39-.27,2.82-.45,4.19-.79l4.06-1.29,8.38-2.54.23-.07a1.72,1.72,0,0,1,1.56,3c-2.36,1.85-4.76,3.74-7.25,5.56l-3.75,2.76c-1.31.8-2.71,1.46-4.08,2.2-2.75,1.45-5.55,2.89-8.42,4.24l-9,3a98,98,0,0,1-38.21,3,122.78,122.78,0,0,1-36.87-10.25,91.53,91.53,0,0,1-8.51-4.29,87.4,87.4,0,0,1-8.13-4.92,91.31,91.31,0,0,1-15.19-12.2,12,12,0,0,1,14.73-18.74Z" fill="#371a45"/><path d="M250.86,1513.32c0-.17.45.44.72.74l1.07,1.19c.66.84,1.57,1.65,2.33,2.51,1.65,1.65,3.32,3.35,5.19,4.89a97.09,97.09,0,0,0,11.87,8.73,112.8,112.8,0,0,0,28.58,12.34c10.35,3.19,21.5,4.46,32.84,5.7l17.29.82c5.81-.11,11.69-.1,17.68,0h.13a1.74,1.74,0,0,1,.57,3.36q-8.42,3.16-17.13,5.95c-5.85,1.58-11.83,2.82-17.85,4.11-12.16,1.66-24.72,2.89-37.48,1.29-12.69-1.35-25.78-4.45-37.65-11.06a77.94,77.94,0,0,1-16.56-12.06,61.85,61.85,0,0,1-7-7.81,52.47,52.47,0,0,1-3.07-4.47c-.5-.81-.95-1.53-1.42-2.45s-.85-1.58-1.53-3.06a12,12,0,0,1,21.46-10.76Z" fill="#371a45"/></g></g></svg>