<svg xmlns="http://www.w3.org/2000/svg" width="303" height="303.06" viewBox="0 0 303 303.06"><g id="Layer_2" data-name="Layer 2"><g id="OBJECTS"><g id="Layer0_4_FILL" data-name="Layer0 4 FILL"><path d="M211.4,211.92c0-5-1.06-9-3.16-11.94-2.26-3.11-5.79-5.21-10.48-6.27-8.23-1.82-13.62-3.1-16-3.8-7-2.07-11-4.26-12.46-6.69a19.82,19.82,0,0,1-1.92-5.3,51.26,51.26,0,0,0-1.55-5.68c-1.73-4.38-5.65-7.16-11.65-8.27-9.15-1.26-15.76-2.29-19.65-3.05-6.9-1.44-10.26-3.45-10.26-6.15,0-.68.8-2.16,2.44-4.52s2.36-4.11,2.36-5.53c0-4.28-1.57-7.5-4.66-9.58-2.07-1.38-5.56-2.57-10.38-3.53-5.42-1.06-9-2-10.54-2.71a7.72,7.72,0,0,1-4.87-7.38c0-4.2,2.51-9.26,7.45-15s9.59-9.3,13.74-10.61a72.45,72.45,0,0,1,13.94-2.81,95.77,95.77,0,0,0,12.47-1.95c12.08-3,18.2-7.85,18.2-14.55,0-5.59-3-11.82-9-18.52-1.4-.95-2.16-1.94-2.21-2.92a3,3,0,0,1,1.33-2.41,5.56,5.56,0,0,1,3.6-1.41,6.44,6.44,0,0,1,3,.83,12.77,12.77,0,0,0,5.16,1.78,4.73,4.73,0,0,0,3.46-1.29c.22-.22.92-1.21,2.07-2.92,2-3,5.24-4.44,9.72-4.44,3.23,0,6.71,1.24,10.36,3.68,7.71,5.11,9.49,6.27,9.63,6.34l9.1,4.7c3.83,2.19,5.79,3.87,6,5.15.2,1.06.49,4.55.85,10.37.59,5.62,1.6,9.3,3,10.93a15.7,15.7,0,0,0,4,2.65A16.85,16.85,0,0,1,229,92.18a12.43,12.43,0,0,1,2.59,5.13,19,19,0,0,1,.86,5.26,9.31,9.31,0,0,1-1.73,4.7c-1.61,2.31-2.87,4.13-3.81,5.46-3.62,5.34-5.46,10.69-5.46,15.89a43.31,43.31,0,0,0,.8,7.41c.65,3.48,1.41,5.63,2.24,6.39,5,4.64,7.61,7.62,7.95,9.1.18.58.2,3.09.06,7.65-.06,3.74.44,6.35,1.51,7.78a17.23,17.23,0,0,0,6.62,4.89,24.24,24.24,0,0,0,7.24,1.93l11.75,1.2c5.94,0,9.72-1.33,11.21-3.95.4-.67.92-1.61,1.54-2.79a4.51,4.51,0,0,1,3.68-1.36c2.41,0,3.76,2,4,5.94a57.76,57.76,0,0,1-.25,8.93,25.35,25.35,0,0,0,.75,5.44l0,.13-.12.08c-3.37,2.18-6.92,4.29-10.56,6.26a177.78,177.78,0,0,1-58.27,18.82l-.23,0ZM72.51,191.7c-5.62-2.65-11.24-5.58-16.71-8.71a209.79,209.79,0,0,1-41.24-30.48A163.83,163.83,0,0,1,.89,137.85l-.05-.07v-.08A144.37,144.37,0,0,1,18.17,79.42l.16-.28.18.26a20,20,0,0,1,2.43,4.85c1.13,3.24,1.71,7.81,1.71,13.57a46.39,46.39,0,0,1-.8,9,42.58,42.58,0,0,0-.8,8.36A14.8,14.8,0,0,0,25,125.88c.08.07.67.62,3.74,3.39a23.89,23.89,0,0,1,3.88,4.29,38.82,38.82,0,0,1,2.78,6.14c1.59,4.06,1.92,4.81,2,4.9a8.83,8.83,0,0,0,4.78,2.47,53,53,0,0,1,6.23,1.66c2.78,1.22,5.22,4.28,7.26,9.11,2.25,5.31,3.9,8.45,4.9,9.33,3.15,2.75,6.54,5.5,10.09,8.19,2,2,3.08,5.11,3.08,9.11a34.32,34.32,0,0,1-.9,7.09l-.06.25Z" transform="translate(0)" fill="#27c8ee"/><path d="M194.8,214a4.71,4.71,0,0,1,1-2.72c.06,0,.26-.29.8-1.87a9.56,9.56,0,0,0,.54-2.33c0-2.1-1.22-3.68-3.73-4.82a14.67,14.67,0,0,0-6-1.22c-.38,0-.76,0-1.15,0q-1.2.06-2.28.06c-5.21,0-8.31-1.11-9.21-3.28-.34-.76-1.46-1.26-3.34-1.48a13.91,13.91,0,0,1-4.83-1c-2.15-1.06-3.67-1.85-4.5-2.35-1.49-.86-2.29-1.87-2.4-3a16.31,16.31,0,0,0-4.84-9.43c-2.9-3-6.05-4.55-9.38-4.55-.14,0-.42.56-.42.56h.82a9.63,9.63,0,0,1-9-5.39c-.42-.79-1.83-1.94-4.18-3.42a15.82,15.82,0,0,0-8-2.74,10.52,10.52,0,0,0-4,.86,18.19,18.19,0,0,1-6.13.79c-3,0-5.05-1-6.18-2.88s-3.15-2.67-6.34-2.67c-2.64,0-4.51.5-5.56,1.49A22,22,0,0,0,93.89,166c-.94,1.37-1.61,2.07-2.12,2.19a4.14,4.14,0,0,1-1.12.1c-2.55,0-4.14-.8-4.71-2.39s-1.11-2.17-1.86-2.17a7.11,7.11,0,0,0-2.44.65,8.1,8.1,0,0,1-2.39.63c-4,0-6.1-3-6.1-8.83a13.38,13.38,0,0,1,.26-3.23,8.25,8.25,0,0,0,.25-2.21c0-3-1.33-4.48-4.07-4.48l-.53,0c-1.15.12-2.06.18-2.7.18a6.52,6.52,0,0,1-.68,0A1.62,1.62,0,0,1,64,144.65c0-.52.48-1.23,1.5-2.25a4,4,0,0,0,1.27-2.32,5.36,5.36,0,0,0-.2-1.34,5.55,5.55,0,0,1-.26-1.48,5.13,5.13,0,0,1,1.54-3.11,4.7,4.7,0,0,0,1.44-2.69,5,5,0,0,0-.19-1.62,1.43,1.43,0,0,0-1.4-.79c-3.31,0-5.24,1.37-5.91,4.2a10.23,10.23,0,0,1-1.11,3c-.74.89-2.5,1.35-5.4,1.42h-.05a8,8,0,0,1-2.66-1.29,5.07,5.07,0,0,1-2.08-4.26,53.27,53.27,0,0,1,.3-6.31A14,14,0,0,1,53,119.37c1.8-1.87,2.47-3.81,2-5.79-.38-1.78.46-3.46,2.52-5a9.22,9.22,0,0,1,5.12-2.09,9.92,9.92,0,0,1,3.12.81,13.2,13.2,0,0,0,4.77.79,15.37,15.37,0,0,0,3.75-.55,17.57,17.57,0,0,1,3.8-.5c2.39,0,4,.6,4.91,1.78a7.22,7.22,0,0,1,1,4.26,16.82,16.82,0,0,1-.71,4.56,23.37,23.37,0,0,0-.74,2.54c0,1.09.55,1.6,1.75,1.6,1.9,0,3.06-1.58,3.55-4.83.16-3.45.28-5.3.35-5.61-.48-2.11.78-4.5,3.76-7a33.34,33.34,0,0,1,8.7-5,5.84,5.84,0,0,0,3.87-5.53c.24-3.15,1.32-5.35,3.2-6.55.2-.1,1-.51,3.45-1.91a13.93,13.93,0,0,0,3.11-2.06c3.49-3.39,6.54-5.11,9.08-5.11a9.93,9.93,0,0,1,1.7.36,14.17,14.17,0,0,0,1.9.24,10.38,10.38,0,0,0,6.38-1.8,3.53,3.53,0,0,0,1.77-2.64c0-.26,0-1-2.1-1l-.69,0-.81,0c-1,0-1.6-.17-1.85-.52a.79.79,0,0,1,0-.74,3.3,3.3,0,0,0,.39-1.63,6.65,6.65,0,0,0-.19-.83s-.17-.25-1.5-.57a9.73,9.73,0,0,0-2.21-.39,7.79,7.79,0,0,0-2.48.54,8.62,8.62,0,0,1-2.62.56c-.56,0-.87-.1-1-.31,0,0-.07-.14-.07-.64,0-.76.69-1.47,2.11-2.18a7,7,0,0,1,3.08-.92q3.16.36,4.53.36H130l1.36,0a14.29,14.29,0,0,1,2-.44,17.65,17.65,0,0,1,3.44-.36,6.12,6.12,0,0,0,4.3-2.23c1.19-1.29,1.79-2.36,1.79-3.16-.12-1.56-1.37-2.43-3.81-2.65H139l0,0c-1.94-1.42-2.72-2.82-2.33-4.17a3.76,3.76,0,0,0-.18-2.94,2.53,2.53,0,0,0-2.12-1.3c-.39,0-2.7.32-6.87,1h0a2.83,2.83,0,0,1-1-.37,2.2,2.2,0,0,1-1.13-.67,3.28,3.28,0,0,1-.14-1.57,3.42,3.42,0,0,0-.42-1.78,7.72,7.72,0,0,0-2.09-2,5.65,5.65,0,0,0-3-1.26,3.94,3.94,0,0,0-2.92,1,4.76,4.76,0,0,0-1,3.58,15.72,15.72,0,0,1-.16,3.86,3.72,3.72,0,0,1-2.68,2.74,9.38,9.38,0,0,0-3,1.5,2.79,2.79,0,0,0-.75,3.15,4.35,4.35,0,0,1-.73,4.07,4.21,4.21,0,0,1-3.51,1.93,3.14,3.14,0,0,1-2.6-.92,4.32,4.32,0,0,1-.64-2.68,8.66,8.66,0,0,1,1.27-4.19,8.28,8.28,0,0,0,1.22-2.9c0-1.77-1.59-3.45-4.73-5-3.34-1.58-5-2.88-5-4a5.94,5.94,0,0,1,1.65-3.87,23.9,23.9,0,0,1,5.34-4.09c.19-.11.91-.29,5-.78a41.59,41.59,0,0,0,4.67-.67,10.46,10.46,0,0,1,2.76-.92,16.66,16.66,0,0,0,2.21-.54,17.48,17.48,0,0,0,2.55-1.92,3.19,3.19,0,0,1,2.27-.85,4.31,4.31,0,0,1,1.69.17c.73.22,1.11.9,1.11,2a20.55,20.55,0,0,1-.55,2.55,14,14,0,0,0-.6,2.85,3.8,3.8,0,0,0,1.63,2.74,6.49,6.49,0,0,0,4.12,1.46,10,10,0,0,0,4.07-.74c1-.49,1.58-1.09,1.58-1.76a3.53,3.53,0,0,0-.34-1.47,4.48,4.48,0,0,1-.41-1.88,7.86,7.86,0,0,1,.61-2.07,7.7,7.7,0,0,0,.64-2.83c0-.55-.64-1.74-3.68-4.29-2.14-1.78-3.88-2.69-5.16-2.69a2.37,2.37,0,0,0-.61.08,9.92,9.92,0,0,0-4.21,2.65c-1.51,1.48-2.8,2.2-3.93,2.2-.84,0-1.07-.09-1.17-.24s-.18-.4-.18-1.61a4,4,0,0,1,1-2.22,3.46,3.46,0,0,0,.86-1.77,2,2,0,0,0-.39-1.41,2.11,2.11,0,0,0-1.51-.39c-1.38,0-2.75,1.36-4.07,4s-3,4.21-5.08,4.21c-.94,0-2.2-.08-2.2-.8,0-.92.89-2.42,2.7-4.57s2.55-3.79,2.55-5.27a3.49,3.49,0,0,0-.22-1.55,2.88,2.88,0,0,0-2.23-.65A5.11,5.11,0,0,0,104,18.5a3.2,3.2,0,0,0-1.61,2.39,5.13,5.13,0,0,0,.72,1.91,6,6,0,0,1,.73,1.94,2.62,2.62,0,0,1-.65,1.73,2.77,2.77,0,0,1-2.25.86,3.44,3.44,0,0,1-2.67-1c-.81-.87-1.14-2.32-1-4.31a2.87,2.87,0,0,0-1.68-3.2c-1.54-.63-2.32-1.46-2.32-2.48A7.14,7.14,0,0,1,95.16,12c.77-.9,1.45-1.72,2-2.45l0,0,0,0a151.13,151.13,0,0,1,54-9.51,153.27,153.27,0,0,1,49.78,8h.05l0,0a21.1,21.1,0,0,0,3,2.77c3.92,3.05,4.37,4,4.37,4.4,0,1-.9,1.87-2.76,2.78-1.7.84-2.53,1.89-2.53,3.22s1,3,3,4.79c3.23,2.77,5,4.41,5.56,5,1,1.27,2.44,3.09,4.16,5.41a6.53,6.53,0,0,0,4.84,2.47,3.73,3.73,0,0,0,2.65-1.24,3.53,3.53,0,0,0,1.34-2.51c0-.52-.87-1.71-5-4.43-3.52-2.29-5.27-4.22-5.34-5.91v-.92s1-1.45,1.94-1.45a3.74,3.74,0,0,1,.55,0c1.12.25,2.77,1.49,5.05,3.81s3.75,3.49,4.62,3.75a6.58,6.58,0,0,1,4.27,3.35,9.73,9.73,0,0,1,.82,4.29c0,1.11-.81,3.09-2.48,6a8.17,8.17,0,0,0-.83,6.54c.74,2.56.52,6-.65,10.16.25,1.41,1.94,2.29,5,2.55h.05l0,0c1,.74,1.53,2.33,1.53,4.86,0,1.63-1.43,2.85-4.25,3.64s-4,2.09-4,4h0s.41.51,2.26,2.93A16.35,16.35,0,0,1,231,82.68a8.63,8.63,0,0,1,0,2.65c.08,1.85.39,2.35.57,2.48,1.89,1.37,3.48,2.06,4.73,2.06s3.74-2.59,8-14.92a11.18,11.18,0,0,0-1.63-4.28,10.92,10.92,0,0,1-1.73-5.25,5.19,5.19,0,0,1,1.77-4.21,4.61,4.61,0,0,1,2.93-1c.12,0,.35,0,4.94,2.37,3.42,1.69,5.48,2.91,6.3,3.74a54.29,54.29,0,0,1,4,5.68c1.22,1.93,2.64,2.91,4.23,2.91a1.65,1.65,0,0,0,1.86-1.25c0-.88-.06-1.38-.06-1.45,0-.51-1.06-2.1-6.09-6.8-4.19-3.93-6.11-6.42-5.86-7.64s1.42-1.86,3.35-1.86c1.16,0,2.55-.21,2.55-1s-.57-1.63-1.69-2.65a5.81,5.81,0,0,1-1.86-4.45,2.62,2.62,0,0,1,1.56-2.53l.13-.06.1.1c1.88,1.95,3.79,4,5.66,6l.12.13-.12.14a1.74,1.74,0,0,0-.31.53,7,7,0,0,0-.19,2,14,14,0,0,0,1,3.78,15.06,15.06,0,0,1,1,5.17,6.07,6.07,0,0,0,1.55,4.07,4.49,4.49,0,0,0,3.44,1.73h.51c2.67,0,4.89,2.18,6.59,6.49a24.19,24.19,0,0,1,1.91,8.47,3.68,3.68,0,0,1-1,3,5.07,5.07,0,0,1-3,.69c-.85,0-3.73-1.52-8.8-4.63s-8-4.62-9.25-4.62c-.66,0-2.74,1.63-8.89,9.37-7.23,9.43-7.3,9.47-7.37,9.51a12.79,12.79,0,0,0-1.74,5.69c-.21,2.43-.56,3.92-1.1,4.56a64.06,64.06,0,0,0-4.78,5.53c-.58.83-.87,2.39-.87,4.64,0,1.55.22,5,.65,10.28.19,2.38.81,4.1,1.84,5.13a5.58,5.58,0,0,1,1.51,4,18.22,18.22,0,0,1-.5,3.69,17.8,17.8,0,0,0-.5,3.41,12.65,12.65,0,0,0,.33,3.72c.48,1.11,1.78,2.16,3.85,3.1a35.73,35.73,0,0,1,3.78,2,5.07,5.07,0,0,1,2.39,3.08c.72,3.92,1.62,6.58,2.66,7.92a8,8,0,0,0,5,2.72h6.4a23.53,23.53,0,0,0,5.52-1.48c1.52-.68,3-2.35,4.46-5s3.1-4,4.77-4a4.13,4.13,0,0,1,2.9,1.72,5.23,5.23,0,0,0,4,1.63A5.52,5.52,0,0,1,286,161a4.88,4.88,0,0,1,1.46,3.55,24.29,24.29,0,0,1-.5,3.89,24.42,24.42,0,0,0-.45,3.56c0,1.4.67,4,2,7.73q.25.76.45,1.47l0,.13-.11.08c-2.72,2.07-5.6,4.07-8.56,6l-.24.15-.07-.28a25.91,25.91,0,0,1-.75-5.54,57.26,57.26,0,0,0,.25-8.89c-.23-3.74-1.41-5.56-3.6-5.56a4.2,4.2,0,0,0-3.35,1.18c-.6,1.15-1.12,2.1-1.53,2.77-1.56,2.75-5.45,4.15-11.57,4.15l-11.77-1.2a24,24,0,0,1-7.36-2,17.43,17.43,0,0,1-6.78-5c-1.12-1.5-1.66-4.2-1.59-8,.16-5.55.07-7.16,0-7.53-.33-1.4-3-4.4-7.85-8.91-.9-.84-1.67-3-2.36-6.61a44.23,44.23,0,0,1-.8-7.49c0-5.28,1.86-10.71,5.53-16.11l3.81-5.46a9,9,0,0,0,1.66-4.48,18.59,18.59,0,0,0-.84-5.15,11.92,11.92,0,0,0-2.51-5,16.51,16.51,0,0,0-4.34-3,15.77,15.77,0,0,1-4.11-2.75c-1.48-1.71-2.49-5.37-3.1-11.16-.36-5.81-.65-9.28-.85-10.33s-2.14-2.78-5.8-4.87l-9.09-4.69c-.08,0-.31-.16-9.67-6.36-3.58-2.4-7-3.62-10.14-3.62-4.34,0-7.5,1.43-9.38,4.26a34.91,34.91,0,0,1-2.13,3,5.08,5.08,0,0,1-3.74,1.41,13,13,0,0,1-5.34-1.82,6.11,6.11,0,0,0-2.84-.79A5.18,5.18,0,0,0,154.73,53a2.66,2.66,0,0,0-1.19,2.09c0,.85.74,1.74,2.07,2.64,6,6.81,9.09,13.13,9.09,18.82,0,6.9-6.23,11.93-18.5,14.94a97,97,0,0,1-12.53,2,71.63,71.63,0,0,0-13.86,2.79c-4.08,1.29-8.64,4.82-13.56,10.49s-7.35,10.67-7.35,14.77a7.35,7.35,0,0,0,4.64,7c1.54.72,5.06,1.62,10.45,2.68,4.87,1,8.41,2.17,10.52,3.58,3.21,2.17,4.84,5.5,4.84,9.92,0,1.5-.82,3.44-2.44,5.76-2,2.81-2.36,3.88-2.36,4.29,0,2.45,3.34,4.38,9.94,5.75,3.88.77,10.49,1.79,19.64,3,6.15,1.14,10.17,4,12,8.53a48.66,48.66,0,0,1,1.55,5.72,19.78,19.78,0,0,0,1.88,5.2c1.37,2.31,5.48,4.5,12.24,6.51,2.38.69,7.76,2,16,3.79,4.8,1.08,8.4,3.24,10.72,6.43,2.15,3,3.24,7.12,2.94,12.17v.52l.13,0c-5.35.79-10.9,1.39-16.52,1.8l-.24,0Zm-89.2-70.62a14.38,14.38,0,0,1,6,1.42,13.55,13.55,0,0,0,5.07,1.28,16.14,16.14,0,0,0,3-.19,1,1,0,0,0,.85-1c0-.72-.5-1.13-1.52-1.25h0a18.67,18.67,0,0,1-3.21-.2,10.07,10.07,0,0,1-3.69-2.09,5.8,5.8,0,0,0-3.48-1.66l-3.08.1A12.94,12.94,0,0,0,101,141.6c-2.64,1.3-2.82,1.7-2.82,1.77a12.23,12.23,0,0,0,3.26.65l1.64-.25A14.42,14.42,0,0,1,105.6,143.42ZM82.25,131.25c2.12,0,3.64.41,4.53,1.22.58.57,1.28,1.26,2.11,2.06a13,13,0,0,0,3,1.86,22.52,22.52,0,0,1,3.37,2.07,5,5,0,0,0,2.94,1c2.29,0,3.45-.5,3.45-1.5s-.47-1.43-1.47-1.55a10.71,10.71,0,0,1-4-.88,13.57,13.57,0,0,1-2.42-1.61c-1.58-1.22-1.85-1.45-1.92-1.52-3.42-2-4.33-2.49-4.49-2.56a12.22,12.22,0,0,0-5-1.13H82a25.07,25.07,0,0,0-3.1-.2,1.41,1.41,0,0,0-1.28.75,1.56,1.56,0,0,0-.32.85c0,.32,0,1.28,2.5,1.28l.84,0C81.21,131.27,81.75,131.25,82.25,131.25ZM144.3,71.67a6.75,6.75,0,0,1,2.83.52,3.9,3.9,0,0,0,1.52.53,1.91,1.91,0,0,0,1.64-.92,3.34,3.34,0,0,0,.46-1.68c0-.59-.57-1-1.69-1.26-2.53-.65-2.61-.69-2.65-.71-.28-.15-.69-.58-1.11-2.59-.17-.69-.43-1-.78-1s-.63.14-1.28.79a14,14,0,0,1-3.54,2.83c-1.09.66-1.65,1.39-1.65,2.18,0,1,.74,1.57,2.25,1.6h.4a35,35,0,0,0,3.58-.26h0Zm64.28-30.35a1,1,0,0,0-1,.59,3.27,3.27,0,0,0-.38,1.56,1.44,1.44,0,0,0,.52,1.24c.26.2.92.63,1.94,1.29a3.66,3.66,0,0,1,.88,1.76c.1.48.26,1.15.46,2a16.22,16.22,0,0,1,.35,3.55c.11.62.9,1,2.35,1,1.88,0,2.8-.7,2.8-2.15,0-.28-.24-.85-1.39-2a3.91,3.91,0,0,1-1.51-2.49.88.88,0,0,1,.64-.94,5.16,5.16,0,0,1,1.41-.11c1.47,0,2.7.94,3.63,2.81.79,1.69,1.59,2.54,2.37,2.54A1.31,1.31,0,0,0,223,51a4.06,4.06,0,0,0,.39-1.77c0-.83-1.17-1.81-3.38-2.82a28.64,28.64,0,0,0-4.67-1.59A14.73,14.73,0,0,1,211,42.43,4.74,4.74,0,0,0,208.58,41.32ZM156.9,11.22c-4.21,0-7.37.61-9.4,1.82a28.89,28.89,0,0,1-4.19,2c-1,.33-2.07.64-3.16.9a2.18,2.18,0,0,0-1.91,1.56,1.23,1.23,0,0,0,0,1,1,1,0,0,0,.65.45,19.47,19.47,0,0,0,2,.44,9.9,9.9,0,0,1,4.78,2,8.55,8.55,0,0,1,1.3,1.91,7.74,7.74,0,0,0,1.85,2.24,6.17,6.17,0,0,1,1.86,2.12,7.45,7.45,0,0,1,.32,2.54,7.82,7.82,0,0,1-.77,3.33,6,6,0,0,0-.78,2.27,3.93,3.93,0,0,0,.5,2.37c1.77,2.19,2.15,2.61,2.22,2.67a21.1,21.1,0,0,0,2.61,3.41,4.76,4.76,0,0,0,3.12.95,4.83,4.83,0,0,0,2.21-.58c.87-.46,1.29-1,1.29-1.67a2.06,2.06,0,0,0-.4-1.32,2.87,2.87,0,0,1-.5-1.78,7.38,7.38,0,0,1,1.74-4,19.46,19.46,0,0,1,2.62-3,16,16,0,0,1,5.72-3.54c1.41-.53,2.12-1.21,2.12-2,0-1.11-.87-2.06-2.58-2.82a5.82,5.82,0,0,1-3.57-4.65c0-2.2-.35-3-.6-3.3A10.16,10.16,0,0,0,164.37,15c-1.16-1-1.36-1.16-1.41-1.21a11.25,11.25,0,0,0-2.84-1.51A11,11,0,0,0,156.9,11.22Zm26.9,23.45a3.37,3.37,0,0,1,2,.63,3.11,3.11,0,0,0,1.73.52,2.49,2.49,0,0,0,2.32-1.54,4.57,4.57,0,0,0,.48-1.59c0-.89-1-1.6-3.1-2.08a17.32,17.32,0,0,0-3.6-.44,5.25,5.25,0,0,0-2.08,1,3.41,3.41,0,0,1-1.82.54,10.61,10.61,0,0,0-1.45-.25.61.61,0,0,0-.54.26,1.17,1.17,0,0,0-.21.69c0,.82.5,1.47,1.54,2a4.93,4.93,0,0,0,2.16.58l2.59-.25ZM83.37,196.55c-3.61-1.5-7.27-3.13-10.86-4.85l-.14-.07,0-.15a33.64,33.64,0,0,0,.9-7c0-3.89-1-6.86-2.94-8.81-3.53-2.67-6.94-5.43-10.09-8.19-1.07-.93-2.7-4-5-9.47-2-4.73-4.38-7.73-7.05-8.9a52.37,52.37,0,0,0-6.16-1.64,9.21,9.21,0,0,1-5-2.61,50.49,50.49,0,0,1-2-5,41.12,41.12,0,0,0-2.72-6.06,24.65,24.65,0,0,0-3.82-4.21c-1.62-1.46-3.58-3.23-3.76-3.41a15.13,15.13,0,0,1-4.06-10.94,43.48,43.48,0,0,1,.8-8.44,45.47,45.47,0,0,0,.8-9c0-5.72-.57-10.24-1.69-13.43a19.25,19.25,0,0,0-2.37-4.76l-.07-.1.05-.11c1.38-2.5,2.86-5,4.41-7.46.63-1,1.29-2,2-3A157.17,157.17,0,0,1,38.4,51.14c.67-.77,1.4-1.53,2.16-2.27,1.29-1.42,2.66-2.83,4-4.19A155.07,155.07,0,0,1,75.45,20.5l.43-.26-.14.48a38.77,38.77,0,0,1-3.42,9,25.14,25.14,0,0,1-7,6.91A24.27,24.27,0,0,0,57.33,46c-2.07,4.4-3.8,7.26-5.14,8.51-.33.33-.67.65-1,.95-3.24,3.07-5.64,5.48-7.13,7.13a30.3,30.3,0,0,0-6.11,9.29.37.37,0,0,0,0,.18,22.66,22.66,0,0,0-.6,4.71,7.11,7.11,0,0,1-1.85,4.37,14.8,14.8,0,0,0-2.71,4.34,11.44,11.44,0,0,0-.64,4A18.61,18.61,0,0,0,32.5,93a24.57,24.57,0,0,1,.35,3.54,21.56,21.56,0,0,1-1.31,6.86,20.15,20.15,0,0,0-1.34,6.14,10.37,10.37,0,0,0,.54,2.89c.43,1.51,1,2.31,1.56,2.31,1.08,0,1.6-.8,1.6-2.45a5.34,5.34,0,0,0-.78-2.55,5.69,5.69,0,0,1-.87-2.9,8.39,8.39,0,0,1,1.43-3.65,9.43,9.43,0,0,0,1.42-3.46,26.66,26.66,0,0,1,.15-4.52c.28-2.6,1.29-3.92,3-3.92.78,0,1.25.63,1.4,1.88a6.82,6.82,0,0,1,0,1.69,15.16,15.16,0,0,1-1,4.84,16.79,16.79,0,0,0-1,5.69,15.23,15.23,0,0,0,1.93,6.41c1.36,2.58,2,4.41,2,5.59,0,.85-.67,2.2-2,4.11a9.89,9.89,0,0,0-1.91,5.69c0,2.1,1.19,4.43,3.55,6.91a17.24,17.24,0,0,0,6.37,4.2c4.09,1.44,6.62,3.09,7.51,4.9.24.54.57,1.38,1,2.52a6.51,6.51,0,0,0,1.79,2.41,5.67,5.67,0,0,0,3.23.91,19.65,19.65,0,0,1,4.3.51,3.57,3.57,0,0,1,2.33,2.57,9.42,9.42,0,0,1,.36,2.62A6.54,6.54,0,0,0,70,158.54l3.45,4.15c.19.29.94,1.54,2.27,3.78,1.41,2,2.65,3.05,3.68,3.05a2.8,2.8,0,0,0,2-1.37,3.12,3.12,0,0,1,2.31-1.53,2.87,2.87,0,0,1,2.63,2,2.51,2.51,0,0,0,2.32,1.78l.88,0a4.87,4.87,0,0,1,2.53.51,3.12,3.12,0,0,1,1.63,1.4,6,6,0,0,1,.16,2.07c0,.39-.59,2-5.67,11.44a56.52,56.52,0,0,0-4.59,10.62l-.06.21Z" transform="translate(0)" fill="#40d9e9"/><path d="M183.42,214.43a14.12,14.12,0,0,0,1.28-5.62c0-2.86-1.88-4.25-5.75-4.25-3.76.24-5.95.37-6.67.4l-.05,0c-.06.19-.38.3-1,.3a15.35,15.35,0,0,1-2.46-.29,58.27,58.27,0,0,1-7.33-2c-1-.32-2-1.31-3.06-3a7.85,7.85,0,0,0-3.46-3.22,9.6,9.6,0,0,1-4.49-3.73,29.89,29.89,0,0,1-2-4.69,11.78,11.78,0,0,0-2.2-3.93,6.55,6.55,0,0,0-4.81-1.64c-5.06.71-7.89,1.05-8.6,1.05a11.18,11.18,0,0,1-6.37-2.44c-2.52-2.12-4.49-3.72-5.85-4.75-5.22-4-9.47-6.53-12.64-7.52a8.4,8.4,0,0,0-2.42-.39,5.52,5.52,0,0,0-4.71,2.62,12.75,12.75,0,0,0-2.11,8.41c.27,3.23-.9,7.07-3.48,11.42a28.46,28.46,0,0,0-3.52,8.29l0,.23-.22-.08c-2.69-1-5.4-2.05-8.06-3.15l-.16-.07.05-.18a57.49,57.49,0,0,1,4.61-10.68c4.65-8.64,5.63-10.89,5.63-11.26a6.33,6.33,0,0,0-.13-1.91,2.82,2.82,0,0,0-1.46-1.21,4.5,4.5,0,0,0-2.33-.46l-.87,0h0a2.9,2.9,0,0,1-2.69-2A2.48,2.48,0,0,0,83.75,167c-.63,0-1.3.46-2,1.37a3.13,3.13,0,0,1-2.36,1.53c-1.18,0-2.49-1.06-4-3.23q-2-3.37-2.26-3.76l-3.43-4.13a6.9,6.9,0,0,1-2-4.07,9.21,9.21,0,0,0-.34-2.5,3.2,3.2,0,0,0-2.06-2.32,20,20,0,0,0-4.21-.49,6,6,0,0,1-3.47-1,7,7,0,0,1-1.9-2.57c-.44-1.14-.77-2-1-2.5-.84-1.7-3.29-3.28-7.29-4.69A17.71,17.71,0,0,1,41,134.3c-2.43-2.56-3.66-5-3.66-7.19a10.24,10.24,0,0,1,2-5.91c1.3-1.83,2-3.13,2-3.89,0-1.09-.67-2.91-2-5.41a15.52,15.52,0,0,1-2-6.59,17.3,17.3,0,0,1,1-5.82,14.93,14.93,0,0,0,.94-4.73,6.27,6.27,0,0,0,0-1.62c-.18-1.53-.8-1.53-1-1.53-1.49,0-2.34,1.17-2.6,3.57a26.06,26.06,0,0,0-.15,4.47A9.62,9.62,0,0,1,34,103.31a8.2,8.2,0,0,0-1.37,3.45,5.25,5.25,0,0,0,.82,2.7,5.81,5.81,0,0,1,.83,2.75c0,1.89-.67,2.85-2,2.85-.81,0-1.44-.85-1.94-2.59a10.86,10.86,0,0,1-.56-3,20.54,20.54,0,0,1,1.36-6.26,21.09,21.09,0,0,0,1.29-6.74A23.65,23.65,0,0,0,32.1,93a20.19,20.19,0,0,1-.4-3.53,12,12,0,0,1,.66-4.17,15.43,15.43,0,0,1,2.79-4.46A6.76,6.76,0,0,0,36.9,76.7,21.65,21.65,0,0,1,37.51,72a.54.54,0,0,1,.06-.29,30.73,30.73,0,0,1,6.18-9.39c1.5-1.67,3.91-4.08,7.16-7.16.34-.31.67-.62,1-.95,1.31-1.22,3-4,5.06-8.39A24.57,24.57,0,0,1,65,36.25,24.88,24.88,0,0,0,72,29.46a39.21,39.21,0,0,0,3.38-8.9l0-.08.07,0a137,137,0,0,1,22-10.62l.7-.26-.48.58c-.6.73-1.28,1.55-2,2.45a6.74,6.74,0,0,0-1.75,4.07c0,.84.7,1.55,2.08,2.12a3.27,3.27,0,0,1,1.92,3.6c-.15,1.87.15,3.22.87,4a3.1,3.1,0,0,0,2.38.87,2.37,2.37,0,0,0,1.94-.72,2.17,2.17,0,0,0,.56-1.48A6.64,6.64,0,0,0,103,23.3a5.59,5.59,0,0,1-.77-2.09A3.57,3.57,0,0,1,104,18.5a5.5,5.5,0,0,1,3.12-1.24,3.13,3.13,0,0,1,2.56.83,3.82,3.82,0,0,1,.29,1.77c0,1.58-.89,3.44-2.65,5.53s-2.6,3.51-2.6,4.32c0,.07.09.4,1.8.4,1.87,0,3.46-1.34,4.72-4,1.42-2.88,2.87-4.27,4.43-4.27a2.36,2.36,0,0,1,1.8.52,2.31,2.31,0,0,1,.5,1.68,3.75,3.75,0,0,1-.94,2,3.71,3.71,0,0,0-1,2,3.77,3.77,0,0,0,.11,1.38h0a2.69,2.69,0,0,0,.84.07c1,0,2.24-.7,3.66-2.09a10.15,10.15,0,0,1,4.39-2.75,2.69,2.69,0,0,1,.7-.09c1.41,0,3.18.91,5.43,2.78C133.75,29.52,135,31,135,32a7.9,7.9,0,0,1-.67,3,9.15,9.15,0,0,0-.58,1.92,4.07,4.07,0,0,0,.38,1.72,4,4,0,0,1,.37,1.63c0,.85-.61,1.56-1.81,2.13a10.57,10.57,0,0,1-4.24.77,6.9,6.9,0,0,1-4.37-1.54,4.21,4.21,0,0,1-1.78-3.06,14.18,14.18,0,0,1,.61-2.95c.46-2,.54-2.38.54-2.45,0-.94-.28-1.48-.86-1.66a4.32,4.32,0,0,0-1.54-.14,2.8,2.8,0,0,0-2,.75,17.85,17.85,0,0,1-2.64,2,13.78,13.78,0,0,1-2.31.58,10,10,0,0,0-2.64.88c-.07,0-.22.16-4.83.72a33.71,33.71,0,0,0-4.82.72,24.52,24.52,0,0,0-5.25,4A5.57,5.57,0,0,0,95,44.56c0,.63.82,1.76,4.74,3.62,3.29,1.6,5,3.39,5,5.33a9.06,9.06,0,0,1-1.27,3.1,8.17,8.17,0,0,0-1.23,4,4,4,0,0,0,.56,2.43,2.77,2.77,0,0,0,2.29.77A3.81,3.81,0,0,0,108.24,62a3.93,3.93,0,0,0,.67-3.72,3.21,3.21,0,0,1,.86-3.56,9.38,9.38,0,0,1,3.16-1.59,3.3,3.3,0,0,0,2.42-2.45A15.49,15.49,0,0,0,115.5,47a5.15,5.15,0,0,1,1.1-3.88A4.26,4.26,0,0,1,119.8,42,6.06,6.06,0,0,1,123,43.3a8,8,0,0,1,2.2,2.11,3.82,3.82,0,0,1,.48,2,3.4,3.4,0,0,0,.08,1.36,2,2,0,0,0,.94.5,2.88,2.88,0,0,0,.88.34c4.22-.64,6.49-1,6.9-1A2.94,2.94,0,0,1,137,50.15a4.19,4.19,0,0,1,.22,3.26q-.49,1.76,2.13,3.71c2.6.25,4,1.27,4.13,3,0,.94-.62,2.06-1.9,3.45A6.49,6.49,0,0,1,137,66a17.69,17.69,0,0,0-3.36.35c-1.64.34-1.92.42-2,.43s-.63,0-1.42.07h-.33c-.92,0-2.45-.12-4.55-.36a6.7,6.7,0,0,0-2.89.88c-1.25.63-1.89,1.24-1.89,1.82a3.15,3.15,0,0,0,0,.46h0s.1.09.63.09a8.23,8.23,0,0,0,2.49-.54,8.18,8.18,0,0,1,2.61-.56,9.5,9.5,0,0,1,2.3.41c1.41.33,1.7.61,1.78.81a5.91,5.91,0,0,1,.22.9,3.87,3.87,0,0,1-.41,1.86c-.09.22,0,.32,0,.36s.4.34,1.51.34l.79,0c.25,0,.49,0,.71,0,1.66,0,2.5.48,2.5,1.42a3.85,3.85,0,0,1-1.93,3,10.72,10.72,0,0,1-6.62,1.89,13.94,13.94,0,0,1-2-.25,12.39,12.39,0,0,0-1.62-.35c-2.44,0-5.4,1.68-8.81,5a14.44,14.44,0,0,1-3.2,2.14c-2,1.1-3.17,1.76-3.45,1.9-1.75,1.12-2.76,3.22-3,6.24a6.29,6.29,0,0,1-4.13,5.87,32.93,32.93,0,0,0-8.59,5c-2.86,2.41-4.08,4.66-3.63,6.71,0,.28-.14,1.41-.35,5.65-.52,3.45-1.85,5.19-4,5.19-1.41,0-2.15-.69-2.15-2a17,17,0,0,1,.76-2.66,16.26,16.26,0,0,0,.69-4.44,6.88,6.88,0,0,0-.91-4c-.79-1.07-2.34-1.62-4.59-1.62a16.61,16.61,0,0,0-3.7.5,16.18,16.18,0,0,1-3.85.55,13.56,13.56,0,0,1-4.92-.81,9.89,9.89,0,0,0-3-.79,8.88,8.88,0,0,0-4.88,2c-1.92,1.44-2.72,3-2.37,4.6.48,2.12-.23,4.19-2.11,6.13a13.62,13.62,0,0,0-2.14,6.23,57.41,57.41,0,0,0-.3,6.28,4.68,4.68,0,0,0,1.92,3.94,7.71,7.71,0,0,0,2.49,1.22h1c2.65-.06,4.32-.48,5-1.23a10,10,0,0,0,1-2.77c.68-2.92,2.75-4.4,6.14-4.4a1.79,1.79,0,0,1,1.73,1,5,5,0,0,1,.22,1.74,4.78,4.78,0,0,1-1.5,2.88,4.74,4.74,0,0,0-1.4,2.77,4.94,4.94,0,0,0,.24,1.34,6,6,0,0,1,.21,1.41,4.19,4.19,0,0,1-1.35,2.53c-1.12,1.12-1.35,1.66-1.35,1.92,0,.83.42,1.24,1.31,1.3a5.59,5.59,0,0,0,.62,0,25.84,25.84,0,0,0,2.6-.18l.55,0c2.9,0,4.37,1.61,4.37,4.77a8.67,8.67,0,0,1-.26,2.26,13.1,13.1,0,0,0-.24,3c0,5.52,1.82,8.2,5.55,8.2a7.62,7.62,0,0,0,2.18-.59A7.4,7.4,0,0,1,84.5,163c.93,0,1.66.8,2.19,2.39.5,1.37,1.91,2.06,4.21,2.06a3.46,3.46,0,0,0,1-.08c.29-.07.82-.46,1.85-2a21.5,21.5,0,0,1,2.53-3.23c1.1-1,3-1.56,5.69-1.56,3.26,0,5.46.94,6.52,2.8s2.94,2.6,5.68,2.6a17.29,17.29,0,0,0,5.83-.74,10.67,10.67,0,0,1,4.07-.86,15.77,15.77,0,0,1,8,2.73c2.39,1.5,3.77,2.64,4.23,3.48a9,9,0,0,0,8.43,5h.77c3.44,0,6.69,1.57,9.66,4.67a16.76,16.76,0,0,1,5,9.67c.09,1,.83,1.9,2.2,2.7.82.49,2.33,1.28,4.49,2.34a13.88,13.88,0,0,0,4.68.93c2.06.25,3.26.81,3.66,1.72.84,2,3.82,3,8.85,3,.71,0,1.46,0,2.26-.06.39,0,.78,0,1.17,0a15.06,15.06,0,0,1,6.17,1.26c2.64,1.2,4,2.94,4,5.18a9.74,9.74,0,0,1-.56,2.46c-.55,1.6-.77,1.93-.92,2a4.39,4.39,0,0,0-.87,2.47l0,.16H195c-3.7.26-7.54.43-11.41.5h-.31ZM87.85,24a17.91,17.91,0,0,0-5,.74c-1.56.46-2.67,2.06-3.32,4.75.55,3.11-.66,6.15-3.6,8.95-.14.09-1.51,1.09-7.47,5.47a25.81,25.81,0,0,0-6,5.8,34.46,34.46,0,0,0-3.32,6.71A34.88,34.88,0,0,1,48.48,71.07a24.84,24.84,0,0,0-4.12,3.82,9,9,0,0,0-1.61,5.43c0,1,.69,2.22,2,3.61A8.12,8.12,0,0,1,47,89.82a34.09,34.09,0,0,1-1.26,6.4,32.38,32.38,0,0,0-1.29,7.85A5.69,5.69,0,0,0,46,108.33a3.93,3.93,0,0,0,2.86,1.34c1.35,0,2.75-1.38,4.17-4.09s3.51-4.31,6-4.31c.21,0,.83.17,3.83,1.46a15.09,15.09,0,0,0,5.77,1.39,15.11,15.11,0,0,0,6.86-1.83,24,24,0,0,1,8.42-2.67,14.84,14.84,0,0,0,6.51-2.57,13.05,13.05,0,0,0,4.78-5,42.27,42.27,0,0,1,3.22-5.38,16.27,16.27,0,0,1,6.73-5.47c1.14-.43,3.23-1.19,6.21-2.25,2.3-1.12,3.47-2.47,3.47-4a2.69,2.69,0,0,0-1.51-2.33,3.45,3.45,0,0,1-1.74-3c0-1.29,1.49-2.82,4.55-4.67,2.88-1.75,5.19-2.65,6.85-2.68h.56a64.87,64.87,0,0,1,6.51.41c1.86-.1,2.78-1.16,2.78-3.25a2.61,2.61,0,0,0-1.36-2.28,6.37,6.37,0,0,0-3.32-.78h-.91A4.93,4.93,0,0,1,123.71,55a5.53,5.53,0,0,0-8.39,1.12c-.12.16-.68,1.3-2.74,5.87-2.62,5.72-7.38,8.62-14.13,8.62A3.51,3.51,0,0,1,95,68.4a6.1,6.1,0,0,1-.52-2.48,10.16,10.16,0,0,1,1.32-4.44,9.55,9.55,0,0,0,1.28-3.86,3.85,3.85,0,0,0-2-3.48,20.09,20.09,0,0,0-4.59-1.58,17.71,17.71,0,0,1-4.75-1.62,4.2,4.2,0,0,1-2.2-3.82,5.86,5.86,0,0,1,1.82-4.55,16.21,16.21,0,0,1,3.9-2.23c3.64-1.66,5.48-4.11,5.48-7.27A9.65,9.65,0,0,0,92.69,27C91.17,25,89.54,24,87.85,24Zm200.76,157.3q-.19-.69-.45-1.44c-1.33-3.76-2-6.41-2-7.86a25.45,25.45,0,0,1,.45-3.64,23.59,23.59,0,0,0,.5-3.81,4.46,4.46,0,0,0-1.34-3.26,5.06,5.06,0,0,0-3.42-1.34,5.65,5.65,0,0,1-4.24-1.77,3.77,3.77,0,0,0-2.6-1.58c-1.52,0-3,1.28-4.43,3.8-1.48,2.69-3,4.41-4.64,5.13a14.09,14.09,0,0,1-5.68,1.17h-6.4a6.77,6.77,0,0,1-5.36-2.53c-1.08-1.39-2-4.11-2.74-8.09a4.68,4.68,0,0,0-2.21-2.82,37.08,37.08,0,0,0-3.73-2c-2.16-1-3.53-2.09-4-3.3a12.38,12.38,0,0,1-.37-3.88,18.32,18.32,0,0,1,.5-3.49,17.66,17.66,0,0,0,.5-3.61,5.21,5.21,0,0,0-1.39-3.76c-1.1-1.1-1.76-2.91-2-5.38-.43-5.28-.65-8.75-.65-10.31,0-2.37.31-4,.94-4.87a68.12,68.12,0,0,1,4.81-5.57c.47-.56.8-2,1-4.33a12.77,12.77,0,0,1,1.89-6c.14-.15,1.5-1.88,7.3-9.45,6.78-8.54,8.5-9.53,9.21-9.53,1.32,0,4.41,1.53,9.46,4.68,6.15,3.78,8.07,4.57,8.59,4.57a4.78,4.78,0,0,0,2.78-.61,3.32,3.32,0,0,0,.87-2.69,23.94,23.94,0,0,0-1.89-8.33c-1.63-4.13-3.72-6.23-6.21-6.23h-.51a4.88,4.88,0,0,1-3.74-1.87A6.44,6.44,0,0,1,265.75,63a14.47,14.47,0,0,0-.94-5,14.07,14.07,0,0,1-1-3.91A7.37,7.37,0,0,1,264,51.9a1.91,1.91,0,0,1,.39-.66l.14-.18.16.17a149.57,149.57,0,0,1,23.48,34.6l0,0v.05c-.39,5.47-4.44,8.24-12.05,8.24a18.82,18.82,0,0,1-8.14-2,17.1,17.1,0,0,0-7.26-2c-2.55,0-4.81,1.58-6.73,4.7a14.65,14.65,0,0,0-2.52,7.6,12.66,12.66,0,0,0,.54,3.39,16.76,16.76,0,0,1,.56,4.51c0,1.13-.59,4-1.81,8.9a48.16,48.16,0,0,0-1.84,10.2,5.62,5.62,0,0,0,1.58,4.35,16,16,0,0,1,4.11,6.48c1.68,4.56,2.93,7.35,3.71,8.29s2.21,1.48,4.2,1.48a6.55,6.55,0,0,0,4.42-1.9,7.71,7.71,0,0,1,5.53-2c2.05,0,4.15,1.08,6.24,3.21,1.83,1.86,3.69,2.8,5.53,2.8h.37l.39,0c1.86,0,3.8.92,5.76,2.72a10,10,0,0,1,3.46,5.31,26.41,26.41,0,0,1-.35,7.07,7.11,7.11,0,0,0,3.9,6.54l.24.14-.21.19c-2.81,2.53-5.81,5-8.91,7.31l-.23.17Zm-172-35.4a13.82,13.82,0,0,1-5.23-1.32,14,14,0,0,0-5.82-1.38,13.7,13.7,0,0,0-2.41.34c-1.62.26-1.7.26-1.74.26-2.77-.37-3.34-.63-3.53-.8a.36.36,0,0,1-.09-.34c.06-.29.47-.78,3-2a12.89,12.89,0,0,1,4.68-1.82c.9,0,1.9-.07,3-.1h0a6.24,6.24,0,0,1,3.83,1.74,9.44,9.44,0,0,0,3.52,2,17.71,17.71,0,0,0,3.15.2c1.57.18,1.9,1,1.9,1.65a1.39,1.39,0,0,1-1.14,1.39A15.32,15.32,0,0,1,116.65,145.87Zm-18.5-6.45a5.37,5.37,0,0,1-3.17-1,22.84,22.84,0,0,0-3.31-2,12.89,12.89,0,0,1-3-1.93c-.84-.81-1.54-1.49-2.11-2.06-.81-.73-2.25-1.11-4.26-1.11-.49,0-1,0-1.58.07l-.87,0c-1.93,0-2.9-.57-2.9-1.68a1.88,1.88,0,0,1,.39-1.07,1.77,1.77,0,0,1,1.61-.93,25.3,25.3,0,0,1,3.13.2h.19A12.52,12.52,0,0,1,87.43,129c.25.1,1.74,1,4.57,2.61.11.09.48.4,1.92,1.51a14.15,14.15,0,0,0,2.36,1.57,10.38,10.38,0,0,0,3.89.84,1.83,1.83,0,0,1,1.83,2c0,1.26-1.3,1.9-3.85,1.9ZM237,90.83c-1.36,0-3-.73-5-2.16-.43-.32-.67-1.22-.74-2.85a8.93,8.93,0,0,0,0-2.55c-.1-.47-.63-1.53-2.62-4.18C226.2,76,226.2,76,226.2,75.88c0-2.12,1.47-3.62,4.36-4.45,2.66-.75,4-1.86,4-3.3,0-2.35-.46-3.89-1.35-4.57-3.29-.29-5.11-1.3-5.39-3q1.75-6.39.66-10.17a8.71,8.71,0,0,1,.88-7c1.63-2.89,2.46-4.89,2.46-5.93a9.47,9.47,0,0,0-.79-4.17A6.28,6.28,0,0,0,227,30.15c-.95-.28-2.54-1.56-4.85-3.9s-3.88-3.52-4.91-3.75a2.74,2.74,0,0,0-.48,0,1.23,1.23,0,0,0-1.31,1.11v1.27c.06,1.53,1.82,3.44,5.23,5.66,4.76,3.09,5.31,4.24,5.31,4.83a4,4,0,0,1-1.49,2.84,4.19,4.19,0,0,1-3,1.37,7,7,0,0,1-5.22-2.65c-1.76-2.37-3.17-4.21-4.22-5.49a73.25,73.25,0,0,0-5.6-5c-2.13-1.86-3.21-3.6-3.21-5.17s.94-2.72,2.8-3.63,2.57-1.66,2.57-2.45c0-.31-.55-1.25-4.28-4.15a21.39,21.39,0,0,1-3.07-2.87l-.47-.56.24.09q6.51,2.22,12.8,5l.25.11s-.15.52-.2.72a7.86,7.86,0,0,0-.3,1.53c0,.47.56,1.36,3.24,2.86,1.33.75,3.78,2,7.3,3.85,7.13,4,10.75,8.28,10.75,12.8a52.61,52.61,0,0,1-.71,5.71,56.24,56.24,0,0,0-.76,9.34v6c.27,1,1.6,1.57,3.95,1.57,1.06,0,2.31-.72,3.71-2.12a6.69,6.69,0,0,1,4.61-2.24,3.84,3.84,0,0,1,3,1,2.81,2.81,0,0,0,2.13.79,5,5,0,0,0,3.45-2c1.1-1.17,1.66-2.1,1.66-2.75a5.39,5.39,0,0,0-1.12-3A6.47,6.47,0,0,1,253.62,43a4.32,4.32,0,0,1,1-2.65l.13-.18.17.15c1.51,1.41,3,2.86,4.46,4.32.23.19.45.4.66.6l.2.2-.25.13a2.24,2.24,0,0,0-1.36,2.2A5.46,5.46,0,0,0,260.35,52c1.24,1.13,1.84,2.11,1.84,3s-1,1.38-3,1.42c-1.77,0-2.75.51-3,1.56-.15.73.74,2.61,5.82,7.36,5.65,5.28,6.3,6.64,6.3,7.19,0,.07,0,.58.05,1.52a2.05,2.05,0,0,1-2.28,1.63c-1.75,0-3.31-1.06-4.63-3.14a54.92,54.92,0,0,0-4-5.69c-.79-.79-2.9-2-6.28-3.71a44.41,44.41,0,0,0-4.84-2.37,4.34,4.34,0,0,0-2.7,1,4.85,4.85,0,0,0-1.64,4,10.72,10.72,0,0,0,1.69,5.12,10.93,10.93,0,0,1,1.7,4.61C241.86,85.8,239.09,90.83,237,90.83Zm-88.3-18A4.41,4.41,0,0,1,147,72.3a6.42,6.42,0,0,0-2.66-.48,34.92,34.92,0,0,1-3.6.26h-.41c-1.75,0-2.64-.71-2.64-2a3.08,3.08,0,0,1,1.85-2.52,13.51,13.51,0,0,0,3.44-2.76,2.52,2.52,0,0,1,1.58-.92c.56,0,.95.46,1.17,1.35.38,1.8.73,2.23.91,2.32s.45.14,2.55.68c1.32.29,2,.84,2,1.65a3.68,3.68,0,0,1-.53,1.9A2.32,2.32,0,0,1,148.65,72.87Zm65.1-18.2c-1.67,0-2.6-.44-2.75-1.32a16.11,16.11,0,0,0-.34-3.49c-.21-.86-.36-1.53-.46-2a3.41,3.41,0,0,0-.73-1.54c-1-.65-1.67-1.09-1.94-1.29a1.83,1.83,0,0,1-.68-1.56,3.71,3.71,0,0,1,.42-1.75,1.41,1.41,0,0,1,1.31-.8,5.11,5.11,0,0,1,2.69,1.19,14.3,14.3,0,0,0,4.13,2.31A27.61,27.61,0,0,1,220.13,46c2.44,1.11,3.62,2.15,3.62,3.18a4.46,4.46,0,0,1-.42,1.93,1.7,1.7,0,0,1-1.63,1.22c-1,0-1.85-.91-2.73-2.77S217,47,215.7,47a5.22,5.22,0,0,0-1.29.09c-.17,0-.36.16-.36.56a3.67,3.67,0,0,0,1.39,2.2c1,1,1.51,1.72,1.51,2.25C217,53.81,215.87,54.67,213.75,54.67ZM157.9,45.62a5.1,5.1,0,0,1-3.38-1,19.86,19.86,0,0,1-2.64-3.44h0a34.46,34.46,0,0,1-2.24-2.69,4.23,4.23,0,0,1-.59-2.62,6.24,6.24,0,0,1,.82-2.44,7.48,7.48,0,0,0,.73-3.16,7.32,7.32,0,0,0-.29-2.38,5.77,5.77,0,0,0-1.73-2,7.86,7.86,0,0,1-2-2.36,9.3,9.3,0,0,0-1.21-1.8,9.45,9.45,0,0,0-4.59-1.95,14.93,14.93,0,0,1-2.1-.47,1.34,1.34,0,0,1-.88-.64,1.61,1.61,0,0,1,0-1.26,2.56,2.56,0,0,1,2.2-1.83c1.08-.26,2.13-.56,3.13-.89a29.64,29.64,0,0,0,4.11-2c2.09-1.24,5.32-1.87,9.6-1.87a10.82,10.82,0,0,1,3.38,1.12,11.47,11.47,0,0,1,3,1.59l1.39,1.19a10.35,10.35,0,0,1,1.63,1.58c.43.5.66,1.65.69,3.51a5.44,5.44,0,0,0,3.33,4.33c1.87.83,2.82,1.9,2.82,3.18,0,1-.8,1.79-2.38,2.39a15.52,15.52,0,0,0-5.58,3.45,19.3,19.3,0,0,0-2.58,3,7.17,7.17,0,0,0-1.66,3.74,2.53,2.53,0,0,0,.41,1.53A2.42,2.42,0,0,1,161.8,43a2.37,2.37,0,0,1-1.51,2A5.16,5.16,0,0,1,157.9,45.62Zm-4-31.55a10.92,10.92,0,0,0-5.2,1,2.83,2.83,0,0,0-1.7,2.11,3,3,0,0,0,1.89,2.74c2.5,1.28,3,1.73,3.22,1.95.56.73,1.28,1.6,2.14,2.6a4.86,4.86,0,0,1,.95,2.93,16.62,16.62,0,0,1-.91,2.81,15.87,15.87,0,0,0-.89,4.39,2.27,2.27,0,0,0,.91,2,3.39,3.39,0,0,0,1.94.51,3,3,0,0,0,2.3-.89,2.45,2.45,0,0,0,.65-2,5.69,5.69,0,0,1,1.19-4.34c.46-.65,1.63-1.16,3.57-1.58,1.41-.28,2.09-.95,2.09-2.05,0-.37-.46-1.14-2.67-2.74-1.88-1.37-2.83-2.85-2.83-4.41C160.6,15.7,158.43,14.07,154,14.07Zm33.55,23a3.54,3.54,0,0,1-2-.58A3,3,0,0,0,183.8,36l-2.59.25a5.29,5.29,0,0,1-2.35-.62,2.6,2.6,0,0,1-1.76-2.33,1.52,1.52,0,0,1,.29-.91,1,1,0,0,1,.86-.44,8.62,8.62,0,0,1,1.49.26,2.93,2.93,0,0,0,1.55-.48,5.76,5.76,0,0,1,2.27-1h0a17.14,17.14,0,0,1,3.69.45c2.3.53,3.41,1.34,3.41,2.49a5.23,5.23,0,0,1-.52,1.74A2.88,2.88,0,0,1,187.5,37.11Z" transform="translate(0)" fill="#70a32d"/><path d="M178,215.07A245.08,245.08,0,0,1,91.91,199.9l-.16-.06,0-.16a28.84,28.84,0,0,1,3.58-8.41c2.53-4.28,3.68-8,3.42-11.19A13.19,13.19,0,0,1,101,171.4a5.92,5.92,0,0,1,5-2.78,8.89,8.89,0,0,1,2.54.41c3.21,1,7.5,3.55,12.76,7.58,1.37,1,3.34,2.63,5.86,4.75a10.78,10.78,0,0,0,6.12,2.36c.68,0,3.57-.36,8.57-1.05h0a6.93,6.93,0,0,1,5.11,1.76,12.26,12.26,0,0,1,2.3,4.06,27.86,27.86,0,0,0,2,4.62,9.14,9.14,0,0,0,4.3,3.57,8.26,8.26,0,0,1,3.65,3.38c1,1.62,2,2.58,2.84,2.87a57.79,57.79,0,0,0,7.28,1.94,14.43,14.43,0,0,0,2.39.28c.61,0,.69-.12.69-.12v-.2h.22c.56,0,2.78-.15,6.8-.4,4.09,0,6.16,1.56,6.16,4.65a14.41,14.41,0,0,1-1.32,5.78l0,.11h-.12C182.09,215,180.06,215.07,178,215.07ZM297.6,174.14a7.5,7.5,0,0,1-4.1-6.92,26.51,26.51,0,0,0,.35-7,9.53,9.53,0,0,0-3.33-5.09c-1.89-1.74-3.73-2.61-5.49-2.61h-.76c-1.95,0-3.91-1-5.81-2.92s-4-3.09-6-3.09a7.33,7.33,0,0,0-5.26,1.94,6.91,6.91,0,0,1-4.69,2c-2.12,0-3.64-.55-4.51-1.63s-2.05-3.74-3.78-8.4a15.54,15.54,0,0,0-4-6.32,6,6,0,0,1-1.72-4.65,47.87,47.87,0,0,1,1.86-10.3,55.84,55.84,0,0,0,1.79-8.8,16.36,16.36,0,0,0-.54-4.4,13.16,13.16,0,0,1-.56-3.5,15,15,0,0,1,2.58-7.81c2-3.24,4.37-4.89,7.07-4.89a17.62,17.62,0,0,1,7.44,2,18.39,18.39,0,0,0,8,2c7.36,0,11.28-2.65,11.65-7.86l.05-.75.33.67c9.63,19.8,14.52,41.9,14.52,65.69a162.29,162.29,0,0,1-1.1,19v.07l0,.05c-1.18,1.16-2.43,2.3-3.71,3.41l-.1.09ZM48.9,110.07a4.29,4.29,0,0,1-3.14-1.46A6,6,0,0,1,44,104.07a32.69,32.69,0,0,1,1.31-7.95,35.18,35.18,0,0,0,1.24-6.3,7.73,7.73,0,0,0-2-5.61c-1.43-1.47-2.16-2.78-2.16-3.89A9.39,9.39,0,0,1,44,74.65a24.84,24.84,0,0,1,4.19-3.89A34.43,34.43,0,0,0,58.76,56.25a34.66,34.66,0,0,1,3.37-6.79,26,26,0,0,1,6.05-5.9c7.36-5.41,7.44-5.45,7.48-5.47,2.79-2.67,4-5.59,3.44-8.64.69-2.92,1.89-4.62,3.59-5.12a18.1,18.1,0,0,1,5.16-.76c1.83,0,3.56,1.1,5.16,3.18a10,10,0,0,1,2.14,6.32c0,3.34-1.92,5.9-5.72,7.63a16.21,16.21,0,0,0-3.8,2.17A5.51,5.51,0,0,0,84,47.12a3.79,3.79,0,0,0,2,3.48,17.42,17.42,0,0,0,4.65,1.57,20.47,20.47,0,0,1,4.7,1.63,4.27,4.27,0,0,1,2.2,3.82,9.73,9.73,0,0,1-1.32,4,9.82,9.82,0,0,0-1.28,4.26,5.81,5.81,0,0,0,.48,2.32,3.1,3.1,0,0,0,3.07,1.93c6.58,0,11.22-2.82,13.77-8.38,2.25-5,2.65-5.78,2.77-5.94a5.94,5.94,0,0,1,9-1.18,4.5,4.5,0,0,0,3.27,1.26h.91a6.73,6.73,0,0,1,3.53.84,3,3,0,0,1,1.55,2.62c0,2.32-1.07,3.54-3.19,3.65q-3.9-.41-6.5-.41H123c-1.59,0-3.82.91-6.65,2.62S112,68.45,112,69.57a3,3,0,0,0,1.56,2.68,3.11,3.11,0,0,1,1.69,2.67c0,1.71-1.25,3.18-3.71,4.38-3,1.07-5.09,1.82-6.22,2.26a15.75,15.75,0,0,0-6.56,5.33,42.55,42.55,0,0,0-3.18,5.32,13.47,13.47,0,0,1-4.92,5.18A15.3,15.3,0,0,1,84,100a23.79,23.79,0,0,0-8.28,2.63,15.5,15.5,0,0,1-7,1.87,15.57,15.57,0,0,1-5.93-1.42,21.73,21.73,0,0,0-3.67-1.43c-2.31,0-4.2,1.38-5.62,4.09C51.91,108.66,50.43,110.07,48.9,110.07Zm187.79-52.6c-2.52,0-4-.64-4.29-1.9v-6a56.51,56.51,0,0,1,.76-9.28,53.26,53.26,0,0,0,.69-5.57c0-4.3-3.49-8.43-10.39-12.28-3.47-1.78-5.89-3.06-7.21-3.8-2.28-1.28-3.4-2.32-3.4-3.17a8.39,8.39,0,0,1,.31-1.6c0-.21.21-.78.21-.78l.21.1A149.35,149.35,0,0,1,254,40.42l.13.13-.11.14a3.93,3.93,0,0,0-.86,2.38,6,6,0,0,0,1.12,3.58,5.76,5.76,0,0,1,1.18,3.22c0,.76-.57,1.74-1.75,3a5.34,5.34,0,0,1-3.7,2.06A3.16,3.16,0,0,1,247.6,54a3.45,3.45,0,0,0-2.71-.84,6.23,6.23,0,0,0-4.26,2.09C239.17,56.73,237.84,57.47,236.69,57.47ZM156.3,37.52a3.72,3.72,0,0,1-2.16-.59,2.61,2.61,0,0,1-1.09-2.31,16.34,16.34,0,0,1,.91-4.51,26.64,26.64,0,0,0,.89-2.7,4.48,4.48,0,0,0-.86-2.67c-.86-1-1.59-1.87-2.15-2.6a12.76,12.76,0,0,0-3.08-1.84,3.45,3.45,0,0,1-2.11-3.13,3.26,3.26,0,0,1,1.91-2.43A11.32,11.32,0,0,1,154,13.67c4.68,0,7.05,1.82,7.05,5.4,0,1.43.9,2.8,2.67,4.09,1.93,1.4,2.83,2.38,2.83,3.06,0,1.3-.81,2.12-2.41,2.45-1.81.38-2.93.86-3.33,1.42a5.28,5.28,0,0,0-1.11,4.05,2.89,2.89,0,0,1-.75,2.36A3.4,3.4,0,0,1,156.3,37.52Z" transform="translate(0)" fill="#7fbd2d"/><path d="M72.6,191.17l-.15.7a43.2,43.2,0,0,0-1,9.55,37.06,37.06,0,0,0,4.7,19q3.11,5.29,10.3,11.85,7.95,7.2,10.3,10.5a25,25,0,0,1,4.7,15,52.78,52.78,0,0,1-1.55,9.5,51,51,0,0,0-1.6,9.75,13,13,0,0,0,3.8,9.45,35,35,0,0,0,8.3,5.65,41.74,41.74,0,0,1,8.3,5.35,11.61,11.61,0,0,1,1.6,1.8,159.19,159.19,0,0,0,31.25,3,163.76,163.76,0,0,0,23.5-1.65c-.34-.54-.69-1.06-1.05-1.55-1.3-1.67-2.13-2.79-2.5-3.35-.93-1.4-1.4-4.19-1.4-8.35q0-8.06,1.95-13a19.93,19.93,0,0,1,5.85-7.85,80.19,80.19,0,0,1,9.55-6.25q8.25-4.8,13.1-8.25,2.55-1.8,3.2-9.35a87.73,87.73,0,0,1,1-9.25c3.23-6.84,4.92-10.43,5.05-10.8a31.26,31.26,0,0,0,1.75-10.65q-8.06,1.19-16.5,1.8a.38.38,0,0,1,0,.15c-.07.7-.13,1.53-.2,2.5a11.93,11.93,0,0,1-2.4,4.35,59.34,59.34,0,0,0-3.8,4.85,50.34,50.34,0,0,1-4.45,5.6c-1.57,2-2.28,3.61-2.15,5a10.17,10.17,0,0,1-.7,5,10.48,10.48,0,0,1-2.3,3.9,6.77,6.77,0,0,1-5.4,2,6.11,6.11,0,0,0-5,1.55l-2.6,2.7a25.06,25.06,0,0,1-2.1,2,3.34,3.34,0,0,0-1.3,2.05,17.1,17.1,0,0,1-.6,2.2c-.73,1.33-1.15,2.08-1.25,2.25a11.58,11.58,0,0,1-2.75,2.45,21.3,21.3,0,0,1-2.85,1.75,23.46,23.46,0,0,0-2.6,1.55,34.19,34.19,0,0,0-4.1,4.2c-1.87,2.06-3.08,3.1-3.65,3.1-1.1,0-2.82-1-5.15-3.1-1.43-1.33-2.67-1.75-3.7-1.25q-2.05,1.1,2.75,4.05c3.13,1.93,4.7,3.37,4.7,4.3s-.88,1.75-2.65,2.65q-3.75,1.31-6.05,2.35c-1,.4-1.93,1.61-2.9,3.65s-1.23,3.43-.9,4.3a4.34,4.34,0,0,0,3.7,3.55c1,.2,2.5.41,4.5.65,2.4-.1,3.72.12,4,.65s0,.88-.65,1.15a11.39,11.39,0,0,1-1.45.6c-.3.06-.93.15-1.9.25H132.3a24.06,24.06,0,0,1-8.15-3.55q-4.45-3.21-6.4-4.45a10,10,0,0,1-4-6.4,31.22,31.22,0,0,1-.7-7.3,41.91,41.91,0,0,1,.5-4.75,47.36,47.36,0,0,0,.45-5.6,52.86,52.86,0,0,0-.5-7c-.47-3.3-.78-5.84-1-7.6a30.08,30.08,0,0,0-1.75-9,17.74,17.74,0,0,0-3.85-5.35,27.64,27.64,0,0,0-4.05-2.7,41,41,0,0,1-4.7-2.95,9.63,9.63,0,0,1-2.85-4.35c-.5-2-.87-3.42-1.1-4.15a12,12,0,0,0-3-4.75s-1.35-1.17-4-3.4a13.54,13.54,0,0,1-4.85-10.7,24.4,24.4,0,0,1,1-6.65Q78,193.76,72.6,191.17m207.65-3.95a.88.88,0,0,1,.05.15,29,29,0,0,1,.75,6.2q0,4.6-3.25,10.8a89.13,89.13,0,0,0-4.65,9.75,55.64,55.64,0,0,0-1.65,7.65,65.09,65.09,0,0,0-.45,8.1,10.36,10.36,0,0,0,3.85,8c.16.13.31.27.45.4q.78-1.05,1.5-2.1c.37-.53.75-1.07,1.15-1.6,0-.47-.05-1-.05-1.55q0-3.75,2.15-11.6a49.49,49.49,0,0,0,2.25-13.2,15.94,15.94,0,0,1,4-10.1q3.94-4.76,3.95-9.6a25.16,25.16,0,0,0-1.5-7.25Q284.71,184.39,280.25,187.22Z" transform="translate(0)" fill="#23cee0"/><path d="M55.9,182.82a209.09,209.09,0,0,1-41.2-30.45A162,162,0,0,1,1.05,137.72Q.5,144.53.5,151.57q0,62.51,44.25,106.75,32.73,32.76,75.5,41.25a11.61,11.61,0,0,0-1.6-1.8,41.74,41.74,0,0,0-8.3-5.35,35,35,0,0,1-8.3-5.65,13,13,0,0,1-3.8-9.45,51,51,0,0,1,1.6-9.75,52.78,52.78,0,0,0,1.55-9.5,25,25,0,0,0-4.7-14.95q-2.36-3.3-10.3-10.5-7.2-6.56-10.3-11.85a37.06,37.06,0,0,1-4.7-19,43.2,43.2,0,0,1,1-9.55l.15-.7q-8.46-4-16.7-8.7m224.35,4.4q-5.07,3.3-10.55,6.25a176.28,176.28,0,0,1-58.2,18.8,31.26,31.26,0,0,1-1.75,10.65q-.19.56-5.05,10.8a88.17,88.17,0,0,0-1,9.25q-.64,7.54-3.2,9.35-4.84,3.45-13.1,8.25a80.19,80.19,0,0,0-9.55,6.25,20,20,0,0,0-5.85,7.85q-2,4.95-1.95,13,0,6.25,1.4,8.35c.37.57,1.2,1.68,2.5,3.35.36.49.71,1,1.05,1.55q47.34-6.89,82.9-42.2a4.17,4.17,0,0,1,.35-.4,157.37,157.37,0,0,0,17.1-20c-.14-.13-.29-.27-.45-.4a10.36,10.36,0,0,1-3.85-8,65.09,65.09,0,0,1,.45-8.1,55.64,55.64,0,0,1,1.65-7.65,89.13,89.13,0,0,1,4.65-9.75q3.26-6.19,3.25-10.8a29,29,0,0,0-.75-6.2A.88.88,0,0,0,280.25,187.22Z" transform="translate(0)" fill="#08bde9"/><path d="M20.75,84.32a19.25,19.25,0,0,0-2.4-4.8,143.47,143.47,0,0,0-17.3,58.2A162,162,0,0,0,14.7,152.37a209.09,209.09,0,0,0,41.2,30.45q8.24,4.71,16.7,8.7a34.06,34.06,0,0,0,.9-7.05q0-6-3-8.95-5.35-4.05-10.1-8.2-1.55-1.35-4.95-9.4-3-7.2-7.15-9a50.55,50.55,0,0,0-6.2-1.65,9,9,0,0,1-4.9-2.55c-.07-.07-.73-1.72-2-4.95a39.65,39.65,0,0,0-2.75-6.1,24.23,24.23,0,0,0-3.85-4.25c-2.37-2.13-3.62-3.27-3.75-3.4a14.91,14.91,0,0,1-4-10.8,43.06,43.06,0,0,1,.8-8.4,45.82,45.82,0,0,0,.8-9q0-8.66-1.7-13.5M231.2,97.37a12,12,0,0,0-2.55-5.05,16.8,16.8,0,0,0-4.4-3,16.15,16.15,0,0,1-4.05-2.7q-2.14-2.5-3-11-.56-8.74-.85-10.35-.3-1.8-5.9-5-.5-.26-9.1-4.7-.3-.15-9.65-6.35-5.44-3.65-10.25-3.65-6.65,0-9.55,4.35c-1.17,1.73-1.87,2.72-2.1,3a4.87,4.87,0,0,1-3.6,1.35,12.86,12.86,0,0,1-5.25-1.8,5.34,5.34,0,0,0-6.4.55c-1.95,1.63-1.64,3.32.9,5.05q9,10.15,9,18.65,0,10.25-18.35,14.75a96.63,96.63,0,0,1-12.5,2,71.89,71.89,0,0,0-13.9,2.8q-6.2,2-13.65,10.55t-7.4,14.9a7.5,7.5,0,0,0,4.75,7.2q2.36,1.09,10.5,2.7,7.31,1.46,10.45,3.55,4.76,3.19,4.75,9.75,0,2.21-2.4,5.65t-2.4,4.4q0,3.85,10.1,5.95,5.85,1.16,19.65,3.05,9.15,1.69,11.8,8.4a49.77,49.77,0,0,1,1.55,5.7,19.8,19.8,0,0,0,1.9,5.25q2.1,3.56,12.35,6.6,3.6,1,16,3.8,7.16,1.6,10.6,6.35,3.27,4.6,3.2,12.4h0a176.28,176.28,0,0,0,58.2-18.8q5.47-3,10.55-6.25a25.67,25.67,0,0,1-.75-5.5,57.39,57.39,0,0,0,.25-8.9q-.34-5.74-3.8-5.75a4.36,4.36,0,0,0-3.5,1.25c-.63,1.2-1.15,2.13-1.55,2.8q-2.3,4-11.4,4L247.65,174a24,24,0,0,1-7.3-1.95,17.29,17.29,0,0,1-6.7-5q-1.65-2.2-1.55-7.9a50.29,50.29,0,0,0,0-7.6q-.5-2.15-7.9-9c-.87-.8-1.63-3-2.3-6.5a43.82,43.82,0,0,1-.8-7.45q0-7.91,5.5-16l3.8-5.45a9.15,9.15,0,0,0,1.7-4.6A18.59,18.59,0,0,0,231.2,97.37Z" transform="translate(0)" fill="#27c8ee"/><path d="M297.7,174l.25.15a9.58,9.58,0,0,0,3,.15c.17-1.22.32-2.45.45-3.7q-1.78,1.74-3.7,3.4m-190.6,54.7q9.15,4.16,10.85,12a35.24,35.24,0,0,1,.5,7.65c0,1.83-.12,4.72-.25,8.65a67.36,67.36,0,0,0,.65,8.8,46,46,0,0,1,.15,8.9q-.34,5.25,1,8.15A5.13,5.13,0,0,0,125,286c1.27,0,2-1,2.25-3,.23-2.2.65-3.45,1.25-3.75q1.25-.6,6.05-.45,4.2-.3,4.2-3.55c0-.33-.48-.7-1.45-1.1-1.33-.5-2.38-.93-3.15-1.3q-4.6-2.21-4.6-6.25a6.21,6.21,0,0,1,1.25-3.85,4.69,4.69,0,0,1,3.95-1.9,11.08,11.08,0,0,1,5,1.8q3.15,1.75,4.55,1.75,1.2,0,5-6.85a88.46,88.46,0,0,1,4.55-7.8,21.79,21.79,0,0,1,4.9-3q1.95-.9,5.55-2.45a4.56,4.56,0,0,0,2.6-2.55,12.9,12.9,0,0,1,1.15-3.35,6.76,6.76,0,0,1,3.25-3.1,13.78,13.78,0,0,0,3.65-1.5c1.13-.73,2-2.17,2.7-4.3a12.49,12.49,0,0,0,.65-3.2,26.05,26.05,0,0,1,3.85-8.8,21.45,21.45,0,0,0,1.55-3q-3,.1-6,.1A244,244,0,0,1,91.5,199.52a14.14,14.14,0,0,0-.3,2.8,9.17,9.17,0,0,0,4,7.5c2.77,2.13,4.23,4.58,4.4,7.35a13.57,13.57,0,0,0,2.35,6.8A12.41,12.41,0,0,0,107.1,228.67Z" transform="translate(0)" fill="#6ead1c"/><path d="M260.75,90q-3.94,0-6.9,4.8a14.72,14.72,0,0,0-2.55,7.7,12.77,12.77,0,0,0,.55,3.45,16.27,16.27,0,0,1,.55,4.45,55.72,55.72,0,0,1-1.8,8.85,48.22,48.22,0,0,0-1.85,10.25,5.78,5.78,0,0,0,1.65,4.5,15.76,15.76,0,0,1,4,6.4q2.55,6.9,3.75,8.35c.83,1,2.28,1.55,4.35,1.55a6.69,6.69,0,0,0,4.55-1.95,7.52,7.52,0,0,1,5.4-2q3,0,6.1,3.15t6,2.85q2.89-.19,6,2.65a9.76,9.76,0,0,1,3.4,5.2,26.33,26.33,0,0,1-.35,7,7.29,7.29,0,0,0,4,6.75q1.92-1.66,3.7-3.4a162.07,162.07,0,0,0,1.1-19q0-35.8-14.5-65.6-.57,8.06-11.85,8a18.55,18.55,0,0,1-8-2,17.4,17.4,0,0,0-7.35-2M155,196.67a9.28,9.28,0,0,1-4.4-3.65,28.09,28.09,0,0,1-2-4.65,11.74,11.74,0,0,0-2.25-4,6.71,6.71,0,0,0-4.95-1.7q-7.54,1.05-8.6,1.05a10.94,10.94,0,0,1-6.25-2.4c-2.53-2.13-4.48-3.72-5.85-4.75q-7.89-6.06-12.7-7.55t-7.35,2.3a12.92,12.92,0,0,0-2.15,8.55q.41,4.8-3.45,11.3a28.79,28.79,0,0,0-3.55,8.35,244,244,0,0,0,86.05,15.15q3,0,6-.1a14.14,14.14,0,0,0,1.3-5.7q0-4.45-6-4.45c-4,.25-6.23.38-6.8.4a.14.14,0,0,1-.05.1c-.17.33-1.27.31-3.3,0a57.76,57.76,0,0,1-7.3-2c-.93-.3-1.92-1.28-2.95-2.95a8,8,0,0,0-3.55-3.3M75.75,38.27q-.1,0-7.45,5.45a25.79,25.79,0,0,0-6,5.85A34,34,0,0,0,59,56.32a34.48,34.48,0,0,1-10.6,14.6,24.77,24.77,0,0,0-4.15,3.85,9.13,9.13,0,0,0-1.65,5.55q0,1.61,2.1,3.75a7.87,7.87,0,0,1,2.1,5.75,34.84,34.84,0,0,1-1.25,6.35,32.33,32.33,0,0,0-1.3,7.9,5.87,5.87,0,0,0,1.7,4.4,4.11,4.11,0,0,0,3,1.4q2.15,0,4.35-4.2t5.8-4.2a22.79,22.79,0,0,1,3.75,1.45,15.34,15.34,0,0,0,5.85,1.4,15.24,15.24,0,0,0,6.95-1.85A23.91,23.91,0,0,1,84,99.82a15,15,0,0,0,6.6-2.6,13.16,13.16,0,0,0,4.85-5.1,43,43,0,0,1,3.2-5.35,16,16,0,0,1,6.65-5.4q1.69-.65,6.2-2.25,3.6-1.75,3.6-4.2a2.91,2.91,0,0,0-1.6-2.5,3.23,3.23,0,0,1-1.65-2.85q0-1.8,4.45-4.5c2.87-1.73,5.12-2.62,6.75-2.65a60.71,60.71,0,0,1,7.05.4q3-.15,3-3.45a2.83,2.83,0,0,0-1.45-2.45,6.9,6.9,0,0,0-3.9-.8,4.82,4.82,0,0,1-3.85-1.3,5.43,5.43,0,0,0-3.85-1.5A5.5,5.5,0,0,0,115.15,56c-.17.23-1.08,2.2-2.75,5.9q-3.9,8.51-14,8.5a3.31,3.31,0,0,1-3.25-2.05,6,6,0,0,1-.5-2.4A9.94,9.94,0,0,1,96,61.57a9.64,9.64,0,0,0,1.3-4A4.07,4.07,0,0,0,95.2,54a20.64,20.64,0,0,0-4.65-1.6,17.57,17.57,0,0,1-4.7-1.6,4,4,0,0,1-2.1-3.65,5.65,5.65,0,0,1,1.75-4.4,16.8,16.8,0,0,1,3.85-2.2Q94.95,38,95,33.07a9.83,9.83,0,0,0-2.1-6.2c-1.57-2-3.23-3.07-5-3.1a18,18,0,0,0-5.1.75q-2.44.74-3.45,4.9.8,4.69-3.55,8.85m72.9-23.35a3,3,0,0,0-1.8,2.25,3.24,3.24,0,0,0,2,2.95A13.78,13.78,0,0,1,152,22c.57.73,1.28,1.6,2.15,2.6a4.68,4.68,0,0,1,.9,2.8,27.64,27.64,0,0,1-.9,2.75,15.92,15.92,0,0,0-.9,4.45,2.44,2.44,0,0,0,1,2.15,3.52,3.52,0,0,0,2.05.55,3.23,3.23,0,0,0,2.45-1,2.67,2.67,0,0,0,.7-2.2A5.42,5.42,0,0,1,160.6,30q.65-.9,3.45-1.5,2.25-.45,2.25-2.25c0-.6-.92-1.57-2.75-2.9s-2.75-2.75-2.75-4.25q0-5.21-6.85-5.2a11.06,11.06,0,0,0-5.3,1.05m85.2,19.8a52.07,52.07,0,0,1-.7,5.6,56.15,56.15,0,0,0-.75,9.25v6c.3,1.17,1.67,1.75,4.1,1.75,1.1,0,2.37-.72,3.8-2.15A6.41,6.41,0,0,1,244.7,53a3.6,3.6,0,0,1,2.85.9,2.92,2.92,0,0,0,2.25.85,5.11,5.11,0,0,0,3.55-2c1.13-1.2,1.7-2.15,1.7-2.85a5.47,5.47,0,0,0-1.15-3.1,6.16,6.16,0,0,1-1.15-3.7,4.11,4.11,0,0,1,.9-2.5,148.72,148.72,0,0,0-40.35-27.2c-.05.16-.1.35-.15.55a8.7,8.7,0,0,0-.3,1.55q0,1.15,3.3,3,1.95,1.09,7.2,3.8Q233.85,28.12,233.85,34.72Z" transform="translate(0)" fill="#7fbd2d"/><path d="M118,240.32q-1.7-7.86-10.85-12a12.41,12.41,0,0,1-5.2-4.7,13.57,13.57,0,0,1-2.35-6.8c-.17-2.77-1.63-5.22-4.4-7.35a9.17,9.17,0,0,1-4-7.5,14.14,14.14,0,0,1,.3-2.8c-2.69-1-5.38-2-8-3.15a24.4,24.4,0,0,0-1,6.65,13.54,13.54,0,0,0,4.85,10.7q3.9,3.34,4,3.4a12,12,0,0,1,3,4.75c.23.73.6,2.12,1.1,4.15A9.63,9.63,0,0,0,98.15,230a41,41,0,0,0,4.7,2.95,27.64,27.64,0,0,1,4.05,2.7,17.74,17.74,0,0,1,3.85,5.35,30.08,30.08,0,0,1,1.75,9c.17,1.76.48,4.3,1,7.6a52.86,52.86,0,0,1,.5,7,47.36,47.36,0,0,1-.45,5.6A41.91,41.91,0,0,0,113,275a31.22,31.22,0,0,0,.7,7.3,10,10,0,0,0,4,6.4q1.95,1.24,6.4,4.45a24.06,24.06,0,0,0,8.15,3.55h6.75c1-.1,1.6-.19,1.9-.25a11.39,11.39,0,0,0,1.45-.6c.63-.27.85-.65.65-1.15s-1.55-.75-4-.65c-2-.24-3.5-.45-4.5-.65a4.34,4.34,0,0,1-3.7-3.55q-.5-1.31.9-4.3c1-2,1.93-3.25,2.9-3.65q2.3-1,6.05-2.35c1.77-.9,2.65-1.79,2.65-2.65s-1.57-2.37-4.7-4.3-4.12-3.32-2.75-4.05c1-.5,2.27-.08,3.7,1.25,2.33,2.06,4,3.1,5.15,3.1.57,0,1.78-1,3.65-3.1a34.19,34.19,0,0,1,4.1-4.2,23.46,23.46,0,0,1,2.6-1.55,21.3,21.3,0,0,0,2.85-1.75,11.58,11.58,0,0,0,2.75-2.45c.1-.17.52-.92,1.25-2.25a17.1,17.1,0,0,0,.6-2.2,3.34,3.34,0,0,1,1.3-2.05,25.06,25.06,0,0,0,2.1-2l2.6-2.7a6.11,6.11,0,0,1,5-1.55,6.77,6.77,0,0,0,5.4-2,10.48,10.48,0,0,0,2.3-3.9,10.17,10.17,0,0,0,.7-5c-.13-1.34.58-3,2.15-5a50.34,50.34,0,0,0,4.45-5.6,59.34,59.34,0,0,1,3.8-4.85,11.93,11.93,0,0,0,2.4-4.35q.1-1.55.21-2.64h0c-3.73.26-7.54.43-11.4.5a21.45,21.45,0,0,1-1.55,3,26.05,26.05,0,0,0-3.85,8.8,12.57,12.57,0,0,1-.65,3.2,7.69,7.69,0,0,1-2.7,4.3,13.78,13.78,0,0,1-3.65,1.5,6.76,6.76,0,0,0-3.25,3.1,12.77,12.77,0,0,0-1.15,3.35,4.56,4.56,0,0,1-2.6,2.55q-3.6,1.54-5.55,2.45a21.79,21.79,0,0,0-4.9,2.95,86.64,86.64,0,0,0-4.55,7.8c-2.53,4.56-4.2,6.85-5,6.85s-2.45-.59-4.55-1.75a11.08,11.08,0,0,0-5-1.8,4.69,4.69,0,0,0-3.95,1.9,6.21,6.21,0,0,0-1.25,3.85q0,4.05,4.6,6.25c.77.37,1.82.8,3.15,1.3,1,.4,1.45.76,1.45,1.1,0,2.16-1.4,3.35-4.2,3.55q-4.8-.15-6.05.45c-.6.3-1,1.55-1.25,3.75-.23,2-1,2.95-2.25,2.95a5.13,5.13,0,0,1-4.9-3.15c-.93-1.94-1.28-4.65-1-8.15a46,46,0,0,0-.15-8.9,67.36,67.36,0,0,1-.65-8.8c.13-3.93.22-6.82.25-8.65a35.24,35.24,0,0,0-.5-7.65M297.7,174q-4.24,3.81-8.9,7.3a25.16,25.16,0,0,1,1.5,7.25q0,4.84-3.95,9.6a15.94,15.94,0,0,0-4,10.1,49.49,49.49,0,0,1-2.25,13.2Q278,229.27,278,233c0,.57,0,1.08.05,1.55A141.68,141.68,0,0,0,301,174.27a9.58,9.58,0,0,1-3-.15Z" transform="translate(0)" fill="#5c8a20"/><path d="M65.15,36.47a24.77,24.77,0,0,0,7-6.85,38.8,38.8,0,0,0,3.4-8.95,155,155,0,0,0-30.8,24.15q-2.1,2.05-4,4.2c-.77.73-1.48,1.48-2.15,2.25A157.23,157.23,0,0,0,24.7,69.12c-.67,1-1.32,1.95-1.95,2.95q-2.33,3.68-4.4,7.45a19.25,19.25,0,0,1,2.4,4.8q1.7,4.84,1.7,13.5a45.82,45.82,0,0,1-.8,9,43.06,43.06,0,0,0-.8,8.4,14.91,14.91,0,0,0,4,10.8c.13.13,1.38,1.27,3.75,3.4a24.23,24.23,0,0,1,3.85,4.25,39.65,39.65,0,0,1,2.75,6.1c1.27,3.23,1.93,4.88,2,4.95a9,9,0,0,0,4.9,2.55,50.55,50.55,0,0,1,6.2,1.65q4.1,1.8,7.15,9,3.4,8.06,4.95,9.4,4.76,4.16,10.1,8.2,3,3,3,8.95a34.06,34.06,0,0,1-.9,7.05q5.39,2.58,10.85,4.85a56.53,56.53,0,0,1,4.6-10.65q5.65-10.5,5.65-11.35a7,7,0,0,0-.15-2,3,3,0,0,0-1.55-1.3,5.84,5.84,0,0,0-3.3-.45,2.7,2.7,0,0,1-2.5-1.9,2.67,2.67,0,0,0-2.45-1.9,2.93,2.93,0,0,0-2.15,1.45,3,3,0,0,1-2.2,1.45q-1.65,0-3.85-3.15-2-3.34-2.25-3.75l-3.45-4.15a6.69,6.69,0,0,1-1.9-3.95,9.19,9.19,0,0,0-.35-2.55,3.38,3.38,0,0,0-2.2-2.45,20,20,0,0,0-4.25-.5,5.91,5.91,0,0,1-3.35-.95,6.81,6.81,0,0,1-1.85-2.5c-.43-1.13-.77-2-1-2.5q-1.31-2.66-7.4-4.8a17.33,17.33,0,0,1-6.45-4.25q-3.6-3.79-3.6-7a10,10,0,0,1,2-5.8c1.33-1.87,2-3.2,2-4,0-1.13-.67-3-2-5.5a15.34,15.34,0,0,1-2-6.5,16.89,16.89,0,0,1,1-5.75,15.08,15.08,0,0,0,1-4.8,6.51,6.51,0,0,0,0-1.65c-.13-1.13-.53-1.7-1.2-1.7q-2.4,0-2.8,3.75a26.38,26.38,0,0,0-.15,4.5,9.52,9.52,0,0,1-1.45,3.55,8.36,8.36,0,0,0-1.4,3.55,5.33,5.33,0,0,0,.85,2.8,5.62,5.62,0,0,1,.8,2.65c0,1.77-.6,2.65-1.8,2.65-.7,0-1.28-.82-1.75-2.45a10.43,10.43,0,0,1-.55-3,20.28,20.28,0,0,1,1.35-6.2,21.19,21.19,0,0,0,1.3-6.8A24,24,0,0,0,32.3,93a19.08,19.08,0,0,1-.4-3.5,11.84,11.84,0,0,1,.65-4.1A15,15,0,0,1,35.3,81a6.87,6.87,0,0,0,1.8-4.25,21.88,21.88,0,0,1,.6-4.7.62.62,0,0,1,0-.25,30.33,30.33,0,0,1,6.15-9.35q2.25-2.51,7.15-7.15c.33-.3.67-.62,1-1q2-1.84,5.1-8.45a24.31,24.31,0,0,1,8-9.45M229,43.62q2.44-4.35,2.45-5.95a9.49,9.49,0,0,0-.8-4.2,6.35,6.35,0,0,0-4.15-3.25c-.9-.27-2.47-1.53-4.7-3.8s-3.88-3.52-5-3.75a2.2,2.2,0,0,0-2.45,1.2v1.3c.52,1.6,2.27,3.52,5.7,5.75s5.15,3.77,5.15,4.6a3.7,3.7,0,0,1-1.4,2.65,3.91,3.91,0,0,1-2.8,1.3,6.69,6.69,0,0,1-5-2.55c-1.73-2.33-3.12-4.13-4.15-5.4a73,73,0,0,0-5.55-5q-3.1-2.7-3.1-4.95,0-2.1,2.65-3.4c1.77-.87,2.65-1.73,2.65-2.6q0-.9-4.3-4.25a20.42,20.42,0,0,1-3-2.8A152.47,152.47,0,0,0,151.5.57a150.43,150.43,0,0,0-53.95,9.5c-.6.73-1.28,1.55-2,2.45a6.91,6.91,0,0,0-1.8,4.2c0,.93.73,1.7,2.2,2.3a3.08,3.08,0,0,1,1.8,3.4q-.4,5.1,3.45,5.1a2.55,2.55,0,0,0,2.1-.8,2.4,2.4,0,0,0,.6-1.6,7,7,0,0,0-.7-1.85,5.57,5.57,0,0,1-.75-2,3.37,3.37,0,0,1,1.7-2.55,5.27,5.27,0,0,1,3-1.2,3,3,0,0,1,2.4.75,3.7,3.7,0,0,1,.25,1.65q0,2.29-2.6,5.4t-2.65,4.45c0,.4.67.6,2,.6q3,0,4.9-4.1c1.37-2.77,2.78-4.15,4.25-4.15a2.23,2.23,0,0,1,1.65.45,2.16,2.16,0,0,1,.45,1.55,3.61,3.61,0,0,1-.9,1.9,3.57,3.57,0,0,0-.85,3.6c.07.1.4.15,1,.15,1.07,0,2.33-.72,3.8-2.15a10.07,10.07,0,0,1,4.3-2.7c1.4-.37,3.38.52,6,2.65s3.75,3.58,3.75,4.45a7.86,7.86,0,0,1-.65,2.9,9.68,9.68,0,0,0-.6,2,4.15,4.15,0,0,0,.4,1.8,3.9,3.9,0,0,1,.35,1.55c0,.77-.57,1.42-1.7,1.95a10.26,10.26,0,0,1-4.15.75,6.69,6.69,0,0,1-4.25-1.5,4,4,0,0,1-1.7-2.9,14.39,14.39,0,0,1,.6-2.9c.37-1.53.55-2.37.55-2.5,0-1-.33-1.65-1-1.85a4.85,4.85,0,0,0-1.6-.15,3,3,0,0,0-2.15.8,17.17,17.17,0,0,1-2.6,2,14.07,14.07,0,0,1-2.25.55,10.76,10.76,0,0,0-2.7.9,39.21,39.21,0,0,1-4.75.7,36.08,36.08,0,0,0-4.9.75,23.85,23.85,0,0,0-5.3,4,5.7,5.7,0,0,0-1.6,3.75q0,1.5,4.85,3.8c3.23,1.57,4.85,3.28,4.85,5.15a9,9,0,0,1-1.25,3,8.42,8.42,0,0,0-1.25,4.1,4.15,4.15,0,0,0,.6,2.55,2.92,2.92,0,0,0,2.45.85,4,4,0,0,0,3.35-1.85,4.17,4.17,0,0,0,.7-3.9,3,3,0,0,1,.8-3.35,9.24,9.24,0,0,1,3.1-1.55,3.53,3.53,0,0,0,2.55-2.6,15.92,15.92,0,0,0,.15-3.8c-.13-3.2,1.23-4.8,4.1-4.8a5.8,5.8,0,0,1,3.1,1.3,7.87,7.87,0,0,1,2.15,2,3.64,3.64,0,0,1,.45,1.9,3.86,3.86,0,0,0,.1,1.45,2.15,2.15,0,0,0,1.05.6,3.52,3.52,0,0,0,.95.35q6.3-.94,6.9-.95a2.75,2.75,0,0,1,2.3,1.4,4,4,0,0,1,.2,3.1c-.37,1.27.38,2.58,2.25,3.95,2.53.23,3.87,1.18,4,2.85,0,.87-.62,2-1.85,3.3a6.29,6.29,0,0,1-4.45,2.3,18.09,18.09,0,0,0-3.4.35c-1.27.27-1.93.42-2,.45l-1.35,0a39,39,0,0,1-4.85-.35,6.85,6.85,0,0,0-3,.9c-1.33.67-2,1.33-2,2a1.51,1.51,0,0,0,.05.55c.07.13.33.2.8.2a8.31,8.31,0,0,0,2.55-.55,7.87,7.87,0,0,1,2.55-.55,9.49,9.49,0,0,1,2.25.4c1,.23,1.55.47,1.65.7a6.4,6.4,0,0,1,.2.85,3.69,3.69,0,0,1-.4,1.75c-.3.77.53,1.08,2.5,1s3,.27,3,1.2a3.67,3.67,0,0,1-1.85,2.8,10.53,10.53,0,0,1-6.5,1.85,13.86,13.86,0,0,1-2-.25,15.93,15.93,0,0,0-1.65-.35q-3.75,0-9,5a14,14,0,0,1-3.15,2.1c-2,1.13-3.18,1.77-3.45,1.9-1.83,1.17-2.87,3.3-3.1,6.4a6.07,6.07,0,0,1-4,5.7,33.07,33.07,0,0,0-8.65,5q-4.4,3.7-3.7,6.9c-.07.3-.18,2.17-.35,5.6q-.75,5-3.75,5-2,0-2-1.8c0-.13.25-1,.75-2.6a16.32,16.32,0,0,0,.7-4.5,7,7,0,0,0-1-4.15c-.83-1.13-2.42-1.7-4.75-1.7a17,17,0,0,0-3.75.5,15.38,15.38,0,0,1-3.8.55,13.39,13.39,0,0,1-4.85-.8,10.05,10.05,0,0,0-3-.8,9,9,0,0,0-5,2q-3,2.25-2.45,4.8c.47,2.07-.22,4-2.05,6a13.77,13.77,0,0,0-2.2,6.35,57.75,57.75,0,0,0-.3,6.3,4.86,4.86,0,0,0,2,4.1,4.49,4.49,0,0,0,2.55,1h1c2.73.18,4.43-.25,5.1-1a10,10,0,0,0,1-2.85q1-4.25,6-4.25a1.59,1.59,0,0,1,1.55.9,4.91,4.91,0,0,1,.2,1.65,4.67,4.67,0,0,1-1.45,2.75,4.87,4.87,0,0,0-1.45,2.9,5.05,5.05,0,0,0,.25,1.4,5.87,5.87,0,0,1,.2,1.35,4.08,4.08,0,0,1-1.3,2.4c-.93.93-1.4,1.62-1.4,2q0,1.4,1.5,1.5a17.21,17.21,0,0,0,3.25-.15q4.7-.3,4.7,4.55a8.18,8.18,0,0,1-.25,2.2,13,13,0,0,0-.25,3.1q0,8.4,5.75,8.4a7.76,7.76,0,0,0,2.25-.6,7.28,7.28,0,0,1,2.45-.65c.83,0,1.5.75,2,2.25s2,2.2,4.4,2.2a3.37,3.37,0,0,0,1-.1c.43-.1,1.08-.78,2-2.05a21.57,21.57,0,0,1,2.5-3.2q1.6-1.5,5.55-1.5,4.8,0,6.35,2.7t5.85,2.7a17.45,17.45,0,0,0,5.9-.75,10.36,10.36,0,0,1,4-.85,15.52,15.52,0,0,1,7.9,2.7c2.33,1.47,3.72,2.6,4.15,3.4a9.2,9.2,0,0,0,9,5.15q5.35-.19,9.95,4.6a16.45,16.45,0,0,1,4.9,9.55c.1,1.07.87,2,2.3,2.85q1.25.75,4.5,2.35a13.89,13.89,0,0,0,4.75.95c2,.23,3.13.77,3.5,1.6q1.5,3.6,11.3,3.1a15.13,15.13,0,0,1,7.25,1.2c2.57,1.17,3.85,2.83,3.85,5a9.77,9.77,0,0,1-.55,2.4,6.42,6.42,0,0,1-.85,1.95,4.54,4.54,0,0,0-.95,2.6c5.63-.41,11.13-1,16.4-1.8v-.35c.1-5-1-9-3.1-12q-3.45-4.76-10.6-6.35-12.4-2.75-16-3.8-10.24-3-12.35-6.6a19.8,19.8,0,0,1-1.9-5.25,49.77,49.77,0,0,0-1.55-5.7q-2.66-6.71-11.8-8.4-13.8-1.91-19.65-3.05-10.09-2.1-10.1-5.95,0-.95,2.4-4.4t2.4-5.65q0-6.56-4.75-9.75-3.15-2.1-10.45-3.55-8.15-1.6-10.5-2.7a7.5,7.5,0,0,1-4.75-7.2q0-6.26,7.4-14.9t13.65-10.55a71.89,71.89,0,0,1,13.9-2.8,96.63,96.63,0,0,0,12.5-2q18.35-4.5,18.35-14.75,0-8.5-9-18.65c-2.55-1.73-2.85-3.42-.9-5.05a5.34,5.34,0,0,1,6.4-.55,12.86,12.86,0,0,0,5.25,1.8,4.87,4.87,0,0,0,3.6-1.35c.23-.23.93-1.22,2.1-3q2.9-4.35,9.55-4.35,4.8,0,10.25,3.65,9.34,6.2,9.65,6.35,8.59,4.45,9.1,4.7,5.59,3.19,5.9,5,.3,1.6.85,10.35.9,8.55,3.05,11a16.15,16.15,0,0,0,4,2.7,16.8,16.8,0,0,1,4.4,3,12,12,0,0,1,2.55,5.05,18.59,18.59,0,0,1,.85,5.2,9.15,9.15,0,0,1-1.7,4.6l-3.8,5.45q-5.51,8.1-5.5,16a43.82,43.82,0,0,0,.8,7.45c.67,3.53,1.43,5.7,2.3,6.5q7.4,6.85,7.9,9a50.29,50.29,0,0,1,0,7.6q-.1,5.7,1.55,7.9a17.29,17.29,0,0,0,6.7,5,24,24,0,0,0,7.3,1.95l11.75,1.2q9.11,0,11.4-4c.4-.67.92-1.6,1.55-2.8a4.36,4.36,0,0,1,3.5-1.25q3.45,0,3.8,5.75a57.39,57.39,0,0,1-.25,8.9,25.67,25.67,0,0,0,.75,5.5q4.46-2.83,8.55-5.95c-.13-.47-.28-1-.45-1.45q-2-5.65-2-7.8a25.09,25.09,0,0,1,.45-3.6,23.94,23.94,0,0,0,.5-3.85,4.64,4.64,0,0,0-1.4-3.4,5.26,5.26,0,0,0-3.55-1.4,5.41,5.41,0,0,1-4.1-1.7,3.93,3.93,0,0,0-2.75-1.65q-2.4,0-4.6,3.9c-1.47,2.67-3,4.35-4.55,5.05a16.88,16.88,0,0,1-5.6,1.3h-6.4a7.1,7.1,0,0,1-5.2-2.6c-1.07-1.37-2-4-2.7-8a4.82,4.82,0,0,0-2.3-2.95,35.06,35.06,0,0,0-3.75-2c-2.13-1-3.45-2-4-3.2a12.67,12.67,0,0,1-.35-3.8,18.11,18.11,0,0,1,.5-3.45,17.9,17.9,0,0,0,.5-3.65,5.36,5.36,0,0,0-1.45-3.9q-1.6-1.6-1.9-5.25-.65-8-.65-10.3c0-2.3.3-3.88.9-4.75a64.5,64.5,0,0,1,4.8-5.55c.5-.6.85-2.08,1-4.45A12.62,12.62,0,0,1,241.7,97q.11,0,7.3-9.45,7.5-9.45,9.05-9.45,1.9,0,9.35,4.65t8.7,4.6a4.92,4.92,0,0,0,2.9-.65,3.49,3.49,0,0,0,.95-2.85,23.91,23.91,0,0,0-1.9-8.4q-2.6-6.6-6.7-6.35a4.6,4.6,0,0,1-3.8-1.8,6.22,6.22,0,0,1-1.6-4.2A14.62,14.62,0,0,0,265,58a14.06,14.06,0,0,1-1-3.85,7.36,7.36,0,0,1,.2-2.1,1.87,1.87,0,0,1,.35-.6q-2.81-3-5.65-6a2.41,2.41,0,0,0-1.45,2.35,5.56,5.56,0,0,0,1.8,4.3c1.17,1.07,1.75,2,1.75,2.8s-.92,1.17-2.75,1.2-2.88.57-3.15,1.7,1.7,3.62,5.8,7.45,6.15,6.15,6.15,7c0,.07,0,.57.05,1.5a1.84,1.84,0,0,1-2.05,1.4c-1.67,0-3.13-1-4.4-3a55,55,0,0,0-3.95-5.65q-1.2-1.2-6.25-3.7a43.23,43.23,0,0,0-4.85-2.35,4.35,4.35,0,0,0-2.8,1,5,5,0,0,0-1.7,4.05,10.74,10.74,0,0,0,1.7,5.15A10.78,10.78,0,0,1,244.45,75q-5.14,15-8.15,15-2,0-4.85-2.1c-.37-.27-.58-1.15-.65-2.65a9.66,9.66,0,0,0,0-2.6,16.14,16.14,0,0,0-2.6-4.15c-1.53-2-2.3-3-2.3-3q0-3,4.15-4.2t4.1-3.45q0-3.65-1.45-4.7-4.8-.41-5.2-2.8,1.75-6.25.65-10a8.35,8.35,0,0,1,.85-6.7M140.1,15.77q1.65-.4,3.15-.9a28.3,28.3,0,0,0,4.15-2c2.07-1.23,5.23-1.85,9.5-1.85a11.25,11.25,0,0,1,3.3,1.1,12.14,12.14,0,0,1,2.9,1.55c.07.07.53.47,1.4,1.2a10,10,0,0,1,1.6,1.55c.4.47.62,1.6.65,3.4a5.6,5.6,0,0,0,3.45,4.5q2.7,1.2,2.7,3c0,.9-.75,1.63-2.25,2.2A15.69,15.69,0,0,0,165,33a18.67,18.67,0,0,0-2.6,3,7.29,7.29,0,0,0-1.7,3.85,2.69,2.69,0,0,0,.45,1.65A2.22,2.22,0,0,1,161.6,43a2.18,2.18,0,0,1-1.4,1.85,5.29,5.29,0,0,1-5.55-.4,19.57,19.57,0,0,1-2.6-3.4q-.15-.1-2.25-2.7a4,4,0,0,1-.55-2.5,6.23,6.23,0,0,1,.8-2.35,7.6,7.6,0,0,0,.75-3.25,7.43,7.43,0,0,0-.3-2.45,5.86,5.86,0,0,0-1.8-2.05,7.73,7.73,0,0,1-1.9-2.3,10.06,10.06,0,0,0-1.25-1.85,9.75,9.75,0,0,0-4.7-2,19.62,19.62,0,0,1-2-.45q-1.2-.35-.75-1.65a2.36,2.36,0,0,1,2-1.7m-.5,52a13.81,13.81,0,0,0,3.5-2.8c1.23-1.23,2-1.12,2.4.35s.63,2.25,1,2.45c.07,0,.93.27,2.6.7,1.23.27,1.85.75,1.85,1.45a3.54,3.54,0,0,1-.5,1.8,2.12,2.12,0,0,1-1.8,1,4.17,4.17,0,0,1-1.6-.55,6.69,6.69,0,0,0-2.75-.5,30.28,30.28,0,0,1-4,.25c-1.63,0-2.45-.63-2.45-1.8,0-.87.58-1.65,1.75-2.35m47.9-31.3a3.31,3.31,0,0,1-1.85-.55,3.14,3.14,0,0,0-1.85-.6l-2.6.25a5.06,5.06,0,0,1-2.25-.6,2.42,2.42,0,0,1-1.65-2.15,1.31,1.31,0,0,1,.25-.8.82.82,0,0,1,.7-.35,10.64,10.64,0,0,1,1.45.25,3.17,3.17,0,0,0,1.7-.5,5.56,5.56,0,0,1,2.2-1,17.24,17.24,0,0,1,3.65.45c2.17.5,3.25,1.27,3.25,2.3a4.92,4.92,0,0,1-.5,1.65,2.7,2.7,0,0,1-2.5,1.65m19.55,7a3.41,3.41,0,0,1,.4-1.65q.86-1.6,3.7.45a14.83,14.83,0,0,0,4.2,2.35,28.38,28.38,0,0,1,4.7,1.6q3.49,1.61,3.5,3a4.24,4.24,0,0,1-.4,1.85,1.52,1.52,0,0,1-1.45,1.1c-.87,0-1.72-.88-2.55-2.65s-2.05-2.7-3.45-2.7a5.32,5.32,0,0,0-1.35.1.7.7,0,0,0-.5.75A3.78,3.78,0,0,0,215.3,50c1,.93,1.45,1.63,1.45,2.1,0,1.57-1,2.35-3,2.35-1.57,0-2.42-.38-2.55-1.15a15.74,15.74,0,0,0-.35-3.5c-.2-.87-.35-1.53-.45-2a3.57,3.57,0,0,0-.8-1.65c-1-.67-1.68-1.1-1.95-1.3a1.64,1.64,0,0,1-.6-1.4m-98.5,95.8a5.86,5.86,0,0,1,3.7,1.7,9.71,9.71,0,0,0,3.6,2.05,18.46,18.46,0,0,0,3.2.2c1.13.13,1.7.62,1.7,1.45a1.2,1.2,0,0,1-1,1.2,15.67,15.67,0,0,1-3.1.2,13.59,13.59,0,0,1-5.15-1.3,11.49,11.49,0,0,0-8.35-1.05c-1.07.17-1.63.25-1.7.25a10.57,10.57,0,0,1-3.4-.75c-.23-.3.73-1,2.9-2.05a12.91,12.91,0,0,1,4.6-1.8l3-.1M78.9,127.87a24.82,24.82,0,0,1,3.1.2,12.35,12.35,0,0,1,5.35,1.15q.34.15,4.55,2.6c.1.1.73.6,1.9,1.5a13.7,13.7,0,0,0,2.4,1.6,10.84,10.84,0,0,0,4,.85,1.63,1.63,0,0,1,1.65,1.75c0,1.13-1.22,1.7-3.65,1.7a5.11,5.11,0,0,1-3.05-1,22,22,0,0,0-3.35-2.05,13,13,0,0,1-3-1.9c-.83-.8-1.53-1.48-2.1-2.05-1.07-1-3.07-1.33-6-1.1-2.37.17-3.55-.32-3.55-1.45a1.69,1.69,0,0,1,.35-.95A1.58,1.58,0,0,1,78.9,127.87Z" transform="translate(0)" fill="#40d9e9"/><path d="M109.5,18a3,3,0,0,0-2.4-.75,5.27,5.27,0,0,0-3,1.2A3.37,3.37,0,0,0,102.4,21a5.57,5.57,0,0,0,.75,2,7,7,0,0,1,.7,1.85,2.4,2.4,0,0,1-.6,1.6,2.55,2.55,0,0,1-2.1.8q-3.86,0-3.45-5.1a3.08,3.08,0,0,0-1.8-3.4c-1.47-.6-2.2-1.37-2.2-2.3a6.91,6.91,0,0,1,1.8-4.2c.77-.9,1.45-1.72,2-2.45a136.56,136.56,0,0,0-22,10.6,38.8,38.8,0,0,1-3.4,9,24.77,24.77,0,0,1-7,6.85,24.31,24.31,0,0,0-8,9.45q-3.1,6.6-5.1,8.45c-.33.33-.67.65-1,1q-4.9,4.65-7.15,7.15a30.33,30.33,0,0,0-6.15,9.35.62.62,0,0,0,0,.25,21.88,21.88,0,0,0-.6,4.7,6.87,6.87,0,0,1-1.8,4.25,15,15,0,0,0-2.75,4.4,11.84,11.84,0,0,0-.65,4.1,19.08,19.08,0,0,0,.4,3.5,24,24,0,0,1,.35,3.5,21.19,21.19,0,0,1-1.3,6.8,20.28,20.28,0,0,0-1.35,6.2,10.43,10.43,0,0,0,.55,3c.47,1.63,1.05,2.45,1.75,2.45,1.2,0,1.8-.88,1.8-2.65a5.62,5.62,0,0,0-.8-2.65,5.33,5.33,0,0,1-.85-2.8,8.36,8.36,0,0,1,1.4-3.55,9.52,9.52,0,0,0,1.45-3.55,26.38,26.38,0,0,1,.15-4.5q.4-3.75,2.8-3.75c.67,0,1.07.57,1.2,1.7a6.51,6.51,0,0,1,0,1.65,15.08,15.08,0,0,1-1,4.8,16.89,16.89,0,0,0-1,5.75,15.34,15.34,0,0,0,2,6.5c1.33,2.53,2,4.37,2,5.5,0,.8-.67,2.13-2,4a10,10,0,0,0-2,5.8q0,3.26,3.6,7a17.33,17.33,0,0,0,6.45,4.25q6.11,2.15,7.4,4.8c.23.53.57,1.37,1,2.5A6.81,6.81,0,0,0,57.8,148a5.91,5.91,0,0,0,3.35.95,20,20,0,0,1,4.25.5,3.38,3.38,0,0,1,2.2,2.45,9.19,9.19,0,0,1,.35,2.55,6.69,6.69,0,0,0,1.9,3.95l3.45,4.15q.26.41,2.25,3.75,2.2,3.15,3.85,3.15A3,3,0,0,0,81.6,168a2.93,2.93,0,0,1,2.15-1.45,2.67,2.67,0,0,1,2.45,1.9,2.7,2.7,0,0,0,2.5,1.9,5.84,5.84,0,0,1,3.3.45,3,3,0,0,1,1.55,1.3,7,7,0,0,1,.15,2q0,.85-5.65,11.35a56.53,56.53,0,0,0-4.6,10.65c2.67,1.11,5.36,2.16,8,3.15a28.79,28.79,0,0,1,3.55-8.35q3.86-6.49,3.45-11.3a12.92,12.92,0,0,1,2.15-8.55q2.58-3.73,7.35-2.3t12.7,7.55c1.37,1,3.32,2.62,5.85,4.75a10.94,10.94,0,0,0,6.25,2.4q1,0,8.6-1.05a6.71,6.71,0,0,1,4.95,1.7,11.74,11.74,0,0,1,2.25,4,28.09,28.09,0,0,0,2,4.65,9.28,9.28,0,0,0,4.4,3.65,8,8,0,0,1,3.55,3.3c1,1.67,2,2.65,2.95,2.95a57.76,57.76,0,0,0,7.3,2c2,.36,3.13.38,3.3,0a.14.14,0,0,0,.05-.1c.57,0,2.83-.15,6.8-.4q6,0,6,4.45a14.14,14.14,0,0,1-1.3,5.7c3.86-.07,7.67-.24,11.4-.5a4.54,4.54,0,0,1,.95-2.6,6.42,6.42,0,0,0,.85-1.95,9.77,9.77,0,0,0,.55-2.4c0-2.17-1.28-3.83-3.85-5a15.13,15.13,0,0,0-7.25-1.2q-9.8.5-11.3-3.1c-.37-.83-1.53-1.37-3.5-1.6a13.89,13.89,0,0,1-4.75-.95q-3.25-1.61-4.5-2.35c-1.43-.83-2.2-1.78-2.3-2.85a16.45,16.45,0,0,0-4.9-9.55q-4.6-4.8-9.95-4.6a9.2,9.2,0,0,1-9-5.15c-.43-.8-1.82-1.93-4.15-3.4a15.52,15.52,0,0,0-7.9-2.7,10.36,10.36,0,0,0-4,.85,17.45,17.45,0,0,1-5.9.75q-4.25,0-5.85-2.7t-6.35-2.7q-3.95,0-5.55,1.5a21.57,21.57,0,0,0-2.5,3.2c-.87,1.27-1.52,2-2,2.05a3.37,3.37,0,0,1-1,.1q-3.6,0-4.4-2.2c-.5-1.5-1.17-2.25-2-2.25a7.28,7.28,0,0,0-2.45.65,7.76,7.76,0,0,1-2.25.6q-5.74,0-5.75-8.4a13,13,0,0,1,.25-3.1,8.18,8.18,0,0,0,.25-2.2q0-4.84-4.7-4.55a17.21,17.21,0,0,1-3.25.15q-1.5-.1-1.5-1.5c0-.43.47-1.12,1.4-2a4.08,4.08,0,0,0,1.3-2.4,5.87,5.87,0,0,0-.2-1.35,5.05,5.05,0,0,1-.25-1.4,4.87,4.87,0,0,1,1.45-2.9,4.67,4.67,0,0,0,1.45-2.75,4.91,4.91,0,0,0-.2-1.65,1.59,1.59,0,0,0-1.55-.9q-4.95,0-6,4.25a10,10,0,0,1-1,2.85q-1,1.2-5.1,1.3h-1a8,8,0,0,1-2.55-1.25,4.86,4.86,0,0,1-2-4.1,57.75,57.75,0,0,1,.3-6.3,13.77,13.77,0,0,1,2.2-6.35c1.83-1.9,2.52-3.88,2.05-6q-.56-2.55,2.45-4.8a9,9,0,0,1,5-2,10.05,10.05,0,0,1,3,.8,13.39,13.39,0,0,0,4.85.8,15.38,15.38,0,0,0,3.8-.55,17,17,0,0,1,3.75-.5c2.33,0,3.92.57,4.75,1.7a7,7,0,0,1,1,4.15,16.32,16.32,0,0,1-.7,4.5c-.5,1.6-.75,2.47-.75,2.6q0,1.8,2,1.8,3,0,3.75-5c.17-3.43.28-5.3.35-5.6q-.7-3.19,3.7-6.9a33.07,33.07,0,0,1,8.65-5,6.07,6.07,0,0,0,4-5.7c.23-3.1,1.27-5.23,3.1-6.4.27-.13,1.42-.77,3.45-1.9a14,14,0,0,0,3.15-2.1q5.2-5.05,9-5a15.93,15.93,0,0,1,1.65.35,13.86,13.86,0,0,0,2,.25,10.53,10.53,0,0,0,6.5-1.85,3.67,3.67,0,0,0,1.85-2.8q0-1.39-3-1.2c-2,.13-2.8-.18-2.5-1a3.69,3.69,0,0,0,.4-1.75,6.4,6.4,0,0,0-.2-.85c-.1-.23-.65-.47-1.65-.7a9.49,9.49,0,0,0-2.25-.4,7.87,7.87,0,0,0-2.55.55,8.31,8.31,0,0,1-2.55.55c-.47,0-.73-.07-.8-.2a1.51,1.51,0,0,1-.05-.55c0-.67.67-1.33,2-2a6.85,6.85,0,0,1,3-.9,39,39,0,0,0,4.85.35l1.35,0c.07,0,.73-.18,2-.45a18.09,18.09,0,0,1,3.4-.35,6.29,6.29,0,0,0,4.45-2.3c1.23-1.33,1.85-2.43,1.85-3.3-.13-1.67-1.47-2.62-4-2.85-1.87-1.37-2.62-2.68-2.25-3.95a4,4,0,0,0-.2-3.1,2.75,2.75,0,0,0-2.3-1.4q-.6,0-6.9.95a3.52,3.52,0,0,1-.95-.35,2.15,2.15,0,0,1-1.05-.6,3.86,3.86,0,0,1-.1-1.45,3.64,3.64,0,0,0-.45-1.9,7.87,7.87,0,0,0-2.15-2,5.8,5.8,0,0,0-3.1-1.3c-2.87,0-4.23,1.6-4.1,4.8a15.92,15.92,0,0,1-.15,3.8,3.53,3.53,0,0,1-2.55,2.6,9.24,9.24,0,0,0-3.1,1.55,3,3,0,0,0-.8,3.35,4.17,4.17,0,0,1-.7,3.9,4,4,0,0,1-3.35,1.85A2.92,2.92,0,0,1,102.6,63a4.15,4.15,0,0,1-.6-2.55,8.42,8.42,0,0,1,1.25-4.1,9,9,0,0,0,1.25-3c0-1.87-1.62-3.58-4.85-5.15s-4.85-2.8-4.85-3.8a5.7,5.7,0,0,1,1.6-3.75,23.85,23.85,0,0,1,5.3-4,36.08,36.08,0,0,1,4.9-.75,39.21,39.21,0,0,0,4.75-.7,10.76,10.76,0,0,1,2.7-.9,14.07,14.07,0,0,0,2.25-.55,17.17,17.17,0,0,0,2.6-2,3,3,0,0,1,2.15-.8,4.85,4.85,0,0,1,1.6.15c.67.2,1,.82,1,1.85,0,.13-.18,1-.55,2.5a14.39,14.39,0,0,0-.6,2.9,4,4,0,0,0,1.7,2.9,6.69,6.69,0,0,0,4.25,1.5A10.26,10.26,0,0,0,132.6,42c1.13-.53,1.7-1.18,1.7-1.95a3.9,3.9,0,0,0-.35-1.55,4.15,4.15,0,0,1-.4-1.8,9.68,9.68,0,0,1,.6-2,7.86,7.86,0,0,0,.65-2.9q0-1.31-3.75-4.45c-2.57-2.13-4.55-3-6-2.65a10.07,10.07,0,0,0-4.3,2.7c-1.47,1.43-2.73,2.15-3.8,2.15-.6,0-.93-.05-1-.15a3.57,3.57,0,0,1,.85-3.6,3.61,3.61,0,0,0,.9-1.9,2.16,2.16,0,0,0-.45-1.55,2.23,2.23,0,0,0-1.65-.45c-1.47,0-2.88,1.38-4.25,4.15s-2.93,4.1-4.9,4.1c-1.33,0-2-.2-2-.6q0-1.31,2.65-4.45t2.6-5.4A3.7,3.7,0,0,0,109.5,18M68.3,43.72q7.35-5.4,7.45-5.45,4.35-4.16,3.55-8.85,1-4.17,3.45-4.9a18,18,0,0,1,5.1-.75c1.77,0,3.43,1.06,5,3.1a9.83,9.83,0,0,1,2.1,6.2q0,4.91-5.6,7.45a16.8,16.8,0,0,0-3.85,2.2,5.65,5.65,0,0,0-1.75,4.4,4,4,0,0,0,2.1,3.65,17.57,17.57,0,0,0,4.7,1.6A20.64,20.64,0,0,1,95.2,54a4.07,4.07,0,0,1,2.1,3.65,9.64,9.64,0,0,1-1.3,4,9.94,9.94,0,0,0-1.3,4.35,6,6,0,0,0,.5,2.4,3.31,3.31,0,0,0,3.25,2.05q10,0,14-8.5c1.67-3.7,2.58-5.67,2.75-5.9A5.5,5.5,0,0,1,120,53.32a5.43,5.43,0,0,1,3.85,1.5,4.82,4.82,0,0,0,3.85,1.3,6.9,6.9,0,0,1,3.9.8,2.83,2.83,0,0,1,1.45,2.45q0,3.3-3,3.45a60.71,60.71,0,0,0-7.05-.4c-1.63,0-3.88.92-6.75,2.65s-4.45,3.3-4.45,4.5a3.23,3.23,0,0,0,1.65,2.85,2.91,2.91,0,0,1,1.6,2.5q0,2.44-3.6,4.2-4.5,1.6-6.2,2.25a16,16,0,0,0-6.65,5.4,43,43,0,0,0-3.2,5.35,13.16,13.16,0,0,1-4.85,5.1,15,15,0,0,1-6.6,2.6,23.91,23.91,0,0,0-8.35,2.65,15.24,15.24,0,0,1-6.95,1.85,15.34,15.34,0,0,1-5.85-1.4,22.79,22.79,0,0,0-3.75-1.45q-3.6,0-5.8,4.2t-4.35,4.2a4.11,4.11,0,0,1-3-1.4,5.87,5.87,0,0,1-1.7-4.4,32.33,32.33,0,0,1,1.3-7.9,34.84,34.84,0,0,0,1.25-6.35,7.87,7.87,0,0,0-2.1-5.75q-2.1-2.14-2.1-3.75a9.13,9.13,0,0,1,1.65-5.55,24.77,24.77,0,0,1,4.15-3.85A34.48,34.48,0,0,0,59,56.32a34,34,0,0,1,3.35-6.75,25.79,25.79,0,0,1,6-5.85m196.25,7.85a1.87,1.87,0,0,0-.35.6,7.26,7.26,0,0,0-.2,2.1,14.06,14.06,0,0,0,1,3.85,14.62,14.62,0,0,1,.95,5.1,6.23,6.23,0,0,0,1.6,4.2,4.63,4.63,0,0,0,3.8,1.8q4.09-.25,6.7,6.35A23.86,23.86,0,0,1,280,84a3.49,3.49,0,0,1-.95,2.85,4.92,4.92,0,0,1-2.9.65q-1.2,0-8.7-4.6t-9.35-4.65q-1.55,0-9.05,9.45c-4.8,6.27-7.23,9.41-7.3,9.45a12.62,12.62,0,0,0-1.85,5.85c-.2,2.36-.55,3.85-1,4.45A64.5,64.5,0,0,0,234,113c-.6.86-.9,2.45-.9,4.75,0,1.56.22,5,.65,10.3q.3,3.64,1.9,5.25a5.36,5.36,0,0,1,1.45,3.9,17.9,17.9,0,0,1-.5,3.65,18.11,18.11,0,0,0-.5,3.45,12.72,12.72,0,0,0,.35,3.8q.75,1.74,4,3.2a35.06,35.06,0,0,1,3.75,2,4.82,4.82,0,0,1,2.3,2.95c.73,4,1.63,6.63,2.7,8a6.48,6.48,0,0,0,5.2,2.45h6.4a13.87,13.87,0,0,0,5.6-1.15c1.57-.7,3.08-2.38,4.55-5.05s3-3.9,4.6-3.9a3.93,3.93,0,0,1,2.75,1.65,5.41,5.41,0,0,0,4.1,1.7,5.21,5.21,0,0,1,3.55,1.4,4.64,4.64,0,0,1,1.4,3.4,23.94,23.94,0,0,1-.5,3.85,25.09,25.09,0,0,0-.45,3.6q0,2.15,2,7.8c.17.5.32,1,.45,1.45q4.67-3.48,8.9-7.3a7.32,7.32,0,0,1-4-6.75,26.33,26.33,0,0,0,.35-7,9.76,9.76,0,0,0-3.4-5.2q-3.11-2.85-6-2.65t-6-2.85q-3.11-3.15-6.1-3.15a7.52,7.52,0,0,0-5.4,2,6.69,6.69,0,0,1-4.55,1.95c-2.07,0-3.52-.52-4.35-1.55s-2.05-3.75-3.75-8.35a15.69,15.69,0,0,0-4-6.4,5.78,5.78,0,0,1-1.65-4.5,48.22,48.22,0,0,1,1.85-10.25,55.72,55.72,0,0,0,1.8-8.85,16.27,16.27,0,0,0-.55-4.45,12.77,12.77,0,0,1-.55-3.45,14.72,14.72,0,0,1,2.55-7.7q3-4.8,6.9-4.8a17.25,17.25,0,0,1,7.35,2,18.55,18.55,0,0,0,8,2q11.28,0,11.85-8a148.63,148.63,0,0,0-23.45-34.55M82,128.07a24.82,24.82,0,0,0-3.1-.2,1.58,1.58,0,0,0-1.45.85,1.69,1.69,0,0,0-.35.95c0,1.13,1.18,1.62,3.55,1.45,2.93-.23,4.93.13,6,1.1.57.57,1.27,1.25,2.1,2.05a13,13,0,0,0,3,1.9,22,22,0,0,1,3.35,2.05,5.11,5.11,0,0,0,3.05,1c2.43,0,3.65-.57,3.65-1.7a1.63,1.63,0,0,0-1.65-1.75,10.84,10.84,0,0,1-4-.85,13.7,13.7,0,0,1-2.4-1.6c-1.17-.9-1.8-1.4-1.9-1.5q-4.2-2.44-4.55-2.6A12.35,12.35,0,0,0,82,128.07M112.25,141a5.86,5.86,0,0,0-3.7-1.7l-3,.1a12.91,12.91,0,0,0-4.6,1.8c-2.17,1.07-3.13,1.75-2.9,2.05a10.57,10.57,0,0,0,3.4.75c.07,0,.63-.08,1.7-.25a11.49,11.49,0,0,1,8.35,1.05,13.59,13.59,0,0,0,5.15,1.3,15.67,15.67,0,0,0,3.1-.2,1.2,1.2,0,0,0,1-1.2c0-.83-.57-1.32-1.7-1.45a18.46,18.46,0,0,1-3.2-.2,9.71,9.71,0,0,1-3.6-2.05m95.2-99.15a3.41,3.41,0,0,0-.4,1.65,1.64,1.64,0,0,0,.6,1.4c.27.2.92.63,1.95,1.3a3.57,3.57,0,0,1,.8,1.65c.1.47.25,1.13.45,2a15.74,15.74,0,0,1,.35,3.5c.13.77,1,1.15,2.55,1.15,2,0,3-.78,3-2.35,0-.47-.48-1.17-1.45-2.1a3.78,3.78,0,0,1-1.45-2.35.7.7,0,0,1,.5-.75,5.32,5.32,0,0,1,1.35-.1q2.1,0,3.45,2.7c.83,1.77,1.68,2.65,2.55,2.65a1.52,1.52,0,0,0,1.45-1.1,4.24,4.24,0,0,0,.4-1.85q0-1.39-3.5-3a28.38,28.38,0,0,0-4.7-1.6,14.83,14.83,0,0,1-4.2-2.35q-2.85-2.06-3.7-.45m-21.8-6a3.31,3.31,0,0,0,1.85.55,2.7,2.7,0,0,0,2.5-1.65,4.92,4.92,0,0,0,.5-1.65c0-1-1.08-1.8-3.25-2.3a17.24,17.24,0,0,0-3.65-.45,5.56,5.56,0,0,0-2.2,1,3.17,3.17,0,0,1-1.7.5,10.64,10.64,0,0,0-1.45-.25.82.82,0,0,0-.7.35,1.31,1.31,0,0,0-.25.8A2.42,2.42,0,0,0,179,34.92a5.06,5.06,0,0,0,2.25.6l2.6-.25a3.14,3.14,0,0,1,1.85.6M143.1,64.92a13.81,13.81,0,0,1-3.5,2.8c-1.17.7-1.75,1.48-1.75,2.35,0,1.17.82,1.77,2.45,1.8a30.28,30.28,0,0,0,4-.25,6.69,6.69,0,0,1,2.75.5,4.17,4.17,0,0,0,1.6.55,2.12,2.12,0,0,0,1.8-1,3.54,3.54,0,0,0,.5-1.8c0-.7-.62-1.18-1.85-1.45-1.67-.43-2.53-.67-2.6-.7-.37-.2-.7-1-1-2.45s-1.17-1.58-2.4-.35m.15-50.05q-1.5.49-3.15.9a2.36,2.36,0,0,0-2,1.7q-.45,1.3.75,1.65a19.62,19.62,0,0,0,2,.45,9.75,9.75,0,0,1,4.7,2,10.06,10.06,0,0,1,1.25,1.85,7.73,7.73,0,0,0,1.9,2.3,5.86,5.86,0,0,1,1.8,2.05,7.43,7.43,0,0,1,.3,2.45,7.6,7.6,0,0,1-.75,3.25,6.23,6.23,0,0,0-.8,2.35,4,4,0,0,0,.55,2.5q2.1,2.59,2.25,2.7a19.57,19.57,0,0,0,2.6,3.4,5.29,5.29,0,0,0,5.55.4A2.18,2.18,0,0,0,161.6,43a2.22,2.22,0,0,0-.45-1.45,2.69,2.69,0,0,1-.45-1.65A7.29,7.29,0,0,1,162.4,36a18.67,18.67,0,0,1,2.6-3,15.69,15.69,0,0,1,5.65-3.5c1.5-.57,2.25-1.3,2.25-2.2q0-1.8-2.7-3a5.6,5.6,0,0,1-3.45-4.5c0-1.8-.25-2.93-.65-3.4a10,10,0,0,0-1.6-1.55c-.87-.73-1.33-1.13-1.4-1.2a12.14,12.14,0,0,0-2.9-1.55,11.25,11.25,0,0,0-3.3-1.1c-4.27,0-7.43.62-9.5,1.85a28.3,28.3,0,0,1-4.15,2m3.6,2.3a3,3,0,0,1,1.8-2.25,11.06,11.06,0,0,1,5.3-1.05q6.86,0,6.85,5.2,0,2.25,2.75,4.25c1.83,1.33,2.75,2.3,2.75,2.9q0,1.8-2.25,2.25-2.81.6-3.45,1.5a5.42,5.42,0,0,0-1.15,4.2,2.67,2.67,0,0,1-.7,2.2,3.23,3.23,0,0,1-2.45,1,3.52,3.52,0,0,1-2.05-.55,2.44,2.44,0,0,1-1-2.15,15.92,15.92,0,0,1,.9-4.45,27.64,27.64,0,0,0,.9-2.75,4.68,4.68,0,0,0-.9-2.8c-.87-1-1.58-1.87-2.15-2.6a13.78,13.78,0,0,0-3.15-1.9,3.24,3.24,0,0,1-2-2.95m86.31,23a54.36,54.36,0,0,0,.71-5.68q0-6.69-10.65-12.62-5.33-2.75-7.3-3.85c-2.23-1.26-3.35-2.27-3.35-3a9.37,9.37,0,0,1,.31-1.57c.05-.2.1-.39.15-.56q-6.09-2.75-12.42-4.92a21,21,0,0,0,3,2.84Q208,14.19,208,15.09c0,.88-.89,1.76-2.69,2.64s-2.68,2-2.68,3.45,1,3.19,3.14,5a73.85,73.85,0,0,1,5.63,5.07c1.05,1.28,2.45,3.11,4.21,5.47a6.76,6.76,0,0,0,5.07,2.59A4,4,0,0,0,223.53,38,3.75,3.75,0,0,0,225,35.33q0-1.28-5.23-4.67t-5.32-5.83V23.51a1.53,1.53,0,0,1,2-1.22q1.62.36,5,3.81c2.26,2.29,3.85,3.58,4.76,3.85a6.46,6.46,0,0,1,4.21,3.3,9.55,9.55,0,0,1,.81,4.25c0,1.09-.82,3.1-2.48,6a8.45,8.45,0,0,0-.86,6.79q1.11,3.86-.66,10.19c.27,1.63,2,2.57,5.27,2.84Q234,64.42,234,68.13c0,1.56-1.38,2.72-4.16,3.5s-4.2,2.23-4.2,4.26c0,0,.77,1.06,2.33,3.09s2.5,3.57,2.63,4.21a9,9,0,0,1,0,2.64c.07,1.52.29,2.41.66,2.68q2.94,2.13,4.92,2.13,3,0,8.27-15.26a10.93,10.93,0,0,0-1.68-4.51A10.86,10.86,0,0,1,241,65.65a5,5,0,0,1,1.72-4.11,4.44,4.44,0,0,1,2.84-1,45.24,45.24,0,0,1,4.92,2.39q5.13,2.53,6.34,3.75a55.49,55.49,0,0,1,4,5.73q1.94,3,4.47,3A1.87,1.87,0,0,0,267.39,74c0-.94-.05-1.45-.05-1.52q0-1.21-6.24-7t-5.88-7.55c.27-1.15,1.33-1.73,3.19-1.73s2.79-.44,2.79-1.21-.59-1.76-1.78-2.84a5.67,5.67,0,0,1-1.82-4.36,2.46,2.46,0,0,1,1.47-2.39q-.3-.3-.66-.6-2.21-2.22-4.46-4.31A4.14,4.14,0,0,0,253,43a6.3,6.3,0,0,0,1.16,3.75,5.6,5.6,0,0,1,1.17,3.15c0,.71-.58,1.67-1.72,2.89a5.21,5.21,0,0,1-3.61,2,3,3,0,0,1-2.28-.87,3.67,3.67,0,0,0-2.89-.91,6.51,6.51,0,0,0-4.46,2.18c-1.45,1.45-2.74,2.18-3.85,2.18-2.47,0-3.86-.59-4.16-1.77v-6A56.64,56.64,0,0,1,233.16,40.19Z" transform="translate(0)" fill="#70a32d"/></g><g id="Layer0_4_1_STROKES" data-name="Layer0 4 1 STROKES"><path d="M254.2,40.19A158,158,0,0,0,235.26,25,140.89,140.89,0,0,0,201.49,8.07c-.42-.14-.94.32-.59.73,1.78,2.07,4.1,3.52,6.06,5.38.33.31,1.1,1,1.15,1.37.1.95-1.54,1.74-2.19,2.08a6,6,0,0,0-2.63,2.15,3.67,3.67,0,0,0-.35,2.79c.67,2.58,3.14,4.29,5,5.94a31.83,31.83,0,0,1,3.66,3.4c.74.89,1.45,1.82,2.15,2.74a23.59,23.59,0,0,0,2.78,3.42c1.75,1.57,4.43,2.59,6.62,1.29,1.47-.87,3.43-3.09,2.21-4.84a8.59,8.59,0,0,0-1.78-1.73c-1.07-.86-2.22-1.62-3.37-2.38A21.56,21.56,0,0,1,217,27.84a5.35,5.35,0,0,1-1.49-2.2,2.49,2.49,0,0,1-.08-.72,5.36,5.36,0,0,1,0-1.06c.23-1,1.42-.8,2.1-.45,2.27,1.16,3.94,3.37,5.79,5.06a14.5,14.5,0,0,0,2.35,1.85c.84.5,1.82.66,2.66,1.19A6.7,6.7,0,0,1,231,37.84a8.25,8.25,0,0,1-.84,2.54c-.59,1.32-1.38,2.54-2,3.85a8.88,8.88,0,0,0-.82,4c0,1.27.51,2.45.67,3.69a15.52,15.52,0,0,1,0,3.73c-.18,1.54-.63,3-.92,4.52a2.43,2.43,0,0,0,1,2,5.94,5.94,0,0,0,2.72,1.21c.28.06.56.11.85.15a5.4,5.4,0,0,1,.91.08c.34.14.59.76.72,1.07a7.29,7.29,0,0,1,.42,3.52,3,3,0,0,1-1.79,1.92c-1.2.61-2.55.82-3.75,1.43A5.11,5.11,0,0,0,226,73.48a2.85,2.85,0,0,0-.42,2.34,14.22,14.22,0,0,0,1.15,1.53c.86,1.13,1.74,2.25,2.53,3.43a6.63,6.63,0,0,1,1.15,2.1,22,22,0,0,1,0,2.93,3.6,3.6,0,0,0,.81,2.53,10.51,10.51,0,0,0,3.5,1.92,3.05,3.05,0,0,0,3.25-.41,11.66,11.66,0,0,0,2.39-3.34,55,55,0,0,0,2.8-6.27c.54-1.39,1-2.8,1.53-4.21a3,3,0,0,0,.29-1.5,7.31,7.31,0,0,0-.39-1.44c-.91-2.54-2.86-4.75-2.93-7.56a4.81,4.81,0,0,1,1.12-3.39,4,4,0,0,1,1.5-1,4.24,4.24,0,0,1,1-.24c.07,0,.24,0,.32,0s-.11,0,0,0a10.72,10.72,0,0,1,1.91.9c1.28.63,2.54,1.29,3.81,1.93,1.12.57,2.23,1.16,3.3,1.81a8.52,8.52,0,0,1,1.73,1.24,12,12,0,0,1,1.27,1.66c.73,1,1.43,2.08,2.12,3.14,1.28,2,2.79,4,5.38,4a2.4,2.4,0,0,0,2.35-1.39,3.85,3.85,0,0,0,.09-1.62,3.39,3.39,0,0,0-.05-.64,3.77,3.77,0,0,0-.73-1.31,21.62,21.62,0,0,0-1.73-2c-2-2.06-4.1-3.93-6.09-6a26.18,26.18,0,0,1-2.26-2.56,5.53,5.53,0,0,1-1.05-1.76c-.62-2.07,3.27-1.7,4.32-2,.74-.17,1.47-.59,1.53-1.42a4,4,0,0,0-1.43-2.76,6.2,6.2,0,0,1-2-3.11c-.26-1.22-.23-2.56,1-3.2a.49.49,0,0,0,.12-.84c-1.67-1.63-3.34-3.26-5.05-4.85-.47-.43-1.07.32-.6.75,1.7,1.59,3.38,3.22,5,4.85l.12-.83A3,3,0,0,0,257,47.33a6.22,6.22,0,0,0,.69,3.49c.62,1.16,1.75,1.86,2.45,3,.18.29.54.88.35,1.25s-.75.41-1.08.47c-1.17.19-2.39,0-3.49.54a2.35,2.35,0,0,0-1.31,1.81c-.1,1.32,1.18,2.7,1.95,3.61,1.8,2.12,3.9,4,5.88,5.89a24,24,0,0,1,3.89,4.29,1.5,1.5,0,0,1,.26,1,2,2,0,0,1-.2,1.44,1.78,1.78,0,0,1-1.56.49c-2.7-.17-4-3.24-5.35-5.18a15.61,15.61,0,0,0-2.91-3.74,35.27,35.27,0,0,0-5.91-3.38c-1.14-.57-2.28-1.17-3.43-1.73a6.43,6.43,0,0,0-1.5-.65,4.43,4.43,0,0,0-3.2,1.08,5.07,5.07,0,0,0-1.7,2.68c-.66,2.61.42,5.05,1.65,7.3a12.81,12.81,0,0,1,1.41,3.35,2.32,2.32,0,0,1-.2,1.44c-.26.77-.54,1.53-.82,2.29a69.94,69.94,0,0,1-2.85,6.87,15.74,15.74,0,0,1-2.43,3.88c-.87.94-1.62.94-2.86.48a11,11,0,0,1-1.73-.84c-.44-.27-1.14-.57-1.37-1-.53-1.1-.26-2.53-.25-3.7,0-1.7-1.07-3.06-2.07-4.43-.77-1.07-1.59-2.11-2.38-3.16-.18-.23-.34-.49-.53-.71s.09,0,0,.09c.09-.13.05-.53.09-.7.58-2.48,3.55-2.72,5.46-3.59a4.94,4.94,0,0,0,2.25-1.75,4.49,4.49,0,0,0,.4-2.87,6.55,6.55,0,0,0-.86-3,2.31,2.31,0,0,0-.84-.86,3.66,3.66,0,0,0-.88-.11c-.35,0-.71-.1-1.06-.18a4.46,4.46,0,0,1-2.56-1.24,1.22,1.22,0,0,1-.34-1c.11-.76.4-1.53.55-2.29a16.88,16.88,0,0,0,.12-7.35,9,9,0,0,1-.26-4.19,16.76,16.76,0,0,1,1.88-4.19,18.58,18.58,0,0,0,1.34-3.11,6.94,6.94,0,0,0,.2-2.8,7.09,7.09,0,0,0-3.29-5.69c-.83-.49-1.79-.65-2.61-1.15a15.49,15.49,0,0,1-2.44-2c-1.79-1.68-3.45-3.74-5.67-4.9a2.81,2.81,0,0,0-2.41-.25,2,2,0,0,0-1.1,1.91,5.66,5.66,0,0,0,.19,1.92A6.43,6.43,0,0,0,216,28.25c1.89,2,4.35,3.27,6.52,4.92a10,10,0,0,1,2,1.8c.52.69.17,1.48-.34,2.15A4,4,0,0,1,220.54,39a6.15,6.15,0,0,1-3.44-1.7,27.29,27.29,0,0,1-2.76-3.47c-.66-.87-1.31-1.75-2-2.58a37.89,37.89,0,0,0-3.72-3.44,29.42,29.42,0,0,1-3.39-3.11,5.13,5.13,0,0,1-1.41-3c-.07-2.68,3.34-3,4.74-4.69a1.84,1.84,0,0,0,.45-1.86,5.58,5.58,0,0,0-1.36-1.63c-1.91-1.82-4.19-3.22-5.92-5.24l-.59.72a141.45,141.45,0,0,1,22.41,10A148.24,148.24,0,0,1,243.18,32q5.4,4.24,10.42,8.94C254.07,41.38,254.67,40.63,254.2,40.19Z" transform="translate(0)" fill="#004c5e"/><path d="M264.16,50.75c-1,1.29-.74,3.29-.35,4.76.62,2.3,1.62,4.45,1.65,6.87a7.16,7.16,0,0,0,2.68,5.77,4.84,4.84,0,0,0,2.59,1,8.55,8.55,0,0,1,2.26.23,7.4,7.4,0,0,1,3.69,3.8,26.29,26.29,0,0,1,2.41,7,16.83,16.83,0,0,1,.37,3.08c0,.9,0,2.18-.86,2.74a4.6,4.6,0,0,1-2.55.49A3.74,3.74,0,0,1,275,86.1c-3.81-1.7-7.25-4.19-10.87-6.26a28.93,28.93,0,0,0-4.49-2.24,2.92,2.92,0,0,0-2.24-.2,9,9,0,0,0-2.34,1.93c-1.3,1.31-2.51,2.72-3.69,4.14-2.85,3.41-5.5,7-8.21,10.5l-1.67,2.13a1.15,1.15,0,0,1-.14.17s-.06.1.07,0a4.39,4.39,0,0,0-.4.56,10.91,10.91,0,0,0-1.11,2.69,22.43,22.43,0,0,0-.61,3.65,11.58,11.58,0,0,1-.55,2.86,8.13,8.13,0,0,1-1.83,2.27c-.67.73-1.33,1.47-2,2.23a8.25,8.25,0,0,0-1.92,3,15.68,15.68,0,0,0-.38,5c.07,1.71.19,3.42.31,5.13.18,2.35.15,4.87.94,7.12a6.44,6.44,0,0,0,1.26,2.2,5.08,5.08,0,0,1,1.4,2.83c.3,2.27-.56,4.52-.85,6.74a17.56,17.56,0,0,0-.06,2.9,7.33,7.33,0,0,0,.34,2.28c.67,1.76,2.64,2.77,4.23,3.52,1.75.84,4,1.72,5.17,3.32a8.5,8.5,0,0,1,1,3.33,29,29,0,0,0,.83,3,9,9,0,0,0,2.47,4.11,8.16,8.16,0,0,0,5.69,1.69,50.73,50.73,0,0,0,7.8-.2,9.82,9.82,0,0,0,5.24-2.27c1.75-1.64,2.59-3.84,4-5.69,1.19-1.51,2.92-2.66,4.65-1.23a12.66,12.66,0,0,0,2.47,2,8.83,8.83,0,0,0,3.14.63,4.32,4.32,0,0,1,4.09,4.32c0,2.13-.66,4.23-.88,6.34a11.36,11.36,0,0,0,.41,4.06c.55,2.19,1.36,4.29,2,6.43.18.6,1.1.29.91-.33-.68-2.19-1.53-4.34-2.06-6.58a11,11,0,0,1-.21-4.27c.28-2,.92-4.1.76-6.14a5.18,5.18,0,0,0-3.51-4.48,26.41,26.41,0,0,0-3.17-.49,5,5,0,0,1-2.71-1.64c-1.27-1.34-2.89-2-4.62-1.12-2,1-2.9,3.18-4.05,5a8.9,8.9,0,0,1-4.46,3.93,21.32,21.32,0,0,1-7.29.75c-2.29,0-4.88.37-6.92-.9a7.32,7.32,0,0,1-2.85-4.09,28,28,0,0,1-.87-3.14,11.36,11.36,0,0,0-.81-3.05c-.92-1.67-2.76-2.59-4.4-3.42s-4.24-1.66-5.15-3.56a5.78,5.78,0,0,1-.34-2.19,15.14,15.14,0,0,1,.11-3c.33-2.19,1.1-4.39.8-6.64a5.88,5.88,0,0,0-1.06-2.69,9.65,9.65,0,0,1-1.54-2.25c-.88-2.17-.81-4.7-1-7-.13-1.76-.26-3.52-.33-5.29a13.15,13.15,0,0,1,.44-5,10.38,10.38,0,0,1,2.17-2.94c.7-.81,1.42-1.6,2.13-2.39a5.13,5.13,0,0,0,1.39-2.06c.67-2.16.53-4.47,1.19-6.64a8.31,8.31,0,0,1,1.43-2.83c1.88-2.37,3.7-4.79,5.54-7.18a88.16,88.16,0,0,1,8.22-9.77,12.69,12.69,0,0,1,1.18-1,4.63,4.63,0,0,1,.46-.31s.31-.12.23-.1c.83-.13,2,.56,2.75.91,4,1.92,7.67,4.54,11.57,6.69a15.45,15.45,0,0,0,3.29,1.55,4.44,4.44,0,0,0,1.85,0,3.37,3.37,0,0,0,2.17-1c1.22-1.41.86-3.85.59-5.53a28.56,28.56,0,0,0-2.06-6.82,11.74,11.74,0,0,0-3.29-4.68,5.47,5.47,0,0,0-1.94-1c-.81-.22-1.61-.07-2.43-.21-2.23-.36-3.83-2.74-4-4.87a32.13,32.13,0,0,0-.28-3.25,34.46,34.46,0,0,0-1.08-3.63,10,10,0,0,1-.61-2.51,3.84,3.84,0,0,1,.44-2.54c.38-.49-.4-1.12-.78-.63Z" transform="translate(0)" fill="#004c5e"/><path d="M288.48,85.83a149.31,149.31,0,0,0-21.4-32.27c-2.53-2.93-5.19-5.74-7.88-8.52-.44-.46-1,.3-.6.75A180.8,180.8,0,0,1,271.89,61a148.12,148.12,0,0,1,10.63,15.74q2.7,4.62,5.05,9.44c.27.56,1.2.25.91-.33Z" transform="translate(0)" fill="#004c5e"/><path d="M288.37,181.43c1.08,3.4,2,7,.93,10.49a16.76,16.76,0,0,1-2.74,5.14,26.63,26.63,0,0,0-3.32,5,15.19,15.19,0,0,0-1.35,5.26c-.11,1.65-.1,3.28-.31,4.92a106,106,0,0,1-2.68,11.8,34.9,34.9,0,0,0-1.39,10.55.51.51,0,0,0,.88.27,143.8,143.8,0,0,0,12.26-22.21,140.74,140.74,0,0,0,8.07-23.94q1.71-7.11,2.72-14.35c.08-.62-.89-.8-1-.17A146.05,146.05,0,0,1,294.8,199,140.07,140.07,0,0,1,285,222a142.78,142.78,0,0,1-7.4,12.28l.88.28a31.86,31.86,0,0,1,1.13-9.26c.95-4,2.23-8,2.83-12.08a37.45,37.45,0,0,0,.39-4.85,14.3,14.3,0,0,1,1.15-5.47,24.38,24.38,0,0,1,3.34-5.18,17.51,17.51,0,0,0,2.79-5.08c1.28-3.89.36-7.73-.84-11.51-.19-.6-1.11-.28-.91.33Z" transform="translate(0)" fill="#004c5e"/><path d="M301.91,170.65a167,167,0,0,0,.29-35.48,148,148,0,0,0-6.78-32.3,140.8,140.8,0,0,0-6.94-17c-.27-.56-1.2-.25-.91.33a140.92,140.92,0,0,1,10.7,30.63A157.8,157.8,0,0,1,302,150a165.12,165.12,0,0,1-1.06,20.5c-.07.61.9.8,1,.16Z" transform="translate(0)" fill="#004c5e"/><path d="M275.76,238.58c.88-1.23,1.72-2.49,2.63-3.7.37-.49-.4-1.13-.78-.63-.9,1.22-1.75,2.47-2.62,3.7a.5.5,0,0,0,.08.69.49.49,0,0,0,.69-.06Z" transform="translate(0)" fill="#004c5e"/><path d="M300.94,170.49c-.15,1.24-.3,2.48-.48,3.72-.09.61.89.8,1,.17.17-1.24.33-2.49.47-3.73a.51.51,0,0,0-.42-.56.47.47,0,0,0-.55.4Z" transform="translate(0)" fill="#004c5e"/><path d="M275,238a160.32,160.32,0,0,1-47.34,43.85,143.22,143.22,0,0,1-57.73,19.28c-22.86,2.54-46.51.5-68.31-7a147.57,147.57,0,0,1-52.12-31.83c-14.6-13.6-26.91-29.73-35.28-47.89a147.72,147.72,0,0,1-13.12-57c-.77-22.54,2.89-45.24,12-66,9.43-21.6,24.37-40.52,42.31-55.71a144.42,144.42,0,0,1,60-30.58,159.48,159.48,0,0,1,69.57-.64A143.15,143.15,0,0,1,201.06,9c.6.21,1-.68.38-.89C179.25.52,155.25-1.54,132,1.2A144.7,144.7,0,0,0,68.38,24.6,160.14,160.14,0,0,0,20,75.56,145.77,145.77,0,0,0,.39,139.93c-1.38,20.64.83,41.6,7.5,61.22a147.22,147.22,0,0,0,29.93,50.54c14,15.59,30.7,28.77,49.68,37.68,20,9.39,42,13.69,64.06,13.69,21.79,0,43.51-4.21,63.33-13.39,19.17-8.88,36-22.07,50.12-37.73a154.71,154.71,0,0,0,10.75-13.36c.37-.5-.41-1.13-.77-.63Z" transform="translate(0)" fill="#004c5e"/><path d="M147.69,13.27a12.84,12.84,0,0,1,4.6-1.46,28.68,28.68,0,0,1,3.07-.27,6.84,6.84,0,0,1,2.43.15,22.77,22.77,0,0,1,2.76,1.12,9.17,9.17,0,0,1,2.1,1.11c.44.35.85.74,1.28,1.1a8.06,8.06,0,0,1,1.89,1.84,5.11,5.11,0,0,1,.41,2.12,7.38,7.38,0,0,0,.57,2.7,6,6,0,0,0,1.38,1.92A8.91,8.91,0,0,0,170.41,25c1.34.67,3,2.34,1.2,3.54a22.1,22.1,0,0,1-2.84,1.3,16.41,16.41,0,0,0-2.54,1.52,19.46,19.46,0,0,0-4.29,4.49c-.95,1.36-1.95,3-1.69,4.7.13.85.83,1.47.86,2.32,0,1-1.06,1.61-1.93,1.89a4.42,4.42,0,0,1-4.83-1.32c-.9-1.09-1.65-2.31-2.46-3.28-.58-.69-1.22-1.37-1.73-2.11a3.74,3.74,0,0,1-.4-2.37,12.32,12.32,0,0,1,1-2.6,8.52,8.52,0,0,0,.51-3.08,5.9,5.9,0,0,0-.41-2.5A6.54,6.54,0,0,0,149,25.34a8.69,8.69,0,0,1-1.93-2.41,7.27,7.27,0,0,0-1.22-1.74c-1.6-1.41-3.67-1.84-5.69-2.25-.41-.09-1.45-.15-1.69-.58s0-.77.16-1a1.72,1.72,0,0,1,.89-.85,24,24,0,0,1,3-.86A18.65,18.65,0,0,0,145,14.7c.93-.44,1.84-.93,2.74-1.43.55-.3-.05-1.1-.58-.8A27.32,27.32,0,0,1,141.3,15,7.24,7.24,0,0,0,138.39,16a2.84,2.84,0,0,0-.95,2.06c0,1.65,2.26,1.8,3.45,2a9.21,9.21,0,0,1,3.24,1.13,4.88,4.88,0,0,1,1.2.84,7.15,7.15,0,0,1,.72,1.07,12,12,0,0,0,2,2.67c.74.68,1.71,1.27,2.06,2.27a7,7,0,0,1,.15,3.18A18.76,18.76,0,0,1,149,34.57a5.08,5.08,0,0,0-.18,2.51A4.34,4.34,0,0,0,150,39.31c.48.59,1,1.2,1.46,1.77a21.64,21.64,0,0,1,1.32,1.82c1,1.39,2,2.54,3.77,2.88s4.42,0,5.34-1.85a2.65,2.65,0,0,0-.15-2.43,3,3,0,0,1-.5-1.18,3.19,3.19,0,0,1,.12-1.34,10,10,0,0,1,1.58-2.83,19.58,19.58,0,0,1,2.31-2.67,16.75,16.75,0,0,1,5.6-3.5c1.51-.6,3-1.68,2.43-3.5s-2.75-2.25-4.16-3.36A5,5,0,0,1,167.55,21a15,15,0,0,1-.45-3.06,3.72,3.72,0,0,0-.64-1.8A15.15,15.15,0,0,0,164.23,14,12.87,12.87,0,0,0,163,13a18.7,18.7,0,0,0-2.57-1.29,18.06,18.06,0,0,0-2.74-1,8.92,8.92,0,0,0-2.63-.08,21.74,21.74,0,0,0-5.83.95,10.83,10.83,0,0,0-2.08,1C146.56,12.78,147.16,13.58,147.69,13.27Z" transform="translate(0)" fill="#004c5e"/><path d="M195.51,214.4a5.12,5.12,0,0,1,.65-2.17,4.94,4.94,0,0,0,.58-.9,10.7,10.7,0,0,0,1.1-3.94c.07-2.68-2-4.55-4.31-5.53a14.8,14.8,0,0,0-5-1.18c-1.72-.11-3.45.09-5.17.06-2.28,0-5.27-.14-7.11-1.71-.66-.56-.85-1.43-1.51-2a7.08,7.08,0,0,0-3.81-1.13,13,13,0,0,1-3.87-.76c-1.37-.6-2.72-1.34-4-2.07s-2.45-1.52-2.69-3.13a15.19,15.19,0,0,0-1.3-4.32,20,20,0,0,0-6.49-7.63,13.64,13.64,0,0,0-8-2.34,8.79,8.79,0,0,1-7.44-3.93,10.46,10.46,0,0,0-2-2.48,26.1,26.1,0,0,0-4-2.68c-2.77-1.54-5.94-2.61-9.13-1.94-1.48.3-2.81,1-4.33,1.17a17.45,17.45,0,0,1-5.35.06,5.1,5.1,0,0,1-3.5-2.13,6.12,6.12,0,0,0-2.36-2.24,12,12,0,0,0-8.45-.36c-2.77.91-3.71,3.75-5.56,5.73-.95,1-2.88.71-4,.19C87,166.43,87,165,86.1,163.89c-1.76-2.17-4.56.49-6.68.38-2.52-.12-4-1.94-4.52-4.27a17.66,17.66,0,0,1-.34-4.81c.07-1.39.48-2.71.48-4.1,0-2.12-.77-4.2-3-4.85a11.43,11.43,0,0,0-4-.06,5.42,5.42,0,0,1-1.84-.07c-.88-.27-.68-1.1-.25-1.68.83-1.11,2.15-2,2.29-3.53s-.81-2.64-.11-4.05,2.12-2.36,2.49-3.92a3.23,3.23,0,0,0-.81-3.24c-.94-.69-2.46-.42-3.51-.18a5.7,5.7,0,0,0-2.87,1.6,7.68,7.68,0,0,0-1.57,3.44c-.39,1.35-.7,2.3-2.12,2.72a8.89,8.89,0,0,1-5,.2,5.18,5.18,0,0,1-3.33-3.32,17.3,17.3,0,0,1-.05-5.23,22,22,0,0,1,.85-5.48,12.06,12.06,0,0,1,.87-2c.46-.86,1.15-1.5,1.68-2.31A6.5,6.5,0,0,0,56,115.35a18.06,18.06,0,0,1-.21-2.18,3.94,3.94,0,0,1,1-2.18,10.27,10.27,0,0,1,4.53-2.89,6.16,6.16,0,0,1,4.15.45,14.31,14.31,0,0,0,4.54.89c3.48.13,6.84-1.62,10.33-.83a3.47,3.47,0,0,1,2.79,2.44,11.61,11.61,0,0,1,0,5.31c-.27,1.44-.94,2.82-1.16,4.26a2.19,2.19,0,0,0,.85,2.13c1.8,1.23,4-.15,4.87-1.8,1.28-2.46,1-5.4,1.2-8.08.06-.76-.09-1.54,0-2.29a7.61,7.61,0,0,1,2.4-4,28.67,28.67,0,0,1,9.15-5.77c2.51-1.06,4.26-2.63,4.74-5.42s.56-5.55,3.21-7.07c2.44-1.39,4.94-2.54,7-4.47s4.92-4.42,7.89-4.38c1.18,0,2.35.52,3.54.59a12.45,12.45,0,0,0,4.33-.57c1.8-.57,5.57-2.65,4.62-5.1-.34-.88-1.38-1.1-2.22-1.16s-1.58.08-2.37,0c-.18,0-.66,0-.78-.15s.14-.66.21-.92c.25-.85.3-2.07-.5-2.63a4.82,4.82,0,0,0-1.61-.56,10.2,10.2,0,0,0-2.18-.4c-1.52-.06-2.87.69-4.33,1a2.57,2.57,0,0,1-1,.1c-.33-.06-.23.11-.31-.18s.11-.42.23-.57a5.67,5.67,0,0,1,2.46-1.5c2.54-1,5.45.29,8.13-.13,1.37-.21,2.68-.62,4.06-.73a8.39,8.39,0,0,0,4.31-1c1.81-1.17,4.53-3.86,3.41-6.25a3.67,3.67,0,0,0-2.27-1.82,7.86,7.86,0,0,1-2.07-.6,4.29,4.29,0,0,1-1.57-1.9,4,4,0,0,1,.11-2.09,4.38,4.38,0,0,0-.14-1.94A3.41,3.41,0,0,0,135,48.72a6.74,6.74,0,0,0-2,.12c-1.33.17-2.66.37-4,.57a9.42,9.42,0,0,1-1.28.19,2.3,2.3,0,0,1-.91-.28c-.43-.18-.73-.23-.85-.71a7.44,7.44,0,0,1,0-1.25,4.3,4.3,0,0,0-1.51-3c-1.89-1.75-4.45-3.17-7-2-2.3,1.08-2.26,3.64-2.23,5.82,0,1.36.12,3.06-.93,4.1s-2.91,1.24-4.2,2.09a3.45,3.45,0,0,0-1.67,2.81,13.84,13.84,0,0,0,.35,2.14,3.8,3.8,0,0,1-.77,2.76c-1,1.36-3.06,2.33-4.66,1.33-1.36-.85-.9-3.41-.48-4.65.79-2.31,3-4.34,1.63-6.85-1.46-2.73-4.8-3.6-7.24-5.13-.77-.48-2-1.16-2-2.19,0-1.7,1.32-3.19,2.52-4.24a19.66,19.66,0,0,1,4-2.83,9,9,0,0,1,2.64-.5c1.7-.23,3.42-.42,5.12-.65a9.6,9.6,0,0,0,2.07-.4,33.59,33.59,0,0,1,4.2-1.2,8.38,8.38,0,0,0,3.1-2,3.36,3.36,0,0,1,2.37-.95c.74,0,1.54,0,1.79.81.31,1.09-.34,2.6-.61,3.64a6.47,6.47,0,0,0-.34,3.28,5.85,5.85,0,0,0,3,3.26,8.9,8.9,0,0,0,8.56-.49,2.5,2.5,0,0,0,1-2.85,8.14,8.14,0,0,1-.61-2.26,7.05,7.05,0,0,1,.62-2.1c.38-1,.89-2.4.51-3.5a6.86,6.86,0,0,0-1.71-2.33c-1.88-1.91-4.56-4.5-7.39-4.75-3-.27-5,2.69-7.14,4.16a4,4,0,0,1-1.9.75,1.56,1.56,0,0,1-.57,0c-.12-.05.06.2-.08-.06a2.75,2.75,0,0,1,0-1.18c.21-1.41,1.72-2.27,1.88-3.73.27-2.49-2.38-3.3-4.23-2.17-2.67,1.63-2.91,5.28-5.39,7.05a3.66,3.66,0,0,1-1.7.68c-.38,0-1.83.07-1.92-.13s.37-1.06.51-1.3a15,15,0,0,1,1.34-1.92c1.75-2.24,4-4.76,3.29-7.85-.57-2.61-4.54-1.54-6-.54-1,.69-2.18,1.74-2.19,3.08,0,1.18.86,2.28,1.27,3.35.67,1.77-1.12,2.66-2.65,2.45A2.6,2.6,0,0,1,98.28,25c-.27-1.28.12-2.61-.21-3.87a3.58,3.58,0,0,0-2.14-2.35c-.71-.33-1.58-.75-1.73-1.61A4.06,4.06,0,0,1,94.67,15a21.1,21.1,0,0,1,3.27-4.38c.39-.48-.38-1.11-.78-.63A28.75,28.75,0,0,0,94,14a4.86,4.86,0,0,0-.71,3.62c.44,1.31,1.74,1.61,2.78,2.29,1.47.94,1,2.63,1.07,4.1.1,2.13,1.17,4,3.44,4.19s4.38-1.39,3.47-3.77c-.48-1.28-1.74-2.69-.8-4a5.05,5.05,0,0,1,4.85-2.08c.94.19,1.09.65,1.12,1.53a5.1,5.1,0,0,1-.44,2.18,22.61,22.61,0,0,1-3.17,4.59c-.74,1-2.85,3.76-.62,4.33,2.6.66,4.78-.8,6.11-2.94.89-1.43,1.46-3.06,2.69-4.27.86-.84,3.13-1.68,3.4.14.22,1.52-1.47,2.52-1.8,3.94-.16.67-.28,2.12.45,2.52a3.61,3.61,0,0,0,2.93-.36c1.51-.78,2.55-2.15,3.92-3.13,1.1-.78,2.44-1.54,3.83-1.2a11.31,11.31,0,0,1,4.19,2.51A15.55,15.55,0,0,1,134,31.45c.79,1.23,0,2.79-.46,4a4.51,4.51,0,0,0-.19,3.23c.27.79.79,1.69.24,2.48a4,4,0,0,1-2.26,1.22,8.24,8.24,0,0,1-5.5-.25c-1.5-.7-3-2.09-2.74-3.88.22-1.43.69-2.82,1-4.24a2.72,2.72,0,0,0-.53-2.5,3.81,3.81,0,0,0-3-.57c-1.48.19-2.42,1.36-3.57,2.19s-2.65,1-4.08,1.36a25,25,0,0,1-2.4.8c-2.73.45-5.51.59-8.23,1.12a7.57,7.57,0,0,0-2.7,1.43,19.86,19.86,0,0,0-3.3,2.7C94.84,42,93.4,44.65,95.1,46.4c2.16,2.22,5.52,2.72,7.7,4.92a3,3,0,0,1,1.06,3.07c-.55,1.57-1.58,2.9-2,4.51-.66,2.26-.48,5.44,2.35,5.85a5,5,0,0,0,5.63-4.55c.12-1.61-1-3.25.4-4.58,1.11-1,2.66-1.19,3.93-1.9,2.5-1.42,2.07-4.35,2.06-6.79a3.88,3.88,0,0,1,1.41-3.44,4,4,0,0,1,3.82-.07c1.26.63,3,1.78,3.46,3.23.31,1.07-.29,2.5.8,3.2a5.56,5.56,0,0,0,1.62.7,6.37,6.37,0,0,0,2.2-.22c1.27-.19,2.54-.37,3.82-.54a3,3,0,0,1,2.36.26,2.59,2.59,0,0,1,1,2.29,19.23,19.23,0,0,0-.28,2.12,4.59,4.59,0,0,0,1.81,3,3.07,3.07,0,0,0,1.87.8A4,4,0,0,1,142,59c1.27,1.08.56,2.53-.29,3.62a6.87,6.87,0,0,1-4.55,2.94,38.66,38.66,0,0,0-5,.65,10.48,10.48,0,0,1-2.69.21c-1.46,0-3-.42-4.41-.34a8,8,0,0,0-4.28,1.79c-.61.52-1.26,1.53-.79,2.36s2.1.41,2.82.23c1.62-.4,3-1.06,4.67-.71a5.44,5.44,0,0,1,2.25.64c.61.6-.07,1.74-.21,2.35-.53,2.44,4.13,1.1,5.15,1.7,1.5.89-1.4,3-2.11,3.46a10.58,10.58,0,0,1-4.91,1.21,26.82,26.82,0,0,1-3.89-.57,6.58,6.58,0,0,0-3,.57,15.58,15.58,0,0,0-3.63,2.13c-1.28,1-2.36,2.21-3.67,3.15a40.51,40.51,0,0,1-4.23,2.46,12,12,0,0,0-2.24,1.39,7.22,7.22,0,0,0-2,3.1,42.64,42.64,0,0,0-.76,4.33,5.47,5.47,0,0,1-2.3,3.41c-1.42.93-3.17,1.43-4.68,2.22a22.68,22.68,0,0,0-7.82,6A6.83,6.83,0,0,0,88,110.64c-.08.77,0,1.53,0,2.3-.19,2.64.25,6.18-1.6,8.33-.67.77-2.62,1.55-3.25.32-.48-1,.44-2.6.69-3.49.7-2.54,1.27-6.22-.29-8.59-1.47-2.21-4.72-2.26-7.07-2-1.8.24-3.53.83-5.35.91a13.28,13.28,0,0,1-5.23-.81,8.26,8.26,0,0,0-3.62-.75,9,9,0,0,0-3.81,1.48,8.44,8.44,0,0,0-3.21,3.15c-.63,1.25-.33,2.29-.24,3.6.13,2-1.05,3.32-2.16,4.84a11.77,11.77,0,0,0-1.75,4,26.24,26.24,0,0,0-.69,5.37,19.6,19.6,0,0,0,0,4.72,6,6,0,0,0,5.7,4.64c2.11,0,5.23,0,6.21-2.29.58-1.37.66-3,1.55-4.18a4.8,4.8,0,0,1,3.37-1.85c.87-.12,2.13-.32,2.42.78a3.13,3.13,0,0,1-.24,2.23c-.74,1.43-2.21,2.42-2.52,4.08-.25,1.33.76,2.65.23,3.93s-2.13,2.06-2.48,3.47c-.69,2.76,3.15,2.38,4.69,2.23,1.24-.11,2.67-.16,3.65.76a4.7,4.7,0,0,1,1,3.7c-.06,1.48-.47,2.88-.49,4.38a17.35,17.35,0,0,0,.39,4.31,6.25,6.25,0,0,0,3.41,4.6,5.85,5.85,0,0,0,2.84.42c1.41-.19,2.86-1.35,4.29-1.22s1.45,2.18,2.23,3a4.69,4.69,0,0,0,3,1.34,3.86,3.86,0,0,0,3.19-.55,26.7,26.7,0,0,0,2.81-3.68A5.58,5.58,0,0,1,98.64,162a12.94,12.94,0,0,1,5.22-.26,5.57,5.57,0,0,1,3.73,1.89,7.83,7.83,0,0,0,2.33,2.43c2.52,1.43,6.12,1.15,8.84.59,1.58-.32,3-1.08,4.64-1.21a11.15,11.15,0,0,1,4.8.83,24.09,24.09,0,0,1,5,2.72,8.59,8.59,0,0,1,2.55,2.32,10.22,10.22,0,0,0,5.85,4.93,14.22,14.22,0,0,0,4,.42,10.9,10.9,0,0,1,4.75,1.15,18,18,0,0,1,7.54,7.6,14.46,14.46,0,0,1,1.53,4.65,4.31,4.31,0,0,0,1.82,3,24.52,24.52,0,0,0,3.24,1.83,16.08,16.08,0,0,0,3.42,1.52c1.6.38,3.27.35,4.86.74a3,3,0,0,1,1.67.87c.25.33.37.74.63,1.07,1.19,1.53,3.29,2.08,5.12,2.35,3.39.5,6.85-.22,10.21.42,2.73.52,6.57,2.07,6.51,5.41a8.55,8.55,0,0,1-1.17,4,6.65,6.65,0,0,0-1.14,3c-.09.61.88.79,1,.16Z" transform="translate(0)" fill="#004c5e"/><path d="M75.09,20.46a48.94,48.94,0,0,1-2.52,7.28,17,17,0,0,1-3.73,5.09c-2,1.93-4.42,3.35-6.47,5.22a24.82,24.82,0,0,0-4.59,5.66c-1.37,2.3-2.36,4.8-3.73,7.11a19.82,19.82,0,0,1-3.64,4.42c-3.62,3.44-7.32,6.92-10.2,11a18.13,18.13,0,0,0-3.05,5.88,21.42,21.42,0,0,0-.47,3.28,9.57,9.57,0,0,1-.8,3.89c-.68,1.29-1.8,2.31-2.59,3.54A11.73,11.73,0,0,0,31.85,86c-.72,2.55-.34,5,0,7.57a18.61,18.61,0,0,1-.44,7.75c-.68,2.53-1.78,5-1.92,7.63a9.6,9.6,0,0,0,.38,3.06,6.15,6.15,0,0,0,1.35,3c1.22,1.13,2.84,0,3.19-1.33a5.38,5.38,0,0,0-.18-3.05c-.47-1.33-1.49-2.47-1.31-4,.27-2.24,2.2-4,2.73-6.2a22.17,22.17,0,0,0,.12-3.74,9.35,9.35,0,0,1,.66-3.47c.3-.62,1.37-1.71,2.12-1.08.42.36.41,1.27.42,1.76A17.07,17.07,0,0,1,38.88,96a27,27,0,0,1-1.14,4.35,17.43,17.43,0,0,0-.71,4.12,14.57,14.57,0,0,0,1.66,7c.6,1.26,1.27,2.47,1.76,3.78a4.94,4.94,0,0,1,.48,2.41,7.85,7.85,0,0,1-1.49,2.9,14,14,0,0,0-1.95,3.64,8.44,8.44,0,0,0,.39,6.45A17.12,17.12,0,0,0,43,136.51c2.16,1.61,4.61,2.35,7,3.45,1.74.8,3.8,1.87,4.61,3.71s1.49,4.41,3.63,5.42,4.48.52,6.64,1a3,3,0,0,1,2.23,2.12c.44,1.27.22,2.62.63,3.89a10.55,10.55,0,0,0,2.16,3.37L72,162.05a19.29,19.29,0,0,1,1.83,2.63C75,166.56,76.21,169,78.35,170a2.47,2.47,0,0,0,2.14,0c1.16-.58,1.64-2.13,2.87-2.54s2,.89,2.56,1.85a3.34,3.34,0,0,0,2,1.77c1.11.29,2.29-.1,3.4.28a4.47,4.47,0,0,1,1.39.8,1.39,1.39,0,0,1,.46,1.19,5,5,0,0,1-.71,2.81c-2.07,4.4-4.59,8.56-6.68,12.95A49.3,49.3,0,0,0,83,196.16c-.17.59.73,1,.91.41,1.58-5.34,4.35-10.15,6.92-15,.88-1.68,1.76-3.37,2.57-5.08a5.68,5.68,0,0,0,.77-2.44,3.55,3.55,0,0,0-.47-2.27,4.66,4.66,0,0,0-2.41-1.45,6.37,6.37,0,0,0-1.44-.17,4.91,4.91,0,0,1-2-.15c-1.11-.51-1.28-1.91-2.08-2.74a2.83,2.83,0,0,0-2.21-.88A3.65,3.65,0,0,0,81.21,168c-.82,1-1.74,1.67-2.95.87a9.22,9.22,0,0,1-2.57-2.95,28.87,28.87,0,0,0-2.22-3.61,57.43,57.43,0,0,1-4.1-5,5.77,5.77,0,0,1-.83-1.86c-.16-.71-.1-1.46-.21-2.18a5.68,5.68,0,0,0-1.31-3c-1.28-1.37-3.59-1.31-5.32-1.41a6.76,6.76,0,0,1-3.46-.76A7.16,7.16,0,0,1,56,144.49a7.9,7.9,0,0,0-3.13-4.06c-2.17-1.44-4.68-2.05-7-3.23a17.17,17.17,0,0,1-6.3-5.61,7.88,7.88,0,0,1-1.09-7.31c.79-2.25,2.81-4,3.37-6.28.41-1.73-.71-3.79-1.43-5.27-1.17-2.39-2.48-4.87-2.44-7.61a16.07,16.07,0,0,1,.76-4.67,27.45,27.45,0,0,0,1-3.88c.22-1.44.8-5-1.17-5.54-1.7-.47-3,1.15-3.38,2.57a14.92,14.92,0,0,0-.45,3.46,11.33,11.33,0,0,1-.23,3.59c-.73,2-2.57,3.91-2.61,6.15a8.07,8.07,0,0,0,1.17,3.55c.46,1,.84,2.69.08,3.66-1.66,2.12-2.73-3.72-2.72-4.6,0-2.63,1.14-5.08,1.84-7.56A19,19,0,0,0,33,94.54c-.32-2.78-1-5.41-.23-8.2a11.37,11.37,0,0,1,1.8-3.6,23.17,23.17,0,0,0,2.28-3.13c1.08-2.17.67-4.71,1.22-7a18.15,18.15,0,0,1,3.34-6.3,52.67,52.67,0,0,1,4.74-5.5c1.85-1.89,3.76-3.71,5.68-5.52A18.5,18.5,0,0,0,55.09,51c1.37-2.37,2.37-4.94,3.83-7.27a23.52,23.52,0,0,1,5-5.69A79.06,79.06,0,0,0,70.1,33a16.74,16.74,0,0,0,3.42-5A49,49,0,0,0,76,20.87c.16-.59-.75-1-.92-.41Z" transform="translate(0)" fill="#004c5e"/><path d="M142.71,64.6A16.09,16.09,0,0,1,139,67.49a3.08,3.08,0,0,0-1.64,3c.39,2.6,4.24,1.94,6,1.76a8.19,8.19,0,0,1,2.52.06c.76.17,1.4.6,2.15.8a2.59,2.59,0,0,0,3-1.57c.48-1.08.56-2.36-.54-3a6.33,6.33,0,0,0-1.85-.63l-1.81-.48c-.12,0-.24-.11-.16,0a1.53,1.53,0,0,1-.36-.66,16.14,16.14,0,0,0-.71-2.3c-.78-1.36-2.12-.56-3,.25-.44.44.33,1.06.78.63.23-.23.78-.81,1.17-.63s.46,1.21.56,1.6c.17.66.42,1.65,1.11,2a13,13,0,0,0,2.14.59,5.06,5.06,0,0,1,1.61.52c.5.33.41.88.26,1.41a2.08,2.08,0,0,1-1.1,1.38,2,2,0,0,1-1.58-.2,7.46,7.46,0,0,0-3.54-.73c-1.17.08-2.33.25-3.5.25-.73,0-1.92,0-2.21-.85-.48-1.37,1.2-2.22,2.1-2.81a12.74,12.74,0,0,0,3-2.5C143.89,64.75,143.11,64.12,142.71,64.6Z" transform="translate(0)" fill="#004c5e"/><path d="M183.42,29.91a6,6,0,0,0-1.89.77,2.86,2.86,0,0,1-2.3.6,3.17,3.17,0,0,0-1.33-.11,1.48,1.48,0,0,0-1.05,1.17c-.49,2.33,2.63,3.77,4.52,3.66.73,0,1.45-.14,2.17-.21,1.21-.12,2,.77,3.12,1a3.25,3.25,0,0,0,3.11-.85,4,4,0,0,0,1.15-3.32,3.39,3.39,0,0,0-2.46-2,16.12,16.12,0,0,0-4.92-.78c-.64,0-.5,1,.12,1a16.18,16.18,0,0,1,3.74.49,4.18,4.18,0,0,1,2.42,1.21c.54.76-.22,2.13-.77,2.71a2.43,2.43,0,0,1-2.86.35,4.73,4.73,0,0,0-2.51-.83c-.56,0-1.11.1-1.66.16a4.85,4.85,0,0,1-1.74,0c-.93-.23-2.31-.8-2.47-1.89,0-.28,0-.75.29-.88a.94.94,0,0,1,.5,0,4.93,4.93,0,0,0,1.75.15,4,4,0,0,0,1.51-.65,5.84,5.84,0,0,1,1.92-.82C184.4,30.69,184,29.77,183.42,29.91Z" transform="translate(0)" fill="#004c5e"/><path d="M207,41.62a3.23,3.23,0,0,0,0,3.3c.58.74,1.62,1,2.28,1.62a3.22,3.22,0,0,1,.64,1.45c.15.62.28,1.25.42,1.87a12.86,12.86,0,0,1,.26,1.63c.07.64,0,1.35.11,2,.38,1.84,3.53,1.7,4.83,1.22a2.48,2.48,0,0,0,1.18-3.79c-.68-.95-1.82-1.63-2.28-2.73-.15-.36-.21-.73.23-.82a4.08,4.08,0,0,1,1.67,0c2.3.6,2.4,3.62,4.18,4.86a2,2,0,0,0,2.19.13A3.71,3.71,0,0,0,224,49.3c0-1.9-2.58-3-4-3.62a30.68,30.68,0,0,0-4.48-1.52,10.55,10.55,0,0,1-2.94-1.48c-1.42-.94-4.25-3.41-5.6-1.06-.3.53.6.94.92.4s1.23-.36,1.79-.08a34.61,34.61,0,0,1,3,2A11.1,11.1,0,0,0,214.9,45c1.08.36,2.19.59,3.26,1a17.24,17.24,0,0,1,3.48,1.63c.52.33,1.28.81,1.41,1.47s-.29,2.49-1.25,2.59c-.8.09-1.38-.86-1.73-1.44-1-1.6-1.71-3.5-3.79-3.85a4.09,4.09,0,0,0-2.3.16,1.45,1.45,0,0,0-.46,1.89,7.25,7.25,0,0,0,1.8,2.28c.56.59,1.1,1.17.86,2a1.79,1.79,0,0,1-1.6,1.18c-.75.12-2.09.23-2.7-.34-.35-.32-.2-1-.22-1.44a13.89,13.89,0,0,0-.21-1.82,18.41,18.41,0,0,0-.82-3.37,2.89,2.89,0,0,0-.69-1.12,14,14,0,0,0-1.42-.94,2.21,2.21,0,0,1-.85-.75,2.6,2.6,0,0,1,.24-2.12C208.18,41.47,207.27,41.05,207,41.62Z" transform="translate(0)" fill="#004c5e"/><path d="M83,196.31c-1.42,4.91-1.77,10.26,1.11,14.73,2.27,3.52,6.36,5.31,8.55,8.86,1.28,2.06,1.46,4.39,2.23,6.64a10,10,0,0,0,3.91,5.06c2.09,1.39,4.33,2.53,6.41,3.92a14.76,14.76,0,0,1,4.49,5,18.57,18.57,0,0,1,1.91,6.49c.35,2.44.5,4.91.82,7.36.38,3,.86,6,1,9a44.3,44.3,0,0,1-.51,8,35.3,35.3,0,0,0-.33,6.89,20.72,20.72,0,0,0,1.47,7.17,10.44,10.44,0,0,0,1.9,2.88,12,12,0,0,0,2.18,1.71c2.07,1.38,4,2.95,6.13,4.27a24.93,24.93,0,0,0,7.59,3.31,15.35,15.35,0,0,0,3.32.09c1.28,0,2.56,0,3.83,0a9,9,0,0,0,2.25-.32c.8-.25,2.23-.69,2.36-1.67.25-2-3.24-1.64-4.33-1.65a25,25,0,0,1-3.95-.51,5.21,5.21,0,0,1-2.72-1.05,4.44,4.44,0,0,1-1.34-2.72,7,7,0,0,1,.88-3.3,9.17,9.17,0,0,1,2.12-3.22,10.15,10.15,0,0,1,2.72-1.29c1.33-.53,2.75-.91,4-1.51a5.61,5.61,0,0,0,2.59-2.09c.8-1.46-.57-2.7-1.62-3.56a36,36,0,0,0-3.41-2.33,9,9,0,0,1-2.53-2.05c-.39-.54-.2-.92.47-1.06,1.24-.25,2.33.91,3.17,1.63a18.49,18.49,0,0,0,3,2.23,4.17,4.17,0,0,0,2.1.67,3.25,3.25,0,0,0,1.68-1,30.13,30.13,0,0,0,2.62-2.68,22.27,22.27,0,0,1,4.27-4.13c1.26-.82,2.64-1.44,3.9-2.26a18.69,18.69,0,0,0,3.19-2.48,8.08,8.08,0,0,0,1.29-1.92,9.42,9.42,0,0,0,.71-1.33,11.94,11.94,0,0,0,.36-1.3,6,6,0,0,1,.65-1.88,6.39,6.39,0,0,1,1.21-1.17c1-.9,1.9-1.88,2.83-2.85,1.21-1.26,2.23-2.45,4.07-2.76,1.29-.22,2.59,0,3.87-.2a7.08,7.08,0,0,0,3.1-1.35,11.53,11.53,0,0,0,3.78-6.89,10.43,10.43,0,0,0,.17-2.08,10.85,10.85,0,0,1,0-1.8,7.63,7.63,0,0,1,1.59-3.27c.85-1.17,1.88-2.22,2.79-3.34.68-.84,1.34-1.7,1.94-2.6a62.25,62.25,0,0,1,3.95-5.08,13.29,13.29,0,0,0,2.13-3.49,5.77,5.77,0,0,0,.42-1.79c0-.65.07-1.31.17-1.95a.49.49,0,0,0-1-.16c-.11.6-.12,1.22-.17,1.83a6,6,0,0,1-.57,2.15,16.54,16.54,0,0,1-2.54,3.68c-1.25,1.51-2.4,3-3.52,4.65-.64.92-1.35,1.81-2.06,2.67a41.42,41.42,0,0,0-2.73,3.34,8.45,8.45,0,0,0-1.39,3,5.32,5.32,0,0,0,0,1.38,9.72,9.72,0,0,1-.08,2.41c-.41,2.56-1.74,5.49-4,6.89a6.54,6.54,0,0,1-3.48.9,10.39,10.39,0,0,0-3.68.39c-1.52.55-2.52,1.8-3.61,2.93-.91,1-1.81,1.94-2.82,2.81a5.62,5.62,0,0,0-1,1,4.83,4.83,0,0,0-.7,1.59,10.88,10.88,0,0,1-1,2.84,8.85,8.85,0,0,1-1.32,2c-2,2.1-4.76,3.18-7.16,4.75a21.75,21.75,0,0,0-3.95,3.84,30.44,30.44,0,0,1-2.79,2.89c-.44.38-.87.81-1.45.7a6.6,6.6,0,0,1-2.47-1.3c-1.11-.81-2.06-1.85-3.23-2.58a3.27,3.27,0,0,0-2.72-.51,1.6,1.6,0,0,0-1.18,1.26,2.36,2.36,0,0,0,.89,1.76,17.25,17.25,0,0,0,3.06,2.23,22.14,22.14,0,0,1,3,2.12c.4.36,1.06.89,1.14,1.46.12.9-1.21,1.64-1.82,2a13.87,13.87,0,0,1-2.19.87c-.67.25-1.33.49-2,.75a18.21,18.21,0,0,0-2.86,1.25,6.49,6.49,0,0,0-2,2.29c-1.06,1.79-2.21,4.11-1.58,6.22a5.08,5.08,0,0,0,4.23,3.73c1.12.21,2.26.36,3.39.5s2.48,0,3.71.2c.19,0,.65.07.78.26.25.37-.87.74-1.14.85a7.3,7.3,0,0,1-2.5.48c-1.15.05-2.32,0-3.47,0h-2.22a7.08,7.08,0,0,1-1,0,15.39,15.39,0,0,1-3.64-1.2,26.56,26.56,0,0,1-3.94-2.1c-2-1.34-4-2.86-6-4.21a10.53,10.53,0,0,1-2.23-1.81,10.09,10.09,0,0,1-1.72-3,23.21,23.21,0,0,1-1.17-7.31,49.7,49.7,0,0,1,.59-7.2,43.5,43.5,0,0,0,.26-7.48c-.17-2.94-.66-5.84-1-8.76-.3-2.43-.44-4.88-.83-7.29a19,19,0,0,0-1.84-6.08,18.47,18.47,0,0,0-2.23-3.12,12.7,12.7,0,0,0-2.08-2c-2-1.43-4.23-2.55-6.32-3.88a12,12,0,0,1-2-1.47A9,9,0,0,1,96,226.6c-.86-2.13-1-4.46-2.08-6.52a13.7,13.7,0,0,0-3.23-3.91,33.68,33.68,0,0,1-5.12-4.79A13,13,0,0,1,83,204.69a21.55,21.55,0,0,1,1-8c.17-.59-.74-1-.91-.41Z" transform="translate(0)" fill="#004c5e"/><path d="M105.49,138.88A11.77,11.77,0,0,0,101,140.6,20.76,20.76,0,0,0,98.36,142c-.33.23-.79.55-.83,1s.37.7.76.83a12.16,12.16,0,0,0,2.31.48,5.89,5.89,0,0,0,2.05-.05,25.66,25.66,0,0,1,2.9-.43c2.39-.08,4.47.88,6.64,1.71a14.37,14.37,0,0,0,5.72,1c1.32,0,3.38-.11,3.33-1.91-.06-2.07-2.5-1.86-3.93-1.94a6.09,6.09,0,0,1-2.52-.59,26,26,0,0,1-3.07-2.15A6.06,6.06,0,0,0,109,138.8a27.27,27.27,0,0,0-3.5.08c-.64,0-.5,1,.12,1,1.72-.07,3.44-.37,5,.52s2.73,2.23,4.42,2.88a6.21,6.21,0,0,0,1.81.37,21.33,21.33,0,0,1,2.53.13c.59.13,1.33.81.69,1.41-.42.39-1.26.35-1.79.38a13.17,13.17,0,0,1-5-.6,37.38,37.38,0,0,0-5.61-1.89,10.73,10.73,0,0,0-2.46-.17c-.81.05-1.59.25-2.39.38a5.75,5.75,0,0,1-1.8.15,18.47,18.47,0,0,1-2.2-.4l-.46-.15s.12.37.1.37,0-.06.05-.07.2-.17.26-.22a15.72,15.72,0,0,1,2.22-1.27c1.39-.7,3-1.73,4.59-1.82C106.25,139.82,106.11,138.85,105.49,138.88Z" transform="translate(0)" fill="#004c5e"/><path d="M82.07,127.59c-.72-.09-1.43-.15-2.15-.19a5.32,5.32,0,0,0-1.69.07,2.44,2.44,0,0,0-1.62,2.24c0,1.82,2.31,2,3.67,1.92,1.87-.07,4.41-.44,6,.89.92.78,1.67,1.75,2.63,2.49a16.62,16.62,0,0,0,3,1.74c2,1,3.64,2.83,6,2.95,1.37.07,3.92,0,4.35-1.71a2.2,2.2,0,0,0-.58-2.1c-.79-.73-2-.63-3-.78a7.58,7.58,0,0,1-2.46-.72,18.67,18.67,0,0,1-2.66-1.86,20.25,20.25,0,0,0-2.29-1.63c-1-.56-1.92-1.12-2.89-1.67a12.85,12.85,0,0,0-6.44-1.65c-.64,0-.5,1,.12,1a11.2,11.2,0,0,1,5.47,1.3c.56.3,1.11.62,1.66.94a27.28,27.28,0,0,1,2.46,1.44,37.91,37.91,0,0,0,4,3,7.24,7.24,0,0,0,1.78.67c.46.1.91.18,1.37.24a10.06,10.06,0,0,1,1.65.21,1.13,1.13,0,0,1,.72,1.55c-.27.55-1.12.69-1.66.76a6.07,6.07,0,0,1-3.19-.26,20.61,20.61,0,0,1-2.81-1.76c-1.64-1-3.43-1.69-4.86-3.06a19.37,19.37,0,0,0-2-1.93,5.17,5.17,0,0,0-2-.83,12.2,12.2,0,0,0-3-.23,10.45,10.45,0,0,1-3.35-.07c-.89-.28-.93-1.05-.31-1.75.42-.48,1-.4,1.64-.38s1.5.09,2.25.18A.49.49,0,0,0,82.07,127.59Z" transform="translate(0)" fill="#004c5e"/></g><g id="Layer0_4_MEMBER_0_FILL" data-name="Layer0 4 MEMBER 0 FILL"><path d="M201.9,28.52q-3,0-3,3.45a3.82,3.82,0,0,0,.4,1.75,2.59,2.59,0,0,0,2.5,1.45,2.66,2.66,0,0,0,2.25-1.05,3.45,3.45,0,0,0,.7-2.2q0-3.41-2.9-3.4m-3.7-4.9a10.62,10.62,0,0,0,1.15-4.5c0-1.57-1.73-3.53-5.2-5.9A53.49,53.49,0,0,0,182.7,7.47q-7-2.55-11.5-2.3c-3.47.17-5.2,1.63-5.2,4.4q0,1.35,10.55,9.3,11.35,8.55,16.4,8.55Q196.4,27.42,198.2,23.62Z" transform="translate(0)" fill="#64e9f7"/></g></g></g></svg>