<svg xmlns="http://www.w3.org/2000/svg" width="449.41" height="569.36" viewBox="0 0 449.41 569.36"><g id="Layer_2" data-name="Layer 2"><g id="Capa_1" data-name="Capa 1"><circle cx="40.54" cy="427.91" r="34.04" transform="translate(-89.05 18.09) rotate(-12.14)" fill="#00a0dc"/><path d="M40.54,468.45a40.54,40.54,0,1,1,40.54-40.54A40.58,40.58,0,0,1,40.54,468.45Zm0-68.08a27.54,27.54,0,1,0,27.54,27.54A27.57,27.57,0,0,0,40.54,400.37Z" fill="#231f20"/><path d="M290.37,6.5H124.74A81.85,81.85,0,0,0,42.89,88.35V481a81.84,81.84,0,0,0,81.85,81.85H361A81.85,81.85,0,0,0,442.89,481V159Z" fill="#fff"/><path d="M361,569.36H124.74A88.45,88.45,0,0,1,36.39,481V88.35A88.45,88.45,0,0,1,124.74,0H290.37A6.49,6.49,0,0,1,295,1.9L447.48,154.42a6.5,6.5,0,0,1,1.91,4.6V481A88.45,88.45,0,0,1,361,569.36ZM124.74,13A75.43,75.43,0,0,0,49.39,88.35V481a75.43,75.43,0,0,0,75.35,75.35H361A75.44,75.44,0,0,0,436.39,481V161.71L287.68,13Z" fill="#231f20"/><path d="M290.37,6.5,442.89,159h-120a32.53,32.53,0,0,1-32.53-32.53Z" fill="#dcddde"/><path d="M442.91,165.52h-120a39.08,39.08,0,0,1-39-39V6.5A6.51,6.51,0,0,1,295,1.9L447.19,154.13a6.5,6.5,0,0,1-4.28,11.39Zm-146-143.33v104.3a26.06,26.06,0,0,0,26,26H427.19Z" fill="#231f20"/><path d="M43.64,231.62A36.61,36.61,0,0,0,7,268.23v153.3H7.7a36.61,36.61,0,0,1,35.94-29.64H412.31V231.62Z" fill="#00a0dc"/><path d="M7.7,428H7a6.5,6.5,0,0,1-6.5-6.5V268.23a43.15,43.15,0,0,1,43.11-43.11H412.31a6.5,6.5,0,0,1,6.5,6.5V391.89a6.5,6.5,0,0,1-6.5,6.5H43.64a30.12,30.12,0,0,0-29.56,24.38A6.5,6.5,0,0,1,7.7,428ZM43.64,238.12a30.14,30.14,0,0,0-30.11,30.11V397.67a43,43,0,0,1,30.11-12.28H405.81V238.12Z" fill="#231f20"/><text transform="translate(115.89 353.54)" font-size="127.4" fill="#fff" font-family="MyriadPro-Regular, Myriad Pro" letter-spacing="0.02em">T<tspan x="66.12" y="0" letter-spacing="0.01em">X</tspan><tspan x="139.88" y="0" letter-spacing="0em">T</tspan></text></g></g></svg>