<svg xmlns="http://www.w3.org/2000/svg" xmlns:xlink="http://www.w3.org/1999/xlink" width="64.98" height="63.37" viewBox="0 0 64.98 63.37"><defs><radialGradient id="radial-gradient" cx="20.79" cy="12.49" r="59.35" gradientUnits="userSpaceOnUse"><stop offset="0" stop-color="#ffaddb"/><stop offset="0.07" stop-color="#fda1d4"/><stop offset="0.2" stop-color="#f880c2"/><stop offset="0.37" stop-color="#ef4ca5"/><stop offset="0.5" stop-color="#e8218d"/><stop offset="0.96" stop-color="#63004e"/></radialGradient><radialGradient id="radial-gradient-2" cx="30.49" cy="24.14" r="41.93" gradientUnits="userSpaceOnUse"><stop offset="0.45" stop-color="#fff"/><stop offset="0.5" stop-color="#f8f4f9"/><stop offset="0.58" stop-color="#e7d6e8"/><stop offset="0.69" stop-color="#caa6cd"/><stop offset="0.83" stop-color="#a263a8"/><stop offset="0.97" stop-color="#700f79"/><stop offset="1" stop-color="#670070"/></radialGradient><radialGradient id="radial-gradient-3" cx="35.24" cy="34.27" r="36.26" gradientUnits="userSpaceOnUse"><stop offset="0.04"/><stop offset="0.84"/><stop offset="0.85" stop-color="#160b11"/><stop offset="0.9" stop-color="#683652"/><stop offset="0.93" stop-color="#a95886"/><stop offset="0.96" stop-color="#d770ab"/><stop offset="0.99" stop-color="#f47fc1"/><stop offset="1" stop-color="#ff85ca"/></radialGradient><radialGradient id="radial-gradient-4" cx="17.41" cy="12.71" r="59.82" gradientUnits="userSpaceOnUse"><stop offset="0" stop-color="#843e8c"/><stop offset="1" stop-color="#340e47"/></radialGradient><radialGradient id="radial-gradient-5" cx="26.07" cy="24.24" r="22.11" gradientUnits="userSpaceOnUse"><stop offset="0" stop-color="#ff8fcd"/><stop offset="1"/></radialGradient><radialGradient id="radial-gradient-6" cx="17.96" cy="13.68" r="58.52" gradientUnits="userSpaceOnUse"><stop offset="0" stop-color="#f242f5"/><stop offset="1" stop-color="#66005e"/></radialGradient><radialGradient id="radial-gradient-7" cx="41.33" cy="25.95" r="26.07" xlink:href="#radial-gradient-6"/><radialGradient id="radial-gradient-8" cx="17.8" cy="17.83" r="42.56" gradientUnits="userSpaceOnUse"><stop offset="0" stop-color="#f946de"/><stop offset="0.12" stop-color="#cc39b6"/><stop offset="0.39" stop-color="#5d1a53"/><stop offset="0.6"/></radialGradient><radialGradient id="New_Gradient_Swatch_60" cx="16.04" cy="24.75" r="11.47" gradientUnits="userSpaceOnUse"><stop offset="0" stop-color="#fff"/><stop offset="0.1" stop-color="#fcf9fc"/><stop offset="0.22" stop-color="#f2e9f3"/><stop offset="0.36" stop-color="#e2cee3"/><stop offset="0.51" stop-color="#cba8ce"/><stop offset="0.68" stop-color="#ae77b3"/><stop offset="0.84" stop-color="#8b3d92"/><stop offset="1" stop-color="#670070"/></radialGradient><radialGradient id="radial-gradient-9" cx="14.09" cy="13.86" r="38.93" xlink:href="#radial-gradient-5"/><radialGradient id="radial-gradient-10" cx="14.25" cy="41.53" r="15.91" xlink:href="#radial-gradient-5"/><radialGradient id="radial-gradient-11" cx="29.39" cy="28.34" r="39.56" gradientUnits="userSpaceOnUse"><stop offset="0.49" stop-color="#fff"/><stop offset="0.54" stop-color="#fcf9fc"/><stop offset="0.61" stop-color="#f2e9f3"/><stop offset="0.68" stop-color="#e2cee3"/><stop offset="0.75" stop-color="#cba8ce"/><stop offset="0.84" stop-color="#ae77b3"/><stop offset="0.92" stop-color="#8b3d92"/><stop offset="1" stop-color="#670070"/></radialGradient><radialGradient id="New_Gradient_Swatch_60-2" cx="57.33" cy="0.14" r="28.45" xlink:href="#New_Gradient_Swatch_60"/><radialGradient id="New_Gradient_Swatch_60-3" cx="18.75" cy="53.01" r="10.5" xlink:href="#New_Gradient_Swatch_60"/><radialGradient id="New_Gradient_Swatch_60-4" cx="34.97" cy="55.34" r="10.33" xlink:href="#New_Gradient_Swatch_60"/><radialGradient id="New_Gradient_Swatch_60-5" cx="53.56" cy="33.52" r="20.2" xlink:href="#New_Gradient_Swatch_60"/><radialGradient id="New_Gradient_Swatch_60-6" cx="14.88" cy="16.95" r="15.09" xlink:href="#New_Gradient_Swatch_60"/><radialGradient id="radial-gradient-12" cx="11.48" cy="22.83" r="20.53" gradientUnits="userSpaceOnUse"><stop offset="0" stop-color="#f7c7ff"/><stop offset="1"/></radialGradient><radialGradient id="radial-gradient-13" cx="23.73" cy="18.23" r="10.55" xlink:href="#radial-gradient-12"/><radialGradient id="radial-gradient-14" cx="14.41" cy="13.25" r="11.02" xlink:href="#radial-gradient-12"/><radialGradient id="radial-gradient-15" cx="8.72" cy="51.9" r="12.83" xlink:href="#radial-gradient-12"/><radialGradient id="radial-gradient-16" cx="31.78" cy="47.36" r="11.1" xlink:href="#radial-gradient-5"/><radialGradient id="radial-gradient-17" cx="42.06" cy="26.34" r="18.98" xlink:href="#radial-gradient-5"/><radialGradient id="radial-gradient-18" cx="42.81" cy="37.08" r="42.56" gradientUnits="userSpaceOnUse"><stop offset="0.04"/><stop offset="0.92"/><stop offset="0.93" stop-color="#160b11"/><stop offset="0.95" stop-color="#683652"/><stop offset="0.97" stop-color="#a95886"/><stop offset="0.98" stop-color="#d770ab"/><stop offset="0.99" stop-color="#f47fc1"/><stop offset="1" stop-color="#ff85ca"/></radialGradient></defs><g style="isolation:isolate"><g id="Layer_2" data-name="Layer 2"><g id="Layer_1-2" data-name="Layer 1"><path d="M33.3,0A31.69,31.69,0,1,1,1.61,31.68,31.68,31.68,0,0,1,33.3,0Z" fill-rule="evenodd" fill="url(#radial-gradient)"/><g opacity="0.4" style="mix-blend-mode:multiply"><path d="M43.59,48c-2,6.73-7.52,6.7-13.32,7.12-5.59.42-9.75-3.14-14-6.06-3.13-2.12-6.09-3-8.31-5.89-2.81-3.7-4.49-9.72-4.49-14.89A26.85,26.85,0,0,1,24,2.19,42,42,0,0,1,31.14.84c9-.3,14.42,1.85,18.92,6.35,3.33,3.33,1.45,9.41,2.83,14.16.7,2.39,2.74,5.4,2.19,9.93C54.26,37.91,45.93,40,43.59,48ZM65,31.68A31.69,31.69,0,1,0,33.3,63.37,31.68,31.68,0,0,0,65,31.68Z" fill-rule="evenodd" fill="url(#radial-gradient-2)"/></g><path d="M33.3,0A31.69,31.69,0,1,1,1.61,31.68,31.68,31.68,0,0,1,33.3,0Z" fill-rule="evenodd" fill="url(#radial-gradient-3)" style="mix-blend-mode:screen"/><g opacity="0.65" style="mix-blend-mode:multiply"><path d="M1.61,31.68a31.53,31.53,0,0,0,3.25,14l0,0c1.59-1.29,2.87-1.35,5-1.54,5.45-.5,11.46,1.71,16.58.31,9.15-2.51,13-13.49,21.06-18.86A96,96,0,0,1,60.17,19a4,4,0,0,0,1.6-1.18A31.81,31.81,0,0,0,56.3,9.89a1.41,1.41,0,0,0-.49.12,2.57,2.57,0,0,1,.07,3.93c-3.5,2.55-8.53,1.17-12.43.67a80.1,80.1,0,0,0-9.81-1.13c-1.89,0-3.6.16-5,1.55-1.84,1.88-2.44,4.87-3.17,7.29s-1.25,4.73-3.23,6.76c-2.37,2.41-6.77,3.35-9.83,1.55a20.82,20.82,0,0,1-3.6-2.89c-1.52-1.45-3.09-3.17-5-.75a12.75,12.75,0,0,0-2.21,4.66v0ZM16,21.14c-1.23,2.34-1.71,5.77,1.36,5,5.33-1.29,7.69-8.81,3.61-12-.77-.6-1.32.3-2,.93-.85.82-.69,1.94-1,3.22-.29,1.12-1.41,1.82-2,2.87Zm9.75,35.5c.72-4.46-2-6-5.84-6.63-1.42-.24-2.86-.43-4.29-.56-2.15-.2-5.77-.07-4.23,3.22,1.15,2.47,4.93,5,7.37,6,2.71,1.21,6.32,2.14,7-2.07Zm5.3-2c-1.18,1.1-1.33,3.61,0,4.66,2.13,1.62,5.7,1.22,8.08.54s4.55-2.69,1.27-4.25a16.77,16.77,0,0,0-7.63-1.75,3,3,0,0,0-1.75.8Zm16.27-11c3.22,1.52,8.49,1.94,11.45-.35s3.86-9,2.66-12.72c-1.34-4.09-3.79-5.25-7.8-3.91-2.95,1-7.69,5-9,7.69-1.69,3.38-.82,7.61,2.74,9.29Z" fill-rule="evenodd" fill="url(#radial-gradient-4)"/></g><path d="M43,7.27c7.82,7.82,6.57,21.76-2.8,31.13S16.93,49,9.1,41.2,2.53,19.44,11.9,10.07,35.21-.56,43,7.27Z" fill-rule="evenodd" opacity="0.65" fill="url(#radial-gradient-5)" style="mix-blend-mode:screen"/><path d="M24.6,43.08c3.53-1,6.52-2.93,9.78-6.09,5-4.89,6.41-7.83,12.79-12.07C51,22.36,55.1,20.08,59,17.66c2.7-1.67,2.61-2.95,1.17-5.1-.34-.51-3.19-4.76-5.13-3.88a2.61,2.61,0,0,1,.07,4c-3.56,2.59-8.66,1.19-12.61.68a81,81,0,0,0-10-1.15c-1.92,0-3.66.17-5,1.58-1.87,1.9-2.48,4.93-3.22,7.4S23,26,21,28c-2.4,2.46-6.88,3.41-10,1.58a21.35,21.35,0,0,1-3.66-2.93c-1.54-1.48-3.13-3.22-5.09-.77-3.45,4.34-2.67,12.87,0,17.72A3.56,3.56,0,0,0,3.45,45a1,1,0,0,0,1,0c1.62-1.32,1.92-1.12,4-1.31C14.08,43.2,19.4,44.5,24.6,43.08ZM17.06,25.86c1.36-.51,2.77-2.28,3.5-3.48,1.54-2.51,2.5-7-.25-9a2.09,2.09,0,0,0-2.57.42c-.87.84-.7,2-1,3.27a20.24,20.24,0,0,1-1.84,3.7,5,5,0,0,0-.75,3.46A2.09,2.09,0,0,0,17.06,25.86Zm1.6,23.42c-1.44-.24-2.9-.43-4.35-.56-2.18-.2-5.55-.33-4,3,1.17,2.5,5,5,7.48,6.13,2.75,1.23,6.1,2.43,6.79-1.84C25.32,51.49,22.6,49.94,18.66,49.28ZM39.5,55a17,17,0,0,0-7.75-1.78A3.15,3.15,0,0,0,30,54c-1.19,1.12-1.35,3.66,0,4.72,2.16,1.66,5.69.94,8.11.24S42.82,56.59,39.5,55ZM60.81,29.56c-1.36-4.15-3.84-5.33-7.92-4-3,1-7.8,5.05-9.18,7.81-1.72,3.43-.83,7.72,2.78,9.43,3.27,1.54,8.62,2,11.62-.35S62,33.3,60.81,29.56Z" fill-rule="evenodd" fill="url(#radial-gradient-6)"/><path d="M43.71,33.4c-1.72,3.43-.83,7.72,2.78,9.43,3.27,1.54,8.62,2,11.62-.35S62,33.3,60.81,29.56c-1.36-4.15-3.84-5.33-7.92-4-3,1-7.8,5.05-9.18,7.81Z" fill-rule="evenodd" fill="url(#radial-gradient-7)"/><g opacity="0.2" style="mix-blend-mode:screen"><path d="M24.6,43.08c3.53-1,6.52-2.93,9.78-6.09,5-4.89,6.41-7.83,12.79-12.07C51,22.36,55.1,20.08,59,17.66c2.7-1.67,2.61-2.95,1.17-5.1-.34-.51-3.19-4.76-5.13-3.88a2.61,2.61,0,0,1,.07,4c-3.56,2.59-8.66,1.19-12.61.68a81,81,0,0,0-10-1.15c-1.92,0-3.66.17-5,1.58-1.87,1.9-2.48,4.93-3.22,7.4S23,26,21,28c-2.4,2.46-6.88,3.41-10,1.58a21.35,21.35,0,0,1-3.66-2.93c-1.54-1.48-3.13-3.22-5.09-.77-3.45,4.34-2.67,12.87,0,17.72A3.56,3.56,0,0,0,3.45,45a1,1,0,0,0,1,0c1.62-1.32,1.92-1.12,4-1.31C14.08,43.2,19.4,44.5,24.6,43.08ZM17.06,25.86c1.36-.51,2.77-2.28,3.5-3.48,1.54-2.51,2.5-7-.25-9a2.09,2.09,0,0,0-2.57.42c-.87.84-.7,2-1,3.27a20.24,20.24,0,0,1-1.84,3.7,5,5,0,0,0-.75,3.46A2.09,2.09,0,0,0,17.06,25.86Zm1.6,23.42c-1.44-.24-2.9-.43-4.35-.56-2.18-.2-5.55-.33-4,3,1.17,2.5,5,5,7.48,6.13,2.75,1.23,6.1,2.43,6.79-1.84C25.32,51.49,22.6,49.94,18.66,49.28ZM39.5,55a17,17,0,0,0-7.75-1.78A3.15,3.15,0,0,0,30,54c-1.19,1.12-1.35,3.66,0,4.72,2.16,1.66,5.69.94,8.11.24S42.82,56.59,39.5,55ZM60.81,29.56c-1.36-4.15-3.84-5.33-7.92-4-3,1-7.8,5.05-9.18,7.81-1.72,3.43-.83,7.72,2.78,9.43,3.27,1.54,8.62,2,11.62-.35S62,33.3,60.81,29.56Z" fill-rule="evenodd" fill="url(#radial-gradient-8)"/></g><path d="M19.39,29.3a8.53,8.53,0,0,1-8.34.31,21.35,21.35,0,0,1-3.66-2.93c-1.23-1.19-2.51-2.54-4-1.76,1.74-.31,2.84,1.66,4.7,3.46,4.2,4.05,7.65,3.36,11.27.92Z" fill-rule="evenodd" opacity="0.55" fill="url(#New_Gradient_Swatch_60)" style="mix-blend-mode:multiply"/><path d="M10.25,30.71c-1.81-1.07-3.45-3.45-5-4.95-.89-.84-1.34-.68-1.79,0a1,1,0,0,0-.14.34A25.8,25.8,0,0,0,5.61,42.44a1.8,1.8,0,0,0,1.82,1,13.67,13.67,0,0,1,3.28-.64c3.82.18,6.46.75,10,.5,5.13-.36,9.13-2.74,12.93-6.18,2-1.79,1.44-4.11,4.41-6.59,1.08-.9,3.39-2.1,4.2-3.07a5,5,0,0,0,1.14-3.84,24.75,24.75,0,0,0-1.71-6.68,4.63,4.63,0,0,0-1.5-2c-1.41-1.1-3.42-1.74-6.28-2.08-5.27-.63-7,1.91-8.48,6.67-1,3.24-1,5.5-2.27,7.55-2.67,4.45-8.31,6.36-12.89,3.63Z" fill-rule="evenodd" opacity="0.75" fill="url(#radial-gradient-9)" style="mix-blend-mode:screen"/><path d="M11.6,49.41A17,17,0,0,0,17,51.94a17.34,17.34,0,0,0,5.24.56.4.4,0,0,0,.36-.25.41.41,0,0,0,0-.44c-1.08-1.44-2.94-2.09-5.39-2.54A13.63,13.63,0,0,0,11.82,49l-.18.06a.2.2,0,0,0-.12.16.23.23,0,0,0,.08.18Z" fill-rule="evenodd" fill="url(#radial-gradient-10)" style="mix-blend-mode:screen"/><g opacity="0.5" style="mix-blend-mode:multiply"><path d="M10.33,51.73c1.17,2.5,5,5,7.48,6.13,2.13,1,4.62,1.89,6,.28A27.94,27.94,0,0,1,9.93,50.35,3.79,3.79,0,0,0,10.33,51.73ZM38.11,59c1.54-.44,3.16-1.39,3-2.46a27.63,27.63,0,0,1-11,2.31C32.28,60.39,35.73,59.69,38.11,59Zm22.7-29.44c-.76-2.32-1.87-3.71-3.42-4.25A28,28,0,0,1,54.75,43.9a7.88,7.88,0,0,0,3.36-1.42C61.26,40,62,33.3,60.81,29.56ZM59,17.66a5.78,5.78,0,0,0,1.8-1.55c.7-1,.34-2.1-.63-3.55-.34-.51-3.19-4.76-5.13-3.88a2.16,2.16,0,0,1,.38.36,2.62,2.62,0,0,1-.31,3.63,7.53,7.53,0,0,1-2.92,1.27,29.62,29.62,0,0,1,2,3,27.17,27.17,0,0,1,1.41,2.8C56.77,19,57.91,18.35,59,17.66Z" fill-rule="evenodd" fill="url(#radial-gradient-11)"/></g><path d="M44.64,14.61c3.26.59,8,1.69,11.18-.41a3.75,3.75,0,0,0,1.74-2.87,2.6,2.6,0,0,0-1.68-2.71.86.86,0,0,0-.45,0,1.1,1.1,0,0,0-.35.11,2.16,2.16,0,0,1,.38.36,2.62,2.62,0,0,1-.31,3.63c-3.56,2.59-8.66,1.19-12.61.68a81,81,0,0,0-10-1.15,13,13,0,0,0-2.2.15c4.82-.06,9.52,1.42,14.27,2.26Z" fill-rule="evenodd" opacity="0.55" fill="url(#New_Gradient_Swatch_60-2)" style="mix-blend-mode:multiply"/><path d="M18.6,49.27c2.95.88,5.28,2,5.3,5.81a4.73,4.73,0,0,1-.29,1.71c-.66,1.74-2,2-3.49,2,2.06.59,4,.38,4.48-2.73.72-4.53-2-6.08-5.94-6.74Z" fill-rule="evenodd" opacity="0.4" fill="url(#New_Gradient_Swatch_60-3)" style="mix-blend-mode:multiply"/><path d="M39.39,57.6a13.91,13.91,0,0,1-7.51,2A13.58,13.58,0,0,0,38.11,59c2.27-.65,4.71-2.41,1.39-4-.26-.12-.53-.25-.81-.36,1.14.64,2.43,1.72.7,3Z" fill-rule="evenodd" opacity="0.4" fill="url(#New_Gradient_Swatch_60-4)" style="mix-blend-mode:multiply"/><path d="M57.72,41.32A10.56,10.56,0,0,1,50.77,44c2.65.31,5.46-.06,7.34-1.52C61.26,40,62,33.3,60.81,29.56a8.14,8.14,0,0,0-1.65-3.07c2.72,4.3,2.28,11.42-1.44,14.83Z" fill-rule="evenodd" opacity="0.4" fill="url(#New_Gradient_Swatch_60-5)" style="mix-blend-mode:multiply"/><path d="M17.42,24.52a2.14,2.14,0,0,1-3.41-1,3.74,3.74,0,0,0,.09.66,2.09,2.09,0,0,0,3,1.64c1.36-.51,2.77-2.28,3.5-3.48A9.54,9.54,0,0,0,21.92,16a9.77,9.77,0,0,1-4.5,8.57Z" fill-rule="evenodd" fill="url(#New_Gradient_Swatch_60-6)" style="mix-blend-mode:multiply"/><path d="M5.27,26.15c-.45-.54-1.11.58-.72,1.43,2,4.26,5.28,7.29,10.14,6.88,4-.33,8.73-3.95,10.26-8a7.55,7.55,0,0,0,.47-2c0-.33-.28-.63-.66.42a11.79,11.79,0,0,1-8.34,7.52A8.53,8.53,0,0,1,9,30.5a27.8,27.8,0,0,1-3.76-4.35Z" fill-rule="evenodd" fill="url(#radial-gradient-12)" style="mix-blend-mode:screen"/><path d="M27.78,15.57c-1.19,1.08-2.18,4.55-2.37,6.13-.14,1.19.28,2.41.8.1.09-.45.2-.9.32-1.34A23.38,23.38,0,0,1,28.22,16c.4-.78.57-1.34-.44-.41Z" fill-rule="evenodd" fill="url(#radial-gradient-13)" style="mix-blend-mode:screen"/><path d="M17.31,15.47a6.49,6.49,0,0,1-1.11,3.58c-.65,1-.95,1.82-.8,2s.68-.18,1.59-1.23a7.18,7.18,0,0,0,1.85-4.44c.05-.63-.19-1.28-.56-1.36-.63-.14-1,1-1,1.43Z" fill-rule="evenodd" fill="url(#radial-gradient-14)" style="mix-blend-mode:screen"/><path d="M16.34,50.3c3,.26,3.3-.38.18-1-2.7-.56-4.22-.36-4.24-.08s1.23.86,4.06,1.11Z" fill-rule="evenodd" fill="url(#radial-gradient-15)" style="mix-blend-mode:screen"/><path d="M30.33,54c-.91.78-.41,1.22.66,1.35a23.42,23.42,0,0,0,3.35.15c3.7-.08,4.77-1.06.35-2-1.2-.24-3.57-.23-4.36.45Z" fill-rule="evenodd" fill="url(#radial-gradient-16)" style="mix-blend-mode:screen"/><path d="M43.81,39.32a4.69,4.69,0,0,1-.71-3,9,9,0,0,1,2.3-4.95c1.18-1.39,3.66-3.67,5.43-4.21.52-.16.83-.12.88,0,.24.64-1.77,2.58-3.29,4.93a18.54,18.54,0,0,0-1.52,2.72c-.64,1.5-.52,3.12-1,4.32a1.17,1.17,0,0,1-2.12.22Z" fill-rule="evenodd" opacity="0.75" fill="url(#radial-gradient-17)" style="mix-blend-mode:screen"/><g opacity="0.5" style="mix-blend-mode:screen"><path d="M24.6,43.08c3.53-1,6.52-2.93,9.78-6.09,5-4.89,6.41-7.83,12.79-12.07C51,22.36,55.1,20.08,59,17.66c2.7-1.67,2.61-2.95,1.17-5.1-.34-.51-3.19-4.76-5.13-3.88a2.61,2.61,0,0,1,.07,4c-3.56,2.59-8.66,1.19-12.61.68a81,81,0,0,0-10-1.15c-1.92,0-3.66.17-5,1.58-1.87,1.9-2.48,4.93-3.22,7.4S23,26,21,28c-2.4,2.46-6.88,3.41-10,1.58a21.35,21.35,0,0,1-3.66-2.93c-1.54-1.48-3.13-3.22-5.09-.77-3.45,4.34-2.67,12.87,0,17.72A3.56,3.56,0,0,0,3.45,45a1,1,0,0,0,1,0c1.62-1.32,1.92-1.12,4-1.31C14.08,43.2,19.4,44.5,24.6,43.08ZM17.06,25.86c1.36-.51,2.77-2.28,3.5-3.48,1.54-2.51,2.5-7-.25-9a2.09,2.09,0,0,0-2.57.42c-.87.84-.7,2-1,3.27a20.24,20.24,0,0,1-1.84,3.7,5,5,0,0,0-.75,3.46A2.09,2.09,0,0,0,17.06,25.86Zm1.6,23.42c-1.44-.24-2.9-.43-4.35-.56-2.18-.2-5.55-.33-4,3,1.17,2.5,5,5,7.48,6.13,2.75,1.23,6.1,2.43,6.79-1.84C25.32,51.49,22.6,49.94,18.66,49.28ZM39.5,55a17,17,0,0,0-7.75-1.78A3.15,3.15,0,0,0,30,54c-1.19,1.12-1.35,3.66,0,4.72,2.16,1.66,5.69.94,8.11.24S42.82,56.59,39.5,55ZM60.81,29.56c-1.36-4.15-3.84-5.33-7.92-4-3,1-7.8,5.05-9.18,7.81-1.72,3.43-.83,7.72,2.78,9.43,3.27,1.54,8.62,2,11.62-.35S62,33.3,60.81,29.56Z" fill-rule="evenodd" fill="url(#radial-gradient-18)"/></g></g></g></g></svg>