<svg xmlns="http://www.w3.org/2000/svg" xmlns:xlink="http://www.w3.org/1999/xlink" width="65.72" height="67.09" viewBox="0 0 65.72 67.09"><defs><radialGradient id="radial-gradient" cx="26.6" cy="17.85" r="54.1" gradientUnits="userSpaceOnUse"><stop offset="0" stop-color="#71f5ff"/><stop offset="0.15" stop-color="#67e9ff"/><stop offset="0.43" stop-color="#4cc9ff"/><stop offset="0.5" stop-color="#44bfff"/><stop offset="0.92" stop-color="#ce2feb"/></radialGradient><radialGradient id="radial-gradient-2" cx="27.74" cy="25.61" r="48.88" gradientUnits="userSpaceOnUse"><stop offset="0.33" stop-color="#f5f5ff"/><stop offset="0.46" stop-color="#f0eafa"/><stop offset="0.68" stop-color="#e1cced"/><stop offset="0.98" stop-color="#ca9dd9"/><stop offset="1" stop-color="#c899d7"/></radialGradient><radialGradient id="radial-gradient-3" cx="17.4" cy="24.66" r="42.31" gradientUnits="userSpaceOnUse"><stop offset="0" stop-color="#e87923"/><stop offset="1" stop-color="#ad4200"/></radialGradient><radialGradient id="radial-gradient-4" cx="26.17" cy="17.79" r="53.14" gradientUnits="userSpaceOnUse"><stop offset="0" stop-color="#ed9600"/><stop offset="1" stop-color="#e94e1b"/></radialGradient><radialGradient id="radial-gradient-5" cx="35.32" cy="56.13" r="49.93" gradientUnits="userSpaceOnUse"><stop offset="0" stop-color="#f5812a"/><stop offset="1" stop-color="#b84706"/></radialGradient><radialGradient id="New_Gradient_Swatch_65" cx="16.34" cy="17.8" r="40.86" gradientUnits="userSpaceOnUse"><stop offset="0" stop-color="#f5812a"/><stop offset="1" stop-color="#bd5519"/></radialGradient><radialGradient id="radial-gradient-6" cx="24.4" cy="14.95" r="40.64" gradientUnits="userSpaceOnUse"><stop offset="0" stop-color="#a48a7b"/><stop offset="1" stop-color="#000a00"/></radialGradient><radialGradient id="radial-gradient-7" cx="23.09" cy="14.18" r="41.99" gradientUnits="userSpaceOnUse"><stop offset="0" stop-color="#c2f5f4"/><stop offset="1" stop-color="#000012"/></radialGradient><radialGradient id="radial-gradient-8" cx="32.1" cy="20.76" r="52.42" gradientUnits="userSpaceOnUse"><stop offset="0.33" stop-color="#e6f5f5"/><stop offset="0.46" stop-color="#e5f1f0"/><stop offset="0.61" stop-color="#e1e6e2"/><stop offset="0.76" stop-color="#dad4cb"/><stop offset="0.92" stop-color="#d1baab"/><stop offset="1" stop-color="#ccac99"/></radialGradient><radialGradient id="radial-gradient-9" cx="44.78" cy="43.11" r="27.5" gradientUnits="userSpaceOnUse"><stop offset="0" stop-color="#d45c00"/><stop offset="1" stop-color="#8c3500"/></radialGradient><radialGradient id="radial-gradient-10" cx="40.37" cy="30.47" r="41.29" gradientUnits="userSpaceOnUse"><stop offset="0.68"/><stop offset="0.72" stop-color="#040200"/><stop offset="0.76" stop-color="#100800"/><stop offset="0.8" stop-color="#241300"/><stop offset="0.84" stop-color="#402100"/><stop offset="0.88" stop-color="#643400"/><stop offset="0.92" stop-color="#904b00"/><stop offset="0.96" stop-color="#c36500"/><stop offset="1" stop-color="#f98100"/></radialGradient><linearGradient id="linear-gradient" x1="9.61" y1="8.08" x2="40.47" y2="41.87" gradientUnits="userSpaceOnUse"><stop offset="0" stop-color="#f98100"/><stop offset="0.08" stop-color="#f57f00"/><stop offset="0.17" stop-color="#e97900"/><stop offset="0.25" stop-color="#d56e00"/><stop offset="0.33" stop-color="#b96000"/><stop offset="0.41" stop-color="#954d00"/><stop offset="0.5" stop-color="#683600"/><stop offset="0.58" stop-color="#351b00"/><stop offset="0.65"/></linearGradient></defs><g style="isolation:isolate"><g id="Layer_2" data-name="Layer 2"><g id="Layer_1-2" data-name="Layer 1"><path d="M32.77,2.71A31.12,31.12,0,1,1,1.65,33.82,31.12,31.12,0,0,1,32.77,2.71Z" fill-rule="evenodd" fill="url(#radial-gradient)"/><g style="mix-blend-mode:multiply"><path d="M56.35,31.78c0,.4.64.87,1.16,0a2.83,2.83,0,0,0,.13-2.54c-.2-.36-1.41-1.55-1.84-1a1.41,1.41,0,0,0,0,1.17A4.84,4.84,0,0,1,56.35,31.78ZM23.74,57.35a9.19,9.19,0,0,0,2.93,0,.4.4,0,0,0-.06-.44,3.8,3.8,0,0,0-2.37-.83C23.87,56.2,23,57.12,23.74,57.35Zm9.27.7c1.31-.52,2.88-1.9,1-2.8-.91-.44-8-1.31-6.87,1.17C27.58,57.4,30.94,58.88,33,58.05ZM32.77,2.71a31.38,31.38,0,0,0-8.34,1.12c1,0,2,0,3,0,.8,0,1.59-.11,2.38-.05,1.09.08,2.16.41,3.25.47s2.42-.2,3.62-.11a9.93,9.93,0,0,1,2.69.62c1,.38,1.75,1.08,2.68,1.5,1.42.63,3,1,4.34,1.65a13.55,13.55,0,0,1,1.86,1.35,13.92,13.92,0,0,1,3,2.12c.52.64.32,1.64.72,2.37.87,1.6,2.1,3,3,4.55a12.84,12.84,0,0,1,1.6,3.1c.46,1.71.29,3.54.67,5.27.24,1.09,1,2,1.19,3.15A14,14,0,0,1,58.17,34c-.44,2.36-1.22,4.65-1.81,7a14.11,14.11,0,0,1-.62,2.68A8.94,8.94,0,0,1,54.3,45.4a33.29,33.29,0,0,0-2.95,3.46c-.62,1-.62,2.3-1.29,3.25a7.34,7.34,0,0,1-2.58,2.28c-.91.47-2,.27-3,.62a34.93,34.93,0,0,0-3.41,1.7,44,44,0,0,1-5,2.48,7.73,7.73,0,0,1-3.1.36c-1.78-.12-3.5-.73-5.27-.93s-3.44-.14-5.16-.2a11.08,11.08,0,0,1-3.26-.11,11.47,11.47,0,0,1-4.39-2.58c-.8-.81-.62-2.23-1.29-3.15A21.55,21.55,0,0,0,10.7,50a27.2,27.2,0,0,1-4.08-4.09c-.76-1.11-.76-2.58-1.3-3.82S3.84,40,3.52,38.73a21.27,21.27,0,0,1-.73-6.35c.11-2.08,1.17-4,1.35-6.1A25.57,25.57,0,0,0,4,21.91,31.13,31.13,0,1,0,32.77,2.71Z" fill-rule="evenodd" fill="url(#radial-gradient-2)"/></g><path d="M50.35,17.63c2.32-1.15,4.34-2.62,5-4.69,1.06-3.22-.62-2.84-1.33-4.18s-.25-1.91-2.48-3.5a6,6,0,0,0-.94-.57A26.76,26.76,0,0,0,38.9,2a31.2,31.2,0,0,0-8.15,1.29C37.41,3.48,43,4.25,46.52,6a6.61,6.61,0,0,1,3.29,3.27C50.42,10.59,52.88,11,52,13c-.8,1.85-4.24,3.62-7.54,4.95a28.37,28.37,0,0,1-4.86,1.91c-5.13,1-10.76,1.11-16.21,1.85-3.93.54-7.37,2.34-10.84,4.2-1.85,1-4,.85-6.16,2.73C4.46,30.35,3.84,32.83,3,35.1c-1.59,4.47-1.29,9.64.83,15a23.89,23.89,0,0,0,1.35,2.79c-5.24-12-2.58-21.17,7-26,1.87-.95,4.3-1,6.68-1.63,2.1-.53,4.1-2.12,6.6-1.89a23.69,23.69,0,0,0,11.86-1.53c4.95-1.78,9.52-2.42,13-4.15Z" fill-rule="evenodd" fill="url(#radial-gradient-3)"/><path d="M31.37,13.6c2.37-.51,5.06-2.23,7.27-3.11s4.42-1.19,5.48-2.22l.1-.09a3.43,3.43,0,0,0,1-2.75s0-.1,0-.15A3.45,3.45,0,0,0,44.71,4,5,5,0,0,0,43.37,2.4a.94.94,0,0,0-.12-.09C39.94,0,34.35.09,29.41,0,25.91,0,22,.18,19,1.5s-5.08,4.24-7.64,6.24c-.66.51-1.38,1-2.09,1.42A14.54,14.54,0,0,0,6.49,11,25.78,25.78,0,0,0,2.84,17,26.07,26.07,0,0,0,.77,22.74c1.13-2.91,2.45-2.67,4.67-3.81a10.61,10.61,0,0,0,1.19-.71,23,23,0,0,1,6.86-3.49c5.25-1.37,12.35.06,17.88-1.13Zm6,8.18a23.69,23.69,0,0,1-11.86,1.53c-2.5-.23-4.5,1.36-6.6,1.89-2.38.61-4.81.68-6.68,1.63C6,30,2.68,35,2.57,41.37A27.81,27.81,0,0,0,5.21,52.86c.39.68.81,1.34,1.27,2,1,1.46,2.7,2.72,3.94,4.16a37.53,37.53,0,0,0,3.27,3.49c2.23,2,5.65,2.75,9.49,3.28,3.58.49,7.24,1.67,11,1.2a45,45,0,0,0,8.95-2.09c4.76-1.64,9.51-4.52,12.43-9a8.45,8.45,0,0,1-.65.72A29.43,29.43,0,0,1,43.22,63.7a25.46,25.46,0,0,1-6.37,1,19,19,0,0,1-6.43-.91c-4.92-1.64-9.5-2.31-13-5.38-4-3.58-5.4-10.57-4.2-14.58.54-1.8,2.32-3.06,3.65-4.58C19.74,36,20.34,31.74,27.75,32c3.11.09,6.25-2.83,9.83-3.35C41,28.12,44,28,47.35,25.24c1.87-1.55,3.68-1.88,5.48-2.91,2.51-1.44,4.8-3.35,5.47-6.3a9.1,9.1,0,0,0,0-3.62,10.25,10.25,0,0,0-.43-1.06c-1.37-2.85-4.1-5.09-7.28-6.66a6,6,0,0,1,.94.57c2.23,1.59,1.7,2.05,2.48,3.5.68,1.28,2.26,1,1.44,3.81l-.11.37c-.69,2.07-2.71,3.54-5,4.69-3.48,1.73-8.05,2.37-13,4.15Zm23.91-.49c5.06,3,4.95,13.45,3.83,18.77-1.21,5.74-5.52,12.55-12,13.51-4.61.68-6.41.92-8.66-.35-1.53-.86-2.28-4.68-1.74-5.77.44-.89,2.5-1.57,4.66-2.58,2.64-1.24,4.83-1.69,6.75-4.71s4.94-2.58,6.74-6.47a15.42,15.42,0,0,0,.42-12.4Z" fill-rule="evenodd" fill="url(#radial-gradient-4)"/><path d="M18,54.84c-1.39-2.66-1-6.11-.77-8.9a11,11,0,0,1,1.54-5c2.4-3.9,6.68-6.65,11.63-8.5,5.85-2.18,13.84-2.62,18.25-4.5,1.92-.82,3.22-2.77,4.8-4.42,1.41-1.45,2.85-1.22,4.15-4.28a15,15,0,0,0,.94-2.89,7.8,7.8,0,0,0-.2-4,9.1,9.1,0,0,1,0,3.62c-.67,2.95-3,4.86-5.47,6.3-1.8,1-3.61,1.36-5.48,2.91C44,28,41,28.12,37.58,28.61c-3.58.52-6.72,3.44-9.83,3.35-7.41-.22-8,4-10.83,7.27-1.33,1.52-3.11,2.78-3.65,4.58-1.2,4,.17,11,4.2,14.58,3.45,3.07,8,3.74,13,5.38a19,19,0,0,0,6.43.91,25.46,25.46,0,0,0,6.37-1A29.43,29.43,0,0,0,54.9,56.63a7.64,7.64,0,0,0,1.72-2.52l.25-.6a21.91,21.91,0,0,1-11.19,7.1c-1.87.52-3.9.55-5.82,1.16-7,2.22-9.37,1.37-12.95.17A17.9,17.9,0,0,1,21,58.61a13.34,13.34,0,0,1-3-3.77Z" fill-rule="evenodd" fill="url(#radial-gradient-5)"/><path d="M38.64,10.49c-2.21.88-4.9,2.6-7.27,3.11-5.53,1.19-12.63-.24-17.88,1.13a23,23,0,0,0-6.86,3.49c-3,2-4.54,1.12-5.87,4.52A29.69,29.69,0,0,0,.24,33.26c.32,2.56.86,4.58,1.8,5.55C1.32,32,1.9,26.69,4.58,23A9.63,9.63,0,0,1,7.91,20.1c1.53-.75,3.17-.9,5.27-1.46,1.9-.5,3.78-2,6.21-2.58,3-.68,6.17-.5,9.37-.56a58.56,58.56,0,0,0,9-.41c2.83-.5,3.91-1.71,5.86-3.82,1.42-1.56,4.38-1.88,1.9-5.85C45.25,5,45,4.46,44.71,4a3.44,3.44,0,0,1-.49,4.2l-.1.09c-1.06,1-3.31,1.37-5.48,2.22Z" fill-rule="evenodd" fill="url(#New_Gradient_Swatch_65)"/><path d="M15.73,9.29c-2.53,1.93-4,2.19-5.86,5.23A20.06,20.06,0,0,0,8.7,16.89a18.21,18.21,0,0,1,4.79-2.16c5.25-1.37,12.35.06,17.88-1.13,2.37-.51,5.06-2.23,7.27-3.11C40,10,41.4,9.62,42.51,9.19a5.28,5.28,0,0,0-1-1.52c-3.1-3.2-4.88-3.28-8.63-3.25-1.35,0-2.69-.2-4-.21a16.83,16.83,0,0,0-3.25.16,23.21,23.21,0,0,0-4.55,1.31c-2.76,1.12-3.28,2.05-5.34,3.61Zm9.76,14c-2.5-.23-4.5,1.36-6.6,1.89-2.38.61-4.81.68-6.68,1.63A19.56,19.56,0,0,0,6.66,30.9,3.35,3.35,0,0,0,6,34.6l.44,1c1.62,3.75,1,3.92,4.55,6.65a10.64,10.64,0,0,0,2.36,1.24c.64-1.64,2.29-2.84,3.54-4.27C19.74,36,20.34,31.74,27.75,32c3.11.09,6.25-2.83,9.83-3.35a30,30,0,0,0,5.83-1.12,2.66,2.66,0,0,0,1.75-1.91,13.3,13.3,0,0,1,.46-1.48A17.18,17.18,0,0,0,46.71,19c-2.8.86-6,1.55-9.36,2.76a23.69,23.69,0,0,1-11.86,1.53Z" fill-rule="evenodd" opacity="0.5" fill="url(#radial-gradient-6)" style="mix-blend-mode:screen"/><path d="M42.75,30.66a12.4,12.4,0,0,0-2.28,0c-1.26.17-2.46.66-3.7.91a21.55,21.55,0,0,0-2.78.49c-.39.13-.77.67-1.15.82-.82.31-1.74.21-2.57.45a26.6,26.6,0,0,0-7.41,3.73c-.45.34-.53,1-.91,1.41s-1,.67-1.41,1.11c-.78.86-2.45,3.6-2,4.79a1.94,1.94,0,0,0,.5.82,12.86,12.86,0,0,0,7.43-.6c6-2.18,5.45-3.93,9.27-7.31,1.19-1,2.8-1.56,4-2.62a9.56,9.56,0,0,0,3-4ZM10.62,19.71a5.45,5.45,0,0,0-3.78,2.11A32.16,32.16,0,0,0,5.29,25.5a11.6,11.6,0,0,0-.81,4.93,15.26,15.26,0,0,1,1.31-2.07A5.46,5.46,0,0,1,7.4,27c1.1-.56,2.9-.61,4.41-1.44,1.07-.59,1.91-1.56,3-2.06a24,24,0,0,1,3-.66c.75-.23,1.42-.69,2.17-.93a32.45,32.45,0,0,1,6-1.18c.66-.12,1.25-.57,1.91-.66,1.15-.14,2.31,0,3.46,0,1.49-.09,3-.36,4.46-.46,1-.06,2.1.11,3.15,0,2-.25,5.31-1.25,5.67-3.47A9.16,9.16,0,0,0,43.79,14a2.82,2.82,0,0,0-.66-.72c-.57-.17-.61-.14-1.34.5-1.86,1.66-1.74,2.08-4.46,2.57-.72.13-1.49-.07-2.21.05a20.26,20.26,0,0,1-2.68.76,26.11,26.11,0,0,1-4.08-.61c-2.65-.36-7.38-.66-9.87.36-1.49.6-2.76,1.64-4.19,2.36a3.92,3.92,0,0,1-1.33.43c-.78.1-1.57-.05-2.35.05ZM41.19,36.57c.47,1.46,2.88-.93,3.43-1,5.7-.49-5.12-4.37-3.43,1Zm-.91.5c-1.11-.86-3.63.23-4.28,1.47-.54,1-1.69,3.53,0,4.17s3-2.79,4.72-3.3c.9-.28.08-1.92-.45-2.34ZM22,49.14c3.32.48,10.68.85,7.94-2.34-1.65-1.92-2.27-.78-5.11-.09-1.92.48-2.49-.27-3.67-.19-1.66.1-2.19,2.18.84,2.62Zm9.23-1.52c.26.52,1.3-.64,1.39-1,.34-1.38-.32-1-1.45-.86-1.54.23-.33,1.1.06,1.85Z" fill-rule="evenodd" fill="url(#radial-gradient-7)" style="mix-blend-mode:screen"/><path d="M17.47,58.39a12.71,12.71,0,0,1-2.91-4,3.66,3.66,0,0,1-.71-1.73c-.11-.32-.22-.63-.31-1a2.08,2.08,0,0,0-.22-.38c-1.5-2.06-5-3.88-6.8-6.5-.74-1.08-.74-2.52-1.26-3.73a1.69,1.69,0,0,0-.86-.87c-1.34-.72-1.39-2-1.15-3.44a17.11,17.11,0,0,0-.68,4.54A27.81,27.81,0,0,0,5.21,52.86c.39.68.81,1.34,1.27,2,1,1.46,2.7,2.72,3.94,4.16a37.53,37.53,0,0,0,3.27,3.49c2.23,2,5.65,2.75,9.49,3.28,3.58.49,7.24,1.67,11,1.2a45,45,0,0,0,8.95-2.09c4.76-1.64,9.51-4.52,12.43-9a8.45,8.45,0,0,1-.65.72A29.43,29.43,0,0,1,43.22,63.7a25.46,25.46,0,0,1-6.37,1,19,19,0,0,1-6.43-.91c-4.92-1.64-9.5-2.31-13-5.38ZM4.4,15.14c.23-.69.28-1.37.55-2.11-.79,1.26-1.42,2.61-2.11,4A26.07,26.07,0,0,0,.77,22.74a4.53,4.53,0,0,1,3-3.1v-.17a10.71,10.71,0,0,1-.08-2.26,13.92,13.92,0,0,1,.68-2.07Zm6.81-6.55c.77-.22,1.69-.15,2.32-.66,1.48-1.19.41-2.37,3.73-3.83,2.32-1,3.9-.94,6.4-.75,1.51.11,3.58-.48,5.44-.43l.35,0A13.45,13.45,0,0,1,31,3.16l.61.11a8.86,8.86,0,0,0,1,.12c.46,0,.87,0,1.26,0a9.86,9.86,0,0,1,4.89.49c.93.37,1.75,1.52,2.67,1.93,1.17.52,2.18,1.1,3.29,1.67a3.4,3.4,0,0,0,.45-2.06s0-.1,0-.15A3.45,3.45,0,0,0,44.71,4,5,5,0,0,0,43.37,2.4a.94.94,0,0,0-.12-.09C39.94,0,34.35.09,29.41,0,25.91,0,22,.18,19,1.5s-5.08,4.24-7.64,6.24c-.64.5-1.35.93-2,1.39l1.93-.54Zm44.17,4.35a7,7,0,0,1-2.77,3.37c1.86.22,4.26,2,2.58,4.42A8.43,8.43,0,0,0,58.3,16a9.1,9.1,0,0,0,0-3.62,10.25,10.25,0,0,0-.43-1.06c-1.37-2.85-4.1-5.09-7.28-6.66a6,6,0,0,1,.94.57c2.23,1.59,1.7,2.05,2.48,3.5.68,1.28,2.26,1,1.44,3.81l-.11.37Zm-.48,32C54,46.05,51,46.5,50.16,47.75c-.6,1-.6,2.24-1.26,3.17a7.09,7.09,0,0,1-2.52,2.22,4.12,4.12,0,0,1-1.45.35,6.79,6.79,0,0,0,3,.64,36.18,36.18,0,0,0,5.16-.56A11.48,11.48,0,0,0,58.73,51a20,20,0,0,0,6.36-10.92C66.16,35,66.31,25.27,62,21.77a8.45,8.45,0,0,1,1.77,8.78l-.14.3c-.77,1.63-2.51,3.75-3.59,5.85s-.84,2.5-3,4l-.69.45c-.63.41-1.26.78-1.68,1,1.45,1,.94,2,.26,2.79Z" fill-rule="evenodd" fill="url(#radial-gradient-8)" style="mix-blend-mode:multiply"/><path d="M62,21.77a5.33,5.33,0,0,0-.69-.48,15.42,15.42,0,0,1-.42,12.4,8,8,0,0,1-3.49,3.69,8.86,8.86,0,0,0-3.25,2.78c-1.92,3-4.11,3.47-6.75,4.71-2.16,1-4.22,1.69-4.66,2.58s-.08,3.21.76,4.7a3.39,3.39,0,0,1,.18-2.61c.76-1.42,3.77-3.7,5.11-4.66,1.9-1.34,3.69-1.65,5.65-2.62a22.16,22.16,0,0,0,1.93-1.14l.69-.45c2.14-1.47,1.85-1.77,3-4s2.82-4.22,3.59-5.85l.14-.3A8.45,8.45,0,0,0,62,21.77Z" fill-rule="evenodd" fill="url(#radial-gradient-9)"/><path d="M31.37,13.6c2.37-.51,5.06-2.23,7.27-3.11s4.42-1.19,5.48-2.22l.1-.09a3.43,3.43,0,0,0,1-2.75s0-.1,0-.15A3.45,3.45,0,0,0,44.71,4,5,5,0,0,0,43.37,2.4a.94.94,0,0,0-.12-.09C39.94,0,34.35.09,29.41,0,25.91,0,22,.18,19,1.5s-5.08,4.24-7.64,6.24c-.66.51-1.38,1-2.09,1.42A14.54,14.54,0,0,0,6.49,11,25.78,25.78,0,0,0,2.84,17,26.07,26.07,0,0,0,.77,22.74c1.13-2.91,2.45-2.67,4.67-3.81a10.61,10.61,0,0,0,1.19-.71,23,23,0,0,1,6.86-3.49c5.25-1.37,12.35.06,17.88-1.13Z" fill-rule="evenodd" fill="url(#radial-gradient-10)" style="mix-blend-mode:screen"/><path d="M37.35,21.78a23.69,23.69,0,0,1-11.86,1.53c-2.5-.23-4.5,1.36-6.6,1.89-2.38.61-4.81.68-6.68,1.63C6,30,2.68,35,2.57,41.37A27.81,27.81,0,0,0,5.21,52.86c.39.68.81,1.34,1.27,2,1,1.46,2.7,2.72,3.94,4.16a37.53,37.53,0,0,0,3.27,3.49c2.23,2,5.65,2.75,9.49,3.28,3.58.49,7.24,1.67,11,1.2a45,45,0,0,0,8.95-2.09c4.76-1.64,9.51-4.52,12.43-9a8.45,8.45,0,0,1-.65.72A29.43,29.43,0,0,1,43.22,63.7a25.46,25.46,0,0,1-6.37,1,19,19,0,0,1-6.43-.91c-4.92-1.64-9.5-2.31-13-5.38-4-3.58-5.4-10.57-4.2-14.58.54-1.8,2.32-3.06,3.65-4.58C19.74,36,20.34,31.74,27.75,32c3.11.09,6.25-2.83,9.83-3.35C41,28.12,44,28,47.35,25.24c1.87-1.55,3.68-1.88,5.48-2.91,2.51-1.44,4.8-3.35,5.47-6.3a9.1,9.1,0,0,0,0-3.62,10.25,10.25,0,0,0-.43-1.06c-1.37-2.85-4.1-5.09-7.28-6.66a6,6,0,0,1,.94.57c2.23,1.59,1.7,2.05,2.48,3.5.68,1.28,2.26,1,1.44,3.81l-.11.37c-.69,2.07-2.71,3.54-5,4.69-3.48,1.73-8.05,2.37-13,4.15Z" fill-rule="evenodd" fill="url(#linear-gradient)" style="mix-blend-mode:screen"/></g></g></g></svg>