<svg xmlns="http://www.w3.org/2000/svg" xmlns:xlink="http://www.w3.org/1999/xlink" width="66.03" height="66.45" viewBox="0 0 66.03 66.45"><defs><radialGradient id="radial-gradient" cx="5.78" cy="46.17" r="8.24" gradientUnits="userSpaceOnUse"><stop offset="0" stop-color="#54143c"/><stop offset="1" stop-color="#9c3329"/></radialGradient><radialGradient id="radial-gradient-2" cx="22.51" cy="22.31" r="29.74" gradientUnits="userSpaceOnUse"><stop offset="0" stop-color="#691731"/><stop offset="1" stop-color="#b84d42"/></radialGradient><radialGradient id="New_Gradient_Swatch_73" cx="22.23" cy="44.6" r="19.33" gradientUnits="userSpaceOnUse"><stop offset="0.54" stop-color="#fff"/><stop offset="0.6" stop-color="#faf5f5"/><stop offset="0.71" stop-color="#ecdcda"/><stop offset="0.85" stop-color="#d5b2ad"/><stop offset="1" stop-color="#b87e76"/></radialGradient><radialGradient id="radial-gradient-3" cx="23.43" cy="47.11" r="16.9" gradientUnits="userSpaceOnUse"><stop offset="0" stop-color="#f33218"/><stop offset="0.07" stop-color="#dd2d16"/><stop offset="0.33" stop-color="#8f1d0e"/><stop offset="0.56" stop-color="#521108"/><stop offset="0.76" stop-color="#250804"/><stop offset="0.91" stop-color="#0a0201"/><stop offset="1"/></radialGradient><radialGradient id="radial-gradient-4" cx="16.48" cy="16.67" r="29.82" gradientUnits="userSpaceOnUse"><stop offset="0" stop-color="#9c3329"/><stop offset="1" stop-color="#4f0c35"/></radialGradient><radialGradient id="radial-gradient-5" cx="12.24" cy="19.81" r="28.4" gradientUnits="userSpaceOnUse"><stop offset="0" stop-color="#8a2920"/><stop offset="1" stop-color="#4a0b25"/></radialGradient><radialGradient id="radial-gradient-6" cx="28.34" cy="27.01" r="14.97" xlink:href="#radial-gradient"/><radialGradient id="radial-gradient-7" cx="7.44" cy="9.64" r="24.6" gradientUnits="userSpaceOnUse"><stop offset="0" stop-color="#a93f34"/><stop offset="1" stop-color="#6b1e3b"/></radialGradient><radialGradient id="radial-gradient-8" cx="5.74" cy="20.99" r="16.24" gradientUnits="userSpaceOnUse"><stop offset="0" stop-color="#bd4124"/><stop offset="1" stop-color="#641a3b"/></radialGradient><radialGradient id="radial-gradient-9" cx="11.14" cy="18.38" r="16.53" gradientUnits="userSpaceOnUse"><stop offset="0" stop-color="#73251e"/><stop offset="1" stop-color="#4a1234"/></radialGradient><radialGradient id="radial-gradient-10" cx="18.26" cy="2.36" r="27.79" xlink:href="#radial-gradient-9"/><radialGradient id="radial-gradient-11" cx="9.41" cy="4.43" r="5.94" xlink:href="#radial-gradient-9"/><radialGradient id="radial-gradient-12" cx="24.04" cy="1.26" r="17.03" xlink:href="#radial-gradient-9"/><radialGradient id="radial-gradient-13" cx="23.26" cy="28.79" r="16.33" gradientUnits="userSpaceOnUse"><stop offset="0" stop-color="#6b1e3b"/><stop offset="1" stop-color="#c44a3c"/></radialGradient><radialGradient id="radial-gradient-14" cx="-8.07" cy="11.07" r="24.24" gradientUnits="userSpaceOnUse"><stop offset="0" stop-color="#6b1e3b"/><stop offset="1" stop-color="#db5b4e"/></radialGradient><radialGradient id="radial-gradient-15" cx="21.2" cy="10.37" r="10.38" gradientUnits="userSpaceOnUse"><stop offset="0" stop-color="#96372d"/><stop offset="1" stop-color="#300317"/></radialGradient><radialGradient id="radial-gradient-16" cx="16.78" cy="13.34" r="23.73" xlink:href="#radial-gradient-7"/><radialGradient id="radial-gradient-17" cx="20.78" cy="-1.44" r="21.27" gradientUnits="userSpaceOnUse"><stop offset="0" stop-color="#993329"/><stop offset="1" stop-color="#6e203a"/></radialGradient><radialGradient id="radial-gradient-18" cx="21.14" cy="6.34" r="15.62" gradientUnits="userSpaceOnUse"><stop offset="0" stop-color="#73251e"/><stop offset="1" stop-color="#3b0f29"/></radialGradient><radialGradient id="radial-gradient-19" cx="48.69" cy="11.4" r="18.84" gradientUnits="userSpaceOnUse"><stop offset="0" stop-color="#73251e"/><stop offset="1" stop-color="#3b0e2a"/></radialGradient><radialGradient id="radial-gradient-20" cx="27.17" cy="29.56" r="33.56" xlink:href="#radial-gradient-13"/><radialGradient id="radial-gradient-21" cx="25.81" cy="3.55" r="45.77" gradientUnits="userSpaceOnUse"><stop offset="0" stop-color="#bf473b"/><stop offset="1" stop-color="#6b1e3b"/></radialGradient><radialGradient id="radial-gradient-22" cx="42.87" cy="8.86" r="30.69" gradientUnits="userSpaceOnUse"><stop offset="0" stop-color="#9e3752"/><stop offset="1" stop-color="#571133"/></radialGradient><radialGradient id="radial-gradient-23" cx="54.38" cy="33.8" r="18.68" xlink:href="#radial-gradient-13"/><radialGradient id="radial-gradient-24" cx="23.08" cy="19.8" r="42.38" gradientUnits="userSpaceOnUse"><stop offset="0" stop-color="#9e3359"/><stop offset="1" stop-color="#591931"/></radialGradient><radialGradient id="radial-gradient-25" cx="49.67" cy="15.97" r="66.83" gradientUnits="userSpaceOnUse"><stop offset="0" stop-color="#5c1233"/><stop offset="1" stop-color="#a93f34"/></radialGradient><radialGradient id="radial-gradient-26" cx="48.61" cy="18.37" r="28.33" gradientUnits="userSpaceOnUse"><stop offset="0" stop-color="#9c3329"/><stop offset="1" stop-color="#480f3c"/></radialGradient><radialGradient id="radial-gradient-27" cx="52.83" cy="25.38" r="17.94" gradientUnits="userSpaceOnUse"><stop offset="0" stop-color="#9c3329"/><stop offset="1" stop-color="#430c3d"/></radialGradient><radialGradient id="radial-gradient-28" cx="8.83" cy="35.09" r="15.76" xlink:href="#radial-gradient-9"/><radialGradient id="radial-gradient-29" cx="9.79" cy="35.74" r="36.87" xlink:href="#radial-gradient-13"/><radialGradient id="radial-gradient-30" cx="3.57" cy="28.39" r="18.75" gradientUnits="userSpaceOnUse"><stop offset="0" stop-color="#bd5348"/><stop offset="1" stop-color="#6b1e3b"/></radialGradient><radialGradient id="radial-gradient-31" cx="21.23" cy="35.77" r="11.13" xlink:href="#radial-gradient-13"/><radialGradient id="radial-gradient-32" cx="32.37" cy="18.53" r="25.52" gradientUnits="userSpaceOnUse"><stop offset="0" stop-color="#bd3634"/><stop offset="1" stop-color="#641a3b"/></radialGradient><radialGradient id="radial-gradient-33" cx="31.59" cy="6.11" r="27.74" xlink:href="#radial-gradient-13"/><radialGradient id="radial-gradient-34" cx="27.14" cy="27.73" r="23.76" gradientUnits="userSpaceOnUse"><stop offset="0" stop-color="#9c3329"/><stop offset="1" stop-color="#480a36"/></radialGradient><radialGradient id="radial-gradient-35" cx="26.74" cy="26.8" r="23.89" xlink:href="#radial-gradient-9"/><radialGradient id="radial-gradient-36" cx="36.42" cy="24.04" r="32.47" xlink:href="#radial-gradient-9"/><radialGradient id="radial-gradient-37" cx="30.57" cy="24.86" r="18.23" gradientUnits="userSpaceOnUse"><stop offset="0" stop-color="#96372d"/><stop offset="1" stop-color="#380f21"/></radialGradient><radialGradient id="radial-gradient-38" cx="55.98" cy="33.8" r="39.5" xlink:href="#radial-gradient-13"/><radialGradient id="radial-gradient-39" cx="50.64" cy="34.26" r="6.97" xlink:href="#radial-gradient-8"/><radialGradient id="radial-gradient-40" cx="48.29" cy="30.12" r="5.41" xlink:href="#radial-gradient-9"/><radialGradient id="radial-gradient-41" cx="44.75" cy="29.26" r="7.63" xlink:href="#radial-gradient-34"/><radialGradient id="radial-gradient-42" cx="17.08" cy="40.31" r="26.54" xlink:href="#radial-gradient-7"/><radialGradient id="radial-gradient-43" cx="20.05" cy="6.8" r="61.02" gradientUnits="userSpaceOnUse"><stop offset="0" stop-color="#822b22"/><stop offset="1" stop-color="#4d1127"/></radialGradient><radialGradient id="radial-gradient-44" cx="19.95" cy="45.26" r="28.01" gradientUnits="userSpaceOnUse"><stop offset="0" stop-color="#5c1435"/><stop offset="1" stop-color="#9e3540"/></radialGradient><radialGradient id="radial-gradient-45" cx="34.28" cy="34.98" r="16.85" xlink:href="#radial-gradient-9"/><radialGradient id="radial-gradient-46" cx="38.32" cy="34.33" r="13.59" gradientUnits="userSpaceOnUse"><stop offset="0" stop-color="#8c2d2b"/><stop offset="1" stop-color="#520e34"/></radialGradient><radialGradient id="radial-gradient-47" cx="37.31" cy="30.89" r="15.28" gradientUnits="userSpaceOnUse"><stop offset="0" stop-color="#9c3329"/><stop offset="1" stop-color="#4f0d35"/></radialGradient><radialGradient id="radial-gradient-48" cx="29.54" cy="28.4" r="21.25" xlink:href="#radial-gradient-7"/><radialGradient id="radial-gradient-49" cx="38.81" cy="24.72" r="21.25" gradientUnits="userSpaceOnUse"><stop offset="0.62" stop-color="#b87e76"/><stop offset="0.69" stop-color="#d5b2ad"/><stop offset="0.76" stop-color="#ecdcda"/><stop offset="0.81" stop-color="#faf5f5"/><stop offset="0.84" stop-color="#fff"/></radialGradient><radialGradient id="radial-gradient-50" cx="40.38" cy="36.52" r="8.88" xlink:href="#radial-gradient-9"/><radialGradient id="radial-gradient-51" cx="35.85" cy="37.93" r="7.16" gradientUnits="userSpaceOnUse"><stop offset="0" stop-color="#6b1e3b"/><stop offset="1" stop-color="#9e3838"/></radialGradient><radialGradient id="radial-gradient-52" cx="36.05" cy="38.45" r="8.25" gradientUnits="userSpaceOnUse"><stop offset="0" stop-color="#480a36"/><stop offset="1" stop-color="#9c3329"/></radialGradient><radialGradient id="radial-gradient-53" cx="12.05" cy="52.71" r="3.64" xlink:href="#radial-gradient-7"/><radialGradient id="radial-gradient-54" cx="9.92" cy="48.56" r="9.29" xlink:href="#radial-gradient-9"/><radialGradient id="radial-gradient-55" cx="7.87" cy="48.14" r="8.58" gradientUnits="userSpaceOnUse"><stop offset="0" stop-color="#9c3329"/><stop offset="1" stop-color="#54143c"/></radialGradient><radialGradient id="radial-gradient-56" cx="15.69" cy="48.85" r="13.52" xlink:href="#radial-gradient-13"/><radialGradient id="radial-gradient-57" cx="59.66" cy="14.65" r="32.57" gradientUnits="userSpaceOnUse"><stop offset="0" stop-color="#6b1e3b"/><stop offset="1" stop-color="#d44747"/></radialGradient><radialGradient id="New_Gradient_Swatch_72" cx="33.46" cy="10.37" r="13.29" gradientUnits="userSpaceOnUse"><stop offset="0" stop-color="#f33218"/><stop offset="1"/></radialGradient><radialGradient id="radial-gradient-58" cx="42.56" cy="-1.59" r="20.65" xlink:href="#radial-gradient-27"/><radialGradient id="radial-gradient-59" cx="38.27" cy="3.1" r="16.42" gradientUnits="userSpaceOnUse"><stop offset="0" stop-color="#b02e34"/><stop offset="1" stop-color="#380f21"/></radialGradient><radialGradient id="radial-gradient-60" cx="50.48" cy="16.83" r="3.07" xlink:href="#radial-gradient-34"/><radialGradient id="radial-gradient-61" cx="32.55" cy="13.43" r="3.99" xlink:href="#radial-gradient-34"/><radialGradient id="radial-gradient-62" cx="35.56" cy="-11.79" r="25.15" xlink:href="#radial-gradient-13"/><radialGradient id="radial-gradient-63" cx="36.95" cy="52.88" r="20.68" gradientUnits="userSpaceOnUse"><stop offset="0" stop-color="#92334b"/><stop offset="1" stop-color="#571133"/></radialGradient><radialGradient id="radial-gradient-64" cx="45.58" cy="49.18" r="24.15" xlink:href="#radial-gradient-13"/><radialGradient id="radial-gradient-65" cx="42.02" cy="58.83" r="39.03" xlink:href="#radial-gradient-13"/><radialGradient id="radial-gradient-66" cx="57.94" cy="40.79" r="44.77" xlink:href="#radial-gradient-13"/><radialGradient id="radial-gradient-67" cx="20.71" cy="51.87" r="10.7" xlink:href="#radial-gradient-5"/><radialGradient id="radial-gradient-68" cx="27.35" cy="39.42" r="45.89" gradientUnits="userSpaceOnUse"><stop offset="0" stop-color="#8a2c2c"/><stop offset="1" stop-color="#4d0d35"/></radialGradient><radialGradient id="radial-gradient-69" cx="32.18" cy="30.06" r="35.51" xlink:href="#radial-gradient-9"/><radialGradient id="radial-gradient-70" cx="9.81" cy="51.83" r="7.45" xlink:href="#radial-gradient-4"/><radialGradient id="radial-gradient-71" cx="19.95" cy="46.87" r="7.3" xlink:href="#radial-gradient-13"/><radialGradient id="radial-gradient-72" cx="20.2" cy="46.82" r="16.61" xlink:href="#radial-gradient-44"/><radialGradient id="radial-gradient-73" cx="39.93" cy="63.13" r="37.59" xlink:href="#radial-gradient-13"/><radialGradient id="radial-gradient-74" cx="11.13" cy="19.31" r="56.53" gradientUnits="userSpaceOnUse"><stop offset="0" stop-color="#993329"/><stop offset="1" stop-color="#591233"/></radialGradient><radialGradient id="radial-gradient-75" cx="56.02" cy="55.91" r="20.04" gradientUnits="userSpaceOnUse"><stop offset="0" stop-color="#782626"/><stop offset="1" stop-color="#3b0a28"/></radialGradient><radialGradient id="radial-gradient-76" cx="54.32" cy="46" r="17.13" gradientUnits="userSpaceOnUse"><stop offset="0" stop-color="#96372d"/><stop offset="1" stop-color="#572121"/></radialGradient><radialGradient id="radial-gradient-77" cx="56.33" cy="43.84" r="16.96" gradientUnits="userSpaceOnUse"><stop offset="0" stop-color="#8f2f26"/><stop offset="1" stop-color="#3d0d27"/></radialGradient><radialGradient id="radial-gradient-78" cx="56.14" cy="39.03" r="13.28" xlink:href="#radial-gradient-27"/><radialGradient id="radial-gradient-79" cx="63.36" cy="44.27" r="10.53" xlink:href="#radial-gradient-13"/><radialGradient id="radial-gradient-80" cx="61.4" cy="40.77" r="7.96" xlink:href="#radial-gradient-34"/><radialGradient id="radial-gradient-81" cx="60.06" cy="38.02" r="7.35" xlink:href="#radial-gradient-27"/><radialGradient id="radial-gradient-82" cx="61.5" cy="35.96" r="7.59" xlink:href="#radial-gradient-27"/><radialGradient id="radial-gradient-83" cx="59.74" cy="38.35" r="4.62" xlink:href="#radial-gradient-34"/><radialGradient id="radial-gradient-84" cx="48.59" cy="43.09" r="11.81" xlink:href="#radial-gradient-37"/><radialGradient id="radial-gradient-85" cx="49.8" cy="33.71" r="8.24" xlink:href="#radial-gradient-9"/><radialGradient id="radial-gradient-86" cx="21.38" cy="15.84" r="57.01" gradientUnits="userSpaceOnUse"><stop offset="0.57" stop-color="#fff"/><stop offset="0.69" stop-color="#d8c3cd"/><stop offset="0.96" stop-color="#782d52"/><stop offset="1" stop-color="#69163f"/></radialGradient><radialGradient id="radial-gradient-87" cx="39.07" cy="40.2" r="50.8" gradientUnits="userSpaceOnUse"><stop offset="0"/><stop offset="0.22" stop-color="#030001"/><stop offset="0.38" stop-color="#0c0205"/><stop offset="0.52" stop-color="#1c040c"/><stop offset="0.65" stop-color="#330716"/><stop offset="0.77" stop-color="#500a22"/><stop offset="0.89" stop-color="#740f31"/><stop offset="1" stop-color="#9c1442"/></radialGradient><radialGradient id="radial-gradient-88" cx="44.22" cy="45.59" r="50.8" gradientUnits="userSpaceOnUse"><stop offset="0.04"/><stop offset="0.78"/><stop offset="0.8" stop-color="#070202"/><stop offset="0.83" stop-color="#1a0606"/><stop offset="0.86" stop-color="#390e0e"/><stop offset="0.9" stop-color="#641919"/><stop offset="0.94" stop-color="#9b2727"/><stop offset="0.98" stop-color="#de3838"/><stop offset="1" stop-color="#f93f3f"/></radialGradient><radialGradient id="radial-gradient-89" cx="12.18" cy="18.14" r="37.68" gradientTransform="translate(13.5 -9.4) rotate(16.92)" gradientUnits="userSpaceOnUse"><stop offset="0" stop-color="#d41f3b"/><stop offset="1"/></radialGradient><radialGradient id="radial-gradient-90" cx="12.53" cy="14.55" r="9.17" gradientUnits="userSpaceOnUse"><stop offset="0" stop-color="#d95234"/><stop offset="1"/></radialGradient><radialGradient id="radial-gradient-91" cx="16.56" cy="14.59" r="6.8" xlink:href="#radial-gradient-90"/><radialGradient id="radial-gradient-92" cx="32.73" cy="5.15" r="7.92" xlink:href="#radial-gradient-90"/><radialGradient id="radial-gradient-93" cx="24.98" cy="21.18" r="11.68" xlink:href="#radial-gradient-90"/><radialGradient id="New_Gradient_Swatch_72-2" cx="10.31" cy="14.19" r="13.3" xlink:href="#New_Gradient_Swatch_72"/><radialGradient id="New_Gradient_Swatch_72-3" cx="18.28" cy="14.48" r="11.62" xlink:href="#New_Gradient_Swatch_72"/><radialGradient id="New_Gradient_Swatch_72-4" cx="12.68" cy="16.85" r="9.29" xlink:href="#New_Gradient_Swatch_72"/><radialGradient id="radial-gradient-94" cx="28.33" cy="18.65" r="13.46" gradientUnits="userSpaceOnUse"><stop offset="0" stop-color="#f33218"/><stop offset="0.18" stop-color="#b82612"/><stop offset="0.4" stop-color="#77190c"/><stop offset="0.6" stop-color="#440e07"/><stop offset="0.77" stop-color="#1f0603"/><stop offset="0.91" stop-color="#080201"/><stop offset="1"/></radialGradient></defs><g style="isolation:isolate"><g id="Layer_2" data-name="Layer 2"><g id="Layer_1-2" data-name="Layer 1"><path d="M5.19,49.26A6.55,6.55,0,0,1,4,48.51a6.8,6.8,0,0,1-.31-.86A13.16,13.16,0,0,1,2.4,45.72,9.19,9.19,0,0,1,1.33,42a3.82,3.82,0,0,1,.31-.68l2.89,1.21,1.78,3.24c-.37,1.15-.75,2.3-1.12,3.45Z" fill-rule="evenodd" fill="url(#radial-gradient)"/><path d="M7.43,33.13l16.22-7.57c.62,1.22,1.25,2.43,2,3.58A33.57,33.57,0,0,0,29.17,33a3.19,3.19,0,0,1,.28.66,14.31,14.31,0,0,0-.54,2.52c0,.58,0,1.17-.05,1.75a21.22,21.22,0,0,1-1.48,5.61A20.94,20.94,0,0,1,21.55,46a6.25,6.25,0,0,1-1.17-.13A22.82,22.82,0,0,0,14.83,39c-1.83-1-3.59-2.09-5.3-3.2l-.31-.59a20.86,20.86,0,0,1-2.07-1A1.61,1.61,0,0,1,7,33.62a3,3,0,0,1,.43-.49Z" fill-rule="evenodd" fill="url(#radial-gradient-2)"/><path d="M7.43,33.13l16.22-7.57c.62,1.22,1.25,2.43,2,3.58A33.57,33.57,0,0,0,29.17,33a3.19,3.19,0,0,1,.28.66,14.31,14.31,0,0,0-.54,2.52c0,.58,0,1.17-.05,1.75a21.22,21.22,0,0,1-1.48,5.61A20.94,20.94,0,0,1,21.55,46a6.25,6.25,0,0,1-1.17-.13A22.82,22.82,0,0,0,14.83,39c-1.83-1-3.59-2.09-5.3-3.2l-.31-.59a20.86,20.86,0,0,1-2.07-1A1.61,1.61,0,0,1,7,33.62a3,3,0,0,1,.43-.49Z" fill-rule="evenodd" fill="url(#New_Gradient_Swatch_73)" style="mix-blend-mode:multiply"/><path d="M7.43,33.13l16.22-7.57c.62,1.22,1.25,2.43,2,3.58A33.57,33.57,0,0,0,29.17,33a3.19,3.19,0,0,1,.28.66,14.31,14.31,0,0,0-.54,2.52c0,.58,0,1.17-.05,1.75a21.22,21.22,0,0,1-1.48,5.61A20.94,20.94,0,0,1,21.55,46a6.25,6.25,0,0,1-1.17-.13A22.82,22.82,0,0,0,14.83,39c-1.83-1-3.59-2.09-5.3-3.2l-.31-.59a20.86,20.86,0,0,1-2.07-1A1.61,1.61,0,0,1,7,33.62a3,3,0,0,1,.43-.49Z" fill-rule="evenodd" fill="url(#radial-gradient-3)" style="mix-blend-mode:screen"/><path d="M21.18,41.72c-.87-.81-2.46-2.27-2.66-2.4-.83-.55-1.72-.91-2.58-1.39a39.14,39.14,0,0,1-3.79-2.27c-.09-.06-.94-1-1.08-1.14s-.9-.32-1-.39a10.39,10.39,0,0,1-1.25-1.67l-1.43.67a3,3,0,0,0-.43.49,1.61,1.61,0,0,0,.15.63,20.86,20.86,0,0,0,2.07,1l.31.59C11.24,36.91,13,38,14.83,39a22.82,22.82,0,0,1,5.55,6.87A11.68,11.68,0,0,0,21,44.3c0-.23.09-1.72.14-2.58Z" fill-rule="evenodd" fill="url(#radial-gradient-4)"/><path d="M23.7,41a12.18,12.18,0,0,1-2.52.73c-.05.86-.1,2.35-.14,2.58a11.68,11.68,0,0,1-.66,1.57,6.25,6.25,0,0,0,1.17.13,20.94,20.94,0,0,0,5.83-2.45,21.22,21.22,0,0,0,1.48-5.61c0-.58,0-1.17.05-1.75a14.31,14.31,0,0,1,.54-2.52l-1.5.66c-.45,1-.82,2-1.33,2.92a16.2,16.2,0,0,1-1.45,2.12A19.76,19.76,0,0,1,23.7,41Z" fill-rule="evenodd" fill="url(#radial-gradient-5)"/><path d="M23.45,28.75a20.67,20.67,0,0,0,2.35,3.51A22.15,22.15,0,0,0,28,34.33l1.5-.66a3.19,3.19,0,0,0-.28-.66,33.57,33.57,0,0,1-3.54-3.87c-.73-1.15-1.36-2.36-2-3.58l-1.19.56a17.33,17.33,0,0,0,1,2.63Z" fill-rule="evenodd" fill="url(#radial-gradient-6)"/><path d="M13.24,9.32l-.52-1.26a3.06,3.06,0,0,0-1.45-.26,40.51,40.51,0,0,0-6.65,7.38A48.33,48.33,0,0,0,1,24.33a22.89,22.89,0,0,0,.34,6.09,29.75,29.75,0,0,0,4,2.71,21.19,21.19,0,0,0,3.46.12,43.06,43.06,0,0,0,4.84-.77c3.57-2.16,6.95-4.66,10.33-7.15A8.63,8.63,0,0,0,23.57,23a9.21,9.21,0,0,1-2.5-3.2c-1.76-.67-4-1.29-4.91-1.78a8.66,8.66,0,0,1-3-3.11c-1-1.53-.42-4.27.06-5.56Z" fill-rule="evenodd" fill="url(#radial-gradient-7)"/><path d="M13.63,32.48l.74-2.26a18.06,18.06,0,0,1-5.55,1.33c-1.58-.63-3-1.14-4.62-1.64a6.52,6.52,0,0,1-.93-.54c-.38-.05-.75-.12-1.13-.2a3.31,3.31,0,0,1-.56-.82,8.81,8.81,0,0,1-.55-4,22.89,22.89,0,0,0,.34,6.09,29.75,29.75,0,0,0,4,2.71,21.19,21.19,0,0,0,3.46.12,43.06,43.06,0,0,0,4.84-.77Z" fill-rule="evenodd" fill="url(#radial-gradient-8)"/><path d="M14.37,30.22l-.74,2.26c3.57-2.16,6.95-4.66,10.33-7.15L22.81,24c-2.67,1.8-5.34,3.46-7.9,5.18l-.54,1Z" fill-rule="evenodd" fill="url(#radial-gradient-9)"/><path d="M20.6,20.56A15.19,15.19,0,0,1,22.81,24L24,25.33A8.63,8.63,0,0,0,23.57,23a9.21,9.21,0,0,1-2.5-3.2l-.47.79Z" fill="#511334" fill-rule="evenodd"/><path d="M12.42,16.85a27.21,27.21,0,0,0,8.18,3.71l.47-.79c-1.76-.67-4-1.29-4.91-1.78a8.66,8.66,0,0,1-3-3.11c-1-1.53-.42-4.27.06-5.56l-1.67-.05c-.77,4.07-.47,5.53.85,7.58Z" fill-rule="evenodd" fill="url(#radial-gradient-10)"/><path d="M11.57,9.27l1.67.05-.52-1.26a3.06,3.06,0,0,0-1.45-.26c.12.45.18.87.26,1.31a1.24,1.24,0,0,0,0,.16Z" fill-rule="evenodd" fill="url(#radial-gradient-11)"/><polygon points="12.72 8.06 12.98 7.33 15.02 5.95 16.61 4.96 18.99 3.23 20.15 3.06 23.46 1.7 26.86 0 29.86 0.11 33.77 0 38.36 0.17 40.51 0.85 41.48 1.47 42.16 2.62 28.11 9.18 13.24 9.32 12.9 8.5 12.72 8.06 12.72 8.06" fill-rule="evenodd" fill="url(#radial-gradient-12)"/><path d="M12.42,16.85a25.51,25.51,0,0,1-1.64,6.88C10,25.18,9.21,26.6,8.35,28a14.16,14.16,0,0,0-.81,3c.42.15.85.32,1.28.49A14,14,0,0,0,11.94,31a21.59,21.59,0,0,0,2.43-.81l.22-.43.32-.62c2.56-1.72,5.23-3.38,7.9-5.18a15.19,15.19,0,0,0-2.21-3.43,27.21,27.21,0,0,1-8.18-3.71Z" fill-rule="evenodd" fill="url(#radial-gradient-13)"/><path d="M10.78,23.73a25.51,25.51,0,0,0,1.64-6.88c-1.32-2.05-1.62-3.51-.85-7.58a1.24,1.24,0,0,1,0-.16c-.08-.44-.14-.86-.26-1.31a40.51,40.51,0,0,0-6.65,7.38A48.33,48.33,0,0,0,1,24.33a8.81,8.81,0,0,0,.55,4,3.31,3.31,0,0,0,.56.82c.38.08.75.15,1.13.2a6.52,6.52,0,0,0,.93.54c1.18.36,2.25.73,3.34,1.15a14.16,14.16,0,0,1,.81-3c.86-1.41,1.68-2.83,2.43-4.28Z" fill-rule="evenodd" fill="url(#radial-gradient-14)"/><path d="M16.29,13.46a15.45,15.45,0,0,1-1.56-1.59,13.38,13.38,0,0,1,.77-3.71,9.65,9.65,0,0,1,1.72-2.43,18.84,18.84,0,0,1,2.6-2,26.65,26.65,0,0,0-7.35,5.14A12.46,12.46,0,0,0,12,11.26c.46,3.49,1.34,4.54,3.83,6.83.75.27,1.48.52,2.22.75a17.56,17.56,0,0,1-.37-1.75,5.82,5.82,0,0,1-1.35-3.63Z" fill-rule="evenodd" fill="url(#radial-gradient-15)"/><path d="M18.89,13.57a13.29,13.29,0,0,0-2.6-.11,5.82,5.82,0,0,0,1.35,3.63,10,10,0,0,0,5.87-1.91,35.42,35.42,0,0,0-4.62-1.61Z" fill-rule="evenodd" fill="url(#radial-gradient-16)"/><path d="M23.51,15.18a10,10,0,0,1-5.87,1.91A17.56,17.56,0,0,0,18,18.84c1,.33,2,.62,3.06.93L23,20l1.07-.28,1.31-.12c.34-.82.67-1.63.95-2.44a24.48,24.48,0,0,0,.74-3,14.07,14.07,0,0,1-3.54,1Z" fill-rule="evenodd" fill="url(#radial-gradient-17)"/><path d="M27.05,14.22a24.48,24.48,0,0,1-.74,3c-.28.81-.61,1.62-.95,2.44a19,19,0,0,0,5.18-3.22,24.2,24.2,0,0,1,1.33-3L30,10.94a21.53,21.53,0,0,1-2.94,3.28Z" fill-rule="evenodd" fill="url(#radial-gradient-18)"/><path d="M30,10.94l1.88,2.44a31.34,31.34,0,0,1-.57-8.32c-.09-.15-.18-.29-.28-.43l-.57,2c-.15,1.42-.3,2.85-.46,4.28Z" fill-rule="evenodd" fill="url(#radial-gradient-19)"/><path d="M21.9,10.87c-1,.55-2.31,1.83-3.91,2.6.3,0,.6.06.9.1a35.42,35.42,0,0,1,4.62,1.61,14.07,14.07,0,0,0,3.54-1A21.53,21.53,0,0,0,30,10.94c.16-1.43.31-2.86.46-4.28l.57-2C29.6,6.51,27,8,24.52,9.47c-.86.5-2.25,1.21-2.62,1.4Z" fill-rule="evenodd" fill="url(#radial-gradient-20)"/><path d="M18,13.47c1.6-.77,2.86-2.05,3.91-2.6.37-.19,1.76-.9,2.62-1.4C27,8,29.6,6.51,31,4.63a13.6,13.6,0,0,0-1.23-1.48,13.72,13.72,0,0,0-2.63-.51,33.36,33.36,0,0,0-7.34,1.13,18.84,18.84,0,0,0-2.6,2A9.65,9.65,0,0,0,15.5,8.16a13.38,13.38,0,0,0-.77,3.71,15.45,15.45,0,0,0,1.56,1.59,13.78,13.78,0,0,1,1.7,0Z" fill-rule="evenodd" fill="url(#radial-gradient-21)"/><path d="M55.5,34.37a18.06,18.06,0,0,0,3.63-.11,12.61,12.61,0,0,1,2.26-1.14c.59-.07,1.23-.07,1.76-.11a7.79,7.79,0,0,0,1.8-.89,8,8,0,0,1,.88,1.11c.06-1.23.11-2.46.17-3.68l-.93-5.44a15.21,15.21,0,0,1-1.5-4.93,66.24,66.24,0,0,1-3.18-6.08c-1-1.14-2-2.32-3-3.44A43.88,43.88,0,0,0,49,3l-.88-.48a8,8,0,0,0-1.67-.43l-2-1.33A8.69,8.69,0,0,0,42.75.21a10.35,10.35,0,0,0,3.59,2.51,14,14,0,0,0,1.94,3,21.18,21.18,0,0,1,1.31,3.54,5.57,5.57,0,0,1,1,1.16q1,2.47,1.81,5.13c.2,1.24.38,2.49.51,3.73,1.31,2.78,2.57,5.55,3.74,8.33a10.78,10.78,0,0,1-.74,1.64,37.78,37.78,0,0,0-.4,5.1Z" fill-rule="evenodd" fill="url(#radial-gradient-22)"/><path d="M61.39,33.12a33.55,33.55,0,0,0-4.75-5.49,10.78,10.78,0,0,1-.74,1.64,37.78,37.78,0,0,0-.4,5.1,18.06,18.06,0,0,0,3.63-.11,12.61,12.61,0,0,1,2.26-1.14Z" fill-rule="evenodd" fill="url(#radial-gradient-23)"/><path d="M49.63,17.29a12.83,12.83,0,0,0,2.76-1.72q-.82-2.65-1.81-5.13a5.57,5.57,0,0,0-1-1.16,21.18,21.18,0,0,0-1.31-3.54,14,14,0,0,1-1.94-3A10.35,10.35,0,0,1,42.75.21a7.64,7.64,0,0,0-1.28,1.26,2.62,2.62,0,0,0,.35,1c2.29,1,3.59,2.45,5.29,6l.54,1.22a17.75,17.75,0,0,1,2,7.65Z" fill-rule="evenodd" fill="url(#radial-gradient-24)"/><path d="M52.39,15.57a12.83,12.83,0,0,1-2.76,1.72,30.93,30.93,0,0,1,.46,7.25,19.23,19.23,0,0,1,.36,3,19.27,19.27,0,0,1-1.86,6.82A6.37,6.37,0,0,0,49,36.83,27.88,27.88,0,0,1,52,36a19.24,19.24,0,0,0,3.54-1.66,37.78,37.78,0,0,1,.4-5.1,10.78,10.78,0,0,0,.74-1.64c-1.17-2.78-2.43-5.55-3.74-8.33-.13-1.24-.31-2.49-.51-3.73Z" fill-rule="evenodd" fill="url(#radial-gradient-25)"/><path d="M59.13,34.26a18.06,18.06,0,0,1-3.63.11A19.24,19.24,0,0,1,52,36a27.88,27.88,0,0,0-2.92.8c4.13,1.68,7.34,2.05,11.69,2.74a17.39,17.39,0,0,0,2.3-.79c0-.3,0-.59-.05-.89a39.82,39.82,0,0,1,1.3-4.61L65,32.12a7.79,7.79,0,0,1-1.8.89c-.53,0-1.17,0-1.76.11a12.61,12.61,0,0,0-2.26,1.14Z" fill-rule="evenodd" fill="url(#radial-gradient-26)"/><path d="M64.28,33.28A39.82,39.82,0,0,0,63,37.89c0,.3,0,.59.05.89a12.73,12.73,0,0,0,1.75-1.59,10.46,10.46,0,0,0,.74-1.5l.31-2.46A8,8,0,0,0,65,32.12l-.67,1.16Z" fill-rule="evenodd" fill="url(#radial-gradient-27)"/><path d="M17.34,46.74a31,31,0,0,1-7,.8A14,14,0,0,1,6.9,44.8a14.3,14.3,0,0,1-2.6-.5,5.69,5.69,0,0,1-.16-.78,10,10,0,0,1-2.2-1A18,18,0,0,1,4,44.85L5.32,46.1a5.61,5.61,0,0,0,1.73.37,6.39,6.39,0,0,0,1.37,1,3.27,3.27,0,0,0,.72.21l1.26.77a18.1,18.1,0,0,1,3.12.25,39.88,39.88,0,0,1,4.08-.25,18.69,18.69,0,0,0,2.49-1.25,5,5,0,0,0,.29-1.36,14.42,14.42,0,0,0-1-1.84,5.88,5.88,0,0,1-.15,1.5,12.17,12.17,0,0,1-1.86,1.21Z" fill-rule="evenodd" fill="url(#radial-gradient-28)"/><path d="M10.38,47.54a31,31,0,0,0,7-.8,12.17,12.17,0,0,0,1.86-1.21,5.88,5.88,0,0,0,.15-1.5,28.37,28.37,0,0,0-4.52-5c-1.83-1-3.59-2.09-5.3-3.2a10.28,10.28,0,0,1-1.34,2.11A47.26,47.26,0,0,1,6.9,44.8a14,14,0,0,0,3.48,2.74Z" fill-rule="evenodd" fill="url(#radial-gradient-29)"/><path d="M6.9,44.8a47.26,47.26,0,0,0,1.29-6.89A10.28,10.28,0,0,0,9.53,35.8l-.31-.59a20.86,20.86,0,0,1-2.07-1L5.33,33.13a29.75,29.75,0,0,1-4-2.71,7.53,7.53,0,0,0-.74,1.44c-.05.52-.08,1-.08,1.57L0,35a11.88,11.88,0,0,0,.53,4.47l1.08,1.89.3,1.14a10,10,0,0,0,2.2,1,5.69,5.69,0,0,0,.16.78,14.3,14.3,0,0,0,2.6.5Z" fill-rule="evenodd" fill="url(#radial-gradient-30)"/><path d="M22,38.64a12.14,12.14,0,0,0-3.47.68c.2.13,1.79,1.59,2.66,2.4A12.18,12.18,0,0,0,23.7,41a19.76,19.76,0,0,0,1.47-1.62A21.85,21.85,0,0,1,22,38.64Z" fill-rule="evenodd" fill="url(#radial-gradient-31)"/><path d="M26.65,27.6a28.27,28.27,0,0,0-1.27-5.52,11.25,11.25,0,0,0-2-1.63l-2.31-.68c.59,1.62,1.8,3.9,2.58,5.79a16.76,16.76,0,0,0,3.93,6.24c.55.92,1.09,1.83,1.63,2.76l1-2.77a37.08,37.08,0,0,0-3.54-4.19Z" fill-rule="evenodd" fill="url(#radial-gradient-32)"/><path d="M25.38,22.08l.55-1.93-2.55.3a11.25,11.25,0,0,1,2,1.63Z" fill="#bc5152" fill-rule="evenodd"/><path d="M25.93,20.15c3.6-.86,5.21-1.47,7.75-4.27a5.57,5.57,0,0,0,.07-2.26,21.79,21.79,0,0,1-2.94,2.06,15,15,0,0,1-5.39,3.78,27.42,27.42,0,0,1-4.35.31l2.31.68,2.55-.3Z" fill-rule="evenodd" fill="url(#radial-gradient-33)"/><path d="M33.68,15.88a25.26,25.26,0,0,0,3.48,0A51.76,51.76,0,0,0,46,18a5.22,5.22,0,0,1,1.63-.48l-3.66-.83-4.41-1.24L37,14.48,36,13.8l-2.21-.18a5.57,5.57,0,0,1-.07,2.26Z" fill-rule="evenodd" fill="url(#radial-gradient-34)"/><path d="M46,18a13.34,13.34,0,0,0,2.4,4.9l1.72,1.67A35.15,35.15,0,0,0,49.92,19L47.6,17.49A5.22,5.22,0,0,0,46,18Z" fill-rule="evenodd" fill="url(#radial-gradient-35)"/><path d="M48.37,22.87c-1.16,1.91-3.13,3.49-3.48,5.72-1.79,1.81-5.09,3.34-7.19,4.28a8.08,8.08,0,0,1,2.51,2.55c1.56-.52,3.1-1,4.68-1.48a47.87,47.87,0,0,0,5.25-4.26c.13-.7.23-1.4.31-2.14a19.23,19.23,0,0,0-.36-3l-1.72-1.67Z" fill-rule="evenodd" fill="url(#radial-gradient-36)"/><path d="M40.21,35.42a8.08,8.08,0,0,0-2.51-2.55,36.57,36.57,0,0,1-7.51-1.08l-1,2.77c2,1.2,4.57,1.22,6.85,1.54a22.6,22.6,0,0,0,4.15-.68Z" fill-rule="evenodd" fill="url(#radial-gradient-37)"/><path d="M37.7,32.87c2.1-.94,5.4-2.47,7.19-4.28.35-2.23,2.32-3.81,3.48-5.72A13.34,13.34,0,0,1,46,18a51.76,51.76,0,0,1-8.81-2.09,25.26,25.26,0,0,1-3.48,0c-2.54,2.8-4.15,3.41-7.75,4.27l-.55,1.93a28.27,28.27,0,0,1,1.27,5.52,37.08,37.08,0,0,1,3.54,4.19,36.57,36.57,0,0,0,7.51,1.08Z" fill-rule="evenodd" fill="url(#radial-gradient-38)"/><path d="M46.92,32.41l1.67,2a17.74,17.74,0,0,0,1.55-4.68,27.16,27.16,0,0,1-3.22,2.73Z" fill="#6c61b8" fill-rule="evenodd"/><path d="M46.92,32.41h1.45a6.26,6.26,0,0,0,1.77-2.72,27.16,27.16,0,0,1-3.22,2.73Z" fill-rule="evenodd" fill="url(#radial-gradient-39)"/><path d="M48.37,32.4H46.92l1.67,2c0-.4.06-.81.06-1.22a6.35,6.35,0,0,0-.28-.74Z" fill-rule="evenodd" fill="url(#radial-gradient-40)"/><path d="M48.37,32.4a6.35,6.35,0,0,1,.28.74c0,.41,0,.82-.06,1.22a17.74,17.74,0,0,0,1.55-4.68,6.26,6.26,0,0,1-1.77,2.72Z" fill-rule="evenodd" fill="url(#radial-gradient-41)"/><path d="M7,33.62a2.57,2.57,0,0,1,.29-.35c-.65,0-1.3-.06-2-.14l1.82,1.12A1.61,1.61,0,0,1,7,33.62Z" fill="#511334" fill-rule="evenodd"/><path d="M4,48.51a5.22,5.22,0,0,0-.27,2.28C4.68,51.87,5.58,52.9,6.44,54a62.66,62.66,0,0,0,8.46,7.39,61.15,61.15,0,0,0,9,4c2.32.36,4.33.57,6.68.73l2.18.26a26.58,26.58,0,0,0,7.51-1.8,2.34,2.34,0,0,0,.48-.63l-4.35-.7a14.35,14.35,0,0,0-1.53-.57,20.66,20.66,0,0,1-2.75-.11A45.44,45.44,0,0,1,23,59.18L19.28,58l-2.83-.79-1.87-1c-.86-.23-1.73-.72-2.59-.94-.87-.51-1.72-.79-2.61-1.25L5.51,49.16,4,48.51Z" fill-rule="evenodd" fill="url(#radial-gradient-42)"/><path d="M3.75,50.79C5,51.89,6,53.22,6.62,53.85a8.39,8.39,0,0,0,1,.74c1.93,1.19,4.07,2.15,6.09,3.18.58.3,1.17.57,1.73.91a8.86,8.86,0,0,0,1.1.58c1.52.65,3.1.89,4.36,1.43.81.35,1.5.8,2.31,1.13s1.67.53,2.48.82c.54.2,1.29.54,1.84.7a15,15,0,0,0,1.49.35c.48.1,1.88.56,2,.58s.66-.1,1-.12c1.06-.09,3.41-.31,3.54-.36a5.81,5.81,0,0,0,.79-.47,14.35,14.35,0,0,0-1.53-.57,20.66,20.66,0,0,1-2.75-.11A45.44,45.44,0,0,1,23,59.18L19.28,58l-2.83-.79-1.87-1c-.86-.23-1.73-.72-2.59-.94-.87-.51-1.72-.79-2.61-1.25L5.51,49.16,4,48.51a5.22,5.22,0,0,0-.27,2.28Z" fill-rule="evenodd" fill="url(#radial-gradient-43)"/><path d="M36.15,44.88c.08-.92.17-1.84.25-2.76l-3.93.27a21.25,21.25,0,0,1-4.41-.7c-.17.54-.38,1.13-.68,1.86A20.94,20.94,0,0,1,21.55,46a6.25,6.25,0,0,1-1.17-.13,5,5,0,0,1-.29,1.36,41.73,41.73,0,0,1,4.67,2.23,6.14,6.14,0,0,0,1.33.17,23.67,23.67,0,0,0,2.47-.9,15,15,0,0,1,2.63-1.07,40.84,40.84,0,0,1,5-2.78Z" fill-rule="evenodd" fill="url(#radial-gradient-44)"/><path d="M36.15,44.88a40.84,40.84,0,0,0-5,2.78,15,15,0,0,0-2.63,1.07,23.67,23.67,0,0,1-2.47.9c1-.22,2-.45,3-.57a77.28,77.28,0,0,1,7.39-2.52l1.81-1.06a4,4,0,0,0-.82-.66,8.74,8.74,0,0,0-1.33.06Z" fill-rule="evenodd" fill="url(#radial-gradient-45)"/><path d="M36.15,44.88a8.74,8.74,0,0,1,1.33-.06,4,4,0,0,1,.82.66c1.1-.64,2.22-1.27,3.37-1.91a67.91,67.91,0,0,0,6.65-1.81,31.55,31.55,0,0,0-5-.46,28.93,28.93,0,0,1-3,.55l-3.94.27c-.08.92-.17,1.84-.25,2.76Z" fill-rule="evenodd" fill="url(#radial-gradient-46)"/><path d="M43.3,41.3a31.55,31.55,0,0,1,5,.46,6.75,6.75,0,0,0,.77-2,11.55,11.55,0,0,0-1.67-2l-.94,1.3a31.71,31.71,0,0,1-6.14,2.75,28.93,28.93,0,0,0,3-.55Z" fill-rule="evenodd" fill="url(#radial-gradient-47)"/><path d="M40.34,41.85a31.71,31.71,0,0,0,6.14-2.75l.94-1.3A44.79,44.79,0,0,0,46.1,33l-1.21.92c-1.58.47-3.12,1-4.68,1.48a22.6,22.6,0,0,1-4.15.68c-2.28-.32-4.84-.34-6.85-1.54a14.63,14.63,0,0,0-.3,1.63l-.05,1.75a26.18,26.18,0,0,1-.8,3.75,21.25,21.25,0,0,0,4.41.7l3.93-.27,3.94-.27Z" fill-rule="evenodd" fill="url(#radial-gradient-48)"/><path d="M40.34,41.85a31.71,31.71,0,0,0,6.14-2.75l.94-1.3A44.79,44.79,0,0,0,46.1,33l-1.21.92c-1.58.47-3.12,1-4.68,1.48a22.6,22.6,0,0,1-4.15.68c-2.28-.32-4.84-.34-6.85-1.54a14.63,14.63,0,0,0-.3,1.63l-.05,1.75a26.18,26.18,0,0,1-.8,3.75,21.25,21.25,0,0,0,4.41.7l3.93-.27,3.94-.27Z" fill-rule="evenodd" opacity="0.5" fill="url(#radial-gradient-49)" style="mix-blend-mode:multiply"/><path d="M46.1,33a44.79,44.79,0,0,1,1.32,4.78,11.55,11.55,0,0,1,1.67,2,26.2,26.2,0,0,0-.05-3,6.37,6.37,0,0,1-.45-2.47l-1.67-2L46.1,33Z" fill-rule="evenodd" fill="url(#radial-gradient-50)"/><path d="M40,41.87a4,4,0,0,0-1.13-.58,15.73,15.73,0,0,0-5.76.47,3.64,3.64,0,0,0-.88.62,4.2,4.2,0,0,0,1,.61,18.61,18.61,0,0,0,3,.33,22.94,22.94,0,0,0,2.63-.46,2.5,2.5,0,0,0,1.12-1Z" fill-rule="evenodd" fill="url(#radial-gradient-51)"/><path d="M33.15,41.76a3.7,3.7,0,0,0-.77.52l0,.06s0,0,0,0h.07c1.41-.13,2.82-.21,4.23-.29h.29c1-.05,2-.05,3-.08H40a.35.35,0,0,1,0-.08.09.09,0,0,0,0-.05s0,0,0,0a4.36,4.36,0,0,0-1.08-.54,15.73,15.73,0,0,0-5.76.47Z" fill-rule="evenodd" fill="url(#radial-gradient-52)"/><path d="M11.73,53.86A10.11,10.11,0,0,0,12,55.24a14,14,0,0,0,2.13-.2,19,19,0,0,1-2.39-1.18Z" fill-rule="evenodd" fill="url(#radial-gradient-53)"/><path d="M11.73,53.86A19,19,0,0,0,14.12,55a14.48,14.48,0,0,1,2.18.48,12.33,12.33,0,0,1-1-2.55,10.87,10.87,0,0,1,.08-1.81,29.81,29.81,0,0,1-3.79,1.54,6.57,6.57,0,0,0,.1,1.16Z" fill-rule="evenodd" fill="url(#radial-gradient-54)"/><path d="M12,55.24a10.11,10.11,0,0,1-.26-1.38,6.57,6.57,0,0,1-.1-1.16,36.58,36.58,0,0,1-6.42-3.21A12.53,12.53,0,0,0,7.1,51.7l.42.79A11.41,11.41,0,0,0,12,55.24Z" fill-rule="evenodd" fill="url(#radial-gradient-55)"/><path d="M5.21,49.49a36.58,36.58,0,0,0,6.42,3.21,29.81,29.81,0,0,0,3.79-1.54,21.45,21.45,0,0,1-3.32-2.61c-.58,0-1.14-.07-1.7-.07l-1.26-.77a3.27,3.27,0,0,1-.72-.21,6.39,6.39,0,0,1-1.37-1,5.61,5.61,0,0,1-1.73-.37,10.8,10.8,0,0,0-.11,3.39Z" fill-rule="evenodd" fill="url(#radial-gradient-56)"/><path d="M34.36,2.73A24.31,24.31,0,0,0,31.3,5.06a31.34,31.34,0,0,0,.57,8.32c.62.11,1.25.18,1.88.24L36,13.8l1.07.68,2.5.94,4.41,1.24,3.66.83c.69,0,1.38-.1,2-.2a17.75,17.75,0,0,0-2-7.65l-.54-1.22c-1.7-3.51-3-4.91-5.29-6A32.19,32.19,0,0,0,38,2a17.46,17.46,0,0,0-3.65.71Z" fill-rule="evenodd" fill="url(#radial-gradient-57)"/><path d="M34.36,2.73A24.31,24.31,0,0,0,31.3,5.06a31.34,31.34,0,0,0,.57,8.32c.62.11,1.25.18,1.88.24L36,13.8l1.07.68,2.5.94,4.41,1.24,3.66.83c.69,0,1.38-.1,2-.2a17.75,17.75,0,0,0-2-7.65l-.54-1.22c-1.7-3.51-3-4.91-5.29-6A32.19,32.19,0,0,0,38,2a17.46,17.46,0,0,0-3.65.71Z" fill-rule="evenodd" opacity="0.55" fill="url(#New_Gradient_Swatch_72)" style="mix-blend-mode:screen"/><path d="M38.29,13.22a22.21,22.21,0,0,0-2.21-.29,6,6,0,0,0-1.06-1,19.41,19.41,0,0,0-3.15,1.47c.62.11,1.25.18,1.88.24L36,13.8l1.07.68,2.5.94,4.41,1.24,3.66.83c.69,0,1.38-.1,2-.2a63.41,63.41,0,0,0-11.34-4.07Z" fill-rule="evenodd" fill="url(#radial-gradient-58)"/><path d="M35,11.91a40.72,40.72,0,0,1-2.46-6.28,7.35,7.35,0,0,0-1.26-.57,31.34,31.34,0,0,0,.57,8.32A19.41,19.41,0,0,1,35,11.91Z" fill-rule="evenodd" fill="url(#radial-gradient-59)"/><path d="M33.75,13.62c-.63-.06-1.26-.13-1.88-.24a23.74,23.74,0,0,0-1.06,2.3,21.79,21.79,0,0,0,2.94-2.06Z" fill="#511334" fill-rule="evenodd"/><path d="M47.6,17.49,49.92,19c-.08-.59-.17-1.17-.29-1.74-.65.1-1.34.15-2,.2Z" fill="#511334" fill-rule="evenodd"/><path d="M49.19,17.94a2.49,2.49,0,0,0,.44-.65c-.65.1-1.34.15-2,.2a9.91,9.91,0,0,0,1.59.45Z" fill-rule="evenodd" fill="url(#radial-gradient-60)"/><path d="M30.81,15.68A15.48,15.48,0,0,0,32.18,14a3.18,3.18,0,0,0-.31-.64,23.74,23.74,0,0,0-1.06,2.3Z" fill-rule="evenodd" fill="url(#radial-gradient-61)"/><path d="M21.31,2.85c2.62-.46,5.23-1,7.85-1.44,3.09.1,7.52.57,10.63-.32q.38-.11.72-.24L38.36.17,33.77,0,29.86.11l-3-.11-3.4,1.7L20.15,3.06l1.16-.21Z" fill-rule="evenodd" fill="url(#radial-gradient-62)"/><path d="M36.38,63.32l.36-.66a33.49,33.49,0,0,0,7.61-3.6l1.11-.22.59-.85a27.06,27.06,0,0,1,5.13-1.62h1.1c1.58-.5,3-1,4.58-1.6a6,6,0,0,1-.12,1.31,9.57,9.57,0,0,1-1.41,2.7c-2,.46-4.21,2.59-5.87,3.85a11.18,11.18,0,0,1-2.15,1l-1.44.23A8.92,8.92,0,0,1,42.92,65,12.1,12.1,0,0,1,40.73,64l-4.35-.7Z" fill-rule="evenodd" fill="url(#radial-gradient-63)"/><path d="M37,62.57a5.17,5.17,0,0,1,3.89.12A24.93,24.93,0,0,1,44,61.46a2.64,2.64,0,0,0,.6-.48A12.71,12.71,0,0,0,46,61,28.09,28.09,0,0,0,53.08,58a22.5,22.5,0,0,1,3.66-1.94,6,6,0,0,0,.12-1.31c-1.54.59-3,1.1-4.58,1.6h-1.1A27.06,27.06,0,0,0,46.05,58l-.59.85-1.11.22A32.67,32.67,0,0,1,37,62.57Z" fill-rule="evenodd" fill="url(#radial-gradient-64)"/><path d="M40.16,57c2.49-1.48,8.91-4.62,9-6.6a13.4,13.4,0,0,0,2.66-.76,5.93,5.93,0,0,0,.79-1A41.6,41.6,0,0,0,56.38,46l1-.91a10.24,10.24,0,0,0-.29-2.66,11.66,11.66,0,0,0-3.36-.83,30.27,30.27,0,0,0-4,1.22,64.73,64.73,0,0,0-7,1.84,48.75,48.75,0,0,0-4.9,2.64,17,17,0,0,1-3.14.28,5.59,5.59,0,0,1-.68,1.1c-2.72,1.29-6,2-8.87,3.09a48.34,48.34,0,0,0-7.7.48,3.29,3.29,0,0,0,.26,2.44,41.58,41.58,0,0,1,5.83,1.79A135.47,135.47,0,0,0,40.16,57Z" fill-rule="evenodd" fill="url(#radial-gradient-65)"/><path d="M37.78,47.34c1.46,1,2.91,2,4.33,2.88a10.68,10.68,0,0,0,2.89.55,31.87,31.87,0,0,1,4.11-.4,13.4,13.4,0,0,0,2.66-.76,5.93,5.93,0,0,0,.79-1A41.6,41.6,0,0,0,56.38,46l1-.91a10.24,10.24,0,0,0-.29-2.66,11.66,11.66,0,0,0-3.36-.83,30.27,30.27,0,0,0-4,1.22,64.73,64.73,0,0,0-7,1.84,48.75,48.75,0,0,0-4.9,2.64Z" fill-rule="evenodd" fill="url(#radial-gradient-66)"/><path d="M17.65,54.73a3.29,3.29,0,0,1-.26-2.44l-2-1.13A10.87,10.87,0,0,0,15.34,53a12.33,12.33,0,0,0,1,2.55l1.35-.79Z" fill-rule="evenodd" fill="url(#radial-gradient-67)"/><path d="M17.39,52.29a48.34,48.34,0,0,1,7.7-.48C28,50.75,31.24,50,34,48.72a5.59,5.59,0,0,0,.68-1.1,17,17,0,0,0,3.14-.28,48.75,48.75,0,0,1,4.9-2.64,64.73,64.73,0,0,1,7-1.84,30.27,30.27,0,0,1,4-1.22,11.66,11.66,0,0,1,3.36.83,10.24,10.24,0,0,1,.29,2.66l2.26-2.49-1.72-2-3.18-.42-6.39,1.5a67.91,67.91,0,0,1-6.65,1.81c-1.15.64-2.27,1.27-3.37,1.91l-1.81,1.06a77.28,77.28,0,0,0-7.39,2.52c-1,.12-2,.35-3,.57a6.14,6.14,0,0,1-1.33-.17l-6.49,1.19-2.85.51,2,1.13Z" fill-rule="evenodd" fill="url(#radial-gradient-68)"/><path d="M40.16,57a135.47,135.47,0,0,1-16.68-.45,41.58,41.58,0,0,0-5.83-1.79l-1.35.79,4.09,1.08,3,1.1,3.51.45,5.12.51,8.24-.54,4-1.89,6.23-3.85L53.21,49l3.17-3a41.6,41.6,0,0,1-3.82,2.55,5.93,5.93,0,0,1-.79,1,13.4,13.4,0,0,1-2.66.76c0,2-6.46,5.12-9,6.6Z" fill-rule="evenodd" fill="url(#radial-gradient-69)"/><path d="M15,50.39a15.58,15.58,0,0,0-1.45-1.66c-.49-.08-1-.14-1.42-.18a21.45,21.45,0,0,0,3.32,2.61,4.86,4.86,0,0,0-.45-.77Z" fill-rule="evenodd" fill="url(#radial-gradient-70)"/><path d="M17.75,50a8.74,8.74,0,0,1-2.78.39,4.86,4.86,0,0,1,.45.77l2.85-.51,6.49-1.19a33.82,33.82,0,0,0-7,.54Z" fill="#511334" fill-rule="evenodd"/><path d="M15,50.39A8.74,8.74,0,0,0,17.75,50a7.12,7.12,0,0,0-.15-1.52,39.88,39.88,0,0,0-4.08.25A15.58,15.58,0,0,1,15,50.39Z" fill-rule="evenodd" opacity="0.5" fill="url(#radial-gradient-71)"/><path d="M17.6,48.48A7.12,7.12,0,0,1,17.75,50a33.82,33.82,0,0,1,7-.54,41.73,41.73,0,0,0-4.67-2.23,18.69,18.69,0,0,1-2.49,1.25Z" fill-rule="evenodd" fill="url(#radial-gradient-72)"/><path d="M43.57,58.16l-3.3,0L32,58.66l-5.12-.51L23.4,57.7l-3-1.1L16.3,55.52A14.48,14.48,0,0,0,14.12,55a14,14,0,0,1-2.13.2c.86.22,1.73.71,2.59.94l1.87,1,2.83.79L23,59.18a45.44,45.44,0,0,0,9.11,3.46,20.66,20.66,0,0,0,2.75.11,14.35,14.35,0,0,1,1.53.57l.36-.66.25-.09a32.67,32.67,0,0,0,7.36-3.51l-.78-.9Z" fill-rule="evenodd" fill="url(#radial-gradient-73)"/><path d="M14.58,56.18a28.36,28.36,0,0,1,8,1.84l3.82,1.52A32.9,32.9,0,0,0,32,59.46c1.68,0,9.33-.21,10.1-.44a4.74,4.74,0,0,0,1.44-.86l-3.3,0L32,58.66l-5.12-.51L23.4,57.7l-3-1.1L16.3,55.52A14.48,14.48,0,0,0,14.12,55a14,14,0,0,1-2.13.2c.86.22,1.73.71,2.59.94Z" fill-rule="evenodd" fill="url(#radial-gradient-74)"/><polygon points="43.57 58.16 44.24 56.23 40.27 58.13 43.57 58.16 43.57 58.16" fill="#511334" fill-rule="evenodd"/><path d="M50.81,53.63l.37-.8A16.17,16.17,0,0,1,55,50.57a29.52,29.52,0,0,1,2.69-4.51,20.28,20.28,0,0,1,2.43-2,15.89,15.89,0,0,1,1.37-2.16l-1.88.72-2.26,2.49-1,.91-3.17,3-2.74,3.35-6.23,3.85-.67,1.93a8.35,8.35,0,0,0,2.54-2.3,24.94,24.94,0,0,1,4.7-2.23Z" fill-rule="evenodd" fill="url(#radial-gradient-75)"/><path d="M51.18,52.83l-.37.8a24.94,24.94,0,0,0-4.7,2.23,8.35,8.35,0,0,1-2.54,2.3l.78.9,1.11-.22.59-.85a27.06,27.06,0,0,1,5.13-1.62h1.1c1.58-.5,3-1,4.58-1.6a9.2,9.2,0,0,0,2-1.07,7,7,0,0,0-.51-.58A12.7,12.7,0,0,0,55,50.57a16.17,16.17,0,0,0-3.82,2.26Z" fill-rule="evenodd" fill="url(#radial-gradient-76)"/><path d="M55,50.57a12.7,12.7,0,0,1,3.32,2.55,7,7,0,0,1,.51.58,17.17,17.17,0,0,0,1-1.93c.95-1,1.93-2,2.95-2.94-.29-.4-.56-.8-.82-1.2a18.77,18.77,0,0,1-1.86-3.55,20.28,20.28,0,0,0-2.43,2A29.52,29.52,0,0,0,55,50.57Z" fill-rule="evenodd" fill="url(#radial-gradient-77)"/><path d="M60.12,44.08A18.77,18.77,0,0,0,62,47.63c.26.4.53.8.82,1.2a30,30,0,0,0,.76-4.71,6,6,0,0,0-2.07-2.2,15.89,15.89,0,0,0-1.37,2.16Z" fill-rule="evenodd" fill="url(#radial-gradient-78)"/><path d="M64,40.59a5.56,5.56,0,0,0-1-1.81,17.39,17.39,0,0,1-2.3.79l.76,2.35a6,6,0,0,1,2.07,2.2A13.48,13.48,0,0,0,64,40.59Z" fill-rule="evenodd" fill="url(#radial-gradient-79)"/><path d="M63,38.78a5.56,5.56,0,0,1,1,1.81,6.25,6.25,0,0,1,1-1.66,2.79,2.79,0,0,1,.48-.49,4.42,4.42,0,0,1,.5-.1l-.51-2.65a10.46,10.46,0,0,1-.74,1.5A12.73,12.73,0,0,1,63,38.78Z" fill-rule="evenodd" fill="url(#radial-gradient-80)"/><path d="M65.05,38.93a6.25,6.25,0,0,0-1,1.66,13.48,13.48,0,0,1-.46,3.53l1.53-2.86L66,38.34a4.42,4.42,0,0,0-.5.1,2.79,2.79,0,0,0-.48.49Z" fill-rule="evenodd" fill="url(#radial-gradient-81)"/><path d="M58.77,39.26l-.88,1.42,1.72,2,1.88-.72-.76-2.35-2-.31Z" fill-rule="evenodd" fill="url(#radial-gradient-82)"/><path d="M57.89,40.68l1.19-.12,1.19-.43.46-.56-2-.31-.88,1.42Z" fill-rule="evenodd" fill="url(#radial-gradient-83)"/><path d="M57.89,40.68l.88-1.42A39.75,39.75,0,0,1,49,36.83a26.2,26.2,0,0,1,.05,3,6.75,6.75,0,0,1-.77,2l6.39-1.5,3.18.42Z" fill-rule="evenodd" fill="url(#radial-gradient-84)"/><path d="M53.19,39.5a17.06,17.06,0,0,1-4.1.28,6.75,6.75,0,0,1-.77,2l6.39-1.5a4.33,4.33,0,0,0-1.52-.76Z" fill-rule="evenodd" fill="url(#radial-gradient-85)"/><path d="M65.52,35.69c.11-.82.21-1.64.31-2.46L66,29.55l-.93-5.44a15.21,15.21,0,0,1-1.5-4.93,66.24,66.24,0,0,1-3.18-6.08c-1-1.14-2-2.32-3-3.44A43.88,43.88,0,0,0,49,3l-.88-.48a8,8,0,0,0-1.67-.43l-2-1.33A8.69,8.69,0,0,0,42.75.21a7.64,7.64,0,0,0-1.28,1.26l-1-.62L38.36.17,33.77,0,29.86.11l-3-.11-3.4,1.7L20.15,3.06,19,3.23,16.61,5,15,6,13,7.33l-.26.73.18.44h0c-.07-.15-.13-.3-.19-.45a3.06,3.06,0,0,0-1.45-.26,40.51,40.51,0,0,0-6.65,7.38A48.33,48.33,0,0,0,1,24.33a22.89,22.89,0,0,0,.34,6.09,7.53,7.53,0,0,0-.74,1.44c-.05.52-.08,1-.08,1.57C.37,34,.2,34.48,0,35a11.88,11.88,0,0,0,.53,4.47l1.08,1.89a3.82,3.82,0,0,0-.31.68A9.19,9.19,0,0,0,2.4,45.72a13.16,13.16,0,0,0,1.31,1.93,6.8,6.8,0,0,0,.31.86,5.37,5.37,0,0,0-.28,2.28c.94,1.08,1.84,2.11,2.7,3.25a62.66,62.66,0,0,0,8.46,7.39,61.15,61.15,0,0,0,9,4c2.32.36,4.33.57,6.68.73l2.18.26a26.58,26.58,0,0,0,7.51-1.8,2.34,2.34,0,0,0,.48-.63,12.1,12.1,0,0,0,2.19.93,8.92,8.92,0,0,0,2.95-1.07l1.44-.23a11.18,11.18,0,0,0,2.15-1c1.66-1.26,3.9-3.39,5.87-3.85a9.57,9.57,0,0,0,1.41-2.7,6,6,0,0,0,.12-1.31,9.2,9.2,0,0,0,2-1.07,17.17,17.17,0,0,0,1-1.93c.95-1,1.93-2,2.95-2.94a30,30,0,0,0,.76-4.71l1.53-2.86L66,38.34Z" fill-rule="evenodd" fill="url(#radial-gradient-86)" style="mix-blend-mode:multiply"/><path d="M65.52,35.69c.11-.82.21-1.64.31-2.46L66,29.55l-.93-5.44a15.21,15.21,0,0,1-1.5-4.93,66.24,66.24,0,0,1-3.18-6.08c-1-1.14-2-2.32-3-3.44A43.88,43.88,0,0,0,49,3l-.88-.48a8,8,0,0,0-1.67-.43l-2-1.33A8.69,8.69,0,0,0,42.75.21a7.64,7.64,0,0,0-1.28,1.26l-1-.62L38.36.17,33.77,0,29.86.11l-3-.11-3.4,1.7L20.15,3.06,19,3.23,16.61,5,15,6,13,7.33l-.26.73.18.44h0c-.07-.15-.13-.3-.19-.45a3.06,3.06,0,0,0-1.45-.26,40.51,40.51,0,0,0-6.65,7.38A48.33,48.33,0,0,0,1,24.33a22.89,22.89,0,0,0,.34,6.09,7.53,7.53,0,0,0-.74,1.44c-.05.52-.08,1-.08,1.57C.37,34,.2,34.48,0,35a11.88,11.88,0,0,0,.53,4.47l1.08,1.89a3.82,3.82,0,0,0-.31.68A9.19,9.19,0,0,0,2.4,45.72a13.16,13.16,0,0,0,1.31,1.93,6.8,6.8,0,0,0,.31.86,5.37,5.37,0,0,0-.28,2.28c.94,1.08,1.84,2.11,2.7,3.25a62.66,62.66,0,0,0,8.46,7.39,61.15,61.15,0,0,0,9,4c2.32.36,4.33.57,6.68.73l2.18.26a26.58,26.58,0,0,0,7.51-1.8,2.34,2.34,0,0,0,.48-.63,12.1,12.1,0,0,0,2.19.93,8.92,8.92,0,0,0,2.95-1.07l1.44-.23a11.18,11.18,0,0,0,2.15-1c1.66-1.26,3.9-3.39,5.87-3.85a9.57,9.57,0,0,0,1.41-2.7,6,6,0,0,0,.12-1.31,9.2,9.2,0,0,0,2-1.07,17.17,17.17,0,0,0,1-1.93c.95-1,1.93-2,2.95-2.94a30,30,0,0,0,.76-4.71l1.53-2.86L66,38.34Z" fill-rule="evenodd" fill="url(#radial-gradient-87)" style="mix-blend-mode:screen"/><path d="M65.52,35.69c.11-.82.21-1.64.31-2.46L66,29.55l-.93-5.44a15.21,15.21,0,0,1-1.5-4.93,66.24,66.24,0,0,1-3.18-6.08c-1-1.14-2-2.32-3-3.44A43.88,43.88,0,0,0,49,3l-.88-.48a8,8,0,0,0-1.67-.43l-2-1.33A8.69,8.69,0,0,0,42.75.21a7.64,7.64,0,0,0-1.28,1.26l-1-.62L38.36.17,33.77,0,29.86.11l-3-.11-3.4,1.7L20.15,3.06,19,3.23,16.61,5,15,6,13,7.33l-.26.73.18.44h0c-.07-.15-.13-.3-.19-.45a3.06,3.06,0,0,0-1.45-.26,40.51,40.51,0,0,0-6.65,7.38A48.33,48.33,0,0,0,1,24.33a22.89,22.89,0,0,0,.34,6.09,7.53,7.53,0,0,0-.74,1.44c-.05.52-.08,1-.08,1.57C.37,34,.2,34.48,0,35a11.88,11.88,0,0,0,.53,4.47l1.08,1.89a3.82,3.82,0,0,0-.31.68A9.19,9.19,0,0,0,2.4,45.72a13.16,13.16,0,0,0,1.31,1.93,6.8,6.8,0,0,0,.31.86,5.37,5.37,0,0,0-.28,2.28c.94,1.08,1.84,2.11,2.7,3.25a62.66,62.66,0,0,0,8.46,7.39,61.15,61.15,0,0,0,9,4c2.32.36,4.33.57,6.68.73l2.18.26a26.58,26.58,0,0,0,7.51-1.8,2.34,2.34,0,0,0,.48-.63,12.1,12.1,0,0,0,2.19.93,8.92,8.92,0,0,0,2.95-1.07l1.44-.23a11.18,11.18,0,0,0,2.15-1c1.66-1.26,3.9-3.39,5.87-3.85a9.57,9.57,0,0,0,1.41-2.7,6,6,0,0,0,.12-1.31,9.2,9.2,0,0,0,2-1.07,17.17,17.17,0,0,0,1-1.93c.95-1,1.93-2,2.95-2.94a30,30,0,0,0,.76-4.71l1.53-2.86L66,38.34Z" fill-rule="evenodd" fill="url(#radial-gradient-88)" style="mix-blend-mode:screen"/><path d="M14.39,9.41a17.17,17.17,0,0,1-2.81,1.41c-.87.4-2,2.65-2.19,2.94a44.77,44.77,0,0,0-4.26,6.43,27.47,27.47,0,0,0-1.65,5.95,15.27,15.27,0,0,0-.22,2.44c0,.36.05.72,0,1.08C3,31.47,3.44,32.88,5,35.33a33.41,33.41,0,0,0,1.89,2.94A23.61,23.61,0,0,0,9.74,41.7a10.76,10.76,0,0,0,3.13,1.78,12.24,12.24,0,0,0,3,.7,28.75,28.75,0,0,0,5.47.48,11.18,11.18,0,0,0,3.09-1c1.43-.52,2.83-1.16,4.26-1.7,2.72-1,4.59-1.79,6.6-4,1.14-1.27,2-2.78,3.17-4,.59-.64,1.49-.94,2-1.61a11,11,0,0,0,1.65-2.82c.46-1.11.56-2.34,1-3.48a18.2,18.2,0,0,0,1.13-2.61,28.85,28.85,0,0,0,.48-6.08A13.35,13.35,0,0,0,44,13.58a14.59,14.59,0,0,0-1.56-3.52,17,17,0,0,0-2.3-2.43A19.7,19.7,0,0,0,32.77,3.5a14.13,14.13,0,0,0-4.3-.3A29.5,29.5,0,0,0,24,4.28a39.39,39.39,0,0,0-4.31,1.09A11.37,11.37,0,0,0,16.87,7c-.93.7-1.52,1.78-2.48,2.43ZM5.29,37.62c-.08-.13-.3-.28-.43-.19-1.07.77.21,3.75.67,4.67a5.54,5.54,0,0,0,1.94,2.31c.55.33,1.3-.13,1.91.05s.69.67,1.23.86c1.74.62,3-.43,1.59-1A11.8,11.8,0,0,1,10,43.17c-2.41-1.71-3.27-3.28-4.73-5.55ZM37.77,38a.47.47,0,0,0-.45-.12,2.72,2.72,0,0,0-.9.37,4.72,4.72,0,0,0-1,.81,2.7,2.7,0,0,0-.62.95c0,.17,0,.43.21.47a3.43,3.43,0,0,0,1.77.06c.83-.24,1.47-2,1-2.54Z" fill-rule="evenodd" opacity="0.6" fill="url(#radial-gradient-89)" style="mix-blend-mode:screen"/><path d="M11.28,11a7,7,0,0,0,.4,5,2.3,2.3,0,0,1,.28.88,23.92,23.92,0,0,1-.83,5.89,31.65,31.65,0,0,0,1.42-5.22c.06-.25.17-.28.6-.05.87.46,1.71.9,2.61,1.29-1.1-.65-3-1.55-3.64-2.73A8,8,0,0,1,11.28,11Z" fill-rule="evenodd" fill="url(#radial-gradient-90)" style="mix-blend-mode:screen"/><path d="M15.22,9c-.25.92-.49,1.79-.68,2.73-.06.27-.38.47-.66.63a1.78,1.78,0,0,1,.84-.19,4,4,0,0,1,1.49,1.76,9,9,0,0,0,.73,2.14,9.58,9.58,0,0,1-.5-2c0-.35-.06-.39.3-.45a7.21,7.21,0,0,1,1.6,0,8.23,8.23,0,0,1,1.61.28,7.62,7.62,0,0,0-1.54-.46c-.08,0-.07-.09,0-.14A7.09,7.09,0,0,0,20.34,12a13.81,13.81,0,0,1-1.87,1.17,2.09,2.09,0,0,1-.52.21,3.12,3.12,0,0,1-1.84-.15,5.67,5.67,0,0,1-1.19-1.4c.11-.93.11-1.87.3-2.79Z" fill-rule="evenodd" fill="url(#radial-gradient-91)" style="mix-blend-mode:screen"/><path d="M34.41,10.6a20.77,20.77,0,0,1-1.94-4.91,7.07,7.07,0,0,0-1-.56,6.19,6.19,0,0,0,1.08.39c1.5-1.91,2.55-2.58,4.4-2.88a6.8,6.8,0,0,0-4.12,3.15c-.06,1.07,1.05,3.75,1.54,4.81Z" fill-rule="evenodd" fill="url(#radial-gradient-92)" style="mix-blend-mode:screen"/><path d="M22,20a6.17,6.17,0,0,1,3.22,2.16A25.76,25.76,0,0,1,26.35,27c.14.83-.32.85-1,1.33.64-.29,1.06-.47,1.35-.37a25.72,25.72,0,0,1,2.2,2.21L27,27.73a36.19,36.19,0,0,1-1.34-5.2,2.62,2.62,0,0,1,.06-1.68c-.08.21-.15.43-.23.64-.19.53-.24.3-.68-.08A5.65,5.65,0,0,0,22,20Z" fill-rule="evenodd" fill="url(#radial-gradient-93)" style="mix-blend-mode:screen"/><g opacity="0.5"><image width="7" height="8" transform="translate(8.65 12.84)" xlink:href="planetAsset%206mountain1.png" style="mix-blend-mode:screen"/><image width="4" height="5" transform="translate(10.65 14.84)" xlink:href="planetAsset%206mountain2.png" style="mix-blend-mode:screen"/></g><g opacity="0.5"><image width="12" height="7" transform="translate(11.65 9.84)" xlink:href="planetAsset%206mountain3.png" style="mix-blend-mode:screen"/><image width="6" height="5" transform="translate(14.65 10.84)" xlink:href="planetAsset%206mountain4.png" style="mix-blend-mode:screen"/></g><g opacity="0.5"><image width="7" height="7" transform="translate(21.65 18.84)" xlink:href="planetAsset%206mountain5.png" style="mix-blend-mode:screen"/><image width="4" height="4" transform="translate(23.65 19.84)" xlink:href="planetAsset%206mountain6.png" style="mix-blend-mode:screen"/></g><path d="M12.42,16.85a25.51,25.51,0,0,1-1.64,6.88C10,25.18,9.21,26.6,8.35,28a14.16,14.16,0,0,0-.81,3c.42.15.85.32,1.28.49A14,14,0,0,0,11.94,31a21.59,21.59,0,0,0,2.43-.81l.22-.43.32-.62c2.56-1.72,5.23-3.38,7.9-5.18a15.19,15.19,0,0,0-2.21-3.43,27.21,27.21,0,0,1-8.18-3.71Z" fill-rule="evenodd" fill="url(#New_Gradient_Swatch_72-2)" style="mix-blend-mode:screen"/><path d="M18,13.47c1.6-.77,2.86-2.05,3.91-2.6.37-.19,1.76-.9,2.62-1.4C27,8,29.6,6.51,31,4.63a13.6,13.6,0,0,0-1.23-1.48,13.72,13.72,0,0,0-2.63-.51,33.36,33.36,0,0,0-7.34,1.13,18.84,18.84,0,0,0-2.6,2A9.65,9.65,0,0,0,15.5,8.16a13.38,13.38,0,0,0-.77,3.71,15.45,15.45,0,0,0,1.56,1.59,13.78,13.78,0,0,1,1.7,0Z" fill-rule="evenodd" opacity="0.65" fill="url(#New_Gradient_Swatch_72-3)" style="mix-blend-mode:screen"/><path d="M10.78,23.73a25.51,25.51,0,0,0,1.64-6.88c-1.32-2.05-1.62-3.51-.85-7.58a1.24,1.24,0,0,1,0-.16c-.08-.44-.14-.86-.26-1.31a40.51,40.51,0,0,0-6.65,7.38A48.33,48.33,0,0,0,1,24.33a8.81,8.81,0,0,0,.55,4,3.31,3.31,0,0,0,.56.82c.38.08.75.15,1.13.2a6.52,6.52,0,0,0,.93.54c1.18.36,2.25.73,3.34,1.15a14.16,14.16,0,0,1,.81-3c.86-1.41,1.68-2.83,2.43-4.28Z" fill-rule="evenodd" fill="url(#New_Gradient_Swatch_72-4)" style="mix-blend-mode:screen"/><path d="M37.7,32.87c2.1-.94,5.4-2.47,7.19-4.28.35-2.23,2.32-3.81,3.48-5.72A13.34,13.34,0,0,1,46,18a51.76,51.76,0,0,1-8.81-2.09,25.26,25.26,0,0,1-3.48,0c-2.54,2.8-4.15,3.41-7.75,4.27l-.55,1.93a28.27,28.27,0,0,1,1.27,5.52,37.08,37.08,0,0,1,3.54,4.19,36.57,36.57,0,0,0,7.51,1.08Z" fill-rule="evenodd" opacity="0.6" fill="url(#radial-gradient-94)" style="mix-blend-mode:screen"/></g></g></g></svg>