<svg xmlns="http://www.w3.org/2000/svg" xmlns:xlink="http://www.w3.org/1999/xlink" width="66.82" height="65.32" viewBox="0 0 66.82 65.32"><defs><radialGradient id="radial-gradient" cx="23.65" cy="17.81" r="51.82" gradientUnits="userSpaceOnUse"><stop offset="0" stop-color="#94ffe1"/><stop offset="0.09" stop-color="#88f9dd"/><stop offset="0.25" stop-color="#67e9d1"/><stop offset="0.47" stop-color="#33cebd"/><stop offset="0.5" stop-color="#2dcbbb"/><stop offset="0.96" stop-color="#008a86"/></radialGradient><radialGradient id="radial-gradient-2" cx="37.67" cy="38.3" r="38.82" gradientUnits="userSpaceOnUse"><stop offset="0.04"/><stop offset="0.84"/><stop offset="0.85" stop-color="#0b1611"/><stop offset="0.9" stop-color="#366851"/><stop offset="0.93" stop-color="#58a984"/><stop offset="0.96" stop-color="#70d7a9"/><stop offset="0.99" stop-color="#7ff4c0"/><stop offset="1" stop-color="#85ffc8"/></radialGradient><radialGradient id="radial-gradient-3" cx="23.01" cy="20.19" r="52.84" gradientUnits="userSpaceOnUse"><stop offset="0.33" stop-color="#fff"/><stop offset="0.4" stop-color="#f4fafa"/><stop offset="0.52" stop-color="#d6eeed"/><stop offset="0.68" stop-color="#a6dad7"/><stop offset="0.87" stop-color="#64beb9"/><stop offset="1" stop-color="#35aaa4"/></radialGradient><radialGradient id="radial-gradient-4" cx="11.56" cy="6.7" r="48.57" gradientUnits="userSpaceOnUse"><stop offset="0" stop-color="#c4ffe2"/><stop offset="1"/></radialGradient><radialGradient id="radial-gradient-5" cx="59.22" cy="27.71" r="16.32" gradientUnits="userSpaceOnUse"><stop offset="0" stop-color="#ab46db"/><stop offset="1" stop-color="#da92f7"/></radialGradient><radialGradient id="radial-gradient-6" cx="61.8" cy="16.14" r="12.78" gradientUnits="userSpaceOnUse"><stop offset="0" stop-color="#b24ced"/><stop offset="1" stop-color="#791d9b"/></radialGradient><radialGradient id="radial-gradient-7" cx="56.56" cy="22.58" r="10.71" gradientUnits="userSpaceOnUse"><stop offset="0" stop-color="#b24ced"/><stop offset="1" stop-color="#73069b"/></radialGradient><radialGradient id="radial-gradient-8" cx="59.23" cy="38.08" r="8.45" gradientUnits="userSpaceOnUse"><stop offset="0" stop-color="#d487ff"/><stop offset="1" stop-color="#7f34cb"/></radialGradient><radialGradient id="radial-gradient-9" cx="61.39" cy="36.74" r="16.18" xlink:href="#radial-gradient-8"/><radialGradient id="radial-gradient-10" cx="60.11" cy="45.17" r="16.23" gradientUnits="userSpaceOnUse"><stop offset="0" stop-color="#9d41fc"/><stop offset="1" stop-color="#6514a9"/></radialGradient><radialGradient id="radial-gradient-11" cx="56.56" cy="43.13" r="12.8" xlink:href="#radial-gradient-10"/><radialGradient id="radial-gradient-12" cx="57.45" cy="40.5" r="11.67" xlink:href="#radial-gradient-10"/><radialGradient id="radial-gradient-13" cx="25.03" cy="-0.42" r="6.31" gradientUnits="userSpaceOnUse"><stop offset="0" stop-color="#c799ff"/><stop offset="1" stop-color="#7c4bc4"/></radialGradient><radialGradient id="radial-gradient-14" cx="32.21" cy="3.58" r="8.41" gradientUnits="userSpaceOnUse"><stop offset="0" stop-color="#6d31b5"/><stop offset="1" stop-color="#9b5bf5"/></radialGradient><radialGradient id="radial-gradient-15" cx="24.27" cy="9.93" r="11.04" gradientUnits="userSpaceOnUse"><stop offset="0" stop-color="#9b5bf5"/><stop offset="1" stop-color="#5617a3"/></radialGradient><radialGradient id="radial-gradient-16" cx="46.75" cy="39.81" r="9.07" gradientUnits="userSpaceOnUse"><stop offset="0" stop-color="#1a4340"/><stop offset="1" stop-color="#fff"/></radialGradient><radialGradient id="radial-gradient-17" cx="47.05" cy="25.82" r="6.41" xlink:href="#radial-gradient-16"/><radialGradient id="radial-gradient-18" cx="51.65" cy="27.7" r="9.87" gradientUnits="userSpaceOnUse"><stop offset="0" stop-color="#ba92ff"/><stop offset="1" stop-color="#7a5aef"/></radialGradient><radialGradient id="radial-gradient-19" cx="46.94" cy="27.86" r="5.62" gradientUnits="userSpaceOnUse"><stop offset="0" stop-color="#9969ff"/><stop offset="1" stop-color="#6b3fe0"/></radialGradient><radialGradient id="radial-gradient-20" cx="46.14" cy="25.71" r="6.52" gradientUnits="userSpaceOnUse"><stop offset="0" stop-color="#9969ff"/><stop offset="1" stop-color="#613bce"/></radialGradient><radialGradient id="radial-gradient-21" cx="46.81" cy="24.34" r="7.24" xlink:href="#radial-gradient-19"/><radialGradient id="radial-gradient-22" cx="42.31" cy="52.8" r="12.91" xlink:href="#radial-gradient-16"/><radialGradient id="radial-gradient-23" cx="35.19" cy="51.39" r="14.63" xlink:href="#radial-gradient-13"/><radialGradient id="radial-gradient-24" cx="36.71" cy="68.16" r="18.9" xlink:href="#radial-gradient-13"/><radialGradient id="radial-gradient-25" cx="26.84" cy="37.1" r="32.35" gradientUnits="userSpaceOnUse"><stop offset="0" stop-color="#ac70ff"/><stop offset="1" stop-color="#6d31b5"/></radialGradient><radialGradient id="radial-gradient-26" cx="35.65" cy="63.84" r="15.86" gradientUnits="userSpaceOnUse"><stop offset="0" stop-color="#9b5bf5"/><stop offset="1" stop-color="#5a1da3"/></radialGradient><radialGradient id="radial-gradient-27" cx="35.26" cy="46.8" r="24.55" gradientUnits="userSpaceOnUse"><stop offset="0" stop-color="#9b5bf5"/><stop offset="1" stop-color="#6d31b5"/></radialGradient><radialGradient id="radial-gradient-28" cx="24.49" cy="59.07" r="7.1" xlink:href="#radial-gradient-16"/><radialGradient id="radial-gradient-29" cx="20.81" cy="55.06" r="9.03" xlink:href="#radial-gradient-8"/><radialGradient id="radial-gradient-30" cx="22.75" cy="65.89" r="33.79" gradientUnits="userSpaceOnUse"><stop offset="0" stop-color="#7019bc"/><stop offset="1" stop-color="#9d41fc"/></radialGradient><radialGradient id="radial-gradient-31" cx="18.66" cy="59.22" r="13" xlink:href="#radial-gradient-10"/><radialGradient id="radial-gradient-32" cx="43.61" cy="5.99" r="11.09" xlink:href="#radial-gradient-16"/><radialGradient id="radial-gradient-33" cx="44.68" cy="2.73" r="5.57" xlink:href="#radial-gradient-15"/><radialGradient id="radial-gradient-34" cx="44.07" cy="1.82" r="7.86" xlink:href="#radial-gradient-15"/><radialGradient id="radial-gradient-35" cx="43.71" cy="4.09" r="6.9" xlink:href="#radial-gradient-15"/><radialGradient id="radial-gradient-36" cx="41.65" cy="5.47" r="8.35" gradientUnits="userSpaceOnUse"><stop offset="0" stop-color="#9b5bf5"/><stop offset="1" stop-color="#622ca3"/></radialGradient><radialGradient id="radial-gradient-37" cx="43.63" cy="5.67" r="6.93" gradientUnits="userSpaceOnUse"><stop offset="0" stop-color="#ba82ff"/><stop offset="1" stop-color="#7c4bc4"/></radialGradient><radialGradient id="radial-gradient-38" cx="42.47" cy="0.51" r="10.39" xlink:href="#radial-gradient-37"/><radialGradient id="radial-gradient-39" cx="24.38" cy="26.87" r="34.44" xlink:href="#radial-gradient-16"/><radialGradient id="radial-gradient-40" cx="17.47" cy="37.21" r="22.33" xlink:href="#radial-gradient-25"/><radialGradient id="radial-gradient-41" cx="31.74" cy="34.13" r="18.92" xlink:href="#radial-gradient-36"/><radialGradient id="radial-gradient-42" cx="25.57" cy="25.65" r="25.19" xlink:href="#radial-gradient-26"/><radialGradient id="radial-gradient-43" cx="26.24" cy="22.67" r="21.01" xlink:href="#radial-gradient-37"/><radialGradient id="radial-gradient-44" cx="43.67" cy="36.53" r="20" xlink:href="#radial-gradient-14"/><radialGradient id="radial-gradient-45" cx="20.25" cy="31.66" r="29.96" xlink:href="#radial-gradient-13"/><radialGradient id="radial-gradient-46" cx="4.63" cy="44.15" r="14.96" xlink:href="#radial-gradient-5"/><radialGradient id="radial-gradient-47" cx="12.11" cy="47.67" r="12.48" xlink:href="#radial-gradient-6"/><radialGradient id="radial-gradient-48" cx="16" cy="47.18" r="7.46" gradientUnits="userSpaceOnUse"><stop offset="0" stop-color="#d173f7"/><stop offset="1" stop-color="#933cbc"/></radialGradient><radialGradient id="radial-gradient-49" cx="12.48" cy="46.55" r="10.16" xlink:href="#radial-gradient-7"/><radialGradient id="radial-gradient-50" cx="23.59" cy="47.94" r="18.88" gradientUnits="userSpaceOnUse"><stop offset="0" stop-color="#7a10ad"/><stop offset="1" stop-color="#b24ced"/></radialGradient><radialGradient id="radial-gradient-51" cx="53.23" cy="38.73" r="8" xlink:href="#radial-gradient-26"/><radialGradient id="radial-gradient-52" cx="47.3" cy="40.68" r="6.04" xlink:href="#radial-gradient-26"/><radialGradient id="radial-gradient-53" cx="47.35" cy="41.16" r="6.51" xlink:href="#radial-gradient-26"/><radialGradient id="radial-gradient-54" cx="46.74" cy="40.43" r="7.82" xlink:href="#radial-gradient-25"/><radialGradient id="radial-gradient-55" cx="48.94" cy="42.67" r="8.92" xlink:href="#radial-gradient-26"/><radialGradient id="radial-gradient-56" cx="47.7" cy="37.27" r="7.1" gradientUnits="userSpaceOnUse"><stop offset="0" stop-color="#b173ff"/><stop offset="1" stop-color="#7c4bc4"/></radialGradient><radialGradient id="radial-gradient-57" cx="47.64" cy="37.07" r="10.27" xlink:href="#radial-gradient-13"/><radialGradient id="radial-gradient-58" cx="9.55" cy="14.87" r="13.34" xlink:href="#radial-gradient-16"/><radialGradient id="radial-gradient-59" cx="3.67" cy="20.32" r="10.04" gradientUnits="userSpaceOnUse"><stop offset="0" stop-color="#bd6aff"/><stop offset="1" stop-color="#7f34cb"/></radialGradient><radialGradient id="radial-gradient-60" cx="19.88" cy="29.57" r="16.14" xlink:href="#radial-gradient-30"/><radialGradient id="radial-gradient-61" cx="-1.38" cy="11.58" r="22.3" xlink:href="#radial-gradient-10"/><radialGradient id="radial-gradient-62" cx="6.72" cy="11.8" r="35.28" xlink:href="#radial-gradient-8"/><radialGradient id="radial-gradient-63" cx="-0.41" cy="30.88" r="12.36" xlink:href="#radial-gradient-16"/><radialGradient id="radial-gradient-64" cx="2.04" cy="37.17" r="3.41" xlink:href="#radial-gradient-37"/><radialGradient id="radial-gradient-65" cx="-0.4" cy="30.21" r="10.29" xlink:href="#radial-gradient-36"/><radialGradient id="radial-gradient-66" cx="-0.03" cy="26.02" r="14.81" gradientUnits="userSpaceOnUse"><stop offset="0" stop-color="#cca3ff"/><stop offset="1" stop-color="#7c4bc4"/></radialGradient><radialGradient id="radial-gradient-67" cx="1.64" cy="27.78" r="13.28" xlink:href="#radial-gradient-36"/><radialGradient id="radial-gradient-68" cx="4" cy="28.82" r="4.76" xlink:href="#radial-gradient-27"/><radialGradient id="radial-gradient-69" cx="2.84" cy="28.25" r="6.93" gradientUnits="userSpaceOnUse"><stop offset="0" stop-color="#d4b3ff"/><stop offset="1" stop-color="#7c4bc4"/></radialGradient><radialGradient id="radial-gradient-70" cx="24.48" cy="14.14" r="23.3" gradientUnits="userSpaceOnUse"><stop offset="0" stop-color="#c799ff"/><stop offset="1" stop-color="#8e56e0"/></radialGradient><radialGradient id="radial-gradient-71" cx="27.64" cy="13.82" r="14.33" xlink:href="#radial-gradient-25"/><radialGradient id="radial-gradient-72" cx="32.52" cy="16.82" r="45.1" xlink:href="#radial-gradient-36"/><radialGradient id="radial-gradient-73" cx="28.78" cy="14.95" r="23.11" xlink:href="#radial-gradient-36"/><radialGradient id="radial-gradient-74" cx="30.84" cy="20.45" r="13.52" xlink:href="#radial-gradient-26"/><radialGradient id="radial-gradient-75" cx="27.9" cy="16.2" r="15.51" xlink:href="#radial-gradient-27"/><radialGradient id="radial-gradient-76" cx="25.05" cy="16.19" r="23.55" gradientUnits="userSpaceOnUse"><stop offset="0" stop-color="#b980ff"/><stop offset="1" stop-color="#883ff2"/></radialGradient><radialGradient id="radial-gradient-77" cx="29.31" cy="17.91" r="2.38" xlink:href="#radial-gradient-14"/><radialGradient id="radial-gradient-78" cx="18.38" cy="22.58" r="19.23" gradientUnits="userSpaceOnUse"><stop offset="0" stop-color="#fff"/><stop offset="1"/></radialGradient><radialGradient id="radial-gradient-79" cx="7.53" cy="4.36" r="16.08" xlink:href="#radial-gradient-78"/><radialGradient id="radial-gradient-80" cx="25.7" cy="6.48" r="12.47" xlink:href="#radial-gradient-78"/></defs><g style="isolation:isolate"><g id="Layer_2" data-name="Layer 2"><g id="Layer_1-2" data-name="Layer 1"><path d="M33.57,1.14A31.55,31.55,0,1,1,2,32.69,31.55,31.55,0,0,1,33.57,1.14Z" fill-rule="evenodd" fill="url(#radial-gradient)"/><path d="M33.57,1.14A31.55,31.55,0,1,1,2,32.69,31.55,31.55,0,0,1,33.57,1.14Z" fill-rule="evenodd" fill="url(#radial-gradient-2)" style="mix-blend-mode:screen"/><path d="M47.26,51c-.54.1-2.91-.3-3.74-.29a48.39,48.39,0,0,0-14.3,2.64A10.66,10.66,0,0,0,26.11,55c-.92.76-.61,2.2-2.54,2.12-1.34,0-2.91-.7-2.78-2.18.11-1.31.24-3.09-.56-3.83a74.84,74.84,0,0,0-8.94-6.79c-2.06-1.4-3.13-.62-4.34-1-1.52-.52-2.26-2.63-2.61-4-.75-3,.57-7.83.51-9.66-.06-2.06-2.61.81-1-7.39A31.54,31.54,0,1,0,15.43,6.87a28,28,0,0,1,10.22-3.8,26.69,26.69,0,0,1,9.78.21,15.38,15.38,0,0,0,2.63,0c2.8.05,6,2.18,8.34,4,1.59,1.26,2.41,3.38,3.16,4.13.94,1,1,.14,2.09.92,2.24,1.62,6.85,10.71,6.6,13.44-.09.93-.65.94-.69,1.87s.49,2.5.43,3.39c-.39,6.13-3,5.78-4,10.78-.15.85-.07,3.42-.3,4.76a3.15,3.15,0,0,1-.87,1.73A11.18,11.18,0,0,1,47.26,51Z" fill-rule="evenodd" fill="url(#radial-gradient-3)" style="mix-blend-mode:multiply"/><path d="M5.16,27.87c.36.49,1.1.67,1.38,1.22a33.4,33.4,0,0,1,1.74,6.34c0,.57-.53,1.06-.57,1.63-.1,1.63,2,4.12,3.17,3.43.71-.44,1.12-1.28,1.84-1.69s2,.15,2.61,0a.62.62,0,0,0,.3-.61,2.57,2.57,0,0,0-.2-.77,4.27,4.27,0,0,1,.66-4.6,27.94,27.94,0,0,1,5.88-5c2-1.34,4.87-1.71,6.49-1.88C29.52,25.83,30,25,29,24a17.94,17.94,0,0,1-5.09-6.64c-.5-1.18-.34-4.55.46-5.62a8.72,8.72,0,0,1,6.59-3.68c2.75,0,6.58,1.36,9.17,2.38,2.31.91,2.72.7,3,.27s-.44-1.9-2.34-3.54C35.43,2.62,29.54,2.68,23,4.77c-.94.3-7.18,3-7,4.5,0,.12,2.42,2.93,2.76,3.57a3.21,3.21,0,0,1,.36,1.69,22.26,22.26,0,0,1-2.91,9.91,2,2,0,0,1-1.18.82c-1.84.56-6.26,1.55-8.17,1.33-.55-.06-1-.87-1.49-.72-.37.12-.41,1.78-.25,2ZM42.91,12.8a10.6,10.6,0,0,0,2,3.55.71.71,0,0,0,.93,0c.83-1-.42-3.93-1-4.8s-2,.43-1.88,1.22Zm3.56,4.77a1,1,0,0,1,.47.7,2.3,2.3,0,0,1-.33,1.21,1,1,0,0,1-.61.57.62.62,0,0,1-.6-.33,3.09,3.09,0,0,1-.34-1.58.94.94,0,0,1,.5-.81,1,1,0,0,1,.91.24ZM36.58,27.74a.32.32,0,0,0,0,.42,8.86,8.86,0,0,0,4,2c1.47.26,1.54-2.05,1-2.59a2,2,0,0,0-1.35-.41c-.78,0-3.13,0-3.68.62Z" fill-rule="evenodd" fill="url(#radial-gradient-4)" style="mix-blend-mode:screen"/><path d="M59.36,21.07a47.61,47.61,0,0,0,4.45-4.42,14.24,14.24,0,0,0-4-4.28,5.75,5.75,0,0,0-1.91.17,58.43,58.43,0,0,0,1.5,8.53Z" fill-rule="evenodd" fill="url(#radial-gradient-5)"/><path d="M63.81,16.65a47.61,47.61,0,0,1-4.45,4.42,32.76,32.76,0,0,0,5.3,6.2,7.51,7.51,0,0,0,1.74-2.46,13.41,13.41,0,0,0,.42-2.36,12.9,12.9,0,0,0-3-5.8Z" fill-rule="evenodd" fill="url(#radial-gradient-6)"/><path d="M59.77,12.37a14.24,14.24,0,0,1,4,4.28,12.9,12.9,0,0,1,3,5.8,15.26,15.26,0,0,0-.71-3.26,19.61,19.61,0,0,0-3.33-5,10.21,10.21,0,0,0-3-1.8Z" fill-rule="evenodd" fill="url(#radial-gradient-7)"/><path d="M60.34,42.8a31.48,31.48,0,0,1,1.86-6,26,26,0,0,0-4.43,4.94,9.26,9.26,0,0,0,2.57,1Z" fill-rule="evenodd" fill="url(#radial-gradient-8)"/><path d="M60.34,42.8a9.26,9.26,0,0,1-2.57-1,15,15,0,0,0-1.41,4,15.45,15.45,0,0,0,4-.67,15.72,15.72,0,0,1,0-2.28Z" fill-rule="evenodd" fill="url(#radial-gradient-9)"/><path d="M60.39,45.08a15.45,15.45,0,0,1-4,.67,14.62,14.62,0,0,0,0,3.17,23.27,23.27,0,0,1,4.55-2.06,7.92,7.92,0,0,1-.53-1.78Z" fill-rule="evenodd" fill="url(#radial-gradient-10)"/><path d="M60.92,46.86a23.27,23.27,0,0,0-4.55,2.06,11.4,11.4,0,0,0,3.25,1.58,13.13,13.13,0,0,0,3.27-1.63,9.16,9.16,0,0,1-2-2Z" fill-rule="evenodd" fill="url(#radial-gradient-11)"/><path d="M60.39,45.08a7.92,7.92,0,0,0,.53,1.78,9.16,9.16,0,0,0,2,2,24.42,24.42,0,0,0,3.88-9.07A9.32,9.32,0,0,0,65,35.24a14,14,0,0,0-2.82,1.57,31.48,31.48,0,0,0-1.86,6,15.72,15.72,0,0,0,0,2.28Z" fill-rule="evenodd" fill="url(#radial-gradient-12)"/><path d="M26.73,2.15A9.27,9.27,0,0,0,25.34,0,5.42,5.42,0,0,0,23.5.66a12.94,12.94,0,0,0-.66,2.87,25.32,25.32,0,0,1,3.89-1.38Z" fill-rule="evenodd" fill="url(#radial-gradient-13)"/><path d="M25.34,0a9.27,9.27,0,0,1,1.39,2.15,29.64,29.64,0,0,1,3.61-.26h.32a7.31,7.31,0,0,0-1-1.48A22.09,22.09,0,0,0,25.34,0Z" fill-rule="evenodd" fill="url(#radial-gradient-14)"/><path d="M30.34,1.89a29.64,29.64,0,0,0-3.61.26,25.32,25.32,0,0,0-3.89,1.38,31.49,31.49,0,0,1,7.5-1.64Z" fill-rule="evenodd" fill="url(#radial-gradient-15)"/><path d="M44.87,44.75l5.92-6.89a21,21,0,0,1,2.31,3.63,8,8,0,0,1,.23,2.79,7.55,7.55,0,0,1-1.2,1.66,8.21,8.21,0,0,1-3.33,1.21,2.27,2.27,0,0,1-1.37-.39c-.91-.59-1.7-1.34-2.56-2Z" fill-rule="evenodd" fill="url(#radial-gradient-16)" style="mix-blend-mode:multiply"/><path d="M45.44,30.4l3.2-6.4a10.17,10.17,0,0,1,2.49,2.13,6.58,6.58,0,0,1,.77,2.11,6.11,6.11,0,0,1-.58,1.54A6.52,6.52,0,0,1,49,31.43a1.72,1.72,0,0,1-1.14,0c-.83-.26-1.61-.67-2.41-1Z" fill-rule="evenodd" fill="url(#radial-gradient-17)" style="mix-blend-mode:multiply"/><path d="M44.53,29.5a12.51,12.51,0,0,0,3.84-.95,9.08,9.08,0,0,0,.92-1.88,17.59,17.59,0,0,0-1.61-2.93,8.32,8.32,0,0,0-1.75,1.67,17.26,17.26,0,0,0-1.4,4.09Z" fill-rule="evenodd" fill="url(#radial-gradient-18)"/><path d="M48.37,28.55a12.51,12.51,0,0,1-3.84.95,3.14,3.14,0,0,0,1,1,12.15,12.15,0,0,0,2.62,0,7.48,7.48,0,0,0,.21-1.88Z" fill-rule="evenodd" fill="url(#radial-gradient-19)"/><path d="M48.37,28.55a7.48,7.48,0,0,1-.21,1.88,7.62,7.62,0,0,0,2.08-2,12.06,12.06,0,0,0,.13-2,2.64,2.64,0,0,0-1.08.29,9.08,9.08,0,0,1-.92,1.88Z" fill-rule="evenodd" fill="url(#radial-gradient-20)"/><path d="M47.68,23.74a17.59,17.59,0,0,1,1.61,2.93,2.64,2.64,0,0,1,1.08-.29,9,9,0,0,0-.93-1.75,2.35,2.35,0,0,0-1.76-.89Z" fill-rule="evenodd" fill="url(#radial-gradient-21)"/><path d="M53.32,57.3a51,51,0,0,0-7.81-5.38L32.58,64.23h1A31.42,31.42,0,0,0,53.32,57.3Z" fill-rule="evenodd" fill="url(#radial-gradient-22)" style="mix-blend-mode:multiply"/><path d="M29.58,60.39a19.74,19.74,0,0,0,.68-3.21,16.75,16.75,0,0,1-3.08-1.63,15.69,15.69,0,0,0,2.4,4.84Z" fill-rule="evenodd" fill="url(#radial-gradient-23)"/><path d="M30.26,57.18c.75.15,5.3.41,6.39.52A44.12,44.12,0,0,0,44,53.34a8.07,8.07,0,0,1-.58-1.78c-5.19,0-12.67,1.5-16.22,4a16.75,16.75,0,0,0,3.08,1.63Z" fill-rule="evenodd" fill="url(#radial-gradient-24)"/><path d="M44,53.34a44.12,44.12,0,0,1-7.33,4.36c3.94,2.43,8.15,4.12,11.41,4.08a20.53,20.53,0,0,0,1.41-2A64.64,64.64,0,0,1,44,53.34Z" fill-rule="evenodd" fill="url(#radial-gradient-25)"/><path d="M44,53.34a64.64,64.64,0,0,0,5.49,6.4,11.81,11.81,0,0,0,.42-1.5,12.12,12.12,0,0,0-.74-2.69,24.84,24.84,0,0,0-3.64-3.63,17.37,17.37,0,0,0-2.11-.36A8.07,8.07,0,0,0,44,53.34Z" fill-rule="evenodd" fill="url(#radial-gradient-26)"/><path d="M48.06,61.78c-3.26,0-7.47-1.65-11.41-4.08-1.09-.11-5.64-.37-6.39-.52a19.74,19.74,0,0,1-.68,3.21,22.86,22.86,0,0,0,4,4.77,22.36,22.36,0,0,0,14.46-3.38Z" fill-rule="evenodd" fill="url(#radial-gradient-27)"/><path d="M29.93,64a13.78,13.78,0,0,1-3-3l-3.75,1.47A31.1,31.1,0,0,0,29.93,64Z" fill-rule="evenodd" fill="url(#radial-gradient-28)" style="mix-blend-mode:multiply"/><path d="M17.21,60.49a16,16,0,0,0,2.9.71A28.68,28.68,0,0,0,21.17,58a8.56,8.56,0,0,0-3.19.64,6.09,6.09,0,0,0-.77,1.86Z" fill-rule="evenodd" fill="url(#radial-gradient-29)"/><path d="M20.11,61.2a16,16,0,0,1-2.9-.71A8.44,8.44,0,0,0,19,63.15,19.74,19.74,0,0,0,22.15,65a13.5,13.5,0,0,1-2-3.78Z" fill-rule="evenodd" fill="url(#radial-gradient-30)"/><path d="M20.11,61.2a13.5,13.5,0,0,0,2,3.78,8.64,8.64,0,0,0,2-.57,12.78,12.78,0,0,0,2.57-2A4.44,4.44,0,0,0,26.9,61a52,52,0,0,0-5.73-3,28.68,28.68,0,0,1-1.06,3.21Z" fill-rule="evenodd" fill="url(#radial-gradient-31)"/><path d="M45.49,8.15a52.84,52.84,0,0,1,8.63.6,31.45,31.45,0,0,0-9.69-5.69l1.06,5.09Z" fill-rule="evenodd" fill="url(#radial-gradient-32)" style="mix-blend-mode:multiply"/><path d="M44.07,7.48A16.84,16.84,0,0,1,40,4.18,32.45,32.45,0,0,0,43.35,8a2.84,2.84,0,0,0,.72-.51Z" fill-rule="evenodd" fill="url(#radial-gradient-33)"/><path d="M47.35,6.82a16.71,16.71,0,0,1-3.28.66,2.84,2.84,0,0,1-.72.51,19.61,19.61,0,0,0,4.27.08,9,9,0,0,1-.27-1.25Z" fill-rule="evenodd" fill="url(#radial-gradient-34)"/><path d="M47.35,6.82a9,9,0,0,0,.27,1.25A11.43,11.43,0,0,0,49.14,6a5.86,5.86,0,0,1-1.2-.3,6.7,6.7,0,0,0-.59,1.13Z" fill-rule="evenodd" fill="url(#radial-gradient-35)"/><path d="M46.82,2.1a33.94,33.94,0,0,0,1.12,3.59,5.86,5.86,0,0,0,1.2.3A16.82,16.82,0,0,0,47.66.93a2.44,2.44,0,0,0-.86-.5,9.33,9.33,0,0,0,0,1.67Z" fill-rule="evenodd" fill="url(#radial-gradient-36)"/><path d="M42,1.46a37.81,37.81,0,0,1,4.83.64,9.33,9.33,0,0,1,0-1.67,14.78,14.78,0,0,0-4.28.16,16.09,16.09,0,0,0-2.78,1.25A12.82,12.82,0,0,1,42,1.46Z" fill-rule="evenodd" fill="url(#radial-gradient-37)"/><path d="M46.82,2.1A37.81,37.81,0,0,0,42,1.46a12.82,12.82,0,0,0-2.25.38A9.31,9.31,0,0,0,40,4.18a16.84,16.84,0,0,0,4.12,3.3,16.71,16.71,0,0,0,3.28-.66,6.7,6.7,0,0,1,.59-1.13A33.94,33.94,0,0,1,46.82,2.1Z" fill-rule="evenodd" fill="url(#radial-gradient-38)"/><path d="M22.23,54.75A14.44,14.44,0,0,0,25.59,51a10,10,0,0,1,2.8-.63,34.18,34.18,0,0,0,6.08,1.33,24.25,24.25,0,0,0,10.06-4,22.68,22.68,0,0,0,3.37-4.75,19.57,19.57,0,0,0-.35-6.08c-3-2.6-6.64-4.14-9.71-6.12-5.81,4.08-11.43,8-17.08,11.93,3.85,7.68,2.93,8-2.18,1.51L8.19,51.44a32.32,32.32,0,0,0,5.8,6,49.78,49.78,0,0,0,8.24-2.69Z" fill-rule="evenodd" fill="url(#radial-gradient-39)" style="mix-blend-mode:multiply"/><path d="M29.91,27.54a21.1,21.1,0,0,0-5.09,1.38A30.16,30.16,0,0,0,17.9,34.1a11.63,11.63,0,0,0-.65,3,26.9,26.9,0,0,0,5.57,8.74,37.51,37.51,0,0,0,9.37,2.81A26.1,26.1,0,0,0,39.89,45a18.76,18.76,0,0,0,3.59-6.31,15.26,15.26,0,0,0,.27-2,35,35,0,0,0-5.86-5.93,48.07,48.07,0,0,0-8-3.26Z" fill="#7a369e" fill-rule="evenodd"/><path d="M22.82,45.87a8.85,8.85,0,0,0,2.6-2.44,48.08,48.08,0,0,0-8.17-6.3,26.9,26.9,0,0,0,5.57,8.74Z" fill-rule="evenodd" fill="url(#radial-gradient-40)"/><path d="M25.42,43.43a8.85,8.85,0,0,1-2.6,2.44,37.51,37.51,0,0,0,9.37,2.81,10,10,0,0,0-.94-3.93,24.14,24.14,0,0,1-5.83-1.32Z" fill-rule="evenodd" fill="url(#radial-gradient-41)"/><path d="M34.29,41.1a19.91,19.91,0,0,1-3,3.65,10,10,0,0,1,.94,3.93A26.1,26.1,0,0,0,39.89,45a18.76,18.76,0,0,0,3.59-6.31,15.26,15.26,0,0,0,.27-2,12.86,12.86,0,0,1-3.59.15,25.56,25.56,0,0,1-5.87,4.22Z" fill-rule="evenodd" fill="url(#radial-gradient-42)"/><path d="M32.82,34.21a36.47,36.47,0,0,0,1.47,6.89,25.56,25.56,0,0,0,5.87-4.22q-3.73-1.16-7.34-2.67Z" fill-rule="evenodd" fill="url(#radial-gradient-43)"/><path d="M32.82,34.21q3.6,1.51,7.34,2.67a12.86,12.86,0,0,0,3.59-.15,35,35,0,0,0-5.86-5.93,48.07,48.07,0,0,0-8-3.26,21.1,21.1,0,0,0-5.09,1.38,46,46,0,0,0,8,5.29Z" fill-rule="evenodd" fill="url(#radial-gradient-44)"/><path d="M34.29,41.1a36.47,36.47,0,0,1-1.47-6.89,46,46,0,0,1-8-5.29A30.16,30.16,0,0,0,17.9,34.1a11.63,11.63,0,0,0-.65,3,48.08,48.08,0,0,1,8.17,6.3,24.14,24.14,0,0,0,5.83,1.32,19.91,19.91,0,0,0,3-3.65Z" fill-rule="evenodd" fill="url(#radial-gradient-45)"/><path d="M13.81,41.05c-1.14.48-6.05,2.86-8,4.62a30.44,30.44,0,0,1-.31,6.73,7.28,7.28,0,0,0,.9,1,10.37,10.37,0,0,0,4.34-.82A5.25,5.25,0,0,0,12.22,51a30.54,30.54,0,0,0,1.52-3,26.5,26.5,0,0,0,.07-7Z" fill-rule="evenodd" fill="url(#radial-gradient-46)"/><path d="M15.53,50.65a13.71,13.71,0,0,0-3.31.36,5.25,5.25,0,0,1-1.47,1.53,10.37,10.37,0,0,1-4.34.82,22.22,22.22,0,0,0,4.9,3.06,14.28,14.28,0,0,0,3.82-.5,30.6,30.6,0,0,0,4.58-2.82,17,17,0,0,0-1.42-1.89c-.95-.23-1.86-.4-2.76-.56Z" fill-rule="evenodd" fill="url(#radial-gradient-47)"/><path d="M12.22,51a13.71,13.71,0,0,1,3.31-.36,18,18,0,0,1-1.79-2.6,30.54,30.54,0,0,1-1.52,3Z" fill-rule="evenodd" fill="url(#radial-gradient-48)"/><path d="M21.34,48.79a14.29,14.29,0,0,0-3.05,2.42,17,17,0,0,1,1.42,1.89l0,0a14.47,14.47,0,0,0,1.61-4.29Z" fill-rule="evenodd" fill="url(#radial-gradient-49)"/><path d="M18.29,51.21a14.29,14.29,0,0,1,3.05-2.42,26,26,0,0,0-3.29-5.31,31.46,31.46,0,0,0-2.56-2,4.86,4.86,0,0,0-1.68-.38,26.5,26.5,0,0,1-.07,7,18,18,0,0,0,1.79,2.6c.9.16,1.81.33,2.76.56Z" fill-rule="evenodd" fill="url(#radial-gradient-50)"/><path d="M51.15,40.58c-.17-.72-.59-2.35-.36-2.72a13.25,13.25,0,0,1,1,2.65,1.79,1.79,0,0,0-.61.07Z" fill-rule="evenodd" fill="url(#radial-gradient-51)"/><path d="M49.9,43.16a17.06,17.06,0,0,0,1.25-2.58,1.79,1.79,0,0,1,.61-.07,17.51,17.51,0,0,1-.5,3.08,9,9,0,0,0-1.36-.43Z" fill-rule="evenodd" fill="url(#radial-gradient-52)"/><path d="M49.9,43.16a9,9,0,0,1,1.36.43,11.73,11.73,0,0,1-2.12,2.21,12.37,12.37,0,0,1,0-2.11,3.18,3.18,0,0,0,.74-.53Z" fill-rule="evenodd" fill="url(#radial-gradient-53)"/><path d="M49.16,43.69a12.37,12.37,0,0,0,0,2.11,11.67,11.67,0,0,1-1.37.72,23.31,23.31,0,0,1-2.9-1.77,6.25,6.25,0,0,1-.44-1,7.33,7.33,0,0,0,1.49-1,7,7,0,0,0,3.24.94Z" fill-rule="evenodd" fill="url(#radial-gradient-54)"/><path d="M46.87,38.9a17,17,0,0,0-.95,3.85,7.33,7.33,0,0,1-1.49,1,36.76,36.76,0,0,1,2.06-5.12l.38.3Z" fill-rule="evenodd" fill="url(#radial-gradient-55)"/><path d="M46.87,38.9l-.38-.3a9.15,9.15,0,0,1,2.25-1.51,18.89,18.89,0,0,0-1.87,1.81Z" fill-rule="evenodd" fill="url(#radial-gradient-56)"/><path d="M46.87,38.9a18.89,18.89,0,0,1,1.87-1.81,9.2,9.2,0,0,1,2,.77c-.23.37.19,2,.36,2.72a17.06,17.06,0,0,1-1.25,2.58,3.18,3.18,0,0,1-.74.53,7,7,0,0,1-3.24-.94,17,17,0,0,1,.95-3.85Z" fill-rule="evenodd" fill="url(#radial-gradient-57)"/><path d="M4.64,24.6A6.65,6.65,0,0,0,8,26.37a26.87,26.87,0,0,0,9.17-1.91c1.5-2.23,2-6.15,2.17-9.18a10.76,10.76,0,0,0-1.78-3.17c-3.81,4.5-9.09,8-12.9,12.49Z" fill-rule="evenodd" fill="url(#radial-gradient-58)" style="mix-blend-mode:multiply"/><path d="M8.16,25.78a14,14,0,0,1-2.28-2.33A10.88,10.88,0,0,1,2.42,22.3a12.69,12.69,0,0,0,3.69,3.32,10.07,10.07,0,0,0,2.05.16Z" fill-rule="evenodd" fill="url(#radial-gradient-59)"/><path d="M5.88,23.45a14,14,0,0,0,2.28,2.33c1.52-.16,6.67-2,7.46-2.63a14.64,14.64,0,0,1-2.19-3.68,50.16,50.16,0,0,1-7.55,4Z" fill-rule="evenodd" fill="url(#radial-gradient-60)"/><path d="M13.43,19.47a14.64,14.64,0,0,0,2.19,3.68,24.94,24.94,0,0,0,2.81-8,8.42,8.42,0,0,0-.25-1.87A19.26,19.26,0,0,0,16.83,11a45.54,45.54,0,0,1-3.4,8.47Z" fill-rule="evenodd" fill="url(#radial-gradient-61)"/><path d="M5.88,23.45a50.16,50.16,0,0,0,7.55-4A45.54,45.54,0,0,0,16.83,11a18.34,18.34,0,0,0-3.78-3,27.43,27.43,0,0,0-6.84,4.41,27.47,27.47,0,0,0-4,6.48,13.29,13.29,0,0,0,.23,3.39,10.88,10.88,0,0,0,3.46,1.15Z" fill-rule="evenodd" fill="url(#radial-gradient-62)"/><path d="M2,32.69a31.92,31.92,0,0,0,.69,6.6,19.89,19.89,0,0,0,6.41-1.78,12.63,12.63,0,0,0-3.8-8.89l-3.15,1c-.1,1-.15,2.06-.15,3.1Z" fill-rule="evenodd" fill="url(#radial-gradient-63)" style="mix-blend-mode:multiply"/><path d="M1.08,37.89q.73.6,1.5,1.11a3.93,3.93,0,0,0,.43.18,2.69,2.69,0,0,1-.77.25,6.25,6.25,0,0,1-1.16-1.54Z" fill-rule="evenodd" fill="url(#radial-gradient-64)"/><path d="M2.58,39a10.71,10.71,0,0,1,1-2.87,24.5,24.5,0,0,0,3.83,0,15.85,15.85,0,0,1-4.45,3A3.93,3.93,0,0,1,2.58,39Z" fill-rule="evenodd" fill="url(#radial-gradient-65)"/><path d="M3.63,36.13a10.71,10.71,0,0,0-1,2.87q-.77-.51-1.5-1.11A29.7,29.7,0,0,1,0,34.32c0-1.52.05-3,.17-4.56a5.94,5.94,0,0,1,1.27-.86A25.71,25.71,0,0,0,4.08,29a1.19,1.19,0,0,0,.4.25A4.18,4.18,0,0,0,3.3,33.34a4.84,4.84,0,0,0,.33,2.79Z" fill-rule="evenodd" fill="url(#radial-gradient-66)"/><path d="M3.63,36.13a4.84,4.84,0,0,1-.33-2.79,4.18,4.18,0,0,1,1.18-4.12,13.05,13.05,0,0,0,1.33-.07c.38.84,1.73,5,1.65,7a24.5,24.5,0,0,1-3.83,0Z" fill-rule="evenodd" fill="url(#radial-gradient-67)"/><path d="M5.81,29.15a13.05,13.05,0,0,1-1.33.07,1.19,1.19,0,0,1-.4-.25,9.84,9.84,0,0,1,1.24-.35,3.5,3.5,0,0,1,.49.53Z" fill-rule="evenodd" fill="url(#radial-gradient-68)"/><path d="M5.32,28.62A9.84,9.84,0,0,0,4.08,29a25.71,25.71,0,0,1-2.64-.07c.7-.35,1.42-.67,2.15-1a17.78,17.78,0,0,1,1.73.68Z" fill-rule="evenodd" fill="url(#radial-gradient-69)"/><path d="M24.48,16.86a17.07,17.07,0,0,1,.29-4.52,20.42,20.42,0,0,0,1.69,4.07,10.05,10.05,0,0,0-2,.45Z" fill-rule="evenodd" fill="url(#radial-gradient-70)"/><path d="M24.48,16.86a10.05,10.05,0,0,1,2-.45,26.08,26.08,0,0,0,3.37,2.88,23.1,23.1,0,0,1-1.51,3.26,40.33,40.33,0,0,1-3.84-5.69Z" fill-rule="evenodd" fill="url(#radial-gradient-71)"/><path d="M28.32,22.55a23.1,23.1,0,0,0,1.51-3.26A23.68,23.68,0,0,0,34.92,18a57.39,57.39,0,0,0,5.24,7.77,16.39,16.39,0,0,1-3.25.94,33.56,33.56,0,0,1-8.59-4.2Z" fill-rule="evenodd" fill="url(#radial-gradient-72)"/><path d="M40.16,25.81A57.39,57.39,0,0,1,34.92,18l2-2.32a18.4,18.4,0,0,1,4,1,22.35,22.35,0,0,1,3.51,3.86,17.41,17.41,0,0,1-4.32,5.27Z" fill-rule="evenodd" fill="url(#radial-gradient-73)"/><path d="M44.48,20.54A22.35,22.35,0,0,0,41,16.68,18.59,18.59,0,0,0,41.11,12a38,38,0,0,1,3.37,8.59Z" fill-rule="evenodd" fill="url(#radial-gradient-74)"/><path d="M41.11,12A18.59,18.59,0,0,1,41,16.68a18.4,18.4,0,0,0-4-1,23.86,23.86,0,0,0-2.46-5.09,18.36,18.36,0,0,0-4.33-1.7,37.66,37.66,0,0,1,4.42.66c2,.57,4.44,1.59,6.56,2.36Z" fill-rule="evenodd" fill="url(#radial-gradient-75)"/><path d="M34.46,10.63a23.86,23.86,0,0,1,2.46,5.09l-2,2.32a23.68,23.68,0,0,1-5.09,1.25,26.08,26.08,0,0,1-3.37-2.88,20.42,20.42,0,0,1-1.69-4.07,21,21,0,0,1,5.36-3.41,18.36,18.36,0,0,1,4.33,1.7Z" fill-rule="evenodd" fill="url(#radial-gradient-76)"/><path d="M28.66,18.43a2.72,2.72,0,0,1,2.65.73c.16.32-1.36,1.17-1.81,1.08s-1.11-1.51-.84-1.81Z" fill="#796ae5" fill-rule="evenodd" style="mix-blend-mode:screen"/><path d="M28.58,18.4a3.08,3.08,0,0,1,2.53.7c.14.31-1.24,1.17-1.66,1.09s-1.12-1.51-.87-1.79Z" fill-rule="evenodd" fill="url(#radial-gradient-77)"/><path d="M32.82,34.21a46,46,0,0,1-8-5.29A30.16,30.16,0,0,0,17.9,34.1a11.63,11.63,0,0,0-.65,3,53,53,0,0,1,5.3,3.75C25,41,31.57,36.94,32.82,34.21Z" fill-rule="evenodd" opacity="0.75" fill="url(#radial-gradient-78)" style="mix-blend-mode:screen"/><path d="M5.88,23.45a50.16,50.16,0,0,0,7.55-4A45.54,45.54,0,0,0,16.83,11a18.34,18.34,0,0,0-3.78-3,27.43,27.43,0,0,0-6.84,4.41,27.47,27.47,0,0,0-4,6.48,13.29,13.29,0,0,0,.23,3.39,10.88,10.88,0,0,0,3.46,1.15Z" fill-rule="evenodd" fill="url(#radial-gradient-79)" style="mix-blend-mode:screen"/><path d="M34.46,10.63a23.86,23.86,0,0,1,2.46,5.09l-2,2.32a23.68,23.68,0,0,1-5.09,1.25,26.08,26.08,0,0,1-3.37-2.88,20.42,20.42,0,0,1-1.69-4.07,21,21,0,0,1,5.36-3.41,18.36,18.36,0,0,1,4.33,1.7Z" fill-rule="evenodd" fill="url(#radial-gradient-80)" style="mix-blend-mode:screen"/></g></g></g></svg>