<svg xmlns="http://www.w3.org/2000/svg" xmlns:xlink="http://www.w3.org/1999/xlink" width="96.38" height="61.1" viewBox="0 0 96.38 61.1"><defs><linearGradient id="linear-gradient" x1="-1.18" y1="37.49" x2="93.66" y2="17.33" gradientUnits="userSpaceOnUse"><stop offset="0" stop-color="#87e300"/><stop offset="1" stop-color="#13a300"/></linearGradient><radialGradient id="radial-gradient" cx="45.21" cy="30.55" r="30.55" gradientUnits="userSpaceOnUse"><stop offset="0" stop-color="#fcfc49"/><stop offset="0.14" stop-color="#cccc3b"/><stop offset="0.38" stop-color="#858526"/><stop offset="0.59" stop-color="#4c4c16"/><stop offset="0.77" stop-color="#23230a"/><stop offset="0.91" stop-color="#090903"/><stop offset="1"/></radialGradient><radialGradient id="radial-gradient-2" cx="36.99" cy="21.79" r="43.38" gradientUnits="userSpaceOnUse"><stop offset="0" stop-color="#23d1d1"/><stop offset="0.12" stop-color="#1dc5c5"/><stop offset="0.34" stop-color="#0da5a5"/><stop offset="0.5" stop-color="#008a8a"/><stop offset="0.92" stop-color="#004242"/></radialGradient><radialGradient id="radial-gradient-3" cx="38.48" cy="23.2" r="42.15" gradientUnits="userSpaceOnUse"><stop offset="0" stop-color="#dede00"/><stop offset="0.15" stop-color="#d2d200"/><stop offset="0.42" stop-color="#b2b200"/><stop offset="0.47" stop-color="#abab00"/><stop offset="0.51" stop-color="#a5a500"/><stop offset="0.77" stop-color="#7d7d00"/><stop offset="0.91" stop-color="#6e6e00"/></radialGradient><radialGradient id="radial-gradient-4" cx="49.78" cy="35.95" r="30.12" gradientUnits="userSpaceOnUse"><stop offset="0.04"/><stop offset="0.84"/><stop offset="0.87" stop-color="#2f2f16"/><stop offset="0.92" stop-color="#6f6f34"/><stop offset="0.96" stop-color="#9d9d4a"/><stop offset="0.98" stop-color="#baba57"/><stop offset="1" stop-color="#c5c55c"/></radialGradient><radialGradient id="radial-gradient-5" cx="43.5" cy="24.55" r="37.65" gradientUnits="userSpaceOnUse"><stop offset="0.61" stop-color="#fff"/><stop offset="0.66" stop-color="#fdfdfb"/><stop offset="0.71" stop-color="#f5f5ee"/><stop offset="0.76" stop-color="#e9e9da"/><stop offset="0.82" stop-color="#d8d8bd"/><stop offset="0.87" stop-color="#c2c297"/><stop offset="0.92" stop-color="#a8a869"/><stop offset="0.98" stop-color="#888834"/><stop offset="1" stop-color="#7a7a1b"/></radialGradient><radialGradient id="radial-gradient-6" cx="23.18" cy="11.48" r="89.49" gradientUnits="userSpaceOnUse"><stop offset="0" stop-color="#848431"/><stop offset="1" stop-color="#fff"/></radialGradient><radialGradient id="radial-gradient-7" cx="16.23" cy="8.91" r="48.01" gradientUnits="userSpaceOnUse"><stop offset="0" stop-color="#c5c55c"/><stop offset="1" stop-color="#000a00"/></radialGradient><radialGradient id="radial-gradient-8" cx="35.91" cy="17.62" r="38.46" gradientUnits="userSpaceOnUse"><stop offset="0" stop-color="#72d6d3"/><stop offset="1"/></radialGradient><linearGradient id="linear-gradient-2" x1="1.6" y1="51.2" x2="97.43" y2="30.83" xlink:href="#linear-gradient"/><radialGradient id="New_Gradient_Swatch_67" cx="24.65" cy="77.86" r="53.5" gradientUnits="userSpaceOnUse"><stop offset="0" stop-color="#093"/><stop offset="1" stop-color="#fff"/></radialGradient><radialGradient id="radial-gradient-9" cx="14.77" cy="53.37" r="39.65" gradientUnits="userSpaceOnUse"><stop offset="0" stop-color="#8fe561"/><stop offset="1"/></radialGradient><radialGradient id="New_Gradient_Swatch_67-2" cx="99.84" cy="52.68" r="40.15" xlink:href="#New_Gradient_Swatch_67"/><radialGradient id="radial-gradient-10" cx="82.12" cy="48.03" r="41.71" xlink:href="#radial-gradient-9"/></defs><g style="isolation:isolate"><g id="Layer_2" data-name="Layer 2"><g id="Layer_1-2" data-name="Layer 1"><path d="M66.85,17.66l3.83,3.62c4.18,0,9.85.69,12.6,4.08L94.84,22.9c-2.22-2.31-6.44-3.74-10-4.43a63.39,63.39,0,0,0-18-.81Zm-55,22.89c-.22-4.55,6.32-8.11,10-9.56l1-4.43c-8.06,2.15-17.65,6.85-21.6,13A6.78,6.78,0,0,0,0,43.07l11.85-2.52Z" fill-rule="evenodd" fill="url(#linear-gradient)"/><circle cx="45.21" cy="30.55" r="30.55" fill="url(#radial-gradient)" style="mix-blend-mode:screen"/><path d="M22.47,26.71a3,3,0,0,1,1.79-1.35L26,40.06c-3.23-2.58-4.4-5.35-4.33-8.65a12.92,12.92,0,0,1,.77-4.7Z" fill="#6c6c2e" fill-rule="evenodd"/><path d="M23.85,44.51c-.61-2.65.75-3.54,3.49-4.18,11.84-2.77,48.09-4.82,42.62,7.1a7,7,0,0,1-1.29,1.81c-.74.79-1.61,1.43-2.39,2.17-5.71,5.38-11.08,6.92-19.14,5.5-5.58-1-21.87-6.21-23.29-12.4Z" fill="#6c6c2e" fill-rule="evenodd"/><path d="M73.91,30.81a7.67,7.67,0,0,0-1.85-3c-7.39-7.87-31-19.06-39-16.65-6,4.94-6.7,9.25-4.74,13.44,8.23,17.62,46,25.16,45.6,6.24Z" fill="#6c6c2e" fill-rule="evenodd"/><path d="M47.77,7.58A25.48,25.48,0,1,1,22.29,33.06,25.48,25.48,0,0,1,47.77,7.58Z" fill-rule="evenodd" fill="url(#radial-gradient-2)"/><path d="M35.6,9.52a5.55,5.55,0,0,0-1.09.91,1.07,1.07,0,0,0-.28.44.46.46,0,0,0,.08.32c.08.14.25.21.33.36a.28.28,0,0,1,0,.29,9.88,9.88,0,0,1-.92.91,16.67,16.67,0,0,0-1.41,1.5c-.37.5-1.09,2.34-.81,3a1.77,1.77,0,0,0,.64.79c.56.38,1.92.57,2.72,1.07a6.8,6.8,0,0,1,1.39,1.17c.34.36.49.88.85,1.22a7.32,7.32,0,0,0,3.07,1.93,12.92,12.92,0,0,1,2.41.52,8,8,0,0,1,1.77,1.36c2.25,1.88,3.15,3.47,6.46,3,1.48-.22,2.89-1.38,4.19-2.06,1.88-1,2.1-.48,3.84-.66a2.92,2.92,0,0,0,1.28-.32c1.23-.81,1.59-2,2.43-3a6.75,6.75,0,0,1,1.17-1A15.75,15.75,0,0,0,65.53,20c.91-.91-.35-3.25-.67-4.13a1.61,1.61,0,0,1-.08-.62,1,1,0,0,1,.14-.52c.22-.27.75-.37.86-.49a.33.33,0,0,0,.06-.29,1.54,1.54,0,0,0-.38-.59A20.32,20.32,0,0,0,63.3,11.6C62.16,10.78,61,10,59.77,9.3a14.18,14.18,0,0,0-2.43-1.15c-1-.34-2-.48-3-.73s-2-.62-3.06-.79a12.22,12.22,0,0,0-1.6,0c-.53,0-1.06,0-1.58-.11-.68-.08-1.62-.37-2-.34S44,6.75,43,7c-.79.17-1.61.2-2.38.43a25.43,25.43,0,0,0-2.67,1A21.58,21.58,0,0,0,35.6,9.52ZM69,17.25a8.79,8.79,0,0,0-1-1c-.12-.1-1.09-.67-.91-.05.27.91.81,1.87,1.11,2.92.23.78.18,1.37-.56,1.79s-1.48.45-1.84,1.43-.64,2.15-1,3.19A7.9,7.9,0,0,1,63,28.15a1.26,1.26,0,0,0-.32.56c-.07.61.9,1.74,1.45,1.91a5.71,5.71,0,0,0,3.39-.27c1-.32,1.36-1,2.07-1.41s2.45,0,2.92-.66a3.05,3.05,0,0,0,.38-1.43,23.17,23.17,0,0,0-.13-3c0-.18-.5-.87-.7-1.33s-.46-1.33-.51-1.42c-.2-.33-.47-.61-.66-.94s-.13-.44-.26-.62c-.53-.78-1.11-1.54-1.71-2.27ZM33.05,11.13c-.92,1-1.77,2.95-2.2,3.24-1,.68-1.62.89-2.13,2.21a2.67,2.67,0,0,0-.21,1,.47.47,0,0,0,.21.35c.82.62,1,.63.81,1.36a4.54,4.54,0,0,0-.14,1,.57.57,0,0,0,.13.4.82.82,0,0,0,.48.19c.52.05,1-.06,1.56,0s.73.42,1,.88.3.71.51,1,.42.37.55.61c.4.71.62,1.5,1,2.2a1.28,1.28,0,0,0,.55.53,6.78,6.78,0,0,0,1,.19,2.46,2.46,0,0,1,.9.45c.41.39.62.94,1,1.34a11.25,11.25,0,0,0,1.79,1.52,3.2,3.2,0,0,0,1,.32c.49.11,1,.1,1.49.23a2.78,2.78,0,0,1,1,.43,10.32,10.32,0,0,1,1.5,1.38,24.21,24.21,0,0,0,2,2.43,5.55,5.55,0,0,0,2,1,11,11,0,0,0,2.79.47,4.92,4.92,0,0,0,1.83-.25c1.22-.43,2.29-1.2,3.5-1.64a8.49,8.49,0,0,1,2.24-.45,12.59,12.59,0,0,1,2.53,0,11.23,11.23,0,0,1,2,.53c1.26.43,2.46,1,3.73,1.43A7.88,7.88,0,0,0,69.7,36a1.74,1.74,0,0,0,1.11-.42A5.16,5.16,0,0,0,72.31,33a6,6,0,0,1,.34-.67,1,1,0,0,1,.29-.36c.14-.08.36,0,.55-.05.38-.18.45-.63.42-1.14a21.66,21.66,0,0,1,.25,3.66c.06.73.33,1.76.38,2.17,0,.18-.62,1.23-.81,1.88-.26.9-.24,1.88-.55,2.77a12.87,12.87,0,0,1-1.07,1.83c-.29.52-.51,1.08-.83,1.58-1.39,2.16-3,2.42-5.33,2A39.77,39.77,0,0,0,57.68,46c-5.45.08-6.75,1.18-11.19,2.5a14.23,14.23,0,0,1-3.17.55,15,15,0,0,1-6.8-1.68,14.3,14.3,0,0,1-5.13-3.65,21.42,21.42,0,0,1-1.58-2.66c-.57-.92-1.09-1.87-1.75-2.73S26.68,36.86,26,36.11A11.87,11.87,0,0,1,25,35a3.81,3.81,0,0,1-.68-1.25,25.28,25.28,0,0,1-.73-5.5,7.78,7.78,0,0,0,.05-2.05c-.14-.54-.59-.75-.45-1.7.1-.64.42-1.23.57-1.86A10.71,10.71,0,0,1,24,21a17.07,17.07,0,0,1,1.24-2c.16-.27.34-.53.47-.81a4.08,4.08,0,0,1,.6-1.08,6.2,6.2,0,0,1,.7-.54A19.28,19.28,0,0,0,28.27,15c.31-.33.7-.57,1-.89s.39-.61.66-.86a19.57,19.57,0,0,1,3.11-2.11ZM51.34,49a3.09,3.09,0,0,0-1.78.06,13.05,13.05,0,0,0-2.77,1.33c-.68.45-1.1,1-.41,1.79,1.29,1.51,4.85,2.42,7.52,1.88,1.32-.27,2.81-1,4.07-1.23.66-.1,1.33.1,2,0a6.71,6.71,0,0,0,1.53-.56c.83-.38,2.75-1.4,3.07-2.38a1.13,1.13,0,0,0-.07-.81.72.72,0,0,0-.44-.36,18.86,18.86,0,0,0-4.95-.83,5.66,5.66,0,0,0-1.69.14c-.26.06-1.35.9-1.94,1.11-1.75.61-2.44.2-4.13-.13ZM23.85,44.24a9.41,9.41,0,0,0,2.92,2.55c.53.25,1.07.46,1.61.66,1,.37,2,.74,3,1s2.28.43,3.39.79c.55.18,1,.85,1.53.83a10.65,10.65,0,0,1,4,.73c3,1.2,5.21,2.64,8,3.94a10.72,10.72,0,0,0,2.21.77,7.86,7.86,0,0,0,2,.17,15.2,15.2,0,0,0,2.09-.43c.86-.18,1.72-.33,2.58-.55a7.14,7.14,0,0,1,1-.39,7.8,7.8,0,0,1,1.17.15,6.12,6.12,0,0,0,1.6,0,3.9,3.9,0,0,0,1.36-.62,17.87,17.87,0,0,0,1.51-1.25c.74-.59,1.5-1.17,2.24-1.75s1.26-.94,1.86-1.45a23.59,23.59,0,0,0,1.87-2.05c.25-.25.16,0,.13.06a26.8,26.8,0,0,1-1.58,2.69,8.14,8.14,0,0,1-.85.81c-2.22,2.38-5.17,5.6-8.35,6.65-.15.05-1.33.15-2,.34-.81.24-1.56.65-2.35.94a26.88,26.88,0,0,1-4,1.37c-.9.17-3.54-.39-4.69-.43s-3.07.16-3.24.08c-1.18-.49-3-1.33-4.56-1.91-.48-.19-1.46-.43-1.55-.48-.75-.45-1.39-.9-2.16-1.31-1-.53-2.1-.8-3-1.41a15.21,15.21,0,0,1-2.34-2.13,35.48,35.48,0,0,1-3.71-4,16.22,16.22,0,0,1-1.56-3.38c-.13-.3-.32-1-.22-1ZM22.47,26.71a13,13,0,0,0-1.32,3.92,12.58,12.58,0,0,0,0,1.5c0,.56-.19,1.12-.17,1.68a20.54,20.54,0,0,0,.35,3.13,16.5,16.5,0,0,0,.88,3.33c.11.25.5.26.7.45A8.29,8.29,0,0,1,24,42,16.75,16.75,0,0,0,25,43.73a3.31,3.31,0,0,0,1.19.77c.32.14.71.41,1,.25a1.19,1.19,0,0,0,.54-1,5.85,5.85,0,0,0-.47-1.6A9.43,9.43,0,0,0,26.66,40,12.42,12.42,0,0,0,25,38.21a5.33,5.33,0,0,1-.77-1c-.4-.83-.62-1.74-.95-2.6a8.38,8.38,0,0,1-.73-1.69,15.08,15.08,0,0,1,.19-2.49c0-1.17-.88-2.23-.31-3.72Z" fill-rule="evenodd" fill="url(#radial-gradient-3)"/><path d="M35.6,9.52a5.55,5.55,0,0,0-1.09.91,1.07,1.07,0,0,0-.28.44.46.46,0,0,0,.08.32c.08.14.25.21.33.36a.28.28,0,0,1,0,.29,9.88,9.88,0,0,1-.92.91,16.67,16.67,0,0,0-1.41,1.5c-.37.5-1.09,2.34-.81,3a1.77,1.77,0,0,0,.64.79c.56.38,1.92.57,2.72,1.07a6.8,6.8,0,0,1,1.39,1.17c.34.36.49.88.85,1.22a7.32,7.32,0,0,0,3.07,1.93,12.92,12.92,0,0,1,2.41.52,8,8,0,0,1,1.77,1.36c2.25,1.88,3.15,3.47,6.46,3,1.48-.22,2.89-1.38,4.19-2.06,1.88-1,2.1-.48,3.84-.66a2.92,2.92,0,0,0,1.28-.32c1.23-.81,1.59-2,2.43-3a6.75,6.75,0,0,1,1.17-1A15.75,15.75,0,0,0,65.53,20c.91-.91-.35-3.25-.67-4.13a1.61,1.61,0,0,1-.08-.62,1,1,0,0,1,.14-.52c.22-.27.75-.37.86-.49a.33.33,0,0,0,.06-.29,1.54,1.54,0,0,0-.38-.59A20.32,20.32,0,0,0,63.3,11.6C62.16,10.78,61,10,59.77,9.3a14.18,14.18,0,0,0-2.43-1.15c-1-.34-2-.48-3-.73s-2-.62-3.06-.79a12.22,12.22,0,0,0-1.6,0c-.53,0-1.06,0-1.58-.11-.68-.08-1.62-.37-2-.34S44,6.75,43,7c-.79.17-1.61.2-2.38.43a25.43,25.43,0,0,0-2.67,1A21.58,21.58,0,0,0,35.6,9.52ZM69,17.25a8.79,8.79,0,0,0-1-1c-.12-.1-1.09-.67-.91-.05.27.91.81,1.87,1.11,2.92.23.78.18,1.37-.56,1.79s-1.48.45-1.84,1.43-.64,2.15-1,3.19A7.9,7.9,0,0,1,63,28.15a1.26,1.26,0,0,0-.32.56c-.07.61.9,1.74,1.45,1.91a5.71,5.71,0,0,0,3.39-.27c1-.32,1.36-1,2.07-1.41s2.45,0,2.92-.66a3.05,3.05,0,0,0,.38-1.43,23.17,23.17,0,0,0-.13-3c0-.18-.5-.87-.7-1.33s-.46-1.33-.51-1.42c-.2-.33-.47-.61-.66-.94s-.13-.44-.26-.62c-.53-.78-1.11-1.54-1.71-2.27ZM33.05,11.13c-.92,1-1.77,2.95-2.2,3.24-1,.68-1.62.89-2.13,2.21a2.67,2.67,0,0,0-.21,1,.47.47,0,0,0,.21.35c.82.62,1,.63.81,1.36a4.54,4.54,0,0,0-.14,1,.57.57,0,0,0,.13.4.82.82,0,0,0,.48.19c.52.05,1-.06,1.56,0s.73.42,1,.88.3.71.51,1,.42.37.55.61c.4.71.62,1.5,1,2.2a1.28,1.28,0,0,0,.55.53,6.78,6.78,0,0,0,1,.19,2.46,2.46,0,0,1,.9.45c.41.39.62.94,1,1.34a11.25,11.25,0,0,0,1.79,1.52,3.2,3.2,0,0,0,1,.32c.49.11,1,.1,1.49.23a2.78,2.78,0,0,1,1,.43,10.32,10.32,0,0,1,1.5,1.38,24.21,24.21,0,0,0,2,2.43,5.55,5.55,0,0,0,2,1,11,11,0,0,0,2.79.47,4.92,4.92,0,0,0,1.83-.25c1.22-.43,2.29-1.2,3.5-1.64a8.49,8.49,0,0,1,2.24-.45,12.59,12.59,0,0,1,2.53,0,11.23,11.23,0,0,1,2,.53c1.26.43,2.46,1,3.73,1.43A7.88,7.88,0,0,0,69.7,36a1.74,1.74,0,0,0,1.11-.42A5.16,5.16,0,0,0,72.31,33a6,6,0,0,1,.34-.67,1,1,0,0,1,.29-.36c.14-.08.36,0,.55-.05.38-.18.45-.63.42-1.14a21.66,21.66,0,0,1,.25,3.66c.06.73.33,1.76.38,2.17,0,.18-.62,1.23-.81,1.88-.26.9-.24,1.88-.55,2.77a12.87,12.87,0,0,1-1.07,1.83c-.29.52-.51,1.08-.83,1.58-1.39,2.16-3,2.42-5.33,2A39.77,39.77,0,0,0,57.68,46c-5.45.08-6.75,1.18-11.19,2.5a14.23,14.23,0,0,1-3.17.55,15,15,0,0,1-6.8-1.68,14.3,14.3,0,0,1-5.13-3.65,21.42,21.42,0,0,1-1.58-2.66c-.57-.92-1.09-1.87-1.75-2.73S26.68,36.86,26,36.11A11.87,11.87,0,0,1,25,35a3.81,3.81,0,0,1-.68-1.25,25.28,25.28,0,0,1-.73-5.5,7.78,7.78,0,0,0,.05-2.05c-.14-.54-.59-.75-.45-1.7.1-.64.42-1.23.57-1.86A10.71,10.71,0,0,1,24,21a17.07,17.07,0,0,1,1.24-2c.16-.27.34-.53.47-.81a4.08,4.08,0,0,1,.6-1.08,6.2,6.2,0,0,1,.7-.54A19.28,19.28,0,0,0,28.27,15c.31-.33.7-.57,1-.89s.39-.61.66-.86a19.57,19.57,0,0,1,3.11-2.11ZM51.34,49a3.09,3.09,0,0,0-1.78.06,13.05,13.05,0,0,0-2.77,1.33c-.68.45-1.1,1-.41,1.79,1.29,1.51,4.85,2.42,7.52,1.88,1.32-.27,2.81-1,4.07-1.23.66-.1,1.33.1,2,0a6.71,6.71,0,0,0,1.53-.56c.83-.38,2.75-1.4,3.07-2.38a1.13,1.13,0,0,0-.07-.81.72.72,0,0,0-.44-.36,18.86,18.86,0,0,0-4.95-.83,5.66,5.66,0,0,0-1.69.14c-.26.06-1.35.9-1.94,1.11-1.75.61-2.44.2-4.13-.13ZM23.85,44.24a9.41,9.41,0,0,0,2.92,2.55c.53.25,1.07.46,1.61.66,1,.37,2,.74,3,1s2.28.43,3.39.79c.55.18,1,.85,1.53.83a10.65,10.65,0,0,1,4,.73c3,1.2,5.21,2.64,8,3.94a10.72,10.72,0,0,0,2.21.77,7.86,7.86,0,0,0,2,.17,15.2,15.2,0,0,0,2.09-.43c.86-.18,1.72-.33,2.58-.55a7.14,7.14,0,0,1,1-.39,7.8,7.8,0,0,1,1.17.15,6.12,6.12,0,0,0,1.6,0,3.9,3.9,0,0,0,1.36-.62,17.87,17.87,0,0,0,1.51-1.25c.74-.59,1.5-1.17,2.24-1.75s1.26-.94,1.86-1.45a23.59,23.59,0,0,0,1.87-2.05c.25-.25.16,0,.13.06a26.8,26.8,0,0,1-1.58,2.69,8.14,8.14,0,0,1-.85.81c-2.22,2.38-5.17,5.6-8.35,6.65-.15.05-1.33.15-2,.34-.81.24-1.56.65-2.35.94a26.88,26.88,0,0,1-4,1.37c-.9.17-3.54-.39-4.69-.43s-3.07.16-3.24.08c-1.18-.49-3-1.33-4.56-1.91-.48-.19-1.46-.43-1.55-.48-.75-.45-1.39-.9-2.16-1.31-1-.53-2.1-.8-3-1.41a15.21,15.21,0,0,1-2.34-2.13,35.48,35.48,0,0,1-3.71-4,16.22,16.22,0,0,1-1.56-3.38c-.13-.3-.32-1-.22-1ZM22.47,26.71a13,13,0,0,0-1.32,3.92,12.58,12.58,0,0,0,0,1.5c0,.56-.19,1.12-.17,1.68a20.54,20.54,0,0,0,.35,3.13,16.5,16.5,0,0,0,.88,3.33c.11.25.5.26.7.45A8.29,8.29,0,0,1,24,42,16.75,16.75,0,0,0,25,43.73a3.31,3.31,0,0,0,1.19.77c.32.14.71.41,1,.25a1.19,1.19,0,0,0,.54-1,5.85,5.85,0,0,0-.47-1.6A9.43,9.43,0,0,0,26.66,40,12.42,12.42,0,0,0,25,38.21a5.33,5.33,0,0,1-.77-1c-.4-.83-.62-1.74-.95-2.6a8.38,8.38,0,0,1-.73-1.69,15.08,15.08,0,0,1,.19-2.49c0-1.17-.88-2.23-.31-3.72Z" fill-rule="evenodd" fill="url(#radial-gradient-4)" style="mix-blend-mode:screen"/><path d="M53.71,8.24c1.34.95,2.78,3.19,4.13,3.88.49.24,3.59,0,3.41.89-.1.53-1.14.61-1.75.81-.82.28-.61.87-.17,1.16A40,40,0,0,1,63,17.28a11.53,11.53,0,0,1,2.09,2.21,3.09,3.09,0,0,1,.34.65l.14-.13c.91-.91-.35-3.25-.67-4.13a1.61,1.61,0,0,1-.08-.62,1,1,0,0,1,.14-.52c.22-.27.75-.37.86-.49a.33.33,0,0,0,.06-.29,1.54,1.54,0,0,0-.38-.59A20.32,20.32,0,0,0,63.3,11.6C62.16,10.78,61,10,59.77,9.3a14.18,14.18,0,0,0-2.43-1.15c-1-.34-2-.48-3-.73s-2-.62-3.06-.79a12.22,12.22,0,0,0-1.6,0c-.53,0-1.06,0-1.58-.11-.68-.08-1.62-.37-2-.34S44,6.75,43,7c-.79.17-1.61.2-2.38.43a25.43,25.43,0,0,0-2.67,1,24.35,24.35,0,0,0-2.32,1.07,28.07,28.07,0,0,1,3.53-1.14c2.87-1.07,2-.52,4.5-.83.56-.07,1-.51,1.6-.56a3.57,3.57,0,0,1,1.34.3c1.67.56,1.2.77,3.28.66a17.55,17.55,0,0,1,2.26-.25,3.19,3.19,0,0,1,1.58.55ZM68.19,19.16c.23.78.18,1.37-.56,1.79a6.59,6.59,0,0,0-1.43.77,33.73,33.73,0,0,1,2.43,2.55,2.15,2.15,0,0,1,.29,1.4c-.2,1.24-.79,2.38-1.1,3.58a10.7,10.7,0,0,0-.25,1.09c1-.32,1.36-1,2.06-1.4s2.45,0,2.92-.66a3.05,3.05,0,0,0,.38-1.43,23.17,23.17,0,0,0-.13-3c0-.18-.5-.87-.7-1.33s-.46-1.33-.51-1.42c-.2-.33-.47-.61-.66-.94s-.13-.44-.26-.62c-.53-.78-1.11-1.54-1.71-2.27a8.79,8.79,0,0,0-1-1c-.12-.1-1.09-.67-.91-.05.27.91.81,1.87,1.11,2.92Zm2.62,16.39A1.74,1.74,0,0,1,69.7,36a5.83,5.83,0,0,1-1.64-.33,5.81,5.81,0,0,1-1.18,4.27A17.1,17.1,0,0,1,64.53,42c-.65.59-1.31,1.18-1.91,1.83a15.52,15.52,0,0,0-1.69,2.31,45.16,45.16,0,0,1,5,.63c2.37.39,3.94.13,5.33-2,.32-.5.54-1.06.83-1.58a12.87,12.87,0,0,0,1.07-1.83c.31-.89.29-1.87.55-2.77.19-.65.83-1.7.81-1.88-.05-.41-.32-1.44-.38-2.17a21.66,21.66,0,0,0-.25-3.66c0,.51,0,1-.42,1.14-.19.08-.41,0-.55.05a1,1,0,0,0-.29.36,6,6,0,0,0-.34.67,5.16,5.16,0,0,1-1.5,2.52ZM64.05,48.68a17.59,17.59,0,0,0-4.31-.79l-.06.08a8.4,8.4,0,0,1-3.54,2.81c-.9.35-1.89.4-2.82.68-1.43.44-3.45,1.45-5.2,1.89A10.34,10.34,0,0,0,53.9,54c1.32-.27,2.81-1,4.07-1.23.66-.1,1.33.1,2,0a6.71,6.71,0,0,0,1.53-.56c.83-.38,2.75-1.4,3.07-2.38a1.13,1.13,0,0,0-.07-.81.72.72,0,0,0-.44-.36Zm-6.83,6c-.86.22-1.72.37-2.58.55a15.2,15.2,0,0,1-2.09.43,7.86,7.86,0,0,1-2-.17,10.72,10.72,0,0,1-2.21-.77c-.95-.45-1.82-.91-2.69-1.37-1.92-.46-3.4-1.29-5.7-1.51a19.61,19.61,0,0,1-2.3,0,13.48,13.48,0,0,1-3.54-1.32,15.46,15.46,0,0,1-3.49-2.34c-.74-.24-1.46-.52-2.19-.78-.54-.2-1.08-.41-1.61-.66a9.41,9.41,0,0,1-2.92-2.55c-.1,0,.09.67.22,1a16.22,16.22,0,0,0,1.56,3.38,35.48,35.48,0,0,0,3.71,4,15.21,15.21,0,0,0,2.34,2.13c.93.61,2,.88,3,1.41.77.41,1.41.86,2.16,1.31.09,0,1.07.29,1.55.48,1.54.58,3.38,1.42,4.56,1.91.17.08,2.16-.12,3.24-.08s3.79.6,4.69.43a26.88,26.88,0,0,0,4-1.37c.79-.29,1.54-.7,2.35-.94.63-.19,1.81-.29,2-.34,3.18-1,6.13-4.27,8.35-6.65a8.14,8.14,0,0,0,.85-.81A26.8,26.8,0,0,0,70,47.43s.12-.31-.13-.06A23.59,23.59,0,0,1,68,49.42c-.6.51-1.24,1-1.86,1.45S64.6,52,63.86,52.62a17.87,17.87,0,0,1-1.51,1.25,3.9,3.9,0,0,1-1.36.62,6.12,6.12,0,0,1-1.6,0,7.8,7.8,0,0,0-1.17-.15,7.14,7.14,0,0,0-1,.39ZM26.6,42.34c-.51-.67-1.38-1.06-1.79-1.79-1.73-3.06-2.07-4.52-2-6.94a2.67,2.67,0,0,1-.23-.69,15.08,15.08,0,0,1,.19-2.49c0-1.17-.88-2.23-.31-3.72a13,13,0,0,0-1.32,3.92,12.58,12.58,0,0,0,0,1.5c0,.56-.19,1.12-.17,1.68a20.54,20.54,0,0,0,.35,3.13,16.5,16.5,0,0,0,.88,3.33c.11.25.5.26.7.45A8.29,8.29,0,0,1,24,42,16.75,16.75,0,0,0,25,43.73a3.31,3.31,0,0,0,1.19.77c.32.14.71.41,1,.25a1.08,1.08,0,0,0,.51-.76,16.72,16.72,0,0,0-1.08-1.65Z" fill-rule="evenodd" fill="url(#radial-gradient-5)" style="mix-blend-mode:multiply"/><path d="M25.41,24.9c.4-.93,2.36.58,2.66,1,1,1.48.54,3,.92,4.56a4.6,4.6,0,0,0,1.49,2.18.34.34,0,0,1,0,.44.61.61,0,0,1-.6.05,6.53,6.53,0,0,1-3.05-2.48c-.57-1.16-.15-2.47-.44-3.32-.14-.4-.53-.65-.81-1a1.35,1.35,0,0,1-.13-1.51ZM41.68,11c-.22-.54-2.06-1.22-.92-2.42a5.41,5.41,0,0,1,1.31-.91,24.08,24.08,0,0,1,2.78-1.12c-.62.16-1.32.34-1.86.45L42.7,7a6.84,6.84,0,0,0-1.6.47c-2.22.92-4,1.86-4.37,2.59a.75.75,0,0,0-.06.13.42.42,0,0,0,.3.43,33.33,33.33,0,0,0,3.37.47c.37.05.5.19.5.34a.58.58,0,0,1-.33.43c-1.35.75-5.45,3-4.73,5.2.35,1,3.4,0,5.54,1.7.75.59,1.11,1.56,1.83,2.17,1.92,1.63,3.88-.29,6.31.39.82.23,1.38,1,2.17,1.36a4.86,4.86,0,0,0,4.95-1.06c.57-.56.24-1.62.64-2.31a3.35,3.35,0,0,1,1.08-1.07c1.32-.9,3.09-1.33,3-2.63-.06-1-1.52-2.34-1.53-3.07a10.26,10.26,0,0,1,.35-1.8,1.73,1.73,0,0,0-.7-1.53,3,3,0,0,0-.78-.54,10.68,10.68,0,0,0-1.31-.55,24.38,24.38,0,0,0-2.65-.65l.5.17c.91.3,3.08,1.11,3.48,2.35a1.34,1.34,0,0,1-.09,1c-.24.52-2.3,1.78-1.32,2.39,3.58,2.2,1.45,2-.08,3.92l-.2.27c-1.13,1.72-.11,3.14-4.11,2.76-.94-.09-2.9-.68-3.58-.64-1.38.07-2.71.59-4.09.59a3,3,0,0,1-1.58-.59c-.83-.57-.81-1.51-2.43-2-4.85-1.5-.89-3.93.22-5.58a4.25,4.25,0,0,0,.27-.46.87.87,0,0,0,0-.69ZM47,22.66c-2.12.53.75,1.78,1.47,2.32,1,.77,1.89,1.31,2.27.85s-.47-2.13-.76-2.52c-.59-.79-2-.89-3-.65Zm20.71-.12a2.34,2.34,0,0,0-.85.49,2.75,2.75,0,0,0-.22.26,2,2,0,0,0-.31.65c-.18.76,0,1.59-.26,2.33a3,3,0,0,1-.91,1.25,4.77,4.77,0,0,1-1.43.81c-.9.36.4.28,1.45.07.88-.19,2.71-.87,2.71-2,0-.71-.39-1.38-.43-2.08a1.39,1.39,0,0,1,0-.41,1.24,1.24,0,0,1,.21-.45,1.94,1.94,0,0,1,.81-.53c.5-.2,1.07-.17,1.54-.4a1.1,1.1,0,0,0,.43-.58,2.17,2.17,0,0,0,.07-.24,3.51,3.51,0,0,0,.12-.78,4.14,4.14,0,0,0,0-.79A3.4,3.4,0,0,0,70,18.57c-.33-.45-.68-.89-1-1.32l-.09-.1a20.23,20.23,0,0,1,.93,2.38,4.46,4.46,0,0,1,.15,1c0,.23,0,.46,0,.69a1,1,0,0,1-.32.75,12.88,12.88,0,0,1-1.88.6ZM32.64,25.41c-.26-.56-3.56-2.34-4.43-3.37-.39-.45-.11-1.18-.3-1.74a4,4,0,0,0-.52-.86,1.72,1.72,0,0,1-.33-.76,2.05,2.05,0,0,1,0-.49,8.47,8.47,0,0,1,1.4-3.39l-.2.19A19.28,19.28,0,0,1,27,16.57h0a2.75,2.75,0,0,0-.8,1.13,2.39,2.39,0,0,0-.16.5,9.85,9.85,0,0,0,.09,1.21,1.1,1.1,0,0,1,0,.18c-.1.8-.54,1.62-.26,2.36a8.31,8.31,0,0,0,2.42,2.54,7.35,7.35,0,0,1,1.12,1.12,6.45,6.45,0,0,1,.76,2.1v0c.28,1.14-.09,2.55.64,3.49,1,1.32,2.72,1.91,4.17,2.73a41,41,0,0,1,5.76,3.62l1.14.85a12.77,12.77,0,0,0,2.4,1.45A17.39,17.39,0,0,0,52.12,41a6.47,6.47,0,0,0,2.47-.67c.71-.42.89-.88-.32-.6s-5.61.49-8-1.41l-.05,0c-.84-.69-1.45-1.62-2.25-2.35a2.48,2.48,0,0,0-.94-.6c-3.1-.85-5.43-.09-7.5-2.9-2.64-3.57-1.7-4.37-2.9-7ZM51.46,43.78c-5-.13-5.38-.84-9.64-2-.41-.11-.86.1-1.27,0-1.22-.29-1.86-1.45-2.81-2.39a5.7,5.7,0,0,0-1-.71A4.31,4.31,0,0,0,35,38.05c-.22,0-.55,0-.61.25s.26.39.41.45c3.11,1.33,3.66,4.89,6.54,4.9.63,0,1.23-.27,1.86-.27,3.1,0,4.86,1.14,7.5,1.47.57.07,1.12-.33,1.7-.36,1-.07,2.1.16,3.14,0s2.26-.6,3.4-.83c1.87-.39,3.18.26,5,0,.41-.06.75-.42,1.16-.45,1.43-.13,2.22.41,4-.09a2.25,2.25,0,0,0,.62-.31,1.87,1.87,0,0,1,.83-.37c.29,0,.6,0,.91-.06l.13,0a2,2,0,0,0,1.7-1.56c.1-.42.15-.86.21-1.3A2.29,2.29,0,0,1,72,41c-.2.08-.41.15-.66.23-.65.19-1.36.1-2,.3l-.65.21c-1.82.63-2.26,1.21-4.89,1.23-1.77,0-3.46-.74-5.08-.81a7.3,7.3,0,0,0-2.26.35c-2,.55-2.47,1.3-5,1.23Z" fill-rule="evenodd" opacity="0.5" fill="url(#radial-gradient-6)" style="mix-blend-mode:multiply"/><path d="M33.07,22.7c-.21-.32-.32-.7-.51-1s-.42-.83-1-.88-1,.06-1.56,0a.82.82,0,0,1-.48-.19.57.57,0,0,1-.13-.4,4.54,4.54,0,0,1,.14-1c.18-.73,0-.74-.81-1.36a.56.56,0,0,1-.2-.28.07.07,0,0,0-.05,0c-.09,0-.4.28-.67.63a10.09,10.09,0,0,0-.74,1.23c-.49,1-.56,2.14-1,3.15s-1.16,1.84-1.54,2.86a11.28,11.28,0,0,0-.72,3.19,10.53,10.53,0,0,0,.34,2.95,29.64,29.64,0,0,0,1,3.15c.1.27.18.54.26.82s.38.37.55.56c.69.75,1.45,1.45,2.07,2.26s1.18,1.81,1.75,2.73l0,.06a9.38,9.38,0,0,0,1.56.69,21.52,21.52,0,0,0,4.82,1.06,12.22,12.22,0,0,0,3.62-.25c1.42-.29,2.74-.95,4.14-1.32a15.42,15.42,0,0,0,2.64-.52,13.61,13.61,0,0,0,3.2-2.3c.45-.41.63-1.06,1-1.53a11.24,11.24,0,0,1,1.21-1.18h-.4a11,11,0,0,1-2.79-.47,5.55,5.55,0,0,1-2-1,24.21,24.21,0,0,1-2-2.43,10.32,10.32,0,0,0-1.5-1.38,2.78,2.78,0,0,0-1-.43c-.48-.13-1-.12-1.49-.23a3.2,3.2,0,0,1-1-.32A11.25,11.25,0,0,1,38.12,28c-.4-.4-.61-.95-1-1.34a2.46,2.46,0,0,0-.9-.45,6.78,6.78,0,0,1-1-.19,1.28,1.28,0,0,1-.55-.53c-.41-.7-.63-1.49-1-2.2-.13-.24-.4-.38-.55-.61Zm3.2-2.46c.34.36.49.88.85,1.22a7.32,7.32,0,0,0,3.07,1.93,12.92,12.92,0,0,1,2.41.52,8,8,0,0,1,1.77,1.36c2.25,1.88,3.15,3.47,6.46,3,1.48-.22,2.89-1.38,4.19-2.06a7,7,0,0,1,.76-.36,3.45,3.45,0,0,0,2-2.12c.14-.39.27-.78.37-1.17a6.39,6.39,0,0,0,.43-2.22,10.83,10.83,0,0,0-1-3.11,9.55,9.55,0,0,0-.94-1.28,32.13,32.13,0,0,0-2-3.24,9.37,9.37,0,0,0-2.47-2.09,16.83,16.83,0,0,0-2.81-.93c-.4-.15-.77-.37-1.17-.49a9.36,9.36,0,0,0-2-.49,10.72,10.72,0,0,0-2,.08,26.54,26.54,0,0,0-5.42,1.07,14.17,14.17,0,0,0-1.44.76,10.36,10.36,0,0,0-1.6.67c-.5.33-.78.92-1.26,1.27a1.41,1.41,0,0,1-.34.19,2.88,2.88,0,0,0-.94.63,6.7,6.7,0,0,0-.8.89c-.37.5-1.09,2.34-.81,3a1.77,1.77,0,0,0,.64.79c.56.38,1.92.57,2.72,1.07a6.8,6.8,0,0,1,1.39,1.17Z" fill-rule="evenodd" fill="url(#radial-gradient-7)" style="mix-blend-mode:screen"/><g opacity="0.5" style="mix-blend-mode:screen"><path d="M36,47.7a25.57,25.57,0,0,1-2.77-1.26,8.23,8.23,0,0,1-2-1.45,7.14,7.14,0,0,1-1-1.7c-.56-1.12-1.09-2-1.61-3-.22-.41-.19-.93-.45-1.3a2.33,2.33,0,0,0-.94-.66c-.15-.08-.36-.17-.51-.09a.35.35,0,0,0-.13.41c.14.38.53.65.66,1a14.84,14.84,0,0,1,.21,1.49,5.45,5.45,0,0,0,.45,1,6,6,0,0,1,.47,1.07c.09.28,0,.58.13.85.24.66.79,1.17,1,1.84.29.9-.86.46-1.21.27-.65-.35-1.21-.84-1.84-1.21-.18-.11-.39-.26-.59-.22s-.05.24,0,.35a2.11,2.11,0,0,0,.64.93,11.64,11.64,0,0,0,1.81.6c.29.12.5.43.81.51,1.12.31,2.07,0,3.64.62.3.11.58.26.87.36a5.24,5.24,0,0,1,.88.26c.47.27.8.77,1.3,1s3,.26,3.2-.18S36.77,48.05,36,47.7ZM26.32,38c.14-.06.32-.17.34-.32A1,1,0,0,0,26.4,37c-.27-.3-.73-.37-1-.66s-.53-1.19-1.17-1.81c-.05-.05-.19-.07-.22,0A.64.64,0,0,0,24,35a9.16,9.16,0,0,0,.83,2c.12.2.45.19.61.36s.21.52.41.7A.46.46,0,0,0,26.32,38ZM48.51,48.14c-.91.28-1.76.72-2.67,1a10,10,0,0,1-1.87.38,6.07,6.07,0,0,1-1.28,0c-.64-.06-1.28-.21-1.92-.28a2.26,2.26,0,0,0-.82,0c-.29.09-.17.22-.09.26.32.14.69.25,1,.43a16.07,16.07,0,0,0,1.84,1c.2.08.52-.09.71,0a22.77,22.77,0,0,1,1.84,1.47,3.51,3.51,0,0,0,1.15.51s.17,0,0-.11a3.41,3.41,0,0,1-1-1.17,1.19,1.19,0,0,1-.06-.83,1.09,1.09,0,0,1,.4-.64,13.07,13.07,0,0,1,1.71-1c.47-.27,1-.47,1.43-.77.06,0,.1-.18,0-.21A.75.75,0,0,0,48.51,48.14Zm8.23-1.26a4.3,4.3,0,0,0-1.34-.19c-.3,0-.6.1-.9.09s-.44-.15-.66-.15a11.56,11.56,0,0,0-3.46.86c-.15.06-.36.17-.35.33s.25.1.38.08a4.39,4.39,0,0,1,1.35-.17c.23,0,.44,0,.67,0a2.44,2.44,0,0,1,.59-.07c.31.07.54.36.83.5a1.94,1.94,0,0,0,.82.3C55.38,48.49,58.56,47.62,56.74,46.88ZM34.69,23.75c-.06,0-.2,0-.2.1a2.08,2.08,0,0,0,.13.82,2.39,2.39,0,0,0,.45.79,1.48,1.48,0,0,0,1.25.32c.22,0,.22-.53.07-.67s-.61-.3-.88-.51S35,24,34.69,23.75ZM30.63,18c.16.09.18.35.17.54s-.3.63-.32,1a.54.54,0,0,0,.23.47c.51.27,1.13.28,1.64.53.27.13.41.44.66.6,1.13.68,1.78.58,2.86,1.89a6.77,6.77,0,0,0,1,1.32,3.53,3.53,0,0,0,1.53.56,8.8,8.8,0,0,1,2.17.51c.32.16.58.63.9.8a13.38,13.38,0,0,0,2.3.9,8,8,0,0,1,1.91.73c1.63,1.07,1.5,2.32,4.71,2.73,1.82.23,2.42-1,3.41-1.88a17.06,17.06,0,0,1,1.75-1.32c.33-.21.74-.27,1.07-.49.15-.1.4-.28.32-.45s-.4-.18-.6-.13a10.82,10.82,0,0,0-1.94.79c-.75.38-1.42.89-2.17,1.26a4.74,4.74,0,0,1-5.33-.3c-1.3-1-2.41-2.2-3.67-3.24a5,5,0,0,0-1.32-.85,7.44,7.44,0,0,0-1.34-.17,8.85,8.85,0,0,1-2.05-.47,8.16,8.16,0,0,1-3.77-3.35,2.14,2.14,0,0,0-.66-.74,11.36,11.36,0,0,0-1.72-.62,3.52,3.52,0,0,1-1.22-.47,1.67,1.67,0,0,1-.49-1,2.94,2.94,0,0,1,.55-1.87c.2-.27.45-.49.65-.75.05-.06.15-.16.09-.21s-.19,0-.26.09c-.33.28-.59.65-.92.93-.81.66-1.64,1.11-1.86,1.83-.05.17-.07.45.09.53C29.51,17.88,30.14,17.74,30.63,18ZM67.53,30.9c-1,.1-2.06.33-3.09.42a1.79,1.79,0,0,1-1-.06c-.24-.14-.18-.57-.4-.74-.44-.35-1.13-.34-1.51-.75-.2-.21-.07-.59,0-.85a3.68,3.68,0,0,1,.72-1c.28-.3.67-.49.94-.81A5.55,5.55,0,0,0,63.9,26a15.65,15.65,0,0,0,.72-1.49c0-.1.1-.24,0-.31s-.2,0-.27.05a8.25,8.25,0,0,0-.62.81,4.3,4.3,0,0,1-.55.65,5.81,5.81,0,0,1-1.14.76c-.63.29-1.42.28-2,.7s-.58,1.08-1,1.51c-.76.77-1.82,1.21-2.52,2a1.06,1.06,0,0,0-.19,1.13c.17.28.66.2,1,.15,1.16-.2,2.25-.75,3.41-.9a1.56,1.56,0,0,1,1,.32c.35.23.5.72.88.9a2.19,2.19,0,0,0,1.34.12c.5-.11.88-.55,1.36-.72.75-.26,1.56-.34,2.33-.56.1,0,.3-.08.25-.18S67.66,30.89,67.53,30.9ZM52,35c1.24-.22,1.15-1.23,1.69-1.67.31-.25.9-.06,1.14-.39s.51-.75.35-1.13c-.57-1.38-4.15.52-4.68.7a3.82,3.82,0,0,1-1.54.19c-1.57-.13-1.67-1-2.71-1.73A3.74,3.74,0,0,0,45,30.39c-.15,0-.4,0-.43.16s.19.3.33.41A8.36,8.36,0,0,1,47,33.32c1.26,1.67,1.6.78,2.59,1C50.29,34.39,51.13,35.14,52,35Z" fill-rule="evenodd" fill="url(#radial-gradient-8)"/></g><path d="M83.28,25.36h0c2.86,3.52-2,8.09-8.5,11.46C61.3,43.84,40.08,48,25,46.76c-6.26-.5-12.91-2.41-13.1-6.21h0A24.76,24.76,0,0,0,0,43.07H0c0,2.8,2.25,5,5.4,6.33,11.46,4.93,32.45,3.13,46.24.39s33.4-8.92,42-18c3.61-3.82,3.29-6.74,1.21-8.9h0a44.29,44.29,0,0,0-11.56,2.46Z" fill-rule="evenodd" fill="url(#linear-gradient-2)"/><path d="M19.42,30a39.6,39.6,0,0,0-7.18,3.48c-11.92,7.76-3.63,13.4,6.64,15,15.23,2.34,40.3-2.53,49.81-5.72-20.39,7-38.55,9-50,7.79-9.31-1-14.81-4-15.59-8C2.37,38.81,8.57,32.61,19.42,30Z" fill-rule="evenodd" fill="url(#New_Gradient_Swatch_67)" style="mix-blend-mode:multiply"/><path d="M14.58,34.14c-1.94,1.32-4.31,3.62-4.26,6.22C10.42,47,25,47.89,29.75,48c-4.1.33-16.46.3-20.54-4.9A3.71,3.71,0,0,1,9,38.69a12.09,12.09,0,0,1,5.63-4.55Z" fill-rule="evenodd" fill="url(#radial-gradient-9)" style="mix-blend-mode:screen"/><path d="M72.72,20.08c8.88.42,12.82,3.28,13.46,6.4,1,4.77-6,11.17-14.49,15.22C84.17,37.38,91.38,30.76,90,26c-1-3.3-7-6.81-17.25-5.93Z" fill-rule="evenodd" fill="url(#New_Gradient_Swatch_67-2)" style="mix-blend-mode:multiply"/><path d="M85,19.52c3,.38,8.9,1.81,10,5.57,3,10.4-25.76,19.82-35.73,21.58,8.9-2.49,35.33-10.51,33.7-21.24-.53-3.52-4.64-5-8-5.91Z" fill-rule="evenodd" fill="url(#radial-gradient-10)" style="mix-blend-mode:screen"/></g></g></g></svg>