<svg xmlns="http://www.w3.org/2000/svg" xmlns:xlink="http://www.w3.org/1999/xlink" width="66.16" height="64.85" viewBox="0 0 66.16 64.85"><defs><radialGradient id="radial-gradient" cx="19.17" cy="14.67" r="56.16" gradientUnits="userSpaceOnUse"><stop offset="0" stop-color="#71f5ff"/><stop offset="0.17" stop-color="#6ae9ff"/><stop offset="0.47" stop-color="#56c9ff"/><stop offset="0.5" stop-color="#54c5ff"/><stop offset="0.92" stop-color="#1483ff"/></radialGradient><radialGradient id="radial-gradient-2" cx="34.11" cy="34.26" r="35.34" gradientUnits="userSpaceOnUse"><stop offset="0.04"/><stop offset="0.84"/><stop offset="0.85" stop-color="#0d1516"/><stop offset="0.9" stop-color="#3e6268"/><stop offset="0.93" stop-color="#659fa9"/><stop offset="0.96" stop-color="#81cbd7"/><stop offset="0.99" stop-color="#93e6f4"/><stop offset="1" stop-color="#99f0ff"/></radialGradient><radialGradient id="radial-gradient-3" cx="9.22" cy="5.83" r="38.74" gradientUnits="userSpaceOnUse"><stop offset="0" stop-color="#86ffff"/><stop offset="1"/></radialGradient><radialGradient id="radial-gradient-4" cx="18.11" cy="26.48" r="50.39" gradientUnits="userSpaceOnUse"><stop offset="0" stop-color="#f2f6ff"/><stop offset="1" stop-color="#d6f3ff"/></radialGradient><radialGradient id="radial-gradient-5" cx="29.13" cy="26.73" r="42.1" gradientUnits="userSpaceOnUse"><stop offset="0.62" stop-color="#fff"/><stop offset="0.65" stop-color="#f5faff"/><stop offset="0.75" stop-color="#d0e8ff"/><stop offset="0.85" stop-color="#b4daff"/><stop offset="0.94" stop-color="#a4d2ff"/><stop offset="1" stop-color="#9ecfff"/></radialGradient><radialGradient id="radial-gradient-6" cx="7.31" cy="8.48" r="51.65" gradientUnits="userSpaceOnUse"><stop offset="0.7" stop-color="#fff"/><stop offset="1" stop-color="#aac2e6"/></radialGradient><radialGradient id="radial-gradient-7" cx="12.99" cy="33.48" r="7.62" gradientUnits="userSpaceOnUse"><stop offset="0" stop-color="#fff"/><stop offset="1" stop-color="#aac2e6"/></radialGradient><radialGradient id="radial-gradient-8" cx="21.41" cy="29.9" r="16.87" xlink:href="#radial-gradient-7"/><radialGradient id="radial-gradient-9" cx="19.88" cy="35.2" r="46.38" gradientUnits="userSpaceOnUse"><stop offset="0" stop-color="#fff"/><stop offset="1" stop-color="#cfe2ff"/></radialGradient><radialGradient id="radial-gradient-10" cx="33.37" cy="49.68" r="29.88" gradientUnits="userSpaceOnUse"><stop offset="0" stop-color="#aac2e6"/><stop offset="1" stop-color="#fff"/></radialGradient><radialGradient id="radial-gradient-11" cx="36.88" cy="36.6" r="31.23" xlink:href="#radial-gradient-7"/><radialGradient id="radial-gradient-12" cx="30.24" cy="15.97" r="55.24" xlink:href="#radial-gradient-7"/><radialGradient id="radial-gradient-13" cx="31.99" cy="45.34" r="23.97" xlink:href="#radial-gradient-4"/><radialGradient id="radial-gradient-14" cx="39.58" cy="50.05" r="21.66" xlink:href="#radial-gradient-4"/><radialGradient id="radial-gradient-15" cx="4.55" cy="11.36" r="50.24" xlink:href="#radial-gradient-4"/><radialGradient id="radial-gradient-16" cx="14.74" cy="7.76" r="21.62" xlink:href="#radial-gradient-7"/><radialGradient id="radial-gradient-17" cx="27.1" cy="7.58" r="14.08" xlink:href="#radial-gradient-7"/></defs><g style="isolation:isolate"><g id="Layer_2" data-name="Layer 2"><g id="Layer_1-2" data-name="Layer 1"><path d="M32.15.15A32.15,32.15,0,1,1,0,32.3,32.15,32.15,0,0,1,32.15.15Z" fill-rule="evenodd" fill="url(#radial-gradient)"/><path d="M32.15.15A32.15,32.15,0,1,1,0,32.3,32.15,32.15,0,0,1,32.15.15Z" fill-rule="evenodd" fill="url(#radial-gradient-2)" style="mix-blend-mode:screen"/><path d="M8.2,20.93c-.59-.41-.58-1.05-1.78-1.08S4.45,21,4,22.21a19.34,19.34,0,0,0,.45,12.87A20,20,0,0,0,6.92,39c1.26,1.7,3.83,4.06,6.2,3.25,1-.35,1.79-1.19,2.77-1.61a8.6,8.6,0,0,1,2.18-.54c1-.15,2.08-.14,3.12-.23,2.95-.27,2.12-1,4.15-1.73.67-.26,1.42-.21,2.11-.42A6.42,6.42,0,0,0,29,37c1.67-1.08-.78-1.14-1.46-1.07a3.69,3.69,0,0,0-1,.36,19,19,0,0,1-2,.86,4.68,4.68,0,0,1-1.82.18c-.84-.09-1.61-.48-2.44-.65-.48-.1-.74,0-1.22-.15a3.34,3.34,0,0,1-1.25-.45c-1.94-1.42.07-3.68,2.62-3.48a4.27,4.27,0,0,0,2.17-.18.32.32,0,0,0,.06-.39,1.54,1.54,0,0,0-.28-.35c-.55-.56-1.09-1.2-.78-2.07a1,1,0,0,1,.65-.65c.56-.22,1.22,0,1.81-.12a1.52,1.52,0,0,0,.87-.39c.34-.39.4-1,.71-1.4,1.24-1.63,4.53-1.1,6.47-1.49a5.55,5.55,0,0,0,2.38-.89c.62-.47.85-2.58,1.55-3.22a9.22,9.22,0,0,1,2.44-1.25c2-.9,3.45-.74,4.59-2.92.39-.73.33-1.65.72-2.38.28-.55,1.57-1.1,1.82-1.67,1.62-3.85-4.29-10.78-8.76-10.16-2.61.36-1.65.91-.26,1.64,3.1,1.61,4.94,3.05,4.7,6.85-.12,1.74-2.05,1.42-2.51,1.64-.15.07-.2.3-.21.48A11.62,11.62,0,0,1,38.68,16a4.36,4.36,0,0,1-1.16,2,4.09,4.09,0,0,1-1.79.89,6.34,6.34,0,0,1-2.08.18,6.76,6.76,0,0,1-2.45-.48,3.58,3.58,0,0,1-1.6-4.53,9.62,9.62,0,0,1,.92-1.43c.3-.53-.31-1,.94-1.77,1-.64,2.13-1.72-1.21-.73-1.34.4-2.8.59-2.26,2a4.09,4.09,0,0,1,.32,1c.41,4.09-2.32,3.25-5.63,3.87a14.7,14.7,0,0,0-1.87.36c-.55.19-1,.64-1.55.8-1.14.34-2.8,0-3.94.39a.78.78,0,0,0-.53.63c0,.37,1,1.06,0,1.94a4.85,4.85,0,0,1-2.93.66,6.6,6.6,0,0,1-3.68-.93ZM12,34.24c8.29-.29,4.9,5.57.86,4.09a6.4,6.4,0,0,1-1.79-1,1.74,1.74,0,0,1,.93-3.1Z" fill-rule="evenodd" fill="url(#radial-gradient-3)" style="mix-blend-mode:screen"/><path d="M1.05,40.49a15.32,15.32,0,0,0-.49,2.57c0,.29.26.52.45.75A6.06,6.06,0,0,0,2.15,45c.65.45,1.75.25,2.45.43.31.09.54.36.84.47s.88.14,1.3.28c.19.06,1.32.54.61.86-.22.1-.48,0-.71,0a.87.87,0,0,0-.48.26c-.27.29-.4.69-.67,1s-.83,0-1-.2a6.58,6.58,0,0,1-1.08-1.51,4.12,4.12,0,0,0-.27,1.18A9.5,9.5,0,0,0,3,49.33a.48.48,0,0,0,.17.31,24.37,24.37,0,0,0,4.07,2.22,16.49,16.49,0,0,0,1.84.46c1.68.33,1.37-.12,2.88-.67a19.62,19.62,0,0,1,2.55-.77c1.83-.4,3.71-.54,5.51-1,1.34-.35,2.58-1,3.88-1.43a24.37,24.37,0,0,1,2.87-1,2.31,2.31,0,0,1,1.25.09,1.5,1.5,0,0,1,.73.61,1.22,1.22,0,0,1,.17.79,1.13,1.13,0,0,1-.33.67c-.36.33-.86.48-1.24.79a4.87,4.87,0,0,0-.89,1c-.2.3-.22.7-.45,1a2.19,2.19,0,0,1-.85.55c-.84.36-1.73.59-2.59.93a4.85,4.85,0,0,0-.85.43,20.14,20.14,0,0,1-2.17,1.52,6.28,6.28,0,0,1-2,.45c-1.26.14-2.54.11-3.81.22-.93.08-1.87.46-2.78.06a6.39,6.39,0,0,0-.14,3.31c.17.61.84,1,1.4,1.29a5.36,5.36,0,0,0,1.77.49c1.1.2,2.24.21,3.34.42a6.67,6.67,0,0,1,1.44.51c.53.24,1,.57,1.54.83a12.47,12.47,0,0,0,1.52.73,4.88,4.88,0,0,0,1.41.31,13.05,13.05,0,0,0,2.07-.1c.71-.06,1.41-.14,2.1-.25.31-.05.6-.16.9-.23,1.09-.22,2.19-.37,3.27-.64.81-.2,1.6-.47,2.39-.74,1.23-.44,2.44-.91,3.65-1.39,1.75-.69,3.5-1.37,5.23-2.11a17,17,0,0,0,1.65-.84c1.74-1,3.47-2,5.16-3.1,1.27-.82,2.51-1.72,3.72-2.65s2.15-1.75,3.19-2.68c.89-.8,1.73-1.65,2.57-2.5.28-.28.49-.63.79-.88,0,0,.14,0,.15.1.22.94-3.12,4.82-3.91,5.49-.62.51-1.27,1-1.88,1.49-.85.7-1.66,1.44-2.5,2.14-.63.51-1.25,1-1.91,1.48-1.16.77-2.36,1.45-3.56,2.27-.86.59-1.79,1.31-2.61,1.84a10.24,10.24,0,0,1-2,.88c-1,.39-2,.86-3.07,1.22-.59.2-1.21.29-1.82.46-1,.27-1.72.55-2.72.74,1.91.19,3,.77,4.17.24.47-.21.86-.61,1.34-.8A14.62,14.62,0,0,1,42,63.16c2-.43,5-.92,6-1.58a20.18,20.18,0,0,0,1.58-1.49c.43-.34,1-.55,1.4-.87a26.69,26.69,0,0,0,4.5-3.54c1.48-1.62,2.42-3.66,3.73-5.42,1.08-1.47,2.67-2.69,3.39-4.47a21.7,21.7,0,0,0,.57-2.8,14.79,14.79,0,0,1,.77-2.33c1.37-3,1.81-2.85,2.21-6.7A8.6,8.6,0,0,0,66,31.28a16.59,16.59,0,0,0-.9-2c-.26-.73-.39-1.5-.62-2.23-.16-.5-.34-1-.54-1.48s-.45-1-.68-1.46c.18.95.41,1.89.55,2.85A30.41,30.41,0,0,1,64,32.63c-.32,5.73-2.52,9.95-6.51,14a38.53,38.53,0,0,1-2.92,2.8,8.11,8.11,0,0,1-1.61.88c-.76.35-1.56.62-2.33.95a24.13,24.13,0,0,0-2.32,1,11.62,11.62,0,0,0-1.31,1c-.47.36-.92.77-1.42,1.09a15.23,15.23,0,0,1-1.86,1c-1.27.58-2.58,1.12-3.89,1.62a14.39,14.39,0,0,1-3.65,1.16c-.14,0-.34,0-.43-.1s.05-.25.15-.3a24.85,24.85,0,0,0,3-1.74c.86-.6,1.58-1.38,2.44-2,.68-.47,1.49-.74,2.16-1.23a7,7,0,0,0,1.33-1.33c.72-.9,1.27-1.94,2-2.84a9.63,9.63,0,0,1,1.51-1.55,8.23,8.23,0,0,1,1.76-1c.81-.37,1.74-.43,2.51-.87a3.82,3.82,0,0,0,1.28-1.31c.52-.83.72-1.84,1.22-2.68a43.82,43.82,0,0,1,2.56-3.67c.7-.94,1.42-1.87,2.19-2.75a3.56,3.56,0,0,1,.79-.66.56.56,0,0,1,.4-.06c.25.08.28.42.84.36.87-.09,1.19-1.33,1.41-2.06a17.24,17.24,0,0,0,.45-3.62c0-.15,0-.34-.18-.41s-.17.07-.29,0-.15-.16-.17-.26c-.2-1.13-.26-2.28-.4-3.42-.08-.58-.11-1.17-.24-1.75a4.63,4.63,0,0,0-.39-1,.44.44,0,0,0-.24-.26c-.07,0-.1.11-.16.15s-.13.13-.21.14-.32,0-.36-.06a3.23,3.23,0,0,1-.14-.51c-.22-1.05-.37-2.08-.62-3.14a4.21,4.21,0,0,1-.12-.48s0-.09,0-.09.09.06.11.1c.15.27.28.55.42.82s.25.51.37.73.18,0,.18,0a3.74,3.74,0,0,0-.15-1.1,17,17,0,0,0-.73-2.07c-.39-.88-.79-2.49-1-2.74A45,45,0,0,1,55.3,9.32c-1.31-1.65-3-4.91-4.5-5.87-.49-.32-1.27.13-3.13-.81A23.56,23.56,0,0,1,44.53.72c-.9-.63-11-1-14.17-.5.05.46.8.6,1.28.61S32.89.69,33.52.65c.1,0,.27-.05.3,0s-.15.15-.24.21a4.74,4.74,0,0,0-1.06.81c-.29.34.42.3.58.31.86.06,2.31.12,2.67.13.62,0,1.25-.1,1.86,0a8.3,8.3,0,0,1,2,.48,12.43,12.43,0,0,1,1.21.72,14.93,14.93,0,0,0,2.17,1,12.28,12.28,0,0,0,1.36.14,6.07,6.07,0,0,1,.67.25A5.57,5.57,0,0,1,46,5a3,3,0,0,1,1,.91,6,6,0,0,1,.61,1.52c.21.62.29,1.29.55,1.89a2.81,2.81,0,0,0,.63.82,8.73,8.73,0,0,0,1.41,1.31c.48.33.63-.29.72-.38a.17.17,0,0,1,.18,0,.66.66,0,0,1,.33.24,5.9,5.9,0,0,1,.34.82c.19.53.15.52.55.86s.56.44.82.68a2.53,2.53,0,0,1,.49.59,3.45,3.45,0,0,1,.33.95c.07.33,0,.67.07,1a1.08,1.08,0,0,0,.17.38c.18.28.44.49.59.78s.22.67.38,1,.54.65.64,1a5.26,5.26,0,0,1-.64,3,9.52,9.52,0,0,1-1.06,1.24,14.58,14.58,0,0,0-1.31,1.52,7.54,7.54,0,0,0-.57,1.22c-.37.82-.65,1.69-1.1,2.47a9.87,9.87,0,0,1-1.28,1.67,18.93,18.93,0,0,1-1.76,1.71c-.76.65-1.61,1.18-2.38,1.8s-1.4,1.25-2.15,1.82a24.14,24.14,0,0,1-2.53,1.74,20.44,20.44,0,0,1-2.22,1c-.53.23-1.1.38-1.63.62s-.83.45-1.25.67c-.69.39-1.38.79-2.08,1.17s-1.39.76-2.12,1.05a4.85,4.85,0,0,1-1.35.33.77.77,0,0,1-.52-.1.26.26,0,0,1-.06-.32,1.6,1.6,0,0,1,.56-.47c.81-.46,1.66-.85,2.49-1.25s1.84-.84,2.73-1.32a15.3,15.3,0,0,0,1.92-1.19,20.38,20.38,0,0,0,2.26-1.89c1-1,1.89-2.14,2.86-3.19.46-.48.94-.94,1.43-1.4s1-.87,1.52-1.35A24.83,24.83,0,0,0,47.39,28a21.43,21.43,0,0,0,1.37-1.91,7.08,7.08,0,0,0,1-1.83,28.44,28.44,0,0,0,.67-4,12.89,12.89,0,0,0,.2-2c0-.62-.23-1.23-.23-1.85a3.76,3.76,0,0,1,.26-.91,3.83,3.83,0,0,0,.22-.65,10.65,10.65,0,0,0-.18-1.9A1.15,1.15,0,0,0,49,12.33a2.2,2.2,0,0,0-.67,1c-.12.4-.13.82-.23,1.22-.23.85-.52.83-1.36,1.11-.65.21-1.34.28-2,.5a1,1,0,0,0-.54.37,1.76,1.76,0,0,0-.18.75,6.61,6.61,0,0,1,0,.89c-.21.8-1.15,1.4-1.73,1.94a4.26,4.26,0,0,1-.74.73,5.88,5.88,0,0,1-1.44.45c-.58.13-1.19.16-1.77.31a4.39,4.39,0,0,0-1.1.45,2,2,0,0,0-.63.53.65.65,0,0,0-.06.39.31.31,0,0,0,.09.22c.06.06.19.05.25.11s0,.67-.25.9-.41.11-.55.25-.32.55-.53.79a5.14,5.14,0,0,1-3.17,1.83c-.6.05-1.2-.06-1.8-.06-.76,0-1.51,0-2.27.06-1.15.08-1.94,0-2.57,1.09a8.86,8.86,0,0,1-.44.87,1.07,1.07,0,0,1-.46.31,3,3,0,0,1-.73.15,5.88,5.88,0,0,0-1,.06.8.8,0,0,0-.38.35.91.91,0,0,0-.2.56c0,.2.28.31.35.5s-.08.33,0,.48a.82.82,0,0,0,.29.42,1.1,1.1,0,0,0,.48.07,11.76,11.76,0,0,1,1.33,0,.47.47,0,0,1,.09.91,14.63,14.63,0,0,1-1.87.19c-.16,0-.31-.07-.46,0-.38.08-.71.34-1.09.38s-.91-.18-1.36-.1a8.63,8.63,0,0,0-1.25.55c-.3.1-.65.06-.94.19-1,.45-.92,1.47,0,1.66s1.52,0,2.28.13a11.73,11.73,0,0,0,3.48.4,11.47,11.47,0,0,0,2.33-.32c.32-.09.54-.43.86-.54s.86,0,1.24-.18.46-.57.77-.74a4.12,4.12,0,0,1,1.1-.27c.58-.14,1.15-.27,1.73-.39.4-.08,1.24-.2,1.16.49a1.84,1.84,0,0,1-.29.85,4.1,4.1,0,0,1-1,1c-.44.31-1,.44-1.43.72s-.49.52-.81.67c-.82.37-1.71.57-2.56.86-.56.19-1.13.36-1.68.58a3.23,3.23,0,0,0-.49.33c-.37.27-.72.57-1.11.81a4.83,4.83,0,0,1-1,.52c-.82.26-1.67.43-2.52.61-.51.11-1,.15-1.56.25s-1.27.28-1.89.45-1,.28-1.46.45-.71.3-1.08.4a4.54,4.54,0,0,1-.9.13c-.84.07-1.67.11-2.51.15l-1.83.08a7.7,7.7,0,0,1-1.27,0C6.79,43,6,42.76,5.25,42.57c-.5-.12-1-.26-1.49-.39-.32-.08-.65-.11-1-.22a2.59,2.59,0,0,1-.8-.39,9,9,0,0,1-.95-1.08ZM9.8,34.75a1.44,1.44,0,0,0-.42.82c-.17,1.33,2,2.24,3.32,2.58.67.17,1.06.12,2.12-.44.16-.08.39-.08.49-.23.2-.32.17-.74.33-1.08s.4-.49.53-.77a.5.5,0,0,0,0-.43,1.14,1.14,0,0,0-.53-.57c-.89-.34-5.07-.69-5.84.12Z" fill-rule="evenodd" fill="url(#radial-gradient-4)"/><path d="M1.05,40.49a15.32,15.32,0,0,0-.49,2.57c0,.29.26.52.45.75A6.06,6.06,0,0,0,2.15,45c.65.45,1.75.25,2.45.43.31.09.54.36.84.47s.88.14,1.3.28c.19.06,1.32.54.61.86-.22.1-.48,0-.71,0a.87.87,0,0,0-.48.26c-.27.29-.4.69-.67,1s-.83,0-1-.2a6.58,6.58,0,0,1-1.08-1.51,4.12,4.12,0,0,0-.27,1.18A9.5,9.5,0,0,0,3,49.33a.48.48,0,0,0,.17.31,24.37,24.37,0,0,0,4.07,2.22,16.49,16.49,0,0,0,1.84.46c1.68.33,1.37-.12,2.88-.67a19.62,19.62,0,0,1,2.55-.77c1.83-.4,3.71-.54,5.51-1,1.34-.35,2.58-1,3.88-1.43a24.37,24.37,0,0,1,2.87-1,2.31,2.31,0,0,1,1.25.09,1.5,1.5,0,0,1,.73.61,1.22,1.22,0,0,1,.17.79,1.13,1.13,0,0,1-.33.67c-.36.33-.86.48-1.24.79a4.87,4.87,0,0,0-.89,1c-.2.3-.22.7-.45,1a2.19,2.19,0,0,1-.85.55c-.84.36-1.73.59-2.59.93a4.85,4.85,0,0,0-.85.43,20.14,20.14,0,0,1-2.17,1.52,6.28,6.28,0,0,1-2,.45c-1.26.14-2.54.11-3.81.22-.93.08-1.87.46-2.78.06a6.39,6.39,0,0,0-.14,3.31c.17.61.84,1,1.4,1.29a5.36,5.36,0,0,0,1.77.49c1.1.2,2.24.21,3.34.42a6.67,6.67,0,0,1,1.44.51c.53.24,1,.57,1.54.83a12.47,12.47,0,0,0,1.52.73,4.88,4.88,0,0,0,1.41.31,13.05,13.05,0,0,0,2.07-.1c.71-.06,1.41-.14,2.1-.25.31-.05.6-.16.9-.23,1.09-.22,2.19-.37,3.27-.64.81-.2,1.6-.47,2.39-.74,1.23-.44,2.44-.91,3.65-1.39,1.75-.69,3.5-1.37,5.23-2.11a17,17,0,0,0,1.65-.84c1.74-1,3.47-2,5.16-3.1,1.27-.82,2.51-1.72,3.72-2.65s2.15-1.75,3.19-2.68c.89-.8,1.73-1.65,2.57-2.5.28-.28.49-.63.79-.88,0,0,.14,0,.15.1.22.94-3.12,4.82-3.91,5.49-.62.51-1.27,1-1.88,1.49-.85.7-1.66,1.44-2.5,2.14-.63.51-1.25,1-1.91,1.48-1.16.77-2.36,1.45-3.56,2.27-.86.59-1.79,1.31-2.61,1.84a10.24,10.24,0,0,1-2,.88c-1,.39-2,.86-3.07,1.22-.59.2-1.21.29-1.82.46-1,.27-1.72.55-2.72.74,1.91.19,3,.77,4.17.24.47-.21.86-.61,1.34-.8A14.62,14.62,0,0,1,42,63.16c2-.43,5-.92,6-1.58a20.18,20.18,0,0,0,1.58-1.49c.43-.34,1-.55,1.4-.87a26.69,26.69,0,0,0,4.5-3.54c1.48-1.62,2.42-3.66,3.73-5.42,1.08-1.47,2.67-2.69,3.39-4.47a21.7,21.7,0,0,0,.57-2.8,14.79,14.79,0,0,1,.77-2.33c1.37-3,1.81-2.85,2.21-6.7A8.6,8.6,0,0,0,66,31.28a16.59,16.59,0,0,0-.9-2c-.26-.73-.39-1.5-.62-2.23-.16-.5-.34-1-.54-1.48s-.45-1-.68-1.46c.18.95.41,1.89.55,2.85A30.41,30.41,0,0,1,64,32.63c-.32,5.73-2.52,9.95-6.51,14a38.53,38.53,0,0,1-2.92,2.8,8.11,8.11,0,0,1-1.61.88c-.76.35-1.56.62-2.33.95a24.13,24.13,0,0,0-2.32,1,11.62,11.62,0,0,0-1.31,1c-.47.36-.92.77-1.42,1.09a15.23,15.23,0,0,1-1.86,1c-1.27.58-2.58,1.12-3.89,1.62a14.39,14.39,0,0,1-3.65,1.16c-.14,0-.34,0-.43-.1s.05-.25.15-.3a24.85,24.85,0,0,0,3-1.74c.86-.6,1.58-1.38,2.44-2,.68-.47,1.49-.74,2.16-1.23a7,7,0,0,0,1.33-1.33c.72-.9,1.27-1.94,2-2.84a9.63,9.63,0,0,1,1.51-1.55,8.23,8.23,0,0,1,1.76-1c.81-.37,1.74-.43,2.51-.87a3.82,3.82,0,0,0,1.28-1.31c.52-.83.72-1.84,1.22-2.68a43.82,43.82,0,0,1,2.56-3.67c.7-.94,1.42-1.87,2.19-2.75a3.56,3.56,0,0,1,.79-.66.56.56,0,0,1,.4-.06c.25.08.28.42.84.36.87-.09,1.19-1.33,1.41-2.06a17.24,17.24,0,0,0,.45-3.62c0-.15,0-.34-.18-.41s-.17.07-.29,0-.15-.16-.17-.26c-.2-1.13-.26-2.28-.4-3.42-.08-.58-.11-1.17-.24-1.75a4.63,4.63,0,0,0-.39-1,.44.44,0,0,0-.24-.26c-.07,0-.1.11-.16.15s-.13.13-.21.14-.32,0-.36-.06a3.23,3.23,0,0,1-.14-.51c-.22-1.05-.37-2.08-.62-3.14a4.21,4.21,0,0,1-.12-.48s0-.09,0-.09.09.06.11.1c.15.27.28.55.42.82s.25.51.37.73.18,0,.18,0a3.74,3.74,0,0,0-.15-1.1,17,17,0,0,0-.73-2.07c-.39-.88-.79-2.49-1-2.74A45,45,0,0,1,55.3,9.32c-1.31-1.65-3-4.91-4.5-5.87-.49-.32-1.27.13-3.13-.81A23.56,23.56,0,0,1,44.53.72c-.9-.63-11-1-14.17-.5.05.46.8.6,1.28.61S32.89.69,33.52.65c.1,0,.27-.05.3,0s-.15.15-.24.21a4.74,4.74,0,0,0-1.06.81c-.29.34.42.3.58.31.86.06,2.31.12,2.67.13.62,0,1.25-.1,1.86,0a8.3,8.3,0,0,1,2,.48,12.43,12.43,0,0,1,1.21.72,14.93,14.93,0,0,0,2.17,1,12.28,12.28,0,0,0,1.36.14,6.07,6.07,0,0,1,.67.25A5.57,5.57,0,0,1,46,5a3,3,0,0,1,1,.91,6,6,0,0,1,.61,1.52c.21.62.29,1.29.55,1.89a2.81,2.81,0,0,0,.63.82,8.73,8.73,0,0,0,1.41,1.31c.48.33.63-.29.72-.38a.17.17,0,0,1,.18,0,.66.66,0,0,1,.33.24,5.9,5.9,0,0,1,.34.82c.19.53.15.52.55.86s.56.44.82.68a2.53,2.53,0,0,1,.49.59,3.45,3.45,0,0,1,.33.95c.07.33,0,.67.07,1a1.08,1.08,0,0,0,.17.38c.18.28.44.49.59.78s.22.67.38,1,.54.65.64,1a5.26,5.26,0,0,1-.64,3,9.52,9.52,0,0,1-1.06,1.24,14.58,14.58,0,0,0-1.31,1.52,7.54,7.54,0,0,0-.57,1.22c-.37.82-.65,1.69-1.1,2.47a9.87,9.87,0,0,1-1.28,1.67,18.93,18.93,0,0,1-1.76,1.71c-.76.65-1.61,1.18-2.38,1.8s-1.4,1.25-2.15,1.82a24.14,24.14,0,0,1-2.53,1.74,20.44,20.44,0,0,1-2.22,1c-.53.23-1.1.38-1.63.62s-.83.45-1.25.67c-.69.39-1.38.79-2.08,1.17s-1.39.76-2.12,1.05a4.85,4.85,0,0,1-1.35.33.77.77,0,0,1-.52-.1.26.26,0,0,1-.06-.32,1.6,1.6,0,0,1,.56-.47c.81-.46,1.66-.85,2.49-1.25s1.84-.84,2.73-1.32a15.3,15.3,0,0,0,1.92-1.19,20.38,20.38,0,0,0,2.26-1.89c1-1,1.89-2.14,2.86-3.19.46-.48.94-.94,1.43-1.4s1-.87,1.52-1.35A24.83,24.83,0,0,0,47.39,28a21.43,21.43,0,0,0,1.37-1.91,7.08,7.08,0,0,0,1-1.83,28.44,28.44,0,0,0,.67-4,12.89,12.89,0,0,0,.2-2c0-.62-.23-1.23-.23-1.85a3.76,3.76,0,0,1,.26-.91,3.83,3.83,0,0,0,.22-.65,10.65,10.65,0,0,0-.18-1.9A1.15,1.15,0,0,0,49,12.33a2.2,2.2,0,0,0-.67,1c-.12.4-.13.82-.23,1.22-.23.85-.52.83-1.36,1.11-.65.21-1.34.28-2,.5a1,1,0,0,0-.54.37,1.76,1.76,0,0,0-.18.75,6.61,6.61,0,0,1,0,.89c-.21.8-1.15,1.4-1.73,1.94a4.26,4.26,0,0,1-.74.73,5.88,5.88,0,0,1-1.44.45c-.58.13-1.19.16-1.77.31a4.39,4.39,0,0,0-1.1.45,2,2,0,0,0-.63.53.65.65,0,0,0-.06.39.31.31,0,0,0,.09.22c.06.06.19.05.25.11s0,.67-.25.9-.41.11-.55.25-.32.55-.53.79a5.14,5.14,0,0,1-3.17,1.83c-.6.05-1.2-.06-1.8-.06-.76,0-1.51,0-2.27.06-1.15.08-1.94,0-2.57,1.09a8.86,8.86,0,0,1-.44.87,1.07,1.07,0,0,1-.46.31,3,3,0,0,1-.73.15,5.88,5.88,0,0,0-1,.06.8.8,0,0,0-.38.35.91.91,0,0,0-.2.56c0,.2.28.31.35.5s-.08.33,0,.48a.82.82,0,0,0,.29.42,1.1,1.1,0,0,0,.48.07,11.76,11.76,0,0,1,1.33,0,.47.47,0,0,1,.09.91,14.63,14.63,0,0,1-1.87.19c-.16,0-.31-.07-.46,0-.38.08-.71.34-1.09.38s-.91-.18-1.36-.1a8.63,8.63,0,0,0-1.25.55c-.3.1-.65.06-.94.19-1,.45-.92,1.47,0,1.66s1.52,0,2.28.13a11.73,11.73,0,0,0,3.48.4,11.47,11.47,0,0,0,2.33-.32c.32-.09.54-.43.86-.54s.86,0,1.24-.18.46-.57.77-.74a4.12,4.12,0,0,1,1.1-.27c.58-.14,1.15-.27,1.73-.39.4-.08,1.24-.2,1.16.49a1.84,1.84,0,0,1-.29.85,4.1,4.1,0,0,1-1,1c-.44.31-1,.44-1.43.72s-.49.52-.81.67c-.82.37-1.71.57-2.56.86-.56.19-1.13.36-1.68.58a3.23,3.23,0,0,0-.49.33c-.37.27-.72.57-1.11.81a4.83,4.83,0,0,1-1,.52c-.82.26-1.67.43-2.52.61-.51.11-1,.15-1.56.25s-1.27.28-1.89.45-1,.28-1.46.45-.71.3-1.08.4a4.54,4.54,0,0,1-.9.13c-.84.07-1.67.11-2.51.15l-1.83.08a7.7,7.7,0,0,1-1.27,0C6.79,43,6,42.76,5.25,42.57c-.5-.12-1-.26-1.49-.39-.32-.08-.65-.11-1-.22a2.59,2.59,0,0,1-.8-.39,9,9,0,0,1-.95-1.08ZM9.8,34.75a1.44,1.44,0,0,0-.42.82c-.17,1.33,2,2.24,3.32,2.58.67.17,1.06.12,2.12-.44.16-.08.39-.08.49-.23.2-.32.17-.74.33-1.08s.4-.49.53-.77a.5.5,0,0,0,0-.43,1.14,1.14,0,0,0-.53-.57c-.89-.34-5.07-.69-5.84.12Z" fill-rule="evenodd" fill="url(#radial-gradient-5)" style="mix-blend-mode:multiply"/><path d="M10.13,46.69a29.38,29.38,0,0,1,6.79-1.22,46.12,46.12,0,0,0,4.65-.15c2.46-.57,4-1.69,6.17-2.68.81-.37,1.84-.82,2.78-1.17.78-.43,1.59-.8,2.39-1.19s1.84-.84,2.73-1.32a15.3,15.3,0,0,0,1.92-1.19,20.38,20.38,0,0,0,2.26-1.89c1-1,1.89-2.14,2.86-3.19.46-.48.94-.94,1.43-1.4s1-.87,1.52-1.35A24.83,24.83,0,0,0,47.39,28a21.43,21.43,0,0,0,1.37-1.91,7.08,7.08,0,0,0,1-1.83,28.44,28.44,0,0,0,.67-4,12.89,12.89,0,0,0,.2-2c0-.62-.23-1.23-.23-1.85a3.76,3.76,0,0,1,.26-.91,3.83,3.83,0,0,0,.22-.65,10.65,10.65,0,0,0-.18-1.9,1.16,1.16,0,0,0-.88-.83,1.48,1.48,0,0,1,.25.31,1.14,1.14,0,0,1,.12.55,2.15,2.15,0,0,1-.1.76,3.47,3.47,0,0,1-.52.84c-.29.36-.73.6-.93,1a1.64,1.64,0,0,0-.06,1c.08.37.39.67.51,1a3.39,3.39,0,0,1,.24,1.25,5.61,5.61,0,0,1-.48,1.64c-.18.43-.55.78-.71,1.22-.28.75-.26,1.59-.57,2.32a10.79,10.79,0,0,1-1.49,2.54,16.08,16.08,0,0,1-2.44,2.44c-1.3,1.06-2.9,1.76-4.12,2.92-.9.86-1.32,2.15-2.17,3.07a9.22,9.22,0,0,1-2.23,1.7c-.52.29-1.18.25-1.7.53-1.25.69-2.34,1.61-3.55,2.36-1,.62-2.05,1.23-3.13,1.76a21.55,21.55,0,0,1-3.22,1.32,32.15,32.15,0,0,1-3.39.64c-1.26.23-2.53.38-3.77.69-1,.25-2,.68-3,1a5.64,5.64,0,0,1-1.41.25,16.37,16.37,0,0,1-1.83-.24A3.49,3.49,0,0,0,9.23,45a9.47,9.47,0,0,0-1.07.42,1.72,1.72,0,0,1-.59.12,6.91,6.91,0,0,1-1.7-.32c-.39-.13-1.78-1-1.87-1-.36,0-.69.25-1,.25a2.4,2.4,0,0,1-.6-.06,1.84,1.84,0,0,1-.51-.19,3.9,3.9,0,0,1-1-1.31,3.61,3.61,0,0,1,0-1.28,6.63,6.63,0,0,0-.23,1.46c0,.29.26.52.45.75A6.06,6.06,0,0,0,2.15,45a1.66,1.66,0,0,0,.58.24c.61.13,1.35.06,1.87.19.31.09.54.36.84.47s.88.14,1.3.28c.19.06,1.32.54.61.86-.22.1-.48,0-.71,0a.87.87,0,0,0-.48.26,1,1,0,0,0-.13.16,1.28,1.28,0,0,1,.77-.23c.44,0,1,.19,1.4.17.84-.07,1.21-.51,1.93-.78Z" fill-rule="evenodd" fill="url(#radial-gradient-6)" style="mix-blend-mode:multiply"/><path d="M12.41,37.26a3.47,3.47,0,0,1-3-1.32c.23,1.13,2.09,1.9,3.31,2.21.67.17,1.06.12,2.12-.44.16-.08.39-.08.49-.23.2-.32.17-.74.33-1.08s.4-.49.53-.77a.5.5,0,0,0,0-.43,1.14,1.14,0,0,0-.53-.57l-.08,0,.1.17a.62.62,0,0,1-.24.61c-.37.22-1.18.25-1.48.63-.15.2,0,.86-.36,1a2.76,2.76,0,0,1-1.17.24Z" fill-rule="evenodd" fill="url(#radial-gradient-7)" style="mix-blend-mode:multiply"/><path d="M24.69,35c0,.19.17.37.15.57s-.14.17-.24.2a7.62,7.62,0,0,1-2.87.21c-.43-.11-.83-.32-1.26-.41a1.12,1.12,0,0,0-.48,0c-.63.1-1,.18-1.53.23.6,0,1.22,0,1.82.07a11.73,11.73,0,0,0,3.48.4,11.47,11.47,0,0,0,2.33-.32c.32-.09.54-.43.86-.54s.86,0,1.24-.18.46-.57.77-.74a4.12,4.12,0,0,1,1.1-.27c.58-.14,1.15-.27,1.73-.39a2,2,0,0,1,.82,0,9.53,9.53,0,0,0-3.49.06c-.57.07-1,0-1.11.53a.55.55,0,0,1-.22.37,1,1,0,0,1-.55.1c-.55-.05-1.08-.26-1.63-.31-.29,0-.85.08-.92.43Z" fill-rule="evenodd" fill="url(#radial-gradient-8)" style="mix-blend-mode:multiply"/><path d="M25.15,52.89c-.84.36-1.73.59-2.59.93a4.85,4.85,0,0,0-.85.43,20.14,20.14,0,0,1-2.17,1.52,6.28,6.28,0,0,1-2,.45c-1.26.14-2.54.11-3.81.22-.93.08-1.87.46-2.78.06a6.39,6.39,0,0,0-.14,3.31c.17.61.84,1,1.4,1.29a5.36,5.36,0,0,0,1.77.49c1.1.2,2.24.21,3.34.42a6.67,6.67,0,0,1,1.44.51c.53.24,1,.57,1.54.83a12.47,12.47,0,0,0,1.52.73,4.88,4.88,0,0,0,1.41.31,13.05,13.05,0,0,0,2.07-.1c.63-.05,1.26-.13,1.88-.22l.22,0c.31-.05.6-.16.9-.23,1.09-.22,2.19-.37,3.27-.64.81-.2,1.6-.47,2.39-.74,1.23-.44,2.44-.91,3.65-1.39,1.75-.69,3.5-1.37,5.23-2.11a17,17,0,0,0,1.65-.84c1.74-1,3.47-2,5.16-3.1,1.27-.82,2.51-1.72,3.72-2.65s2.15-1.75,3.19-2.68c.89-.8,1.73-1.65,2.57-2.5.28-.28.49-.63.79-.88,0,0,.14,0,.15.1.22.94-3.12,4.82-3.91,5.49-.62.51-1.27,1-1.88,1.49-.85.7-1.66,1.44-2.5,2.14-.63.51-1.25,1-1.91,1.48-1.16.77-2.36,1.45-3.56,2.27-.86.59-1.79,1.31-2.61,1.84a10.24,10.24,0,0,1-2,.88c-1,.39-2,.86-3.07,1.22-.59.2-1.21.29-1.82.46-1,.27-1.72.55-2.72.74,1.91.19,3,.77,4.17.24.47-.21.86-.61,1.34-.8A14.62,14.62,0,0,1,42,63.16c2-.43,5-.92,6-1.58a20.18,20.18,0,0,0,1.58-1.49c.43-.34,1-.55,1.4-.87a26.69,26.69,0,0,0,4.5-3.54c1.48-1.62,2.42-3.66,3.73-5.42,1.08-1.47,2.67-2.69,3.39-4.47a21.7,21.7,0,0,0,.57-2.8,14.79,14.79,0,0,1,.77-2.33c1.37-3,1.81-2.85,2.21-6.7A8.6,8.6,0,0,0,66,31.28a16.59,16.59,0,0,0-.9-2c-.26-.73-.39-1.5-.62-2.23-.16-.5-.34-1-.54-1.48s-.45-1-.68-1.46c.18.95.41,1.89.55,2.85A30.41,30.41,0,0,1,64,32.63c-.32,5.73-2.52,9.95-6.51,14a38.53,38.53,0,0,1-2.92,2.8,8.11,8.11,0,0,1-1.61.88c-.76.35-1.56.62-2.33.95a24.13,24.13,0,0,0-2.32,1,11.62,11.62,0,0,0-1.31,1c-.47.36-.92.77-1.42,1.09a15.23,15.23,0,0,1-1.86,1c-1.27.58-2.58,1.12-3.89,1.62a14.39,14.39,0,0,1-3.65,1.16c-.14,0-.34,0-.43-.1s.05-.25.15-.3a24.85,24.85,0,0,0,3-1.74c.86-.6,1.58-1.38,2.44-2,.68-.47,1.49-.74,2.16-1.23a7,7,0,0,0,1.33-1.33c.72-.9,1.27-1.94,2-2.84a9.63,9.63,0,0,1,1.51-1.55,8.23,8.23,0,0,1,1.76-1c.81-.37,1.74-.43,2.51-.87a3.82,3.82,0,0,0,1.28-1.31c.52-.83.72-1.84,1.22-2.68a43.82,43.82,0,0,1,2.56-3.67c.7-.94,1.42-1.87,2.19-2.75a3.56,3.56,0,0,1,.79-.66.56.56,0,0,1,.4-.06c.25.08.28.42.84.36.87-.09,1.19-1.33,1.41-2.06a17.24,17.24,0,0,0,.45-3.62c0-.15,0-.34-.18-.41s-.17.07-.29,0-.15-.16-.17-.26c-.2-1.13-.26-2.28-.4-3.42-.08-.58-.11-1.17-.24-1.75a4.63,4.63,0,0,0-.39-1,.44.44,0,0,0-.24-.26c-.07,0-.1.11-.16.15s-.13.13-.21.14-.32,0-.36-.06a3.23,3.23,0,0,1-.14-.51c-.22-1.05-.37-2.08-.62-3.14a4.21,4.21,0,0,1-.12-.48s0-.09,0-.09.09.06.11.1c.15.27.28.55.42.82s.25.51.37.73.18,0,.18,0a3.48,3.48,0,0,0,0-.55,3.57,3.57,0,0,0-.11-.55,17,17,0,0,0-.73-2.07c-.39-.88-.79-2.49-1-2.74l-1.13-1.05a11.09,11.09,0,0,1,1.2,3,10.18,10.18,0,0,1,.22,1.36,18.26,18.26,0,0,1-.54,6.32c-.42,1.26-1.4,2.26-2,3.46S56.7,29,56,30a64.5,64.5,0,0,1-8.76,8.29c-2.86,2.06-8.9,5.87-12.33,6.73-2.53.63-5.2.46-7.75,1-1.76.38-3.37,1.31-5.12,1.76-2.67.69-4.67.9-7.51,1.76a5.33,5.33,0,0,1-3,.14c-.89-.1-1.83-.16-2.19.29-.16.2.06.62-.15.75a1.45,1.45,0,0,1-1.14,0c-.85-.29-1.58-.89-2.42-1.22a1,1,0,0,0-.71,0c-.26.08-.44.25-.66.27a.6.6,0,0,1-.47-.18,3.76,3.76,0,0,1-.65-2.2c0,.16,0,.32-.07.48A9.5,9.5,0,0,0,3,49.33a.48.48,0,0,0,.17.31,26.06,26.06,0,0,0,3.18,1.83,7.14,7.14,0,0,0,.89.39,16.49,16.49,0,0,0,1.84.46c1.68.33,1.37-.12,2.88-.67a19.62,19.62,0,0,1,2.55-.77c1.83-.4,3.71-.54,5.51-1,1.34-.35,2.58-1,3.88-1.43a24.37,24.37,0,0,1,2.87-1,2.31,2.31,0,0,1,1.25.09,1.5,1.5,0,0,1,.73.61,1.22,1.22,0,0,1,.17.79,1.13,1.13,0,0,1-.33.67c-.36.33-.86.48-1.24.79a4.87,4.87,0,0,0-.89,1c-.2.3-.22.7-.45,1a2.19,2.19,0,0,1-.85.55Z" fill-rule="evenodd" fill="url(#radial-gradient-9)" style="mix-blend-mode:multiply"/><path d="M18.58,49.31c-1.5.41-3.22.08-4.79.41a5.65,5.65,0,0,1-2.23,0c-.89-.1-1.83-.16-2.19.29-.16.2.06.62-.15.75a1.45,1.45,0,0,1-1.14,0c-.85-.29-1.58-.89-2.42-1.22a1,1,0,0,0-.71,0c-.26.08-.44.25-.66.27a.6.6,0,0,1-.47-.18,3.76,3.76,0,0,1-.65-2.2c0,.16,0,.32-.07.48A9.5,9.5,0,0,0,3,49.33a.48.48,0,0,0,.17.31,26.06,26.06,0,0,0,3.18,1.83,7.14,7.14,0,0,0,.89.39,16.49,16.49,0,0,0,1.84.46c1.68.33,1.37-.12,2.88-.67a19.62,19.62,0,0,1,2.55-.77c1.83-.4,3.71-.54,5.51-1,1.34-.35,2.58-1,3.88-1.43a24.37,24.37,0,0,1,2.87-1,2.31,2.31,0,0,1,1.25.09,1.5,1.5,0,0,1,.73.61,1.22,1.22,0,0,1,.17.79,1.13,1.13,0,0,1-.33.67,1.69,1.69,0,0,1-.41.29,3.13,3.13,0,0,0,.65-.35c.9-.64.86-1.44,2.89-2.39,1.62-.77-1.53-.74-1.84-.73a13.65,13.65,0,0,0-4,.19c-2.05.56-4.81,2-7.33,2.7Z" fill-rule="evenodd" fill="url(#radial-gradient-10)" style="mix-blend-mode:multiply"/><path d="M42.54,43.68c-2.41.83-5.5,1.6-8,2.27-.25.06-1.41.3-1.51.56a4.06,4.06,0,0,0,1.79.09,59.86,59.86,0,0,0,7.42-1.55,29.72,29.72,0,0,0,7.39-2.26,9.12,9.12,0,0,0,2.59-2c.67-.81.8-2,1.37-2.83a12.6,12.6,0,0,1,1.82-2.11c1.12-1.11,2.39-2.06,3.51-3.16A6.29,6.29,0,0,0,60.38,31a11.91,11.91,0,0,0,1-3.43,33.18,33.18,0,0,0,.07-4A4.2,4.2,0,0,1,61.57,22a.2.2,0,0,1-.08,0c-.12,0-.32,0-.36-.06a3.23,3.23,0,0,1-.14-.51c-.22-1.05-.37-2.08-.62-3.14a4.21,4.21,0,0,1-.12-.48s0-.09,0-.09.09.06.11.1c.15.27.28.55.42.82s.25.51.37.73.18,0,.18,0a3.48,3.48,0,0,0,0-.55,3.57,3.57,0,0,0-.11-.55,17,17,0,0,0-.73-2.07c-.39-.88-.79-2.49-1-2.74l-.12-.11a8.39,8.39,0,0,1,.8,3.13,3.28,3.28,0,0,1,0,.34c0,.07-.14.07-.15.14A8.66,8.66,0,0,0,60,18.28a37.24,37.24,0,0,1,.22,3.8,18.85,18.85,0,0,1-.5,4.86,14,14,0,0,1-1.85,3.27,26,26,0,0,1-2.74,4.18c-.87.94-2.23,1.32-3.16,2.2-3.66,3.48-3.22,5-9.47,7.09Z" fill-rule="evenodd" fill="url(#radial-gradient-11)" style="mix-blend-mode:multiply"/><path d="M19.26,60.17a12.75,12.75,0,0,0-2,.61,5,5,0,0,1-3.54-.37c-2.1-.79-2.62-2-2.47-3.71,0,0,0-.07,0-.11L11,56.5a6.39,6.39,0,0,0-.14,3.31c.17.61.84,1,1.4,1.29a5.36,5.36,0,0,0,1.77.49c1.1.2,2.24.21,3.34.42a6.67,6.67,0,0,1,1.44.51c.53.24,1,.57,1.54.83a12.47,12.47,0,0,0,1.52.73,4.88,4.88,0,0,0,1.41.31,13.05,13.05,0,0,0,2.07-.1c.63-.05,1.26-.13,1.88-.22l.22,0c.31-.05.6-.16.9-.23,1.09-.22,2.19-.37,3.27-.64.81-.2,1.6-.47,2.39-.74,1.23-.44,2.44-.91,3.65-1.39,1.75-.69,3.5-1.37,5.23-2.11a17,17,0,0,0,1.65-.84c1.74-1,3.47-2,5.16-3.1,1.27-.82,2.51-1.72,3.72-2.65s2.15-1.75,3.19-2.68c.89-.8,1.73-1.65,2.57-2.5.28-.28.49-.63.79-.88,0,0,.14,0,.15.1.22.94-3.12,4.82-3.91,5.49l-.25.19c2.32-1.66,3.38-3,5.17-6,.22-.37.42-.74.62-1.12A23.26,23.26,0,0,0,63,42a5.62,5.62,0,0,0,.35-1.37s-.13.1-.26.3-.42.72-.49.85a26.9,26.9,0,0,1-2.46,3.69,19.51,19.51,0,0,1-1.58,1.7c-.85.84-1.7,1.68-2.62,2.44-.74.62-1.57,1.11-2.35,1.67-1,.75-2.1,1.47-3.1,2.27-.69.54-1.25,1.23-2,1.72a19.45,19.45,0,0,1-2.38,1.28c-1.05.54-2.11,1-3.16,1.55a22.65,22.65,0,0,1-2,1c-1.29.49-2.66.79-4,1.28-.69.26-1.3.71-2,1-1.39.48-3.07.49-4.47.9-2.42.69-3.21,1.39-5.3,1.45a13.3,13.3,0,0,1-1.6-.06c-.7-.06-1.05-.33-1.12-.66-.11-.54.51-1.26,1.55-1.57,1.26-.37,2.57-.57,3.84-.89,2.62-.67,6.5-1.42,8.91-2.21C38,58,39.06,57.45,40.16,57l-.29.11a14.39,14.39,0,0,1-3.65,1.16c-.14,0-.34,0-.43-.1s.05-.25.15-.3a24.85,24.85,0,0,0,3-1.74c.86-.6,1.58-1.38,2.44-2,.68-.47,1.49-.74,2.16-1.23a6.82,6.82,0,0,0,1.24-1.22A6.42,6.42,0,0,1,42,53a12.64,12.64,0,0,0-2.06.6c-.73.5-2.13,3.06-4.88,4a47.59,47.59,0,0,1-10.28,2.14c-1.82.21-3.67.14-5.49.42Z" fill-rule="evenodd" fill="url(#radial-gradient-12)" style="mix-blend-mode:multiply"/><path d="M21.71,54.25a20.14,20.14,0,0,1-2.17,1.52,6.28,6.28,0,0,1-2,.45c-1.26.14-2.54.11-3.81.22a10.92,10.92,0,0,1-2.19.22,6.28,6.28,0,0,0,2,0c2.39-.08,6.15.18,7.17,0a4.94,4.94,0,0,0,2-.83c.93-.62-.91-.64.29-1.13,1.65-.68,6-.47,7-2.24a.71.71,0,0,0,.08-.71c-.13-.21-.6,0-.71-.24s.15-.44.33-.57a27.69,27.69,0,0,1,5.18-2.77,19.86,19.86,0,0,1,2.89-.89c2.95-.64-2.71-.47-4.59,0a6.91,6.91,0,0,0-3.27,2,4.45,4.45,0,0,1-1,.81c-.79.34-1.93.36-2.51,1.21-.2.3-.22.7-.45,1a2.19,2.19,0,0,1-.85.55c-.84.36-1.73.59-2.59.93a4.85,4.85,0,0,0-.85.43Z" fill-rule="evenodd" fill="url(#radial-gradient-13)"/><path d="M38.28,58.13c-1,.35-2,.61-3,.86-1.16.3-2.33.53-3.49.81a23.47,23.47,0,0,0-2.47.62c-.11,0-.26.28-.15.33a4.29,4.29,0,0,0,1.43.24,26.26,26.26,0,0,0,3.07.12,2.25,2.25,0,0,0,1-.27c.76-.4,1.38-1,2.15-1.4a10.61,10.61,0,0,1,2.08-.62,20.26,20.26,0,0,0,2.6-.51,17.19,17.19,0,0,0,5.24-4,.23.23,0,0,0-.06-.3c-.11,0-.25,0-.36.1-.95.52-1.86,1.12-2.81,1.63S41.81,56.61,41,57s-1.77.81-2.68,1.13Z" fill-rule="evenodd" opacity="0.65" fill="url(#radial-gradient-14)"/><path d="M17.75,2.86c.3-.12.55-.36.84-.5a12,12,0,0,1,8-.54c.73.21,1.53.11,2.26.33S30,2.78,30.61,3a12.49,12.49,0,0,1,1.84.51c.39.21.45.82.84,1,.66.32,1.49.17,2.17.45,1.7.69,4,2.61,4.26,4.56a3.83,3.83,0,0,1-.2,1.9c-.29.71-1.51.37-1.85.54s-.24.38-.27.59c-.1.9.05,1.83-.12,2.72-.3,1.56-2,2.16-3.43,2.53-1.88.49-4.06-.26-3.69-2.59.11-.66.72-1.14.95-1.76s0-1.14.27-1.58c.68-1,2.55-1.49,2.8-1.85a2.38,2.38,0,0,0,.24-1.43,2.62,2.62,0,0,0-.31-1.29.44.44,0,0,0-.55-.12c-.61.41-.82,1.48-2.12,2s-3.57.51-4.66,1.88a.66.66,0,0,0-.15.57c.14.44.61.75.7,1.2a1.15,1.15,0,0,1-.3.87,3.94,3.94,0,0,1-1.31,1.16c-1.24.57-2.61.8-3.9,1.25-.64.22-1.25.5-1.88.75-3,1.19-5.81.9-6.17,1.28s-.27,1.13-.62,1.58c-1.22,1.54-2.48,2.11-4.17,1-.63-.42-1-1.19-1.67-1.52-.47-.23-1,0-1.55-.06-.88-.07-1.87-.46-2.68.24-.45.38-.75,1.33-1,1.48s.14-1.28.42-1.84c.46-.92-.79-1.67,2.34-4.32a9.24,9.24,0,0,0,1.92-2.65,5.16,5.16,0,0,1,.9-1.4A12.25,12.25,0,0,1,9,9.61C9.73,9,10.72,7.78,11.66,7c.38-.33.89-.5,1.26-.84.87-.76,1.54-1.57,2.22-2.2.87-.8,1.67-.71,2.61-1.09Z" fill-rule="evenodd" fill="url(#radial-gradient-15)"/><path d="M24.34,10.42c-2.8,2.51-1.06,2.68.32,2.88.64.08,1.47.41.51.82s-1.76.41-2.59.74c-.47.19-.82.6-1.28.81-3,1.37-7.06.54-9.34.88-1,.15-1.41,1.06-.57,1.88.59.57,1.22.58,1.24,1,0,.88-1.21,1.68-2,1.89a3.27,3.27,0,0,0,2.52-1.57c.35-.45.23-1.17.62-1.58s3.16-.09,6.17-1.28c.63-.25,1.24-.53,1.88-.75,1.29-.45,2.66-.68,3.9-1.25A3.94,3.94,0,0,0,27,13.74a1.15,1.15,0,0,0,.3-.87c-.09-.45-.56-.76-.7-1.2a.66.66,0,0,1,.15-.57c1.09-1.37,3.44-1.37,4.66-1.88s1.51-1.61,2.12-2a.44.44,0,0,1,.55.12,2.62,2.62,0,0,1,.31,1.29A2.38,2.38,0,0,1,34.18,10c-.23.33-1.8.76-2.59,1.6,2.19-1.56,3.75-.91,3.79-2.74a4.79,4.79,0,0,0-.5-2.44.81.81,0,0,0-1.19-.12c-.84.85-1.22,1.88-2.44,2.24-.81.23-1.64.38-2.47.53-1.64.29-3.07.08-4.44,1.31Z" fill-rule="evenodd" fill="url(#radial-gradient-16)" style="mix-blend-mode:multiply"/><path d="M32.38,3.79c.1.33,0,1.17.54,1.28,1,.25,2-.27,3.2.51,1.61,1.06,3.26,2.4,3,4.54-.11.79-.8.62-1.6.37-.53-.17-1.1-.24-1.21.25-.26,1.17.16,2.4.15,3.6,0,2.6-2.05,3.41-3.92,3.62a4.44,4.44,0,0,0,1.35-.14c1.4-.37,3.13-1,3.43-2.53.17-.89,0-1.82.12-2.72,0-.21.07-.5.27-.59s1.56.17,1.85-.54a3.83,3.83,0,0,0,.2-1.9C39.48,7.59,37.16,5.67,35.46,5c-.68-.28-1.51-.13-2.17-.45-.39-.19-.45-.8-.84-1a2.71,2.71,0,0,0-.74-.26,3,3,0,0,1,.48.22.53.53,0,0,1,.19.31Z" fill-rule="evenodd" fill="url(#radial-gradient-17)" style="mix-blend-mode:multiply"/></g></g></g></svg>