<svg xmlns="http://www.w3.org/2000/svg" xmlns:xlink="http://www.w3.org/1999/xlink" width="63.71" height="63.74" viewBox="0 0 63.71 63.74"><defs><linearGradient id="linear-gradient" x1="0.5" y1="40.24" x2="63.71" y2="40.24" gradientUnits="userSpaceOnUse"><stop offset="0" stop-color="#4f309e"/><stop offset="0.33" stop-color="#472990"/><stop offset="1" stop-color="#391d77"/></linearGradient><radialGradient id="radial-gradient" cx="20.66" cy="18.41" r="50.72" gradientUnits="userSpaceOnUse"><stop offset="0" stop-color="#71f5ff"/><stop offset="0.13" stop-color="#6ae9ff"/><stop offset="0.36" stop-color="#56c9ff"/><stop offset="0.38" stop-color="#54c5ff"/><stop offset="0.92" stop-color="#1483ff"/></radialGradient><radialGradient id="radial-gradient-2" cx="22.55" cy="17.42" r="50.14" gradientUnits="userSpaceOnUse"><stop offset="0" stop-color="#7a369e"/><stop offset="0.23" stop-color="#6e349e"/><stop offset="0.63" stop-color="#4f309e"/><stop offset="1" stop-color="#33128a"/></radialGradient><radialGradient id="radial-gradient-3" cx="10.21" cy="4.58" r="44.49" gradientUnits="userSpaceOnUse"><stop offset="0" stop-color="#8d6eff"/><stop offset="1"/></radialGradient><radialGradient id="radial-gradient-4" cx="24.02" cy="23.3" r="52.53" gradientUnits="userSpaceOnUse"><stop offset="0.45" stop-color="#fff"/><stop offset="0.5" stop-color="#f8f4f9"/><stop offset="0.58" stop-color="#e7d6e8"/><stop offset="0.69" stop-color="#caa6cd"/><stop offset="0.83" stop-color="#a263a8"/><stop offset="0.97" stop-color="#700f79"/><stop offset="1" stop-color="#670070"/></radialGradient><radialGradient id="radial-gradient-5" cx="14.09" cy="14.44" r="39.91" gradientUnits="userSpaceOnUse"><stop offset="0" stop-color="#91fbff"/><stop offset="1"/></radialGradient><radialGradient id="radial-gradient-6" cx="27.52" cy="24.04" r="49.82" gradientUnits="userSpaceOnUse"><stop offset="0.33" stop-color="#fff"/><stop offset="0.4" stop-color="#f4fafa"/><stop offset="0.52" stop-color="#d6eeed"/><stop offset="0.68" stop-color="#a6dad7"/><stop offset="0.87" stop-color="#64beb9"/><stop offset="1" stop-color="#35aaa4"/></radialGradient><radialGradient id="radial-gradient-7" cx="18.75" cy="33.68" r="58.79" gradientUnits="userSpaceOnUse"><stop offset="0" stop-color="#00e1ff"/><stop offset="1"/></radialGradient><radialGradient id="radial-gradient-8" cx="39.22" cy="37.44" r="6.15" xlink:href="#radial-gradient-7"/><radialGradient id="radial-gradient-9" cx="9.67" cy="18.76" r="7.11" xlink:href="#radial-gradient-7"/><radialGradient id="radial-gradient-10" cx="22.64" cy="16.78" r="6.6" xlink:href="#radial-gradient-7"/><radialGradient id="radial-gradient-11" cx="30.57" cy="25.67" r="7.02" xlink:href="#radial-gradient-7"/><radialGradient id="radial-gradient-12" cx="43.75" cy="40.24" r="47.47" gradientUnits="userSpaceOnUse"><stop offset="0.04"/><stop offset="0.84"/><stop offset="0.85" stop-color="#0f0a16"/><stop offset="0.9" stop-color="#452f68"/><stop offset="0.93" stop-color="#704ca9"/><stop offset="0.96" stop-color="#8f61d7"/><stop offset="0.99" stop-color="#a26ef4"/><stop offset="1" stop-color="#a973ff"/></radialGradient></defs><g style="isolation:isolate"><g id="Layer_2" data-name="Layer 2"><g id="Layer_1-2" data-name="Layer 1"><path d="M.5,27.3l0,2.31,1.08,4,5.6,9.62L19.09,54.88l10.12,5.64,11.21.75,7.13-3.4,6.14-3.74,4.65-5.22L60.58,44l2.63-7.14.4-1.8.1-1.2c-.16-6.62-13.05-11.34-26.82-13.3C20.31,18.15,1.83,18.18.5,27.3Z" fill-rule="evenodd" fill="url(#linear-gradient)"/><path d="M31.92,1.31A31.06,31.06,0,1,1,.86,32.37,31.05,31.05,0,0,1,31.92,1.31Z" fill-rule="evenodd" fill="url(#radial-gradient)"/><path d="M11.89,8.43A4.9,4.9,0,0,1,11,9.89C9.38,11.58,5.85,13.41,5.77,16c0,.4.25.79.22,1.2a21.3,21.3,0,0,1-.47,2.38c-.21,1.17.32,2.64,1.74,2.29.77-.19,2.33-.74,2.53-.69.76.19,1.69,1.14,2.61,1,1.49-.15,2.76-1.5,4-1.89,2.72-.84,5.52,2.07,6.49,4.71,1.41,3.84,2.88,8.72,4.17,9.58.78.53,2.19.83,2.63,1.12,1.4,1,2.26,4.07,3.16,5.17A3.78,3.78,0,0,0,37,42.21c1.38-.38,4.13-1,5-1.08,2.45-.3,7.16.16,8.3-.38A22.42,22.42,0,0,0,54.6,37.6c1.9-1.48,3.52-2.1,4.42-3.46.38-.56.29-2,.31-2.93,0-1.36,1-1.8,1.49-2.78,1.22-2.51-.71-7.4-1.57-9.89-.25-.72-.56-1.42-.79-2.14-.16-.49-.26-.95-.36-1.4A13.21,13.21,0,0,0,55,9.67C53.76,8.53,51.76,8,50.36,7A38,38,0,0,0,32,0c-1.51-.08-6.31,1.54-9.31,2.48S16.4,4.39,13.77,6.22a5.52,5.52,0,0,0-1.88,2.21ZM2.81,31.08A1,1,0,0,1,1.67,31,6.34,6.34,0,0,1,.5,27.3a49.29,49.29,0,0,0-.41,5.07,34.73,34.73,0,0,0,.43,9.2c.47,1.64,2.6,5.25,5.95,9.92,2.34,3.25,6,7.39,7.59,8.2,2.44,1.23,11.77,4.05,17.86,4.05a47.33,47.33,0,0,0,7.5-.55,37.44,37.44,0,0,0,7.41-1.83c2.47-1.33,6.61-5.19,9.28-8.48,2-2.47,5.45-7,5.76-7.82a62.06,62.06,0,0,0,1.84-11.23c-.3,3.18-1.32,3-2.66,5.5a34.83,34.83,0,0,0-1.41,3.26c-1,2.53-2,5.7-3.53,8A9.91,9.91,0,0,1,54,52.88a4.71,4.71,0,0,1-1.87.83c-.45.1-.92-.22-1.37-.13-2.26.47-3.51,2.69-5.23,3.82a11.25,11.25,0,0,1-3.19,1.41,6.83,6.83,0,0,1-7.43-2.45c-1.34-1.13-5.78-1.61-7.67-2.11-4.51-1.19-3.88-4.65-4.11-5.56a3,3,0,0,0-1.58-2.12c-.71-.36-5.11-.75-6.43-1.37-3.35-1.56-4.55-4.83-5-9.64a21.93,21.93,0,0,0-.89-4.69A2.94,2.94,0,0,0,6,29.48a26,26,0,0,0-3.21,1.6ZM38.63,36.5A5.5,5.5,0,0,0,38,38.69c0,.32.15.85.4.81.83-.15,2.33-.42,3.55-.6.77-.12,1.63-.11,2.39-.28a.74.74,0,0,0,.54-.55c.07-.35-.86-1.56-1.24-1.72-1.15-.49-4.1-.71-5,.15Zm-10.56-17c-1.8.13-1.88,3.23-1.67,4.57a13,13,0,0,0,1.39,4.35,3.78,3.78,0,0,0,3.58,1.29,1.4,1.4,0,0,0,.92-1.11c.1-1.15-.54-2.26-.53-3.41s.86-3.76.28-4.29a5.93,5.93,0,0,0-4-1.4Zm-6.26-5.68a1.84,1.84,0,0,0-1.38.58,1.51,1.51,0,0,0-.31,1.49,11.88,11.88,0,0,0,2.63,3.28,1.13,1.13,0,0,0,1.13.33,1.64,1.64,0,0,0,.72-1.12A9.51,9.51,0,0,0,25,15.14a1.26,1.26,0,0,0-.75-1,5.52,5.52,0,0,0-2.43-.41Zm-7.94,1.69c-1.11.21-2.69,2.15-2,3a1,1,0,0,0,1,.38,14.54,14.54,0,0,0,2.51-1.29,6.78,6.78,0,0,0,1-.39,1,1,0,0,0-.06-1.47,4.33,4.33,0,0,0-2.37-.2Z" fill-rule="evenodd" fill="url(#radial-gradient-2)"/><path d="M10.1,35.56a21.93,21.93,0,0,0-.89-4.69A2.94,2.94,0,0,0,6,29.48a26,26,0,0,0-3.21,1.6,1.23,1.23,0,0,1-.34.11,6,6,0,0,0,1.7,4.43c.75.83,1.68.72,3,2.57a17.77,17.77,0,0,0,1,1.74A9.38,9.38,0,0,0,10.69,42a5.46,5.46,0,0,0,1.32.47,16,16,0,0,1-1.91-6.92Zm18-16.11c-1.8.13-1.88,3.23-1.67,4.57a13,13,0,0,0,1.39,4.35,3.78,3.78,0,0,0,3.58,1.29,1.4,1.4,0,0,0,.92-1.11c.1-1.15-.54-2.26-.53-3.41s.86-3.76.28-4.29a5.93,5.93,0,0,0-4-1.4Zm-6.26-5.68a1.84,1.84,0,0,0-1.38.58,1.51,1.51,0,0,0-.31,1.49,11.88,11.88,0,0,0,2.63,3.28,1.13,1.13,0,0,0,1.13.33,1.64,1.64,0,0,0,.72-1.12A9.51,9.51,0,0,0,25,15.14a1.26,1.26,0,0,0-.75-1,5.52,5.52,0,0,0-2.43-.41Zm-7.94,1.69c-1.11.21-2.69,2.15-2,3a1,1,0,0,0,1,.38,14.54,14.54,0,0,0,2.51-1.29,6.78,6.78,0,0,0,1-.39,1,1,0,0,0-.06-1.47,4.33,4.33,0,0,0-2.37-.2ZM24.36,2l-1.67.53c-3.12,1-6.29,1.91-8.92,3.74a5.52,5.52,0,0,0-1.88,2.21l-.15.33A4.17,4.17,0,0,1,11,9.89c-.67.71-1.69,1.44-2.64,2.25a6.67,6.67,0,0,0-2.53,3.37,2.73,2.73,0,0,0-.05.5c0,.4.25.79.22,1.2a21.3,21.3,0,0,1-.47,2.38,2.48,2.48,0,0,0,.3,1.77,1.26,1.26,0,0,0,1.44.52c.77-.19,2.33-.74,2.53-.69.76.19,1.69,1.14,2.61,1,1.49-.15,2.76-1.5,4-1.89,2.72-.84,5.52,2.07,6.49,4.71,1.41,3.84,2.88,8.72,4.17,9.58.78.53,2.19.83,2.63,1.12.91.64,1.6,2.19,2.22,3.49a15.71,15.71,0,0,0,1.8-2.17,25.68,25.68,0,0,1,1.78-2.7c1.25-1.26,3-1.2,4.07-3.61.42-1,.12-2.21.58-3.19.55-1.18,1.81-1.93,2.36-3.11a9.68,9.68,0,0,0,.84-2.79,6.34,6.34,0,0,0,.07-1.07c0-2.16-.72-4.25-1-6.39-.19-1.46,0-3-.38-4.4-.68-2.4-2.11-2.68-3.69-3.9-.94-.72-1.64-1.78-2.69-2.32a15.9,15.9,0,0,0-4.49-1.37,15.31,15.31,0,0,0-4.06-.15A10.56,10.56,0,0,1,25.3,2C25,2,24.68,2,24.36,2Zm12.9,7.26c0-.28.39-.49.67-.54,1.43-.22,2.86,1.62,3.15,2.93.2.89,0,1.84.21,2.74s.61,1.63.79,2.49c.6,3,.73,5.24-1,7.76-1.13,1.6-2.51,1.26-2.57-.79A5.8,5.8,0,0,1,39,21.52c.93-2.4,2.07-2.91,2-5.81a2.42,2.42,0,0,0-.33-1.33c-.31-.45-1.24-.79-1.29-1a5,5,0,0,0-.46-1.57c-.34-.52-.81-.48-1.2-1a2.33,2.33,0,0,1-.46-1.64ZM9.46,14.35c-.49-.23,0-1.77.29-2.1s1.06-.5,1.57-.79a4.1,4.1,0,0,0,1.16-.74c.19-.21.83-2.44,1.31-3.13.35-.51,1.56-1.27,1.92-.93.18.18,0,1.16-.08,1.39-.24.47-.89.8-1,1.67a14,14,0,0,1,.08,2.41,2.27,2.27,0,0,1-.78,1.49c-.51.35-1.24.11-1.83.29-.38.12-.65.52-1,.58a2.75,2.75,0,0,1-1.61-.14Z" fill-rule="evenodd" fill="url(#radial-gradient-3)" style="mix-blend-mode:screen"/><path d="M27.22,55.53c-1.16-.37-8.07-1.64-9.87-3.65-.85-.94-1.49-2.74-2.24-3.07a26.75,26.75,0,0,0-2.66-.43,14.28,14.28,0,0,1-2.82-.65,9,9,0,0,1-3.24-2.24c-3.51-3.67-2-4.38-3.27-8.63C2.8,35.83,1.94,35,1.54,34a8.76,8.76,0,0,1-.66-2.93,2.17,2.17,0,0,0,0-.26,11.87,11.87,0,0,1,.06-1.22A8.65,8.65,0,0,1,.5,27.3a49.29,49.29,0,0,0-.41,5.07,34.73,34.73,0,0,0,.43,9.2c.47,1.64,2.6,5.25,5.95,9.92,2.34,3.25,6,7.39,7.59,8.2,2.44,1.23,11.77,4.05,17.86,4.05a47.33,47.33,0,0,0,7.5-.55,37.44,37.44,0,0,0,7.41-1.83c2.47-1.33,6.61-5.19,9.28-8.48,2-2.47,5.45-7,5.76-7.82a62.06,62.06,0,0,0,1.84-11.23A5.6,5.6,0,0,1,62.64,37a16.83,16.83,0,0,0-1.59,2.29,34.83,34.83,0,0,0-1.41,3.26c-1,2.53-2,5.7-3.53,8A9.91,9.91,0,0,1,54,52.88a4.71,4.71,0,0,1-1.87.83c-.45.1-.92-.22-1.37-.13-2.26.47-3.51,2.69-5.23,3.82a11.25,11.25,0,0,1-3.19,1.41,6.52,6.52,0,0,1-6.77-1.75,7.2,7.2,0,0,0-2.94-1.49,4.68,4.68,0,0,0-1.58,0,11.7,11.7,0,0,1-3.83-.08ZM53.78,19.35c.25,1.58,1.33,3,1.41,4.57A2.9,2.9,0,0,1,55,25.23c-.59,1.38-2,2.31-1.34,7.32a12.58,12.58,0,0,1,.17,2.74,21.48,21.48,0,0,1-.72,3.62c.66-.55,1.21-1,1.54-1.31,1.9-1.48,3.52-2.1,4.42-3.46.38-.56.29-2,.31-2.93,0-1.26.89-1.73,1.39-2.58l.1-.2c1.22-2.51-.71-7.4-1.57-9.89-.25-.72-.56-1.42-.79-2.14,0-.12-.08-.24-.11-.36-.1-.36-.18-.7-.25-1A13.21,13.21,0,0,0,55,9.67C53.76,8.53,51.76,8,50.36,7A38,38,0,0,0,32,0a13,13,0,0,0-3.16.59c1.91.23,4.09.5,6.16.87A25.56,25.56,0,0,1,40.67,3c.68.31,1,1.1,1.65,1.53,1,.73,2.23,1.2,3.24,2C46.41,7.12,47,8,47.88,8.65a10.7,10.7,0,0,1,1.95,1.58,15.78,15.78,0,0,1,1.46,2.49,23.77,23.77,0,0,1,2.2,3.77,16.91,16.91,0,0,1,.29,2.86Z" fill-rule="evenodd" opacity="0.7" fill="url(#radial-gradient-4)" style="mix-blend-mode:multiply"/><path d="M5.52,16.93A29.65,29.65,0,0,0,2.08,27.22c-.11,1-.55,3.94,1.24,2.9,2.26-1.3,6.67-4.49,7.14.83.21,2.41.47,8.8,1.78,10.58,1.65,2.23,5.37,4.25,10.79,3.32,1.78-.3,3.64-2.21,3.57-2.9-.1-1.05-5.16-.92,3.19-2.47a.91.91,0,0,0,.71-.71,2,2,0,0,0-.77-1.62,6.61,6.61,0,0,0-1.36-.33c-2.46-.41-3-.73-3.53-2.65-.92-3.36-1.18-6.84-2.93-10.15a4.52,4.52,0,0,0-5.56-2.28c-1.52.53-4.33,2.49-5.89,2.41-1,0-1-.62-1-1.13s.08-.76-.13-.92c-.37-.27-1.57.21-2,.36-1,.33-2.08.52-2.39-1.05A5.52,5.52,0,0,1,5,19.6a11.42,11.42,0,0,1,.46-1.51,10.24,10.24,0,0,0,.33-1c0-.1,0-.27,0-.32s-.17.1-.22.19Z" fill-rule="evenodd" fill="url(#radial-gradient-5)" style="mix-blend-mode:screen"/><path d="M53.06,38.91a20,20,0,0,0-1.72,2.78c-.47,1.15.18,2.64-1.33,4.48a3.32,3.32,0,0,1-1.82,1c-3.31.75-7.45.39-10.46,3-1.78,1.54-1.61,4-4.83,5.32a5.94,5.94,0,0,1,2,.89,6.83,6.83,0,0,0,7.43,2.45,11.25,11.25,0,0,0,3.19-1.41c1.72-1.13,3-3.35,5.23-3.82.45-.09.92.23,1.37.13A4.71,4.71,0,0,0,54,52.88a9.91,9.91,0,0,0,2.11-2.32c1.49-2.27,2.49-5.44,3.53-8a34.83,34.83,0,0,1,1.41-3.26A16.83,16.83,0,0,1,62.64,37,32.59,32.59,0,0,0,63,32.37,30.89,30.89,0,0,0,58.35,16c0,.12.07.24.11.36.23.72.54,1.42.79,2.14.86,2.49,2.79,7.38,1.57,9.89-.47,1-1.45,1.42-1.49,2.78,0,.89.07,2.37-.31,2.93-.9,1.36-2.52,2-4.42,3.46-.33.26-.88.76-1.54,1.31ZM35,51.49A1.75,1.75,0,0,1,34.56,53a3.65,3.65,0,0,1-1.81.9,5.71,5.71,0,0,1-2.94-.23c-.61-.5-.65-2.46.83-2.71.62-.1,1.25.12,1.88.08s1-.4,1.47-.31a1.24,1.24,0,0,1,1,.76Zm13.36-8.16a.89.89,0,0,1,.75.19,2.28,2.28,0,0,1,.41,2,3.3,3.3,0,0,1-2.59.79.56.56,0,0,1-.37-.46,2.58,2.58,0,0,1,1.8-2.49Z" fill-rule="evenodd" fill="url(#radial-gradient-6)" style="mix-blend-mode:multiply"/><path d="M9.33,34c.14,3.71-.46,6.9,1.16,10.58.9,2,3.54,2.66,5.56,2.66.87,0,1.71-.21,2.57-.25,1,0,3.41.25,3.61,1.49s-.22,2.71.29,3.9a4.12,4.12,0,0,0,.95,1.32c1.46,1.43,2.05,1.22,4,1.52,1.34.2,5.4.65,6.57,1.31,1.67,1,2.68,2.82,5.14,3.65,1.42.48,6.09-1.12,7.31-2.32,1.49-1.48,2.15-2.73,3.56-3.32.77-.32,1.2.85,3.2-.21A6.63,6.63,0,0,0,55,53c4-4.24,4.44-9.87,7.07-15.28a11.89,11.89,0,0,0-1,1.57,34.83,34.83,0,0,0-1.41,3.26c-1,2.53-2,5.7-3.53,8A9.91,9.91,0,0,1,54,52.88a4.71,4.71,0,0,1-1.87.83c-.45.1-.92-.22-1.37-.13-2.26.47-3.51,2.69-5.23,3.82a11.25,11.25,0,0,1-3.19,1.41,6.83,6.83,0,0,1-7.43-2.45c-1.34-1.13-5.78-1.61-7.67-2.11-4.51-1.19-3.88-4.65-4.11-5.56a3,3,0,0,0-1.58-2.12c-.71-.36-5.11-.75-6.43-1.37-3.35-1.56-4.55-4.83-5-9.64a21.93,21.93,0,0,0-.89-4.69A2.94,2.94,0,0,0,6,29.48a26,26,0,0,0-3.21,1.6A1,1,0,0,1,1.67,31,6.34,6.34,0,0,1,.5,27.3c0,.24-.08.49-.11.74a14.16,14.16,0,0,0,.37,3.22c.28.86,1.46,1.57,2.22,1S4.55,30.54,5.51,30a2.05,2.05,0,0,1,.85-.29c2.37-.29,2.91,2.7,3,4.33Z" fill-rule="evenodd" opacity="0.6" fill="url(#radial-gradient-7)" style="mix-blend-mode:screen"/><path d="M38.44,39.5c-.25,0-.41-.49-.4-.81a6.42,6.42,0,0,1,.19-1.14,5.34,5.34,0,0,0-.48,2.51c.1.33.85.53,1.31.41.84-.23,1.64-.6,2.47-.87s2.35-.52,2.85-.75a1.17,1.17,0,0,0,.44-.39,1,1,0,0,0,.07-.28.74.74,0,0,1-.51.44c-.76.17-1.62.16-2.39.28-1.22.18-2.72.45-3.55.6Z" fill-rule="evenodd" fill="url(#radial-gradient-8)" style="mix-blend-mode:screen"/><path d="M11,18.53a1.57,1.57,0,0,0,2.18.8,22.63,22.63,0,0,1,2.83-2,6.8,6.8,0,0,0-.68.24,14.54,14.54,0,0,1-2.51,1.29,1,1,0,0,1-1-.38c-.45-.56.13-1.61.88-2.31-.77.6-1.94,1.7-1.72,2.41Z" fill-rule="evenodd" fill="url(#radial-gradient-9)" style="mix-blend-mode:screen"/><path d="M21.53,19.21a7.75,7.75,0,0,0,1.53,1.9.44.44,0,0,0,.51,0c.24-.21.25-.6.44-.85s.4-.16.48-.33a4.84,4.84,0,0,0,.21-.61A14.07,14.07,0,0,0,25,16.37a13.86,13.86,0,0,1-.38,2,2.08,2.08,0,0,1-.48,1,.78.78,0,0,1-.24.16,1,1,0,0,1-1-.21l-.15-.12a11.88,11.88,0,0,1-2.63-3.28,1,1,0,0,1-.07-.66,2.06,2.06,0,0,0-.11.65,11.63,11.63,0,0,0,1.59,3.38Z" fill-rule="evenodd" fill="url(#radial-gradient-10)" style="mix-blend-mode:screen"/><path d="M26.39,21.77a10.29,10.29,0,0,0-.68,4.07,8.4,8.4,0,0,0,.44,1.37,12,12,0,0,0,.47,2c.76,1.59,3.34,1.89,4.82,1.25.67-.3.81-1.12.84-1.81a1.43,1.43,0,0,1-.91,1,3.78,3.78,0,0,1-3.58-1.29A13,13,0,0,1,26.4,24a8.36,8.36,0,0,1,0-2.25Z" fill-rule="evenodd" fill="url(#radial-gradient-11)" style="mix-blend-mode:screen"/><path d="M11.89,8.43A4.9,4.9,0,0,1,11,9.89C9.38,11.58,5.85,13.41,5.77,16c0,.4.25.79.22,1.2a21.3,21.3,0,0,1-.47,2.38c-.21,1.17.32,2.64,1.74,2.29.77-.19,2.33-.74,2.53-.69.76.19,1.69,1.14,2.61,1,1.49-.15,2.76-1.5,4-1.89,2.72-.84,5.52,2.07,6.49,4.71,1.41,3.84,2.88,8.72,4.17,9.58.78.53,2.19.83,2.63,1.12,1.4,1,2.26,4.07,3.16,5.17A3.78,3.78,0,0,0,37,42.21c1.38-.38,4.13-1,5-1.08,2.45-.3,7.16.16,8.3-.38A22.42,22.42,0,0,0,54.6,37.6c1.9-1.48,3.52-2.1,4.42-3.46.38-.56.29-2,.31-2.93,0-1.36,1-1.8,1.49-2.78,1.22-2.51-.71-7.4-1.57-9.89-.25-.72-.56-1.42-.79-2.14-.16-.49-.26-.95-.36-1.4A13.21,13.21,0,0,0,55,9.67C53.76,8.53,51.76,8,50.36,7A38,38,0,0,0,32,0c-1.51-.08-6.31,1.54-9.31,2.48S16.4,4.39,13.77,6.22a5.52,5.52,0,0,0-1.88,2.21ZM2.81,31.08A1,1,0,0,1,1.67,31,6.34,6.34,0,0,1,.5,27.3a49.29,49.29,0,0,0-.41,5.07,34.73,34.73,0,0,0,.43,9.2c.47,1.64,2.6,5.25,5.95,9.92,2.34,3.25,6,7.39,7.59,8.2,2.44,1.23,11.77,4.05,17.86,4.05a47.33,47.33,0,0,0,7.5-.55,37.44,37.44,0,0,0,7.41-1.83c2.47-1.33,6.61-5.19,9.28-8.48,2-2.47,5.45-7,5.76-7.82a62.06,62.06,0,0,0,1.84-11.23c-.3,3.18-1.32,3-2.66,5.5a34.83,34.83,0,0,0-1.41,3.26c-1,2.53-2,5.7-3.53,8A9.91,9.91,0,0,1,54,52.88a4.71,4.71,0,0,1-1.87.83c-.45.1-.92-.22-1.37-.13-2.26.47-3.51,2.69-5.23,3.82a11.25,11.25,0,0,1-3.19,1.41,6.83,6.83,0,0,1-7.43-2.45c-1.34-1.13-5.78-1.61-7.67-2.11-4.51-1.19-3.88-4.65-4.11-5.56a3,3,0,0,0-1.58-2.12c-.71-.36-5.11-.75-6.43-1.37-3.35-1.56-4.55-4.83-5-9.64a21.93,21.93,0,0,0-.89-4.69A2.94,2.94,0,0,0,6,29.48a26,26,0,0,0-3.21,1.6ZM38.63,36.5A5.5,5.5,0,0,0,38,38.69c0,.32.15.85.4.81.83-.15,2.33-.42,3.55-.6.77-.12,1.63-.11,2.39-.28a.74.74,0,0,0,.54-.55c.07-.35-.86-1.56-1.24-1.72-1.15-.49-4.1-.71-5,.15Zm-10.56-17c-1.8.13-1.88,3.23-1.67,4.57a13,13,0,0,0,1.39,4.35,3.78,3.78,0,0,0,3.58,1.29,1.4,1.4,0,0,0,.92-1.11c.1-1.15-.54-2.26-.53-3.41s.86-3.76.28-4.29a5.93,5.93,0,0,0-4-1.4Zm-6.26-5.68a1.84,1.84,0,0,0-1.38.58,1.51,1.51,0,0,0-.31,1.49,11.88,11.88,0,0,0,2.63,3.28,1.13,1.13,0,0,0,1.13.33,1.64,1.64,0,0,0,.72-1.12A9.51,9.51,0,0,0,25,15.14a1.26,1.26,0,0,0-.75-1,5.52,5.52,0,0,0-2.43-.41Zm-7.94,1.69c-1.11.21-2.69,2.15-2,3a1,1,0,0,0,1,.38,14.54,14.54,0,0,0,2.51-1.29,6.78,6.78,0,0,0,1-.39,1,1,0,0,0-.06-1.47,4.33,4.33,0,0,0-2.37-.2Z" fill-rule="evenodd" fill="url(#radial-gradient-12)" style="mix-blend-mode:screen"/></g></g></g></svg>