<svg xmlns="http://www.w3.org/2000/svg" width="39.65" height="82.68" viewBox="0 0 39.65 82.68"><g id="Layer_2" data-name="Layer 2"><g id="Ñëîé_1" data-name="Ñëîé 1"><rect x="5.17" y="22.16" width="5.75" height="54.1" fill="#acb0b7"/><polygon points="10.92 22.16 5.17 22.16 7.51 16.23 8.58 16.23 10.92 22.16" fill="#acb0b7"/><path d="M11.39,46h8.44V.07a22.22,22.22,0,0,0-8.44,17Z" fill="#f44c1a"/><path d="M14.21,34.59l-.45,10.55v30s-7.88-1-10.44-1.56-3.26-3.83-3.23-6-.54-6.38,1.36-8.26C8.6,52.28,14.21,43.58,14.21,34.59Z" fill="#262626"/><path d="M13.82,38.78,16,47.45,13.76,72.19H3.32A3.41,3.41,0,0,1,.09,68.61s-.6-5.61,1.29-7C9.36,55.72,13.82,47.1,13.82,38.78Z" fill="#d6d6d7"/><polygon points="19.83 76.52 12.26 76.52 12.26 71.19 13.76 67.71 19.83 67.71 19.83 76.52" fill="#d6d6d7"/><path d="M19.83,22.16c-3.32,0-6.07,8.35-6.07,11.29V67.71h6.07V22.16Z" fill="#e4e7eb"/><path d="M15.79,26.12a10,10,0,0,1,4-1.85V22.16h0C18.3,22.16,16.85,23.93,15.79,26.12Z" fill="#262626"/><path d="M19.83,26.87V25.5s-3.31.62-3.79,1.88-.28,1.17-.28,1.17c.19.05.73-.53.88-.63a4.68,4.68,0,0,1,1.29-.63C18.06,27.24,19.83,26.91,19.83,26.87Z" fill="#262626"/><polygon points="19.83 62.34 19.83 82.69 18.04 80.93 18.04 67.94 19.83 62.34" fill="#d4d8dd"/><path d="M18,81l-2.72,0A1.71,1.71,0,0,1,13.76,79l.05-2.54,4.28.07Z" fill="#acb0b7"/><rect x="28.74" y="22.16" width="5.75" height="55.44" fill="#acb0b7"/><polygon points="28.74 22.16 34.48 22.16 32.14 16.23 31.07 16.23 28.74 22.16" fill="#acb0b7"/><path d="M28.26,46H19.83V.07a22.24,22.24,0,0,1,8.43,17Z" fill="#f44c1a"/><path d="M25.44,34.59l.45,10.55v30s7.89-1,10.45-1.56,3.26-3.83,3.22-6,.54-6.38-1.35-8.26C31.05,52.28,25.44,43.58,25.44,34.59Z" fill="#262626"/><path d="M25.84,38.78l-2.23,8.67,2.28,24.74H36.34a3.41,3.41,0,0,0,3.22-3.58s.61-5.61-1.29-7C30.3,55.72,25.84,47.1,25.84,38.78Z" fill="#d6d6d7"/><polygon points="19.83 76.52 27.39 76.52 27.39 71.19 25.89 67.71 19.83 67.71 19.83 76.52" fill="#d6d6d7"/><path d="M19.83,22.16c3.31,0,6.06,8.35,6.06,11.29V67.71H19.83V22.16Z" fill="#e4e7eb"/><path d="M23.86,26.12a10,10,0,0,0-4-1.85V22.16h0C21.35,22.16,22.81,23.93,23.86,26.12Z" fill="#262626"/><path d="M19.83,26.87V25.5s3.31.62,3.78,1.88.28,1.17.28,1.17c-.19.05-.73-.53-.88-.63a4.55,4.55,0,0,0-1.29-.63C21.59,27.24,19.83,26.91,19.83,26.87Z" fill="#262626"/><polygon points="19.83 62.34 19.83 82.69 21.62 80.93 21.62 67.94 19.83 62.34" fill="#bac2cc"/><path d="M21.67,81l2.71,0A1.72,1.72,0,0,0,25.9,79l-.06-2.54-4.27.07Z" fill="#acb0b7"/><polygon points="12.43 80.93 3.66 80.93 5.17 76.26 10.92 76.26 12.43 80.93" fill="#acb0b7"/><polygon points="35.99 80.93 27.23 80.93 28.74 76.26 34.48 76.26 35.99 80.93" fill="#d4d8dd"/></g></g></svg>