<svg xmlns="http://www.w3.org/2000/svg" width="84.02" height="126.33" viewBox="0 0 84.02 126.33"><g id="Layer_2" data-name="Layer 2"><g id="Layer_1-2" data-name="Layer 1"><path d="M29.78,17.28s-5.58,42.84-22,54.11C3.33,74.4.22,75.91,0,79.12c0,.2,29.83,0,29.83,0Z" fill="#7fb5d0"/><rect y="79.12" width="29.78" height="3.18" fill="#1c3361"/><path d="M0,82.3H15.68a3.18,3.18,0,0,1-3.18,3.18H3.18A3.18,3.18,0,0,1,0,82.3Z" fill="#f15e22"/><path d="M54.24,17.28s5.57,42.84,22.05,54.11c4.39,3,7.51,4.52,7.73,7.73,0,.2-29.84,0-29.84,0Z" fill="#048bc4"/><rect x="54.24" y="79.12" width="29.78" height="3.18" fill="#061e39"/><path d="M84,82.3H68.33a3.18,3.18,0,0,0,3.19,3.18h9.32A3.18,3.18,0,0,0,84,82.3Z" fill="#bf3e26"/><path d="M42.06,0S28.4,11.14,28.64,20.46s0,76.84,0,76.84H42.06" fill="#f2f2f2"/><path d="M42.06,0S55.72,11.14,55.47,20.46s0,76.84,0,76.84H42.06" fill="#bfdae8"/><path d="M42.06,103.22H33.57s-6.27,6.4,8.49,23.11" fill="#f15e22"/><path d="M42.06,103.22h8.48s6.28,6.4-8.48,23.11" fill="#bf3e26"/><path d="M42.06,100H33.65s-3.64,5.23,8.41,18.88" fill="#febd11"/><path d="M42.06,100h8.41s3.64,5.23-8.41,18.88" fill="#c6942c"/><path d="M7.84,89.06H2.6s-3.88,4,5.24,14.28" fill="#f15e22"/><path d="M7.84,89.06h5.24S17,93,7.84,103.34" fill="#bf3e26"/><path d="M7.84,87.1H2.64S.4,90.33,7.84,98.75" fill="#febd11"/><path d="M7.84,87.1H13s2.24,3.23-5.2,11.65" fill="#c6942c"/><path d="M76.28,89.06H71s-3.88,4,5.24,14.28" fill="#f15e22"/><path d="M76.28,89.06h5.24s3.87,4-5.24,14.28" fill="#bf3e26"/><path d="M76.28,87.1h-5.2s-2.24,3.23,5.2,11.65" fill="#febd11"/><path d="M76.28,87.1h5.19s2.25,3.23-5.19,11.65" fill="#c6942c"/><path d="M48.81,20.18a6.75,6.75,0,1,1-6.75-6.75A6.75,6.75,0,0,1,48.81,20.18Z" fill="#048bc4"/><path d="M42.06,13.43a6.75,6.75,0,0,1,0,13.5Z" fill="#02405a"/><rect x="28.64" y="92.93" width="26.83" height="4.38" fill="#048bc4"/><rect x="42.06" y="92.93" width="13.42" height="4.38" fill="#02405a"/></g></g></svg>