<svg xmlns="http://www.w3.org/2000/svg" width="145.18" height="369.1" viewBox="0 0 145.18 369.1"><g id="Layer_2" data-name="Layer 2"><g id="Rocket"><polygon points="36.03 362.46 16.82 362.98 16.82 327.27 36.03 326.75 36.03 362.46" fill="#455a64"/><rect x="14.63" y="335.54" width="23.85" height="2.77" rx="1.37" fill="#455a64"/><rect x="14.63" y="341.11" width="23.85" height="2.77" rx="1.37" fill="#455a64"/><rect x="14.63" y="346.68" width="23.85" height="2.77" rx="1.37" fill="#455a64"/><rect x="14.63" y="352.24" width="23.85" height="2.77" rx="1.37" fill="#455a64"/><rect x="14.63" y="357.81" width="23.85" height="2.77" rx="1.37" fill="#455a64"/><polygon points="13.33 369.1 16.82 362.46 36.03 362.46 40.23 369.1 13.33 369.1" fill="#455a64"/><path d="M37.53,335.54c0,.14-4.91.26-11,.26s-11-.12-11-.26,4.9-.26,11-.26S37.53,335.39,37.53,335.54Z" fill="#263238"/><path d="M37.07,338.31c0,.15-4.85.26-10.84.26s-10.84-.11-10.84-.26,4.86-.26,10.84-.26S37.07,338.17,37.07,338.31Z" fill="#263238"/><path d="M37.67,341.11c0,.14-5,.26-11.06.26s-11.07-.12-11.07-.26,4.95-.26,11.07-.26S37.67,341,37.67,341.11Z" fill="#263238"/><path d="M36.59,343.88c0,.14-4.7.26-10.5.26s-10.5-.12-10.5-.26,4.7-.26,10.5-.26S36.59,343.74,36.59,343.88Z" fill="#263238"/><path d="M37.36,346.73c0,.14-4.81.26-10.75.26s-10.76-.12-10.76-.26,4.81-.26,10.76-.26S37.36,346.58,37.36,346.73Z" fill="#263238"/><path d="M37.64,349.45c0,.14-4.88.26-10.9.26s-10.89-.12-10.89-.26,4.87-.26,10.89-.26S37.64,349.31,37.64,349.45Z" fill="#263238"/><path d="M37,352.24a97.76,97.76,0,0,1-10.28.27,97.64,97.64,0,0,1-10.27-.27c0-.14,4.6-.26,10.27-.26S37,352.1,37,352.24Z" fill="#263238"/><path d="M37.19,355c0,.14-4.6.26-10.28.26s-10.27-.12-10.27-.26a99.46,99.46,0,0,1,10.27-.26A99.58,99.58,0,0,1,37.19,355Z" fill="#263238"/><path d="M36.51,357.75a102,102,0,0,1-10.22.26,102,102,0,0,1-10.22-.26,98.54,98.54,0,0,1,10.22-.26A98.54,98.54,0,0,1,36.51,357.75Z" fill="#263238"/><path d="M36.45,360.59a95.22,95.22,0,0,1-9.88.26,95.38,95.38,0,0,1-9.88-.26,92.14,92.14,0,0,1,9.88-.26A92,92,0,0,1,36.45,360.59Z" fill="#263238"/><polygon points="128.1 362.46 108.9 362.98 108.9 327.27 128.1 326.75 128.1 362.46" fill="#455a64"/><rect x="106.7" y="335.54" width="23.85" height="2.77" rx="1.37" fill="#455a64"/><rect x="106.7" y="341.11" width="23.85" height="2.77" rx="1.37" fill="#455a64"/><rect x="106.7" y="346.68" width="23.85" height="2.77" rx="1.37" fill="#455a64"/><rect x="106.7" y="352.24" width="23.85" height="2.77" rx="1.37" fill="#455a64"/><rect x="106.7" y="357.81" width="23.85" height="2.77" rx="1.37" fill="#455a64"/><polygon points="105.41 369.1 108.9 362.46 128.1 362.46 132.31 369.1 105.41 369.1" fill="#455a64"/><path d="M129.6,335.54c0,.14-4.9.26-10.95.26s-11-.12-11-.26,4.91-.26,11-.26S129.6,335.39,129.6,335.54Z" fill="#263238"/><path d="M129.15,338.31c0,.15-4.86.26-10.84.26s-10.84-.11-10.84-.26,4.85-.26,10.84-.26S129.15,338.17,129.15,338.31Z" fill="#263238"/><path d="M129.74,341.11c0,.14-5,.26-11.06.26s-11.07-.12-11.07-.26,5-.26,11.07-.26S129.74,341,129.74,341.11Z" fill="#263238"/><path d="M128.67,343.88c0,.14-4.7.26-10.5.26s-10.5-.12-10.5-.26,4.7-.26,10.5-.26S128.67,343.74,128.67,343.88Z" fill="#263238"/><path d="M129.44,346.73c0,.14-4.82.26-10.76.26s-10.76-.12-10.76-.26,4.82-.26,10.76-.26S129.44,346.58,129.44,346.73Z" fill="#263238"/><path d="M129.71,349.45c0,.14-4.88.26-10.89.26s-10.9-.12-10.9-.26,4.88-.26,10.9-.26S129.71,349.31,129.71,349.45Z" fill="#263238"/><path d="M129.09,352.24a97.64,97.64,0,0,1-10.27.27,97.76,97.76,0,0,1-10.28-.27c0-.14,4.6-.26,10.28-.26S129.09,352.1,129.09,352.24Z" fill="#263238"/><path d="M129.26,355c0,.14-4.6.26-10.27.26s-10.28-.12-10.28-.26a99.58,99.58,0,0,1,10.28-.26A99.46,99.46,0,0,1,129.26,355Z" fill="#263238"/><path d="M128.58,357.75a101.71,101.71,0,0,1-10.21.26,101.84,101.84,0,0,1-10.22-.26,98.38,98.38,0,0,1,10.22-.26A98.26,98.26,0,0,1,128.58,357.75Z" fill="#263238"/><path d="M128.53,360.59a95.38,95.38,0,0,1-9.88.26,95.22,95.22,0,0,1-9.88-.26,92,92,0,0,1,9.88-.26A92.14,92.14,0,0,1,128.53,360.59Z" fill="#263238"/><path d="M43,110.45l.32,177.14H20.94V111.24a35.75,35.75,0,0,1,1.25-9.38l9.33-34.12c.37-1.33,1.94-1.3,2.38,1.09L42,102.07A35.38,35.38,0,0,1,43,110.45Z" fill="#e0e0e0"/><path d="M42.47,131.9a101.61,101.61,0,0,1-10.38.26,101.73,101.73,0,0,1-10.39-.26c0-.14,4.65-.26,10.39-.26S42.47,131.76,42.47,131.9Z" fill="#e8505b"/><path d="M42.6,154.09c0,.15-4.79.26-10.7.26s-10.71-.11-10.71-.26,4.79-.26,10.71-.26S42.6,154,42.6,154.09Z" fill="#263238"/><path d="M26.35,149.45c-.15,0-.26-.64-.26-1.42s.11-1.42.26-1.42.26.63.26,1.42S26.49,149.45,26.35,149.45Z" fill="#263238"/><ellipse cx="28.54" cy="148.03" rx="0.26" ry="1.16" fill="#263238"/><path d="M43.27,211.26c0,.15-4.94.26-11,.26s-11-.11-11-.26,4.93-.26,11-.26S43.27,211.12,43.27,211.26Z" fill="#263238"/><path d="M26.45,217.91c-.14,0-.26-.64-.26-1.43s.12-1.44.26-1.44.26.64.26,1.44S26.59,217.91,26.45,217.91Z" fill="#263238"/><path d="M28.14,218.17c-.14,0-.26-.67-.26-1.5s.12-1.5.26-1.5.27.67.27,1.5S28.29,218.17,28.14,218.17Z" fill="#263238"/><path d="M36,266.53a54,54,0,0,1-7.56.26,53.93,53.93,0,0,1-7.56-.26,55.82,55.82,0,0,1,7.56-.26A55.94,55.94,0,0,1,36,266.53Z" fill="#263238"/><path d="M42.72,108.14c0,.14-4.83.26-10.78.26s-10.77-.12-10.77-.26,4.82-.26,10.77-.26S42.72,108,42.72,108.14Z" fill="#263238"/><path d="M23.24,109.49c0-.07.25-.08.39.2a.58.58,0,0,1,0,.55.62.62,0,0,1-.68.23.61.61,0,0,1-.45-.55.58.58,0,0,1,.26-.49c.27-.17.47,0,.44,0s-.13.11-.19.24,0,.21.09.26.18,0,.21-.17S23.22,109.56,23.24,109.49Z" fill="#263238"/><path d="M32.08,109.49c0-.07.25-.08.39.2a.58.58,0,0,1,0,.55.62.62,0,0,1-.68.23.61.61,0,0,1-.45-.55.58.58,0,0,1,.26-.49c.27-.17.47,0,.44,0s-.13.11-.19.24,0,.21.09.26.19,0,.21-.17S32.06,109.56,32.08,109.49Z" fill="#263238"/><path d="M40.92,109.49c0-.07.25-.08.39.2a.58.58,0,0,1,0,.55.61.61,0,0,1-.68.23.62.62,0,0,1-.45-.55.58.58,0,0,1,.26-.49c.27-.17.47,0,.44,0s-.13.11-.19.24,0,.21.09.26.19,0,.21-.17S40.9,109.56,40.92,109.49Z" fill="#263238"/><path d="M23.24,156c0-.07.25-.08.39.21a.56.56,0,0,1,0,.54.63.63,0,0,1-1.13-.32.59.59,0,0,1,.26-.49c.27-.16.47,0,.44,0s-.13.11-.19.24,0,.21.09.26.18,0,.21-.17S23.22,156.09,23.24,156Z" fill="#263238"/><path d="M32.08,156c0-.07.25-.08.39.21a.56.56,0,0,1,0,.54.63.63,0,0,1-1.13-.32.59.59,0,0,1,.26-.49c.27-.16.47,0,.44,0s-.13.11-.19.24,0,.21.09.26.19,0,.21-.17S32.06,156.09,32.08,156Z" fill="#263238"/><path d="M40.92,156c0-.07.25-.08.39.21a.56.56,0,0,1,0,.54.6.6,0,0,1-.68.23.62.62,0,0,1-.45-.55.59.59,0,0,1,.26-.49c.27-.16.47,0,.44,0s-.13.11-.19.24,0,.21.09.26.19,0,.21-.17S40.9,156.09,40.92,156Z" fill="#263238"/><path d="M23.24,207.08c0-.07.25-.09.39.2a.58.58,0,0,1,0,.55.61.61,0,0,1-.68.22.6.6,0,0,1-.45-.55.56.56,0,0,1,.26-.48c.27-.17.47,0,.44,0s-.13.12-.19.24,0,.22.09.26.18,0,.21-.17S23.22,207.14,23.24,207.08Z" fill="#263238"/><path d="M32.08,207.08c0-.07.25-.09.39.2a.58.58,0,0,1,0,.55.61.61,0,0,1-.68.22.6.6,0,0,1-.45-.55.56.56,0,0,1,.26-.48c.27-.17.47,0,.44,0s-.13.12-.19.24,0,.22.09.26.19,0,.21-.17S32.06,207.14,32.08,207.08Z" fill="#263238"/><path d="M40.92,207.08c0-.07.25-.09.39.2a.58.58,0,0,1,0,.55.63.63,0,0,1-1.13-.33.56.56,0,0,1,.26-.48c.27-.17.47,0,.44,0s-.13.12-.19.24,0,.22.09.26.19,0,.21-.17S40.9,207.14,40.92,207.08Z" fill="#263238"/><path d="M23.24,262.73c0-.06.25-.08.39.21a.56.56,0,0,1,0,.54.63.63,0,0,1-1.13-.32.59.59,0,0,1,.26-.49c.27-.16.47,0,.44,0s-.13.11-.19.24,0,.21.09.26.18,0,.21-.17S23.22,262.8,23.24,262.73Z" fill="#263238"/><path d="M32.08,262.73c0-.06.25-.08.39.21a.56.56,0,0,1,0,.54.63.63,0,0,1-1.13-.32.59.59,0,0,1,.26-.49c.27-.16.47,0,.44,0s-.13.11-.19.24,0,.21.09.26.19,0,.21-.17S32.06,262.8,32.08,262.73Z" fill="#263238"/><path d="M103.56,110.45l-.32,177.14h22.41V111.24a35.35,35.35,0,0,0-1.26-9.38l-9.32-34.12c-.37-1.33-1.94-1.3-2.38,1.09l-8.12,33.24A35.38,35.38,0,0,0,103.56,110.45Z" fill="#e0e0e0"/><path d="M104.12,131.9c0-.14,4.65-.26,10.38-.26s10.39.12,10.39.26a101.73,101.73,0,0,1-10.39.26A101.61,101.61,0,0,1,104.12,131.9Z" fill="#e8505b"/><path d="M104,154.09c0-.14,4.79-.26,10.7-.26s10.71.12,10.71.26-4.79.26-10.71.26S104,154.24,104,154.09Z" fill="#263238"/><path d="M120.24,149.45c-.14,0-.26-.64-.26-1.42s.12-1.42.26-1.42.26.63.26,1.42S120.39,149.45,120.24,149.45Z" fill="#263238"/><ellipse cx="118.05" cy="148.03" rx="0.26" ry="1.16" fill="#263238"/><path d="M103.32,211.26c0-.14,4.94-.26,11-.26s11,.12,11,.26-4.93.26-11,.26S103.32,211.41,103.32,211.26Z" fill="#263238"/><path d="M120.14,217.91c-.14,0-.26-.64-.26-1.43s.12-1.44.26-1.44.26.64.26,1.44S120.28,217.91,120.14,217.91Z" fill="#263238"/><path d="M118.44,218.17c-.14,0-.26-.67-.26-1.5s.12-1.5.26-1.5.27.67.27,1.5S118.59,218.17,118.44,218.17Z" fill="#263238"/><path d="M110.62,266.53a55.94,55.94,0,0,1,7.56-.26,55.82,55.82,0,0,1,7.56.26,53.93,53.93,0,0,1-7.56.26A54,54,0,0,1,110.62,266.53Z" fill="#263238"/><path d="M103.87,108.14c0-.15,4.83-.26,10.77-.26s10.78.11,10.78.26-4.82.26-10.78.26S103.87,108.28,103.87,108.14Z" fill="#263238"/><path d="M123.35,109.49c0,.07,0,.17,0,.31s.07.2.21.17.16-.11.09-.26-.17-.17-.19-.24.17-.21.44,0a.58.58,0,0,1,.26.49.61.61,0,0,1-.45.55.62.62,0,0,1-.68-.23.58.58,0,0,1,0-.55C123.1,109.41,123.35,109.42,123.35,109.49Z" fill="#263238"/><path d="M114.51,109.49c0,.07-.05.17,0,.31s.07.2.21.17.16-.11.09-.26-.17-.17-.19-.24.17-.21.44,0a.58.58,0,0,1,.26.49.63.63,0,0,1-1.13.32.58.58,0,0,1,0-.55C114.26,109.41,114.51,109.42,114.51,109.49Z" fill="#263238"/><path d="M105.67,109.49c0,.07,0,.17,0,.31s.08.2.22.17.15-.11.09-.26-.17-.17-.19-.24.17-.21.44,0a.58.58,0,0,1,.26.49.62.62,0,0,1-.45.55.61.61,0,0,1-.68-.23.58.58,0,0,1,0-.55C105.42,109.41,105.67,109.42,105.67,109.49Z" fill="#263238"/><path d="M123.35,156c0,.07,0,.17,0,.31s.07.2.21.17.16-.11.09-.26-.17-.17-.19-.24.17-.2.44,0a.59.59,0,0,1,.26.49.63.63,0,0,1-1.13.32.56.56,0,0,1,0-.54C123.1,155.94,123.35,156,123.35,156Z" fill="#263238"/><path d="M114.51,156c0,.07-.05.17,0,.31s.07.2.21.17.16-.11.09-.26-.17-.17-.19-.24.17-.2.44,0a.59.59,0,0,1,.26.49.62.62,0,0,1-.45.55.6.6,0,0,1-.68-.23.56.56,0,0,1,0-.54C114.26,155.94,114.51,156,114.51,156Z" fill="#263238"/><path d="M105.67,156c0,.07,0,.17,0,.31s.08.2.22.17.15-.11.09-.26-.17-.17-.19-.24.17-.2.44,0a.59.59,0,0,1,.26.49.62.62,0,0,1-.45.55.6.6,0,0,1-.68-.23.56.56,0,0,1,0-.54C105.42,155.94,105.67,156,105.67,156Z" fill="#263238"/><path d="M123.35,207.08c0,.06,0,.16,0,.3s.07.2.21.17.16-.11.09-.26-.17-.17-.19-.24.17-.2.44,0a.56.56,0,0,1,.26.48.6.6,0,0,1-.45.55.61.61,0,0,1-.68-.22.58.58,0,0,1,0-.55C123.1,207,123.35,207,123.35,207.08Z" fill="#263238"/><path d="M114.51,207.08c0,.06-.05.16,0,.3s.07.2.21.17.16-.11.09-.26-.17-.17-.19-.24.17-.2.44,0a.56.56,0,0,1,.26.48.63.63,0,0,1-1.13.33.58.58,0,0,1,0-.55C114.26,207,114.51,207,114.51,207.08Z" fill="#263238"/><path d="M105.67,207.08c0,.06,0,.16,0,.3s.08.2.22.17.15-.11.09-.26-.17-.17-.19-.24.17-.2.44,0a.56.56,0,0,1,.26.48.63.63,0,0,1-1.13.33.58.58,0,0,1,0-.55C105.42,207,105.67,207,105.67,207.08Z" fill="#263238"/><path d="M123.35,262.73c0,.07,0,.17,0,.31s.07.2.21.17.16-.11.09-.26-.17-.17-.19-.24.17-.2.44,0a.57.57,0,0,1-.19,1,.6.6,0,0,1-.68-.23.56.56,0,0,1,0-.54C123.1,262.65,123.35,262.67,123.35,262.73Z" fill="#263238"/><path d="M114.51,262.73c0,.07-.05.17,0,.31s.07.2.21.17.16-.11.09-.26-.17-.17-.19-.24.17-.2.44,0a.59.59,0,0,1,.26.49.61.61,0,0,1-.45.55.6.6,0,0,1-.68-.23.56.56,0,0,1,0-.54C114.26,262.65,114.51,262.67,114.51,262.73Z" fill="#263238"/><polygon points="145.18 317.99 144.92 325.46 91.45 333.27 91.68 319.65 145.18 317.99" fill="#263238"/><path d="M72.86,0S46.11,31.27,45.39,60.38c-.7,28.28,0,106.52,0,106.52v95.32h55V67.66s-.5-11.51-5.49-29.17C90.25,22.29,72.86,0,72.86,0Z" fill="#33c"/><path d="M100.31,85.08c0,.14-12.36.26-27.6.26s-27.61-.12-27.61-.26,12.36-.26,27.61-.26S100.31,84.93,100.31,85.08Z" fill="#263238"/><path d="M48.48,139a.65.65,0,0,1,0,.1v.08s.05,0-.06,0h0v0h.06v.19h-.09c-.12-2.05-.21-13.32-.21-26.91,0-7.52.05-14.32.07-19.34,0-2.42.07-4.41.09-5.86,0-.65,0-1.17,0-1.6a2,2,0,0,1,.06-.55,2.39,2.39,0,0,1,.05.55c0,.43,0,1,0,1.6,0,1.45.05,3.44.08,5.86,0,5,.05,11.82.08,19.34,0,13.59-.1,24.86-.22,26.91h-.09v-.19h.07v0h0c-.12,0,0,0-.06,0v-.08C48.46,139.05,48.47,139,48.48,139Z" fill="#263238"/><path d="M52.42,139.34c-.14,0-.26-12.15-.26-27.13s.12-27.13.26-27.13.26,12.14.26,27.13S52.56,139.34,52.42,139.34Z" fill="#263238"/><path d="M56.47,139.34c-.14,0-.28-12.15-.31-27.13s.06-27.13.2-27.13.29,12.14.32,27.13S56.62,139.34,56.47,139.34Z" fill="#263238"/><path d="M60.31,139.34c-.15,0-.26-12.15-.26-27.13s.11-27.13.26-27.13.26,12.14.26,27.13S60.45,139.34,60.31,139.34Z" fill="#263238"/><path d="M64.25,140.6c-.14,0-.26-12.43-.26-27.76s.12-27.76.26-27.76.26,12.42.26,27.76S64.39,140.6,64.25,140.6Z" fill="#263238"/><path d="M68.19,140.6c-.14,0-.26-12.43-.26-27.76s.12-27.76.26-27.76.26,12.42.26,27.76S68.34,140.6,68.19,140.6Z" fill="#263238"/><path d="M72.14,140.6c-.15,0-.26-12.43-.26-27.76s.11-27.76.26-27.76.26,12.42.26,27.76S72.28,140.6,72.14,140.6Z" fill="#263238"/><path d="M76.08,140.6c-.14,0-.26-12.43-.26-27.76s.12-27.76.26-27.76.26,12.42.26,27.76S76.22,140.6,76.08,140.6Z" fill="#263238"/><path d="M80,140.6c-.14,0-.26-12.43-.26-27.76s.12-27.76.26-27.76.26,12.42.26,27.76S80.17,140.6,80,140.6Z" fill="#263238"/><path d="M84.16,139.34c-.14,0-.3-12.15-.36-27.13s0-27.13.17-27.13.3,12.14.36,27.13S84.31,139.34,84.16,139.34Z" fill="#263238"/><path d="M87.91,139.34a1.84,1.84,0,0,1,0-.55c0-.42,0-.95,0-1.59,0-1.44,0-3.41-.08-5.81,0-5,0-11.72-.08-19.18S87.71,98,87.73,93c0-2.4.06-4.36.08-5.81,0-.64,0-1.16,0-1.58a1.84,1.84,0,0,1,0-.55,1.84,1.84,0,0,1,0,.55c0,.42,0,.94.05,1.58,0,1.45,0,3.41.08,5.81,0,5,0,11.73.08,19.19s-.06,14.2-.08,19.18c0,2.4-.06,4.37-.08,5.81,0,.64,0,1.17-.05,1.59A1.84,1.84,0,0,1,87.91,139.34Z" fill="#263238"/><path d="M91.85,139.34c-.14,0-.26-12.15-.26-27.13s.12-27.13.26-27.13.26,12.14.26,27.13S92,139.34,91.85,139.34Z" fill="#263238"/><path d="M95.8,139.34c-.15,0-.26-12.15-.26-27.13s.11-27.13.26-27.13.26,12.14.26,27.13S95.94,139.34,95.8,139.34Z" fill="#263238"/><path d="M99.74,139.34c-.14,0-.26-12.15-.26-27.13s.12-27.13.26-27.13.26,12.14.26,27.13S99.88,139.34,99.74,139.34Z" fill="#263238"/><path d="M100.31,139.34c0,.14-12.31.26-27.5.26s-27.5-.12-27.5-.26,12.31-.26,27.5-.26S100.31,139.19,100.31,139.34Z" fill="#263238"/><path d="M52.7,320.76,0,319.13s2-17.34,3.68-19c2.46-2.46,44.15-45.47,44.15-45.47s7.32-92.39,7.93-95S68,123.05,68.63,122.23s1.22-2.65,4.29-2.86,4.9,3.27,4.9,3.27,11.84,37.58,12.46,40.65L100,256.73c.16,1.13,42.45,45,43.42,47.12S145.15,318,145.15,318l-52.59,3.86Z" fill="#e0e0e0"/><path d="M90.25,162.13C88.52,155.71,78,122.35,78,122.35s-1.84-3.47-4.9-3.27-3.68,2-4.29,2.86-12.25,34.72-12.87,37.38c0,.24-.16,1.22-.32,2.81Z" fill="#f5f5f5"/><path d="M53.75,335.73l-.44-25.84,3-9.68-.17-78.54-.57-59.54H90.25l-.64,138.16,3.5,9.15v38.48H75l-.29-39.63a1.82,1.82,0,0,0-1.82-1.81h0a1.82,1.82,0,0,0-1.82,1.82l.08,39.62H53.91Z" fill="#f5f5f5"/><polygon points="0 319.13 0.26 326.59 53.73 334.41 53.5 320.79 0 319.13" fill="#263238"/><path d="M.66,314.47c0-.15,11.7-.26,26.12-.26s26.12.11,26.12.26-11.69.26-26.12.26S.66,314.61.66,314.47Z" fill="#263238"/><path d="M4.78,319.27a11.21,11.21,0,0,1,0-4.8,5.82,5.82,0,0,1,.26,2.4A5.82,5.82,0,0,1,4.78,319.27Z" fill="#263238"/><path d="M9.05,319.17a10.13,10.13,0,0,1,0-4.56,10.13,10.13,0,0,1,0,4.56Z" fill="#263238"/><path d="M13.9,319.47a12.15,12.15,0,0,1,0-5,12.15,12.15,0,0,1,0,5Z" fill="#263238"/><path d="M18.61,319.71a13.33,13.33,0,0,1,0-5.24,13.33,13.33,0,0,1,0,5.24Z" fill="#263238"/><path d="M23,319.85a14,14,0,0,1,0-5.38,14,14,0,0,1,0,5.38Z" fill="#263238"/><path d="M27.65,319.85a14,14,0,0,1,0-5.38,14,14,0,0,1,0,5.38Z" fill="#263238"/><path d="M32.27,319.85a14,14,0,0,1,0-5.38,14,14,0,0,1,0,5.38Z" fill="#263238"/><path d="M36.89,320.27a16.3,16.3,0,0,1,0-5.8,16.3,16.3,0,0,1,0,5.8Z" fill="#263238"/><path d="M41.51,320.41a17.09,17.09,0,0,1,0-5.94,17.09,17.09,0,0,1,0,5.94Z" fill="#263238"/><path d="M46.13,320.91a20.07,20.07,0,0,1,0-6.44,20.07,20.07,0,0,1,0,6.44Z" fill="#263238"/><path d="M50.75,319.85a4.05,4.05,0,0,1,.18,1.4l0,.34v.35h-.43l0-.81c0-.61,0-1.23,0-1.87a21.77,21.77,0,0,1,.26-4.79,22.53,22.53,0,0,1,.26,4.79c0,.64,0,1.26,0,1.87l0,.81h-.43v-.69C50.61,320.38,50.67,319.85,50.75,319.85Z" fill="#263238"/><circle cx="37.56" cy="302.91" r="6.9" fill="#33c"/><path d="M3,311.84c0-.55,1.76-8.93,1.76-8.93l44.28-46,.65-25.84-1.88,23.55L4.19,299.31a7.12,7.12,0,0,0-1.95,3.89L.47,314.61Z" fill="#263238"/><path d="M72.35,180c.15,0,.26,28.25.26,63.1s-.11,63.11-.26,63.11-.26-28.25-.26-63.11S72.21,180,72.35,180Z" fill="#263238"/><rect x="69.4" y="169.78" width="2.44" height="4.3" fill="#455a64"/><rect x="74.88" y="169.78" width="2.44" height="4.3" fill="#455a64"/><path d="M63,158.74l3.16,3.32H79.72l3.17-3.17s-3.31-3.34-10-3.34A17.08,17.08,0,0,0,63,158.74Z" fill="#263238"/><path d="M90.17,178.76c0,.14-7.7.26-17.19.26s-17.2-.12-17.2-.26,7.7-.26,17.2-.26S90.17,178.61,90.17,178.76Z" fill="#263238"/><path d="M84.82,143.92c0,.14-5.2.26-11.61.26s-11.61-.12-11.61-.26,5.2-.26,11.61-.26S84.82,143.77,84.82,143.92Z" fill="#263238"/><path d="M58.72,181.68c0,.07-.13.14-.18.3s0,.32.2.34.26-.12.23-.31-.15-.25-.14-.32.25-.14.47.15a.65.65,0,0,1,.08.6.69.69,0,0,1-1.29-.08.66.66,0,0,1,.15-.59C58.49,181.52,58.74,181.61,58.72,181.68Z" fill="#263238"/><path d="M62.18,181.68c0,.07-.13.14-.18.3s0,.32.2.34.26-.12.23-.31-.15-.25-.14-.32.25-.14.46.15a.62.62,0,0,1,.09.6.68.68,0,0,1-.67.4.67.67,0,0,1-.62-.48.63.63,0,0,1,.15-.59C61.94,181.52,62.2,181.61,62.18,181.68Z" fill="#263238"/><path d="M65.93,181.68c0,.07-.13.14-.18.3s0,.32.2.34.26-.12.23-.31-.15-.25-.14-.32.25-.14.46.15a.62.62,0,0,1,.09.6.68.68,0,0,1-.67.4.67.67,0,0,1-.62-.48.63.63,0,0,1,.15-.59C65.69,181.52,66,181.61,65.93,181.68Z" fill="#263238"/><path d="M69.68,181.68c0,.07-.13.14-.18.3s0,.32.2.34.26-.12.23-.31-.15-.25-.14-.32.25-.14.46.15a.62.62,0,0,1,.09.6.68.68,0,0,1-.67.4.67.67,0,0,1-.62-.48.63.63,0,0,1,.15-.59C69.44,181.52,69.7,181.61,69.68,181.68Z" fill="#263238"/><path d="M89.61,270.92c0,.14-7.5.26-16.76.26s-16.77-.12-16.77-.26,7.5-.26,16.77-.26S89.61,270.78,89.61,270.92Z" fill="#263238"/><path d="M90,211.4c0,.15-7.58.26-16.93.26s-16.93-.11-16.93-.26,7.58-.26,16.93-.26S90,211.26,90,211.4Z" fill="#263238"/><path d="M90,243.47c0,.14-7.49.26-16.73.26s-16.72-.12-16.72-.26,7.48-.26,16.72-.26S90,243.32,90,243.47Z" fill="#263238"/><path d="M70.63,310.13a71.82,71.82,0,0,1-8.72.26,71.93,71.93,0,0,1-8.73-.26,74.46,74.46,0,0,1,8.73-.26A74.35,74.35,0,0,1,70.63,310.13Z" fill="#263238"/><path d="M70.75,317.24a67.24,67.24,0,0,1-8.44.26,67,67,0,0,1-8.43-.26,69.37,69.37,0,0,1,8.43-.26A69.61,69.61,0,0,1,70.75,317.24Z" fill="#263238"/><path d="M71.1,323.32a73.54,73.54,0,0,1-8.67.26,73.4,73.4,0,0,1-8.67-.26,73.4,73.4,0,0,1,8.67-.26A73.54,73.54,0,0,1,71.1,323.32Z" fill="#263238"/><path d="M70.86,329.86a70.4,70.4,0,0,1-8.49.26,70.4,70.4,0,0,1-8.49-.26,66.77,66.77,0,0,1,8.49-.27A66.77,66.77,0,0,1,70.86,329.86Z" fill="#263238"/><path d="M70.86,335.83a70.4,70.4,0,0,1-8.49.26,70.4,70.4,0,0,1-8.49-.26,68,68,0,0,1,8.49-.26A68,68,0,0,1,70.86,335.83Z" fill="#263238"/><path d="M70.86,341.8a70.4,70.4,0,0,1-8.49.26,70.4,70.4,0,0,1-8.49-.26,68,68,0,0,1,8.49-.26A68,68,0,0,1,70.86,341.8Z" fill="#263238"/><path d="M92.36,310.13a71.93,71.93,0,0,1-8.73.26,71.69,71.69,0,0,1-8.72-.26,74.21,74.21,0,0,1,8.72-.26A74.46,74.46,0,0,1,92.36,310.13Z" fill="#263238"/><path d="M92.47,317.24a67,67,0,0,1-8.43.26,67.24,67.24,0,0,1-8.44-.26A69.61,69.61,0,0,1,84,317,69.37,69.37,0,0,1,92.47,317.24Z" fill="#263238"/><path d="M92.82,323.32a73.4,73.4,0,0,1-8.67.26,73.29,73.29,0,0,1-8.66-.26,73.29,73.29,0,0,1,8.66-.26A73.4,73.4,0,0,1,92.82,323.32Z" fill="#263238"/><path d="M92.59,329.86a70.4,70.4,0,0,1-8.49.26,70.64,70.64,0,0,1-8.5-.26,67,67,0,0,1,8.5-.27A66.77,66.77,0,0,1,92.59,329.86Z" fill="#263238"/><path d="M92.59,335.83a70.4,70.4,0,0,1-8.49.26,70.64,70.64,0,0,1-8.5-.26,68.24,68.24,0,0,1,8.5-.26A68,68,0,0,1,92.59,335.83Z" fill="#263238"/><path d="M92.59,341.8a70.4,70.4,0,0,1-8.49.26,70.64,70.64,0,0,1-8.5-.26,68.24,68.24,0,0,1,8.5-.26A68,68,0,0,1,92.59,341.8Z" fill="#263238"/><path d="M74.35,157.45c.08.12-.86.83-2.1,1.58a6.5,6.5,0,0,1-2.37,1.13,7,7,0,0,1,2.1-1.58A6.65,6.65,0,0,1,74.35,157.45Z" fill="#fff"/><path d="M76,157.59c.12.15-.73.81-1.83,1.49s-2.06,1.12-2.14,1,.77-.76,1.87-1.44A7.14,7.14,0,0,1,76,157.59Z" fill="#fff"/><path d="M55.72,160c.15,0,.37,31.31.51,69.91s.12,69.92,0,69.92-.37-31.3-.5-69.92S55.58,160,55.72,160Z" fill="#263238"/><path d="M89.61,299.48c-.14,0-.11-29.44.06-65.74S90.1,168,90.25,168s.11,29.44-.06,65.76S89.76,299.48,89.61,299.48Z" fill="#263238"/><path d="M144.52,314.56c0,.15-11.7.26-26.12.26s-26.12-.11-26.12-.26,11.69-.26,26.12-.26S144.52,314.42,144.52,314.56Z" fill="#263238"/><path d="M140.4,319.37a5.82,5.82,0,0,1-.26-2.4,5.89,5.89,0,0,1,.26-2.41,5.89,5.89,0,0,1,.26,2.41A5.82,5.82,0,0,1,140.4,319.37Z" fill="#263238"/><path d="M136.13,319.27a10.13,10.13,0,0,1,0-4.56,10.13,10.13,0,0,1,0,4.56Z" fill="#263238"/><path d="M131.28,319.57a12.2,12.2,0,0,1,0-5,12.2,12.2,0,0,1,0,5Z" fill="#263238"/><path d="M126.57,319.81a6.67,6.67,0,0,1-.26-2.62,6.74,6.74,0,0,1,.26-2.63,7,7,0,0,1,.26,2.63A6.9,6.9,0,0,1,126.57,319.81Z" fill="#263238"/><path d="M122.15,320a14.1,14.1,0,0,1,0-5.39,14.1,14.1,0,0,1,0,5.39Z" fill="#263238"/><path d="M117.53,320a14.1,14.1,0,0,1,0-5.39,14.1,14.1,0,0,1,0,5.39Z" fill="#263238"/><path d="M112.91,320a14.1,14.1,0,0,1,0-5.39,14.1,14.1,0,0,1,0,5.39Z" fill="#263238"/><path d="M108.29,321a20.13,20.13,0,0,1,0-6.45,20.13,20.13,0,0,1,0,6.45Z" fill="#263238"/><path d="M103.67,321.39a22.56,22.56,0,0,1,0-6.83,22.56,22.56,0,0,1,0,6.83Z" fill="#263238"/><path d="M98.15,321.86a25.75,25.75,0,0,1,0-7.3,25.75,25.75,0,0,1,0,7.3Z" fill="#263238"/><path d="M142.26,310.5l-.79-6.18L98,258.36l-.49-25.06,2.5,23.57,41.89,44.64a7.13,7.13,0,0,1,2,3.88l.92,7.49Z" fill="#263238"/><rect x="97.53" y="302.91" width="20" height="5.39" fill="#33c"/><path d="M72.86,0c.14,0,.29,18.9.32,42.21S73.13,84.42,73,84.42s-.29-18.9-.33-42.21S72.71,0,72.86,0Z" fill="#263238"/><path d="M74.8,79.35c0-.06.25-.21.6,0a.84.84,0,0,1,.31.66.82.82,0,1,1-1.61-.25c.14-.41.46-.45.47-.38s-.11.2-.1.45a.38.38,0,1,0,.67-.21C75,79.45,74.81,79.42,74.8,79.35Z" fill="#263238"/><path d="M74.8,65.19c0-.06.25-.21.6,0a.8.8,0,0,1,.31.66.82.82,0,0,1-.59.71.79.79,0,0,1-.89-.25.83.83,0,0,1-.13-.72c.14-.4.46-.44.47-.38s-.11.21-.1.45.17.51.49.41.33-.4.18-.62S74.81,65.27,74.8,65.19Z" fill="#263238"/><path d="M74.8,51c0-.06.25-.21.6.05a.8.8,0,0,1,.31.66.82.82,0,0,1-.59.71.81.81,0,0,1-.89-.25.83.83,0,0,1-.13-.72c.14-.41.46-.44.47-.38s-.11.2-.1.45.17.51.49.4a.37.37,0,0,0,.18-.61C75,51.14,74.81,51.11,74.8,51Z" fill="#263238"/><path d="M74.8,36.89c0-.06.25-.21.6,0a.84.84,0,0,1,.31.66.82.82,0,1,1-1.61-.25c.14-.41.46-.45.47-.38s-.11.2-.1.45a.38.38,0,1,0,.67-.21C75,37,74.81,37,74.8,36.89Z" fill="#263238"/><path d="M74.8,22.73c0-.06.25-.21.6.05a.82.82,0,0,1,.31.66.84.84,0,0,1-.59.72.78.78,0,0,1-1-1c.14-.41.46-.45.47-.38s-.11.2-.1.45a.36.36,0,0,0,.49.4c.33-.1.33-.4.18-.62S74.81,22.81,74.8,22.73Z" fill="#263238"/><path d="M74.8,8.58c0-.06.25-.21.6.05a.8.8,0,0,1,.31.66.82.82,0,0,1-.59.71.79.79,0,0,1-.89-.25A.83.83,0,0,1,74.1,9c.14-.4.46-.44.47-.38s-.11.2-.1.45.17.51.49.41.33-.4.18-.62S74.81,8.66,74.8,8.58Z" fill="#263238"/><path d="M59.58,24.11a10.57,10.57,0,0,1-.81,1.51c-.56.94-1.32,2.33-2.21,4.07s-1.88,3.85-2.87,6.24S51.78,41,51,43.87s-1.42,5.65-1.87,8.19-.72,4.86-.87,6.81S48,62.4,47.93,63.5a9.3,9.3,0,0,1-.11,1.7,12.93,12.93,0,0,1-.09-1.7c0-1.1,0-2.69.11-4.66A68.75,68.75,0,0,1,48.61,52a77.23,77.23,0,0,1,1.84-8.26,77.72,77.72,0,0,1,2.8-8c1-2.39,2-4.5,3-6.22s1.75-3.1,2.37-4A10.4,10.4,0,0,1,59.58,24.11Z" fill="#fff"/><path d="M64.23,15.88c.12.07-.19.88-.69,1.81s-1,1.63-1.15,1.56.18-.88.69-1.81S64.1,15.81,64.23,15.88Z" fill="#fff"/><path d="M49.83,137.19c-.15,0-.26-11.11-.26-24.81s.11-24.82.26-24.82.26,11.11.26,24.82S50,137.19,49.83,137.19Z" fill="#fff"/><path d="M53.5,121.57a55.12,55.12,0,0,1-.26-7.51,55,55,0,0,1,.26-7.5,52.19,52.19,0,0,1,.27,7.5A52.28,52.28,0,0,1,53.5,121.57Z" fill="#fff"/><path d="M57.79,116.36a7.58,7.58,0,0,1-.26-2.75,7.62,7.62,0,0,1,.26-2.76,7.37,7.37,0,0,1,.26,2.76A7.33,7.33,0,0,1,57.79,116.36Z" fill="#fff"/><path d="M47.68,204c-.14,0-.26-13.1-.26-29.26s.12-29.25.26-29.25.26,13.09.26,29.25S47.83,204,47.68,204Z" fill="#fff"/></g></g></svg>