<svg xmlns="http://www.w3.org/2000/svg" width="75.99" height="66.48" viewBox="0 0 75.99 66.48"><g id="Layer_2" data-name="Layer 2"><g id="Ñëîé_1" data-name="Ñëîé 1"><rect x="9.4" y="52.35" width="32.88" height="8.12" fill="#141d3a"/><path d="M12.43,60a5.91,5.91,0,1,1-5.9-5.91A5.91,5.91,0,0,1,12.43,60Z" fill="#1a315b"/><path d="M6.52,66.48A6.53,6.53,0,1,1,13.05,60,6.53,6.53,0,0,1,6.52,66.48Zm0-11.81A5.29,5.29,0,1,0,11.82,60,5.3,5.3,0,0,0,6.52,54.67Z" fill="#215ca3"/><path d="M25.93,60A5.91,5.91,0,1,1,20,54.05,5.92,5.92,0,0,1,25.93,60Z" fill="#1a315b"/><path d="M20,66.48A6.53,6.53,0,1,1,26.55,60,6.53,6.53,0,0,1,20,66.48Zm0-11.81A5.29,5.29,0,1,0,25.31,60,5.29,5.29,0,0,0,20,54.67Z" fill="#215ca3"/><path d="M39.43,60a5.91,5.91,0,1,1-5.91-5.91A5.92,5.92,0,0,1,39.43,60Z" fill="#1a315b"/><path d="M33.52,66.48A6.53,6.53,0,1,1,40,60,6.54,6.54,0,0,1,33.52,66.48Zm0-11.81A5.29,5.29,0,1,0,38.81,60,5.29,5.29,0,0,0,33.52,54.67Z" fill="#215ca3"/><path d="M52.92,60A5.91,5.91,0,1,1,47,54.05,5.91,5.91,0,0,1,52.92,60Z" fill="#1a315b"/><path d="M47,66.48A6.53,6.53,0,1,1,53.54,60,6.53,6.53,0,0,1,47,66.48Zm0-11.81A5.29,5.29,0,1,0,52.31,60,5.3,5.3,0,0,0,47,54.67Z" fill="#215ca3"/><path d="M7.66,60a1.14,1.14,0,1,1-1.13-1.13A1.14,1.14,0,0,1,7.66,60Z" fill="#2a517f"/><path d="M21.15,60A1.13,1.13,0,1,1,20,58.83,1.13,1.13,0,0,1,21.15,60Z" fill="#2a517f"/><path d="M34.65,60a1.13,1.13,0,0,1-2.26,0,1.13,1.13,0,1,1,2.26,0Z" fill="#2a517f"/><path d="M48.14,60A1.13,1.13,0,1,1,47,58.83,1.13,1.13,0,0,1,48.14,60Z" fill="#2a517f"/><path d="M43.84,43.65l-2.1-1.29L53.09,24a3.75,3.75,0,0,1,5.22-1.19l14,8.9L71,33.77l-14-8.9a1.25,1.25,0,0,0-1-.17,1.27,1.27,0,0,0-.81.58Z" fill="#1a315b"/><path d="M74.75,40.85a1.23,1.23,0,0,1-1.23-1.23V35.73a1.9,1.9,0,0,0-3.8,0v3.89a1.24,1.24,0,0,1-2.47,0V35.73a4.37,4.37,0,0,1,8.74,0v3.89A1.23,1.23,0,0,1,74.75,40.85Z" fill="#1a315b"/><rect x="35.09" y="7.44" width="3.08" height="27.96" fill="#1a315b"/><polygon points="18.36 25.2 18.29 25.13 18.29 25.02 18.19 25.02 13.36 20.19 11.98 21.57 16.34 25.94 16.34 35.4 18.29 35.4 18.29 25.27 18.36 25.2" fill="#182444"/><polygon points="38.18 11.04 35.09 11.04 33.52 7.44 39.43 7.44 38.18 11.04" fill="#141d3a"/><rect x="4.68" y="39.92" width="41.21" height="8.32" fill="#1a315b"/><polygon points="42.29 52.35 9.4 52.35 4.67 48.24 45.88 48.24 42.29 52.35" fill="#182444"/><rect x="12.9" y="33.22" width="26.53" height="6.7" fill="#193866"/><path d="M17.38,11c2.19,2.19.61,7.31-3.52,11.44S4.6,28.19,2.42,26Z" fill="#193866"/><rect x="27.07" y="0.54" width="18.94" height="7.44" rx="3.3" fill="#182444"/><path d="M42.71,1.07a2.77,2.77,0,0,1,2.76,2.77v.84a2.76,2.76,0,0,1-2.76,2.76H30.38a2.76,2.76,0,0,1-2.77-2.76V3.84a2.77,2.77,0,0,1,2.77-2.77Zm0-1.07H30.38a3.84,3.84,0,0,0-3.84,3.84v.84a3.85,3.85,0,0,0,3.84,3.84H42.71a3.85,3.85,0,0,0,3.84-3.84V3.84A3.85,3.85,0,0,0,42.71,0Z" fill="#193866"/><path d="M33.52,4.26A1.92,1.92,0,1,1,31.6,2.34,1.92,1.92,0,0,1,33.52,4.26Z" fill="#b3eaff"/><path d="M31.6,6.71a2.46,2.46,0,1,1,2.45-2.45A2.45,2.45,0,0,1,31.6,6.71Zm0-3.83A1.38,1.38,0,1,0,33,4.26,1.38,1.38,0,0,0,31.6,2.88Z" fill="#193866"/><path d="M43,4.26A1.92,1.92,0,1,1,41.1,2.34,1.92,1.92,0,0,1,43,4.26Z" fill="#b3eaff"/><path d="M41.1,6.71a2.46,2.46,0,1,1,2.46-2.45A2.45,2.45,0,0,1,41.1,6.71Zm0-3.83a1.38,1.38,0,1,0,1.39,1.38A1.38,1.38,0,0,0,41.1,2.88Z" fill="#193866"/><rect x="4.68" y="39.92" width="40.8" height="1.94" fill="#f44c1a"/></g></g></svg>