<svg xmlns="http://www.w3.org/2000/svg" width="73.8" height="72.47" viewBox="0 0 73.8 72.47"><g id="Layer_2" data-name="Layer 2"><g id="Ñëîé_1" data-name="Ñëîé 1"><rect x="37.67" y="22.33" width="4.52" height="25.33" transform="translate(-13.05 38.48) rotate(-45)" fill="#111832"/><rect x="23.41" y="23.42" width="9.78" height="10.61" transform="translate(-12.02 28.42) rotate(-45)" fill="#487199"/><path d="M28.59,36.5l-8.08-8.07L28,20.94,36.08,29Zm-6.93-8.07,6.93,6.92L34.93,29,28,22.09Z" fill="#182444"/><rect x="15.99" y="16" width="9.78" height="10.61" transform="translate(-8.95 21.01) rotate(-45)" fill="#487199"/><path d="M21.17,29.09,13.1,21l7.49-7.49,8.07,8.08ZM14.25,21l6.92,6.93,6.35-6.34-6.93-6.93Z" fill="#182444"/><rect x="8.58" y="8.59" width="9.78" height="10.61" transform="translate(-5.88 13.59) rotate(-45)" fill="#487199"/><path d="M13.76,21.67,5.69,13.6l7.49-7.49,8.07,8.07ZM6.83,13.6l6.93,6.92,6.34-6.34L13.18,7.26Z" fill="#182444"/><rect x="55.02" y="55.03" width="9.78" height="10.61" transform="translate(-25.11 60.03) rotate(-45)" fill="#487199"/><path d="M60.2,68.11,52.13,60l7.49-7.49,8.07,8.07ZM53.27,60,60.2,67l6.34-6.34L59.62,53.7Z" fill="#182444"/><rect x="47.6" y="47.61" width="9.78" height="10.61" transform="translate(-22.04 52.62) rotate(-45)" fill="#487199"/><path d="M52.79,60.7l-8.08-8.07,7.49-7.5,8.08,8.08Zm-6.93-8.07,6.93,6.92,6.34-6.34L52.2,46.28Z" fill="#182444"/><rect x="40.19" y="40.2" width="9.78" height="10.61" transform="translate(-18.97 45.2) rotate(-45)" fill="#487199"/><path d="M45.37,53.28,37.3,45.21l7.49-7.49,8.07,8.07Zm-6.92-8.07,6.92,6.93,6.34-6.35-6.92-6.92Z" fill="#182444"/><rect x="29.51" y="17.31" width="9.78" height="10.61" transform="translate(-5.91 30.95) rotate(-45)" fill="#487199"/><path d="M34.7,30.39l-8.08-8.07,7.49-7.49,8.08,8.07Zm-6.93-8.07,6.93,6.92L41,22.9,34.11,16Z" fill="#182444"/><rect x="22.1" y="9.89" width="9.78" height="10.61" transform="translate(-2.84 23.54) rotate(-45)" fill="#487199"/><path d="M27.28,23,19.21,14.9,26.7,7.41l8.07,8.08ZM20.36,14.9l6.92,6.93,6.34-6.34L26.7,8.56Z" fill="#182444"/><rect x="14.69" y="2.48" width="9.78" height="10.61" transform="translate(0.23 16.12) rotate(-45)" fill="#487199"/><path d="M19.87,15.56,11.79,7.49,19.29,0l8.07,8.07ZM12.94,7.49l6.93,6.93,6.34-6.35L19.29,1.15Z" fill="#182444"/><rect x="61.13" y="48.92" width="9.78" height="10.61" transform="translate(-19.01 62.57) rotate(-45)" fill="#487199"/><path d="M66.31,62l-8.07-8.07,7.49-7.49,8.07,8.07Zm-6.93-8.07,6.93,6.93,6.34-6.35-6.92-6.92Z" fill="#182444"/><rect x="53.71" y="41.51" width="9.78" height="10.61" transform="translate(-15.93 55.15) rotate(-45)" fill="#487199"/><path d="M58.89,54.59l-8.07-8.07L58.31,39l8.07,8.07ZM52,46.52l6.92,6.92,6.35-6.34-6.93-6.93Z" fill="#182444"/><rect x="46.3" y="34.09" width="9.78" height="10.61" transform="translate(-12.86 47.73) rotate(-45)" fill="#487199"/><path d="M51.48,47.18,43.41,39.1l7.49-7.49L59,39.69ZM44.55,39.1,51.48,46l6.34-6.34L50.9,32.76Z" fill="#182444"/><path d="M23.93,63.09a9.35,9.35,0,0,0,0-13.22l-6.61,6.61Z" fill="#2e587a"/><path d="M10.71,49.87l6.61,6.61,6.61-6.61A9.35,9.35,0,0,0,10.71,49.87Z" fill="#487199"/><path d="M50.14,15.59,23.89,41.84a5.66,5.66,0,0,0,0,8l0,0L54.18,19.62Z" fill="#193866"/><path d="M23.93,49.87l0,0a5.66,5.66,0,0,0,8,0L58.21,23.65l-4-4Z" fill="#16274c"/><path d="M58.39,15.41l-4.21,4.21,4,4,.27.28a3,3,0,0,0,4.17,0l.05,0a3,3,0,0,0,0-4.17Z" fill="#2e587a"/><path d="M58.39,15.41,54.08,11.1a3,3,0,0,0-4.17,0l0,.05a3,3,0,0,0,0,4.17l.27.27,4,4Z" fill="#487199"/><path d="M15.18,61.84a4.55,4.55,0,0,1-4.55-4.54.41.41,0,1,1,.81,0A3.74,3.74,0,0,0,15.18,61a.41.41,0,0,1,0,.81Z" fill="#e95463"/><path d="M15.18,66.91A9.62,9.62,0,0,1,5.56,57.3a.41.41,0,1,1,.81,0,8.82,8.82,0,0,0,8.81,8.8.41.41,0,0,1,0,.81Z" fill="#e95463"/><path d="M15.18,72.47A15.19,15.19,0,0,1,0,57.3a.41.41,0,1,1,.81,0A14.38,14.38,0,0,0,15.18,71.66a.41.41,0,0,1,0,.81Z" fill="#e95463"/></g></g></svg>