<svg xmlns="http://www.w3.org/2000/svg" width="97.79" height="97.8" viewBox="0 0 97.79 97.8"><g id="Layer_2" data-name="Layer 2"><g id="Layer_1-2" data-name="Layer 1"><rect x="55.14" y="57.5" width="7.93" height="3.19" transform="translate(-24.48 59.1) rotate(-45)" fill="#076985"/><rect x="34.5" y="36.87" width="7.93" height="3.19" transform="translate(-15.93 38.48) rotate(-45.02)" fill="#5cc6f1"/><rect x="59.95" y="31.82" width="7.93" height="3.19" transform="translate(-4.9 54.99) rotate(-45.01)" fill="#5cc6f1"/><path d="M47.23,68.71a4.4,4.4,0,0,1-6.23,0L28.85,56.57a4.41,4.41,0,0,1,0-6.23L50.34,28.85a4.41,4.41,0,0,1,6.23,0L68.71,41a4.4,4.4,0,0,1,0,6.23Z" fill="#fff"/><path d="M86.07,32.67A15,15,0,1,1,64.89,11.5" fill="#fff"/><path d="M64.89,32.68a15,15,0,0,0,21.18,0L75.45,22.06" fill="#5cc6f1"/><path d="M85,17.55a3.52,3.52,0,1,0-5.82-1.41L76,19.23l2.26,2.25,3.08-3.08A3.5,3.5,0,0,0,85,17.55Z" fill="#fff"/><path d="M77.21,20.4l1.09,1.08,3.08-3.08A3.51,3.51,0,0,0,85,12.57" fill="#5cc6f1"/><path d="M88.24,30.49a1.76,1.76,0,0,0,0-2.49L69.56,9.32a1.76,1.76,0,0,0-2.49,0L64.89,11.5,86.07,32.67Z" fill="#5cc6f1"/><path d="M75.45,22.06,86.07,32.67l2.17-2.18a1.76,1.76,0,0,0,0-2.49l-9.32-9.31" fill="#076985"/><path d="M62.66,35l6,6a4.4,4.4,0,0,1,0,6.23L47.23,68.71a4.4,4.4,0,0,1-6.23,0l-6.16-6.15" fill="#5cc6f1"/><path d="M47.14,68.63a4.39,4.39,0,0,1-6.22,0L28.77,56.48a4.3,4.3,0,0,1,.08-6.14" fill="#5cc6f1"/><path d="M38,59.45l-3.12,3.11L41,68.71a4.41,4.41,0,0,0,6.23,0Z" fill="#076985"/><path d="M12.5,1.29a4.41,4.41,0,0,1,6.23,0L43.18,25.74a4.4,4.4,0,0,1,0,6.22L32,43.17a4.39,4.39,0,0,1-6.22,0L1.29,18.73a4.41,4.41,0,0,1,0-6.23Z" fill="#5cc6f1"/><path d="M17.38,5.56h5.25A1.45,1.45,0,0,1,24.08,7V18.46a1.45,1.45,0,0,1-1.45,1.45H17.38a1.46,1.46,0,0,1-1.46-1.46V7a1.46,1.46,0,0,1,1.46-1.46Z" transform="translate(-3.15 17.88) rotate(-45)" fill="#fff"/><path d="M29.1,17.28h5.25a1.46,1.46,0,0,1,1.46,1.46V30.18a1.46,1.46,0,0,1-1.46,1.46H29.1a1.46,1.46,0,0,1-1.46-1.46V18.74A1.45,1.45,0,0,1,29.1,17.28Z" transform="translate(-8 29.6) rotate(-45)" fill="#fff"/><path d="M9.52,13.08a1.46,1.46,0,0,1,2.06,0l8.09,8.09a1.47,1.47,0,0,1,0,2.07L16,26.94a1.46,1.46,0,0,1-2.06,0L5.81,18.85a1.45,1.45,0,0,1,0-2.06Z" fill="#fff"/><rect x="20.38" y="24.55" width="8.16" height="14.36" rx="1.46" transform="translate(-15.27 26.59) rotate(-45)" fill="#fff"/><path d="M65.83,54.62a4.41,4.41,0,0,1,6.23,0L96.51,79.07a4.39,4.39,0,0,1,0,6.22L85.3,96.5a4.41,4.41,0,0,1-6.23,0L54.62,72.06a4.41,4.41,0,0,1,0-6.23Z" fill="#076985"/><path d="M70.11,59.14a1.45,1.45,0,0,1,2.06,0l8.09,8.09a1.45,1.45,0,0,1,0,2.06L76.56,73a1.47,1.47,0,0,1-2.07,0l-8.08-8.09a1.45,1.45,0,0,1,0-2.06Z" fill="#5cc6f1"/><path d="M81.83,70.86a1.45,1.45,0,0,1,2.06,0L92,79A1.46,1.46,0,0,1,92,81l-3.72,3.71a1.44,1.44,0,0,1-2,0l-8.1-8.09a1.46,1.46,0,0,1,0-2.06Z" fill="#5cc6f1"/><path d="M62.85,66.41a1.45,1.45,0,0,1,2.06,0L73,74.49a1.47,1.47,0,0,1,0,2.07l-3.71,3.71a1.45,1.45,0,0,1-2.06,0l-8.09-8.09a1.45,1.45,0,0,1,0-2.06Z" fill="#5cc6f1"/><rect x="73.71" y="77.88" width="8.16" height="14.36" rx="1.46" transform="translate(-37.36 79.91) rotate(-45)" fill="#5cc6f1"/></g></g></svg>