<svg xmlns="http://www.w3.org/2000/svg" width="55.57" height="53.73" viewBox="0 0 55.57 53.73"><g id="Layer_2" data-name="Layer 2"><g id="Ñëîé_1" data-name="Ñëîé 1"><path d="M31.2,26.86A12.18,12.18,0,0,0,43.38,39V14.67A12.18,12.18,0,0,0,31.2,26.86Z" fill="#3c5177"/><path d="M43.38,14.67V39a12.19,12.19,0,1,0,0-24.37Z" fill="#182444"/><polygon points="7.66 0 7.66 1.06 46.94 16.26 46.94 15.2 7.66 0" fill="#3c5177"/><polygon points="7.66 2.02 46.94 17.98 46.94 16.26 7.66 1.06 7.66 2.02" fill="#1a2c51"/><polygon points="7.66 53.73 46.94 38.53 46.94 37.47 7.66 52.66 7.66 53.73" fill="#3c5177"/><polygon points="7.66 52.66 46.94 37.47 46.94 35.74 7.66 51.71 7.66 52.66" fill="#1a2c51"/><polygon points="46.94 28.74 0 27.72 0 26 46.94 24.97 46.94 28.74" fill="#1a2c51"/><rect y="26.55" width="47.19" height="0.62" fill="#3c5177"/></g></g></svg>