<svg xmlns="http://www.w3.org/2000/svg" width="80.04" height="38.81" viewBox="0 0 80.04 38.81"><g id="Layer_2" data-name="Layer 2"><g id="Ñëîé_1" data-name="Ñëîé 1"><path d="M40,38.81a19.66,19.66,0,0,0,10.82-3.26H40Z" fill="#111832"/><path d="M29.2,35.55A19.69,19.69,0,0,0,40,38.81h0V35.55Z" fill="#141d3a"/><path d="M58.77,15.59l.84.21A20.34,20.34,0,0,0,40,0V15.59Z" fill="#c0d0e2"/><path d="M40,15.59V0h0A20.34,20.34,0,0,0,20.43,15.8c.28-.07.56-.15.85-.21Z" fill="#d7e5f2"/><path d="M38,3.38a14.15,14.15,0,0,0-13.62,11Z" fill="#d7e5f2"/><path d="M24.36,14.84l-.11,0a.46.46,0,0,1-.35-.57A14.59,14.59,0,0,1,38,2.9a.49.49,0,0,1,.48.48.48.48,0,0,1-.48.48A13.62,13.62,0,0,0,24.83,14.47.48.48,0,0,1,24.36,14.84Z" fill="#fff"/><path d="M40,26.43h-2.3A.77.77,0,0,1,37,25.6v0a.77.77,0,0,1,.69-.82H40V15.59H21.28c-.29.06-.57.14-.85.21A54.13,54.13,0,0,0,.85,25.32a2.18,2.18,0,0,0,.61,3.79L4.28,30c4.78,1.5,11.9,3.57,20.36,5.55H40ZM26.58,25.6a.77.77,0,0,1-.69.83h-4.6a.76.76,0,0,1-.68-.83v0a.76.76,0,0,1,.68-.82h4.6a.77.77,0,0,1,.69.82Z" fill="#16274c"/><path d="M79.19,25.32A54,54,0,0,0,59.61,15.8l-.84-.21H40v9.17h2.3a.77.77,0,0,1,.69.82v0a.77.77,0,0,1-.69.83H40v9.12H55.4c8.46-2,15.58-4,20.37-5.55l2.81-.89A2.18,2.18,0,0,0,79.19,25.32Zm-19.75.28a.77.77,0,0,1-.69.83h-4.6a.77.77,0,0,1-.69-.83v0a.77.77,0,0,1,.69-.82h4.6a.77.77,0,0,1,.69.82Z" fill="#121a35"/><path d="M21.29,26.43h4.6a.77.77,0,0,0,.69-.83v0a.77.77,0,0,0-.69-.82h-4.6a.76.76,0,0,0-.68.82v0A.76.76,0,0,0,21.29,26.43Z" fill="#b23446"/><path d="M37.72,24.76a.77.77,0,0,0-.69.82v0a.77.77,0,0,0,.69.83h4.6A.77.77,0,0,0,43,25.6v0a.77.77,0,0,0-.69-.82Z" fill="#ff9a2c"/><path d="M54.15,24.76a.77.77,0,0,0-.69.82v0a.77.77,0,0,0,.69.83h4.6a.77.77,0,0,0,.69-.83v0a.77.77,0,0,0-.69-.82Z" fill="#b23446"/><path d="M9.46,26.43H4.87a.76.76,0,0,1-.69-.83v0a.76.76,0,0,1,.69-.82H9.46a.77.77,0,0,1,.69.82v0A.77.77,0,0,1,9.46,26.43Z" fill="#ff9a2c"/><path d="M75.18,26.43h-4.6a.77.77,0,0,1-.69-.83v0a.77.77,0,0,1,.69-.82h4.6a.76.76,0,0,1,.68.82v0A.76.76,0,0,1,75.18,26.43Z" fill="#ff9a2c"/></g></g></svg>