<svg xmlns="http://www.w3.org/2000/svg" width="98.59" height="57.32" viewBox="0 0 98.59 57.32"><g style="isolation:isolate"><g id="Layer_2" data-name="Layer 2"><g id="Layer_1-2" data-name="Layer 1"><path d="M18.91,30.38a30.39,30.39,0,0,1,60.77,0" fill="#7fb5d0"/><path d="M49.21,30.38H79.68A30.39,30.39,0,0,0,49.29,0" fill="#7fb5d0" style="mix-blend-mode:multiply"/><path d="M49.29,6.73c14.07,0,25.64,10.09,26.76,22.88a19.63,19.63,0,0,0,.1-2c0-13.75-12.05-24.93-26.86-24.93S22.44,13.82,22.44,27.57a19.63,19.63,0,0,0,.1,2C23.66,16.82,35.23,6.73,49.29,6.73Z" fill="#f2f2f2"/><polygon points="98.59 48.61 0 48.61 12.13 28.74 86.45 28.74 98.59 48.61" fill="#174897"/><polygon points="83.42 57.32 15.17 57.32 0 48.22 98.59 48.22 83.42 57.32" fill="#1d3869"/><path d="M19.2,39.05a2.9,2.9,0,1,1-2.9-2.9A2.91,2.91,0,0,1,19.2,39.05Z" fill="#febd11"/><path d="M16.3,36.15a2.91,2.91,0,0,1,0,5.81Z" fill="#c6942c"/><path d="M32.37,39.05a2.9,2.9,0,1,1-2.9-2.9A2.9,2.9,0,0,1,32.37,39.05Z" fill="#febd11"/><path d="M29.47,36.15a2.91,2.91,0,0,1,0,5.81Z" fill="#c6942c"/><path d="M45.55,39.05a2.9,2.9,0,1,1-2.9-2.9A2.91,2.91,0,0,1,45.55,39.05Z" fill="#febd11"/><path d="M42.65,36.15a2.91,2.91,0,0,1,0,5.81Z" fill="#c6942c"/><path d="M58.72,39.05a2.9,2.9,0,1,1-2.9-2.9A2.9,2.9,0,0,1,58.72,39.05Z" fill="#febd11"/><path d="M55.82,36.15a2.91,2.91,0,0,1,0,5.81Z" fill="#c6942c"/><path d="M71.9,39.05a2.9,2.9,0,1,1-2.9-2.9A2.91,2.91,0,0,1,71.9,39.05Z" fill="#febd11"/><path d="M69,36.15A2.91,2.91,0,0,1,69,42Z" fill="#c6942c"/><path d="M85.07,39.05a2.9,2.9,0,1,1-2.9-2.9A2.9,2.9,0,0,1,85.07,39.05Z" fill="#febd11"/><path d="M82.17,36.15a2.91,2.91,0,0,1,0,5.81Z" fill="#c6942c"/></g></g></g></svg>